<?xml version="1.0" encoding="utf-8" standalone="no"?>
<!DOCTYPE svg PUBLIC "-//W3C//DTD SVG 1.1//EN"
  "http://www.w3.org/Graphics/SVG/1.1/DTD/svg11.dtd">
<!-- Created with matplotlib (https://matplotlib.org/) -->
<svg height="288pt" version="1.1" viewBox="0 0 432 288" width="432pt" xmlns="http://www.w3.org/2000/svg" xmlns:xlink="http://www.w3.org/1999/xlink">
 <defs>
  <style type="text/css">
*{stroke-linecap:butt;stroke-linejoin:round;}
  </style>
 </defs>
 <g id="figure_1">
  <g id="patch_1">
   <path d="M 0 288 
L 432 288 
L 432 0 
L 0 0 
z
" style="fill:#ffffff;"/>
  </g>
  <g id="axes_1">
   <g id="patch_2">
    <path d="M 54 252 
L 388.8 252 
L 388.8 34.56 
L 54 34.56 
z
" style="fill:#eaeaf2;"/>
   </g>
   <g id="matplotlib.axis_1">
    <g id="xtick_1">
     <g id="line2d_1">
      <path clip-path="url(#p632e2e3af5)" d="M 69.218182 252 
L 69.218182 34.56 
" style="fill:none;stroke:#ffffff;stroke-linecap:round;"/>
     </g>
     <g id="text_1">
      <!-- 0 -->
      <defs>
       <path d="M 4.15625 35.296875 
Q 4.15625 48 6.765625 55.734375 
Q 9.375 63.484375 14.515625 67.671875 
Q 19.671875 71.875 27.484375 71.875 
Q 33.25 71.875 37.59375 69.546875 
Q 41.9375 67.234375 44.765625 62.859375 
Q 47.609375 58.5 49.21875 52.21875 
Q 50.828125 45.953125 50.828125 35.296875 
Q 50.828125 22.703125 48.234375 14.96875 
Q 45.65625 7.234375 40.5 3 
Q 35.359375 -1.21875 27.484375 -1.21875 
Q 17.140625 -1.21875 11.234375 6.203125 
Q 4.15625 15.140625 4.15625 35.296875 
z
M 13.1875 35.296875 
Q 13.1875 17.671875 17.3125 11.828125 
Q 21.4375 6 27.484375 6 
Q 33.546875 6 37.671875 11.859375 
Q 41.796875 17.71875 41.796875 35.296875 
Q 41.796875 52.984375 37.671875 58.78125 
Q 33.546875 64.59375 27.390625 64.59375 
Q 21.34375 64.59375 17.71875 59.46875 
Q 13.1875 52.9375 13.1875 35.296875 
z
" id="ArialMT-48"/>
      </defs>
      <g style="fill:#262626;" transform="translate(66.159666 269.373594)scale(0.11 -0.11)">
       <use xlink:href="#ArialMT-48"/>
      </g>
     </g>
    </g>
    <g id="xtick_2">
     <g id="line2d_2">
      <path clip-path="url(#p632e2e3af5)" d="M 130.212896 252 
L 130.212896 34.56 
" style="fill:none;stroke:#ffffff;stroke-linecap:round;"/>
     </g>
     <g id="text_2">
      <!-- 1 -->
      <defs>
       <path d="M 37.25 0 
L 28.46875 0 
L 28.46875 56 
Q 25.296875 52.984375 20.140625 49.953125 
Q 14.984375 46.921875 10.890625 45.40625 
L 10.890625 53.90625 
Q 18.265625 57.375 23.78125 62.296875 
Q 29.296875 67.234375 31.59375 71.875 
L 37.25 71.875 
z
" id="ArialMT-49"/>
      </defs>
      <g style="fill:#262626;" transform="translate(127.15438 269.373594)scale(0.11 -0.11)">
       <use xlink:href="#ArialMT-49"/>
      </g>
     </g>
    </g>
    <g id="xtick_3">
     <g id="line2d_3">
      <path clip-path="url(#p632e2e3af5)" d="M 191.207609 252 
L 191.207609 34.56 
" style="fill:none;stroke:#ffffff;stroke-linecap:round;"/>
     </g>
     <g id="text_3">
      <!-- 2 -->
      <defs>
       <path d="M 50.34375 8.453125 
L 50.34375 0 
L 3.03125 0 
Q 2.9375 3.171875 4.046875 6.109375 
Q 5.859375 10.9375 9.828125 15.625 
Q 13.8125 20.3125 21.34375 26.46875 
Q 33.015625 36.03125 37.109375 41.625 
Q 41.21875 47.21875 41.21875 52.203125 
Q 41.21875 57.421875 37.46875 61 
Q 33.734375 64.59375 27.734375 64.59375 
Q 21.390625 64.59375 17.578125 60.78125 
Q 13.765625 56.984375 13.71875 50.25 
L 4.6875 51.171875 
Q 5.609375 61.28125 11.65625 66.578125 
Q 17.71875 71.875 27.9375 71.875 
Q 38.234375 71.875 44.234375 66.15625 
Q 50.25 60.453125 50.25 52 
Q 50.25 47.703125 48.484375 43.546875 
Q 46.734375 39.40625 42.65625 34.8125 
Q 38.578125 30.21875 29.109375 22.21875 
Q 21.1875 15.578125 18.9375 13.203125 
Q 16.703125 10.84375 15.234375 8.453125 
z
" id="ArialMT-50"/>
      </defs>
      <g style="fill:#262626;" transform="translate(188.149094 269.373594)scale(0.11 -0.11)">
       <use xlink:href="#ArialMT-50"/>
      </g>
     </g>
    </g>
    <g id="xtick_4">
     <g id="line2d_4">
      <path clip-path="url(#p632e2e3af5)" d="M 252.202323 252 
L 252.202323 34.56 
" style="fill:none;stroke:#ffffff;stroke-linecap:round;"/>
     </g>
     <g id="text_4">
      <!-- 3 -->
      <defs>
       <path d="M 4.203125 18.890625 
L 12.984375 20.0625 
Q 14.5 12.59375 18.140625 9.296875 
Q 21.78125 6 27 6 
Q 33.203125 6 37.46875 10.296875 
Q 41.75 14.59375 41.75 20.953125 
Q 41.75 27 37.796875 30.921875 
Q 33.84375 34.859375 27.734375 34.859375 
Q 25.25 34.859375 21.53125 33.890625 
L 22.515625 41.609375 
Q 23.390625 41.5 23.921875 41.5 
Q 29.546875 41.5 34.03125 44.421875 
Q 38.53125 47.359375 38.53125 53.46875 
Q 38.53125 58.296875 35.25 61.46875 
Q 31.984375 64.65625 26.8125 64.65625 
Q 21.6875 64.65625 18.265625 61.421875 
Q 14.84375 58.203125 13.875 51.765625 
L 5.078125 53.328125 
Q 6.6875 62.15625 12.390625 67.015625 
Q 18.109375 71.875 26.609375 71.875 
Q 32.46875 71.875 37.390625 69.359375 
Q 42.328125 66.84375 44.9375 62.5 
Q 47.5625 58.15625 47.5625 53.265625 
Q 47.5625 48.640625 45.0625 44.828125 
Q 42.578125 41.015625 37.703125 38.765625 
Q 44.046875 37.3125 47.5625 32.6875 
Q 51.078125 28.078125 51.078125 21.140625 
Q 51.078125 11.765625 44.234375 5.25 
Q 37.40625 -1.265625 26.953125 -1.265625 
Q 17.53125 -1.265625 11.296875 4.34375 
Q 5.078125 9.96875 4.203125 18.890625 
z
" id="ArialMT-51"/>
      </defs>
      <g style="fill:#262626;" transform="translate(249.143808 269.373594)scale(0.11 -0.11)">
       <use xlink:href="#ArialMT-51"/>
      </g>
     </g>
    </g>
    <g id="xtick_5">
     <g id="line2d_5">
      <path clip-path="url(#p632e2e3af5)" d="M 313.197037 252 
L 313.197037 34.56 
" style="fill:none;stroke:#ffffff;stroke-linecap:round;"/>
     </g>
     <g id="text_5">
      <!-- 4 -->
      <defs>
       <path d="M 32.328125 0 
L 32.328125 17.140625 
L 1.265625 17.140625 
L 1.265625 25.203125 
L 33.9375 71.578125 
L 41.109375 71.578125 
L 41.109375 25.203125 
L 50.78125 25.203125 
L 50.78125 17.140625 
L 41.109375 17.140625 
L 41.109375 0 
z
M 32.328125 25.203125 
L 32.328125 57.46875 
L 9.90625 25.203125 
z
" id="ArialMT-52"/>
      </defs>
      <g style="fill:#262626;" transform="translate(310.138521 269.373594)scale(0.11 -0.11)">
       <use xlink:href="#ArialMT-52"/>
      </g>
     </g>
    </g>
    <g id="xtick_6">
     <g id="line2d_6">
      <path clip-path="url(#p632e2e3af5)" d="M 374.191751 252 
L 374.191751 34.56 
" style="fill:none;stroke:#ffffff;stroke-linecap:round;"/>
     </g>
     <g id="text_6">
      <!-- 5 -->
      <defs>
       <path d="M 4.15625 18.75 
L 13.375 19.53125 
Q 14.40625 12.796875 18.140625 9.390625 
Q 21.875 6 27.15625 6 
Q 33.5 6 37.890625 10.78125 
Q 42.28125 15.578125 42.28125 23.484375 
Q 42.28125 31 38.0625 35.34375 
Q 33.84375 39.703125 27 39.703125 
Q 22.75 39.703125 19.328125 37.765625 
Q 15.921875 35.84375 13.96875 32.765625 
L 5.71875 33.84375 
L 12.640625 70.609375 
L 48.25 70.609375 
L 48.25 62.203125 
L 19.671875 62.203125 
L 15.828125 42.96875 
Q 22.265625 47.46875 29.34375 47.46875 
Q 38.71875 47.46875 45.15625 40.96875 
Q 51.609375 34.46875 51.609375 24.265625 
Q 51.609375 14.546875 45.953125 7.46875 
Q 39.0625 -1.21875 27.15625 -1.21875 
Q 17.390625 -1.21875 11.203125 4.25 
Q 5.03125 9.71875 4.15625 18.75 
z
" id="ArialMT-53"/>
      </defs>
      <g style="fill:#262626;" transform="translate(371.133235 269.373594)scale(0.11 -0.11)">
       <use xlink:href="#ArialMT-53"/>
      </g>
     </g>
    </g>
    <g id="text_7">
     <!-- t [s] -->
     <defs>
      <path d="M 25.78125 7.859375 
L 27.046875 0.09375 
Q 23.34375 -0.6875 20.40625 -0.6875 
Q 15.625 -0.6875 12.984375 0.828125 
Q 10.359375 2.34375 9.28125 4.8125 
Q 8.203125 7.28125 8.203125 15.1875 
L 8.203125 45.015625 
L 1.765625 45.015625 
L 1.765625 51.859375 
L 8.203125 51.859375 
L 8.203125 64.703125 
L 16.9375 69.96875 
L 16.9375 51.859375 
L 25.78125 51.859375 
L 25.78125 45.015625 
L 16.9375 45.015625 
L 16.9375 14.703125 
Q 16.9375 10.9375 17.40625 9.859375 
Q 17.875 8.796875 18.921875 8.15625 
Q 19.96875 7.515625 21.921875 7.515625 
Q 23.390625 7.515625 25.78125 7.859375 
z
" id="ArialMT-116"/>
      <path id="ArialMT-32"/>
      <path d="M 6.78125 -19.875 
L 6.78125 71.578125 
L 26.171875 71.578125 
L 26.171875 64.3125 
L 15.578125 64.3125 
L 15.578125 -12.59375 
L 26.171875 -12.59375 
L 26.171875 -19.875 
z
" id="ArialMT-91"/>
      <path d="M 3.078125 15.484375 
L 11.765625 16.84375 
Q 12.5 11.625 15.84375 8.84375 
Q 19.1875 6.0625 25.203125 6.0625 
Q 31.25 6.0625 34.171875 8.515625 
Q 37.109375 10.984375 37.109375 14.3125 
Q 37.109375 17.28125 34.515625 19 
Q 32.71875 20.171875 25.53125 21.96875 
Q 15.875 24.421875 12.140625 26.203125 
Q 8.40625 27.984375 6.46875 31.125 
Q 4.546875 34.28125 4.546875 38.09375 
Q 4.546875 41.546875 6.125 44.5 
Q 7.71875 47.46875 10.453125 49.421875 
Q 12.5 50.921875 16.03125 51.96875 
Q 19.578125 53.03125 23.640625 53.03125 
Q 29.734375 53.03125 34.34375 51.265625 
Q 38.96875 49.515625 41.15625 46.5 
Q 43.359375 43.5 44.1875 38.484375 
L 35.59375 37.3125 
Q 35.015625 41.3125 32.203125 43.546875 
Q 29.390625 45.796875 24.265625 45.796875 
Q 18.21875 45.796875 15.625 43.796875 
Q 13.03125 41.796875 13.03125 39.109375 
Q 13.03125 37.40625 14.109375 36.03125 
Q 15.1875 34.625 17.484375 33.6875 
Q 18.796875 33.203125 25.25 31.453125 
Q 34.578125 28.953125 38.25 27.359375 
Q 41.9375 25.78125 44.03125 22.75 
Q 46.140625 19.734375 46.140625 15.234375 
Q 46.140625 10.84375 43.578125 6.953125 
Q 41.015625 3.078125 36.171875 0.953125 
Q 31.34375 -1.171875 25.25 -1.171875 
Q 15.140625 -1.171875 9.84375 3.03125 
Q 4.546875 7.234375 3.078125 15.484375 
z
" id="ArialMT-115"/>
      <path d="M 21.296875 -19.875 
L 1.90625 -19.875 
L 1.90625 -12.59375 
L 12.5 -12.59375 
L 12.5 64.3125 
L 1.90625 64.3125 
L 1.90625 71.578125 
L 21.296875 71.578125 
z
" id="ArialMT-93"/>
     </defs>
     <g style="fill:#262626;" transform="translate(211.7325 284.149219)scale(0.12 -0.12)">
      <use xlink:href="#ArialMT-116"/>
      <use x="27.783203" xlink:href="#ArialMT-32"/>
      <use x="55.566406" xlink:href="#ArialMT-91"/>
      <use x="83.349609" xlink:href="#ArialMT-115"/>
      <use x="133.349609" xlink:href="#ArialMT-93"/>
     </g>
    </g>
   </g>
   <g id="matplotlib.axis_2">
    <g id="ytick_1">
     <g id="line2d_7">
      <path clip-path="url(#p632e2e3af5)" d="M 54 225.511928 
L 388.8 225.511928 
" style="fill:none;stroke:#ffffff;stroke-linecap:round;"/>
     </g>
     <g id="text_8">
      <!-- −1.0 -->
      <defs>
       <path d="M 52.828125 31.203125 
L 5.5625 31.203125 
L 5.5625 39.40625 
L 52.828125 39.40625 
z
" id="ArialMT-8722"/>
       <path d="M 9.078125 0 
L 9.078125 10.015625 
L 19.09375 10.015625 
L 19.09375 0 
z
" id="ArialMT-46"/>
      </defs>
      <g style="fill:#262626;" transform="translate(22.785312 229.448725)scale(0.11 -0.11)">
       <use xlink:href="#ArialMT-8722"/>
       <use x="58.398438" xlink:href="#ArialMT-49"/>
       <use x="114.013672" xlink:href="#ArialMT-46"/>
       <use x="141.796875" xlink:href="#ArialMT-48"/>
      </g>
     </g>
    </g>
    <g id="ytick_2">
     <g id="line2d_8">
      <path clip-path="url(#p632e2e3af5)" d="M 54 194.756058 
L 388.8 194.756058 
" style="fill:none;stroke:#ffffff;stroke-linecap:round;"/>
     </g>
     <g id="text_9">
      <!-- −0.5 -->
      <g style="fill:#262626;" transform="translate(22.785312 198.692855)scale(0.11 -0.11)">
       <use xlink:href="#ArialMT-8722"/>
       <use x="58.398438" xlink:href="#ArialMT-48"/>
       <use x="114.013672" xlink:href="#ArialMT-46"/>
       <use x="141.796875" xlink:href="#ArialMT-53"/>
      </g>
     </g>
    </g>
    <g id="ytick_3">
     <g id="line2d_9">
      <path clip-path="url(#p632e2e3af5)" d="M 54 164.000187 
L 388.8 164.000187 
" style="fill:none;stroke:#ffffff;stroke-linecap:round;"/>
     </g>
     <g id="text_10">
      <!-- 0.0 -->
      <g style="fill:#262626;" transform="translate(29.21 167.936984)scale(0.11 -0.11)">
       <use xlink:href="#ArialMT-48"/>
       <use x="55.615234" xlink:href="#ArialMT-46"/>
       <use x="83.398438" xlink:href="#ArialMT-48"/>
      </g>
     </g>
    </g>
    <g id="ytick_4">
     <g id="line2d_10">
      <path clip-path="url(#p632e2e3af5)" d="M 54 133.244317 
L 388.8 133.244317 
" style="fill:none;stroke:#ffffff;stroke-linecap:round;"/>
     </g>
     <g id="text_11">
      <!-- 0.5 -->
      <g style="fill:#262626;" transform="translate(29.21 137.181114)scale(0.11 -0.11)">
       <use xlink:href="#ArialMT-48"/>
       <use x="55.615234" xlink:href="#ArialMT-46"/>
       <use x="83.398438" xlink:href="#ArialMT-53"/>
      </g>
     </g>
    </g>
    <g id="ytick_5">
     <g id="line2d_11">
      <path clip-path="url(#p632e2e3af5)" d="M 54 102.488447 
L 388.8 102.488447 
" style="fill:none;stroke:#ffffff;stroke-linecap:round;"/>
     </g>
     <g id="text_12">
      <!-- 1.0 -->
      <g style="fill:#262626;" transform="translate(29.21 106.425243)scale(0.11 -0.11)">
       <use xlink:href="#ArialMT-49"/>
       <use x="55.615234" xlink:href="#ArialMT-46"/>
       <use x="83.398438" xlink:href="#ArialMT-48"/>
      </g>
     </g>
    </g>
    <g id="ytick_6">
     <g id="line2d_12">
      <path clip-path="url(#p632e2e3af5)" d="M 54 71.732576 
L 388.8 71.732576 
" style="fill:none;stroke:#ffffff;stroke-linecap:round;"/>
     </g>
     <g id="text_13">
      <!-- 1.5 -->
      <g style="fill:#262626;" transform="translate(29.21 75.669373)scale(0.11 -0.11)">
       <use xlink:href="#ArialMT-49"/>
       <use x="55.615234" xlink:href="#ArialMT-46"/>
       <use x="83.398438" xlink:href="#ArialMT-53"/>
      </g>
     </g>
    </g>
    <g id="ytick_7">
     <g id="line2d_13">
      <path clip-path="url(#p632e2e3af5)" d="M 54 40.976706 
L 388.8 40.976706 
" style="fill:none;stroke:#ffffff;stroke-linecap:round;"/>
     </g>
     <g id="text_14">
      <!-- 2.0 -->
      <g style="fill:#262626;" transform="translate(29.21 44.913503)scale(0.11 -0.11)">
       <use xlink:href="#ArialMT-50"/>
       <use x="55.615234" xlink:href="#ArialMT-46"/>
       <use x="83.398438" xlink:href="#ArialMT-48"/>
      </g>
     </g>
    </g>
    <g id="text_15">
     <!-- $p_1 [Pa]$ -->
     <defs>
      <path d="M 49.609375 33.6875 
Q 49.609375 40.875 46.484375 44.671875 
Q 43.359375 48.484375 37.5 48.484375 
Q 33.5 48.484375 29.859375 46.4375 
Q 26.21875 44.390625 23.390625 40.484375 
Q 20.609375 36.625 18.9375 31.15625 
Q 17.28125 25.6875 17.28125 20.3125 
Q 17.28125 13.484375 20.40625 9.796875 
Q 23.53125 6.109375 29.296875 6.109375 
Q 33.546875 6.109375 37.1875 8.109375 
Q 40.828125 10.109375 43.40625 13.921875 
Q 46.1875 17.921875 47.890625 23.34375 
Q 49.609375 28.765625 49.609375 33.6875 
z
M 21.78125 46.390625 
Q 25.390625 51.125 30.296875 53.5625 
Q 35.203125 56 41.21875 56 
Q 49.609375 56 54.25 50.5 
Q 58.890625 45.015625 58.890625 35.109375 
Q 58.890625 27 56 19.65625 
Q 53.125 12.3125 47.703125 6.5 
Q 44.09375 2.640625 39.546875 0.609375 
Q 35.015625 -1.421875 29.984375 -1.421875 
Q 24.171875 -1.421875 20.21875 1 
Q 16.265625 3.421875 14.3125 8.203125 
L 8.6875 -20.796875 
L -0.296875 -20.796875 
L 14.40625 54.6875 
L 23.390625 54.6875 
z
" id="DejaVuSans-Oblique-112"/>
      <path d="M 12.40625 8.296875 
L 28.515625 8.296875 
L 28.515625 63.921875 
L 10.984375 60.40625 
L 10.984375 69.390625 
L 28.421875 72.90625 
L 38.28125 72.90625 
L 38.28125 8.296875 
L 54.390625 8.296875 
L 54.390625 0 
L 12.40625 0 
z
" id="DejaVuSans-49"/>
      <path d="M 8.59375 75.984375 
L 29.296875 75.984375 
L 29.296875 69 
L 17.578125 69 
L 17.578125 -6.203125 
L 29.296875 -6.203125 
L 29.296875 -13.1875 
L 8.59375 -13.1875 
z
" id="DejaVuSans-91"/>
      <path d="M 16.890625 72.90625 
L 39.703125 72.90625 
Q 49.65625 72.90625 54.875 68.265625 
Q 60.109375 63.625 60.109375 54.6875 
Q 60.109375 42.671875 52.390625 35.984375 
Q 44.671875 29.296875 30.71875 29.296875 
L 18.3125 29.296875 
L 12.59375 0 
L 2.6875 0 
z
M 25.203125 64.796875 
L 19.921875 37.40625 
L 32.328125 37.40625 
Q 40.71875 37.40625 45.203125 41.703125 
Q 49.703125 46 49.703125 54 
Q 49.703125 59.125 46.65625 61.953125 
Q 43.609375 64.796875 38.09375 64.796875 
z
" id="DejaVuSans-Oblique-80"/>
      <path d="M 53.71875 31.203125 
L 47.609375 0 
L 38.625 0 
L 40.28125 8.296875 
Q 36.328125 3.421875 31.265625 1 
Q 26.21875 -1.421875 20.015625 -1.421875 
Q 13.03125 -1.421875 8.5625 2.84375 
Q 4.109375 7.125 4.109375 13.8125 
Q 4.109375 23.390625 11.75 28.953125 
Q 19.390625 34.515625 32.8125 34.515625 
L 45.3125 34.515625 
L 45.796875 36.921875 
Q 45.90625 37.3125 45.953125 37.765625 
Q 46 38.234375 46 39.203125 
Q 46 43.5625 42.453125 45.96875 
Q 38.921875 48.390625 32.515625 48.390625 
Q 28.125 48.390625 23.5 47.265625 
Q 18.890625 46.140625 14.015625 43.890625 
L 15.578125 52.203125 
Q 20.65625 54.109375 25.515625 55.046875 
Q 30.375 56 34.90625 56 
Q 44.578125 56 49.625 51.796875 
Q 54.6875 47.609375 54.6875 39.59375 
Q 54.6875 37.984375 54.4375 35.8125 
Q 54.203125 33.640625 53.71875 31.203125 
z
M 44 27.484375 
L 35.015625 27.484375 
Q 23.96875 27.484375 18.671875 24.53125 
Q 13.375 21.578125 13.375 15.375 
Q 13.375 11.078125 16.078125 8.640625 
Q 18.796875 6.203125 23.578125 6.203125 
Q 30.90625 6.203125 36.375 11.453125 
Q 41.84375 16.703125 43.609375 25.484375 
z
" id="DejaVuSans-Oblique-97"/>
      <path d="M 30.421875 75.984375 
L 30.421875 -13.1875 
L 9.71875 -13.1875 
L 9.71875 -6.203125 
L 21.390625 -6.203125 
L 21.390625 69 
L 9.71875 69 
L 9.71875 75.984375 
z
" id="DejaVuSans-93"/>
     </defs>
     <g style="fill:#262626;" transform="translate(16.265313 161.94)rotate(-90)scale(0.12 -0.12)">
      <use transform="translate(0 0.015625)" xlink:href="#DejaVuSans-Oblique-112"/>
      <use transform="translate(63.476562 -16.390625)scale(0.7)" xlink:href="#DejaVuSans-49"/>
      <use transform="translate(110.74707 0.015625)" xlink:href="#DejaVuSans-91"/>
      <use transform="translate(149.760742 0.015625)" xlink:href="#DejaVuSans-Oblique-80"/>
      <use transform="translate(210.063477 0.015625)" xlink:href="#DejaVuSans-Oblique-97"/>
      <use transform="translate(271.342773 0.015625)" xlink:href="#DejaVuSans-93"/>
     </g>
    </g>
   </g>
   <g id="line2d_14">
    <path clip-path="url(#p632e2e3af5)" d="M 69.218182 44.443636 
L 72.877865 46.721926 
L 74.097759 47.998125 
L 75.317653 49.564922 
L 75.927601 50.492392 
L 77.147495 51.701988 
L 78.367389 52.489846 
L 79.587284 52.250413 
L 80.807178 52.439889 
L 81.417125 52.707927 
L 82.637019 54.287778 
L 83.246967 55.593925 
L 84.466861 59.2688 
L 85.686755 64.193431 
L 86.296702 68.631896 
L 86.90665 75.220302 
L 87.516597 83.533193 
L 88.736491 111.433607 
L 91.17628 171.486983 
L 91.786227 182.542924 
L 93.006121 198.487087 
L 93.616069 204.243685 
L 94.226016 208.583248 
L 94.835963 210.992229 
L 95.44591 211.498273 
L 96.055857 210.711409 
L 97.885699 206.852619 
L 99.105593 205.601998 
L 99.71554 205.074674 
L 102.765276 203.296175 
L 103.375223 203.334842 
L 105.815012 204.310291 
L 107.034906 205.336606 
L 107.644853 206.07494 
L 108.864748 207.997062 
L 109.474695 209.335444 
L 110.084642 211.651053 
L 110.694589 215.082409 
L 111.914484 224.547402 
L 113.134378 234.231167 
L 113.744325 238.148684 
L 114.354272 240.889701 
L 114.964219 242.116364 
L 115.574167 241.713047 
L 116.184114 239.686043 
L 117.404008 219.629083 
L 118.623902 208.966497 
L 119.23385 204.738061 
L 120.453744 200.734145 
L 121.063691 199.560772 
L 122.283585 196.416736 
L 122.893533 195.478974 
L 123.50348 193.927552 
L 125.333321 187.344827 
L 126.553216 182.671355 
L 130.212899 171.107889 
L 130.822846 168.689455 
L 133.262634 157.031479 
L 133.872582 155.053087 
L 134.482529 153.940039 
L 135.092476 153.837883 
L 135.702423 154.532972 
L 136.31237 155.81082 
L 136.922317 157.470744 
L 141.191948 171.124458 
L 141.801895 171.969974 
L 142.411842 172.212895 
L 143.021789 172.001727 
L 143.631736 171.277559 
L 144.851631 168.639859 
L 146.681472 164.477063 
L 147.291419 163.393251 
L 148.511314 161.774674 
L 149.731208 160.546959 
L 150.341155 160.257261 
L 151.561049 160.228557 
L 152.170997 160.54533 
L 152.780944 161.125483 
L 154.610785 163.66171 
L 155.83068 165.526959 
L 158.270468 168.274867 
L 158.880415 168.359041 
L 160.10031 167.944628 
L 160.710257 167.530479 
L 161.320204 166.765636 
L 162.540098 164.479674 
L 163.759993 160.794911 
L 164.36994 159.471487 
L 164.979887 158.97321 
L 165.589834 159.174185 
L 166.199781 160.100368 
L 168.029623 164.095287 
L 170.469412 169.441829 
L 171.689306 172.309879 
L 172.9092 174.680885 
L 173.519147 175.38209 
L 174.129095 175.857616 
L 174.739042 176.036945 
L 175.348989 175.803516 
L 175.958936 175.419899 
L 176.568883 174.826954 
L 178.398725 173.547706 
L 179.618619 172.456728 
L 180.838513 171.773437 
L 181.448461 171.234657 
L 182.058408 171.043167 
L 182.668355 171.54953 
L 183.888249 173.817029 
L 185.108144 176.956067 
L 185.718091 178.35965 
L 186.937985 180.395847 
L 187.547932 181.08839 
L 188.157879 181.558788 
L 188.767827 182.201215 
L 191.207615 185.661643 
L 192.42751 186.658835 
L 193.037457 186.937955 
L 193.647404 186.789614 
L 194.257351 186.412286 
L 194.867298 185.635213 
L 196.69714 182.341497 
L 199.136928 179.763758 
L 199.746876 179.733507 
L 200.356823 179.976017 
L 200.96677 180.747543 
L 201.576717 182.050719 
L 203.406559 187.462981 
L 204.626453 190.64472 
L 205.846347 193.935361 
L 207.066242 197.087085 
L 207.676189 198.662002 
L 208.286136 199.536992 
L 208.896083 199.915011 
L 209.50603 199.947514 
L 210.115977 199.529061 
L 211.335872 198.142864 
L 213.77566 196.142471 
L 214.385608 195.792084 
L 214.995555 195.614949 
L 215.605502 195.747297 
L 216.215449 196.073151 
L 218.045291 197.576228 
L 219.875132 200.089951 
L 220.485079 200.462259 
L 221.095026 200.176592 
L 221.704974 199.369713 
L 222.314921 198.020527 
L 223.534815 194.056171 
L 226.584551 182.914959 
L 227.804445 179.86835 
L 228.414392 178.974069 
L 229.02434 178.59072 
L 229.634287 178.732927 
L 230.244234 179.091711 
L 230.854181 179.778521 
L 231.464128 180.832462 
L 232.074075 182.129977 
L 233.29397 185.2723 
L 234.513864 189.644526 
L 235.733758 194.57255 
L 236.953653 199.302911 
L 237.5636 200.753283 
L 238.173547 201.340572 
L 238.783494 200.845746 
L 239.393441 199.286974 
L 240.003389 196.791515 
L 241.223283 189.512606 
L 243.053124 177.636348 
L 243.663072 174.411902 
L 244.273019 172.130823 
L 244.882966 171.049674 
L 245.492913 170.727903 
L 246.10286 172.433367 
L 246.712807 175.384757 
L 247.322755 179.678624 
L 249.152596 195.254596 
L 249.762543 199.12286 
L 250.37249 202.119558 
L 250.982438 204.049066 
L 251.592385 205.323646 
L 252.202332 205.563394 
L 252.812279 204.582373 
L 253.422226 202.979462 
L 255.252068 197.197384 
L 255.862015 195.840549 
L 256.471962 195.052235 
L 257.081909 194.520762 
L 257.691856 194.445818 
L 258.301804 194.66008 
L 261.961487 198.045748 
L 262.571434 198.276053 
L 264.401275 198.396559 
L 265.62117 198.027097 
L 266.231117 197.967473 
L 267.451011 198.177339 
L 268.060958 198.392069 
L 269.280853 199.069086 
L 271.720641 199.14767 
L 272.330588 198.972965 
L 274.770377 198.820114 
L 275.380324 198.841764 
L 276.600219 199.136557 
L 278.43006 199.025504 
L 279.040007 198.817755 
L 284.529532 195.70144 
L 285.139479 195.556519 
L 285.749426 195.579536 
L 287.579268 195.231411 
L 288.799162 195.224005 
L 290.629003 194.518718 
L 291.238951 194.413013 
L 294.288686 192.723677 
L 296.118528 190.508972 
L 296.728475 189.887966 
L 300.388158 188.172281 
L 301.608052 188.17798 
L 302.218 188.522226 
L 302.827947 188.733525 
L 303.437894 189.663868 
L 305.877683 194.186769 
L 306.48763 195.026874 
L 307.097577 195.525494 
L 307.707524 195.865353 
L 308.317471 195.944565 
L 309.537366 193.727441 
L 310.147313 191.759207 
L 311.977154 183.522774 
L 312.587101 181.309032 
L 313.197049 179.634105 
L 313.806996 178.538378 
L 314.416943 178.471324 
L 315.02689 179.833065 
L 315.636837 182.31455 
L 317.466679 190.876121 
L 318.076626 192.515617 
L 319.29652 195.04338 
L 320.516415 198.219332 
L 322.956203 207.175615 
L 323.56615 208.663194 
L 324.786045 210.672291 
L 325.395992 211.32287 
L 326.005939 211.739835 
L 326.615886 213.715091 
L 327.225833 215.12313 
L 327.835781 218.153438 
L 328.445728 222.710087 
L 329.055675 225.196527 
L 329.665622 225.843024 
L 330.275569 224.881477 
L 330.885516 222.508194 
L 332.105411 215.05236 
L 333.325305 206.937007 
L 335.155147 194.358816 
L 336.375041 188.121795 
L 336.984988 185.869747 
L 337.594935 184.24439 
L 338.204882 183.330713 
L 338.81483 183.045964 
L 339.424777 183.386855 
L 340.034724 184.482936 
L 341.254618 187.625653 
L 342.474513 191.051642 
L 343.08446 192.385563 
L 343.694407 193.238081 
L 344.304354 193.612767 
L 344.914301 193.712616 
L 345.524248 193.430749 
L 346.134196 192.953774 
L 347.35409 191.396298 
L 348.573984 190.512881 
L 349.793879 191.056132 
L 350.403826 191.073546 
L 351.62372 190.674303 
L 352.233667 190.95569 
L 352.843615 191.407415 
L 354.673456 192.072142 
L 355.283403 192.306276 
L 355.89335 192.084172 
L 357.113245 190.022733 
L 357.723192 189.51414 
L 358.943086 188.975858 
L 360.162981 188.080396 
L 360.772928 187.147541 
L 361.992822 184.350722 
L 363.822664 184.219286 
L 366.262452 182.965671 
L 368.092294 182.69095 
L 369.312188 182.14013 
L 369.922135 182.202361 
L 370.532082 182.10557 
L 371.14203 181.560717 
L 373.581818 178.512886 
L 373.581818 178.512886 
" style="fill:none;stroke:#4c72b0;stroke-linecap:round;stroke-width:1.5;"/>
   </g>
   <g id="patch_3">
    <path d="M 54 252 
L 54 34.56 
" style="fill:none;stroke:#ffffff;stroke-linecap:square;stroke-linejoin:miter;stroke-width:1.25;"/>
   </g>
   <g id="patch_4">
    <path d="M 388.8 252 
L 388.8 34.56 
" style="fill:none;stroke:#ffffff;stroke-linecap:square;stroke-linejoin:miter;stroke-width:1.25;"/>
   </g>
   <g id="patch_5">
    <path d="M 54 252 
L 388.8 252 
" style="fill:none;stroke:#ffffff;stroke-linecap:square;stroke-linejoin:miter;stroke-width:1.25;"/>
   </g>
   <g id="patch_6">
    <path d="M 54 34.56 
L 388.8 34.56 
" style="fill:none;stroke:#ffffff;stroke-linecap:square;stroke-linejoin:miter;stroke-width:1.25;"/>
   </g>
  </g>
 </g>
 <defs>
  <clipPath id="p632e2e3af5">
   <rect height="217.44" width="334.8" x="54" y="34.56"/>
  </clipPath>
 </defs>
</svg>
