<?xml version="1.0" encoding="utf-8" standalone="no"?>
<!DOCTYPE svg PUBLIC "-//W3C//DTD SVG 1.1//EN"
  "http://www.w3.org/Graphics/SVG/1.1/DTD/svg11.dtd">
<!-- Created with matplotlib (https://matplotlib.org/) -->
<svg height="288pt" version="1.1" viewBox="0 0 432 288" width="432pt" xmlns="http://www.w3.org/2000/svg" xmlns:xlink="http://www.w3.org/1999/xlink">
 <defs>
  <style type="text/css">
*{stroke-linecap:butt;stroke-linejoin:round;}
  </style>
 </defs>
 <g id="figure_1">
  <g id="patch_1">
   <path d="M 0 288 
L 432 288 
L 432 0 
L 0 0 
z
" style="fill:#ffffff;"/>
  </g>
  <g id="axes_1">
   <g id="patch_2">
    <path d="M 54 252 
L 388.8 252 
L 388.8 34.56 
L 54 34.56 
z
" style="fill:#eaeaf2;"/>
   </g>
   <g id="matplotlib.axis_1">
    <g id="xtick_1">
     <g id="line2d_1">
      <path clip-path="url(#pd4e77c413a)" d="M 69.218182 252 
L 69.218182 34.56 
" style="fill:none;stroke:#ffffff;stroke-linecap:round;"/>
     </g>
     <g id="text_1">
      <!-- 0 -->
      <defs>
       <path d="M 4.15625 35.296875 
Q 4.15625 48 6.765625 55.734375 
Q 9.375 63.484375 14.515625 67.671875 
Q 19.671875 71.875 27.484375 71.875 
Q 33.25 71.875 37.59375 69.546875 
Q 41.9375 67.234375 44.765625 62.859375 
Q 47.609375 58.5 49.21875 52.21875 
Q 50.828125 45.953125 50.828125 35.296875 
Q 50.828125 22.703125 48.234375 14.96875 
Q 45.65625 7.234375 40.5 3 
Q 35.359375 -1.21875 27.484375 -1.21875 
Q 17.140625 -1.21875 11.234375 6.203125 
Q 4.15625 15.140625 4.15625 35.296875 
z
M 13.1875 35.296875 
Q 13.1875 17.671875 17.3125 11.828125 
Q 21.4375 6 27.484375 6 
Q 33.546875 6 37.671875 11.859375 
Q 41.796875 17.71875 41.796875 35.296875 
Q 41.796875 52.984375 37.671875 58.78125 
Q 33.546875 64.59375 27.390625 64.59375 
Q 21.34375 64.59375 17.71875 59.46875 
Q 13.1875 52.9375 13.1875 35.296875 
z
" id="ArialMT-48"/>
      </defs>
      <g style="fill:#262626;" transform="translate(66.159666 269.373594)scale(0.11 -0.11)">
       <use xlink:href="#ArialMT-48"/>
      </g>
     </g>
    </g>
    <g id="xtick_2">
     <g id="line2d_2">
      <path clip-path="url(#pd4e77c413a)" d="M 130.212896 252 
L 130.212896 34.56 
" style="fill:none;stroke:#ffffff;stroke-linecap:round;"/>
     </g>
     <g id="text_2">
      <!-- 1 -->
      <defs>
       <path d="M 37.25 0 
L 28.46875 0 
L 28.46875 56 
Q 25.296875 52.984375 20.140625 49.953125 
Q 14.984375 46.921875 10.890625 45.40625 
L 10.890625 53.90625 
Q 18.265625 57.375 23.78125 62.296875 
Q 29.296875 67.234375 31.59375 71.875 
L 37.25 71.875 
z
" id="ArialMT-49"/>
      </defs>
      <g style="fill:#262626;" transform="translate(127.15438 269.373594)scale(0.11 -0.11)">
       <use xlink:href="#ArialMT-49"/>
      </g>
     </g>
    </g>
    <g id="xtick_3">
     <g id="line2d_3">
      <path clip-path="url(#pd4e77c413a)" d="M 191.207609 252 
L 191.207609 34.56 
" style="fill:none;stroke:#ffffff;stroke-linecap:round;"/>
     </g>
     <g id="text_3">
      <!-- 2 -->
      <defs>
       <path d="M 50.34375 8.453125 
L 50.34375 0 
L 3.03125 0 
Q 2.9375 3.171875 4.046875 6.109375 
Q 5.859375 10.9375 9.828125 15.625 
Q 13.8125 20.3125 21.34375 26.46875 
Q 33.015625 36.03125 37.109375 41.625 
Q 41.21875 47.21875 41.21875 52.203125 
Q 41.21875 57.421875 37.46875 61 
Q 33.734375 64.59375 27.734375 64.59375 
Q 21.390625 64.59375 17.578125 60.78125 
Q 13.765625 56.984375 13.71875 50.25 
L 4.6875 51.171875 
Q 5.609375 61.28125 11.65625 66.578125 
Q 17.71875 71.875 27.9375 71.875 
Q 38.234375 71.875 44.234375 66.15625 
Q 50.25 60.453125 50.25 52 
Q 50.25 47.703125 48.484375 43.546875 
Q 46.734375 39.40625 42.65625 34.8125 
Q 38.578125 30.21875 29.109375 22.21875 
Q 21.1875 15.578125 18.9375 13.203125 
Q 16.703125 10.84375 15.234375 8.453125 
z
" id="ArialMT-50"/>
      </defs>
      <g style="fill:#262626;" transform="translate(188.149094 269.373594)scale(0.11 -0.11)">
       <use xlink:href="#ArialMT-50"/>
      </g>
     </g>
    </g>
    <g id="xtick_4">
     <g id="line2d_4">
      <path clip-path="url(#pd4e77c413a)" d="M 252.202323 252 
L 252.202323 34.56 
" style="fill:none;stroke:#ffffff;stroke-linecap:round;"/>
     </g>
     <g id="text_4">
      <!-- 3 -->
      <defs>
       <path d="M 4.203125 18.890625 
L 12.984375 20.0625 
Q 14.5 12.59375 18.140625 9.296875 
Q 21.78125 6 27 6 
Q 33.203125 6 37.46875 10.296875 
Q 41.75 14.59375 41.75 20.953125 
Q 41.75 27 37.796875 30.921875 
Q 33.84375 34.859375 27.734375 34.859375 
Q 25.25 34.859375 21.53125 33.890625 
L 22.515625 41.609375 
Q 23.390625 41.5 23.921875 41.5 
Q 29.546875 41.5 34.03125 44.421875 
Q 38.53125 47.359375 38.53125 53.46875 
Q 38.53125 58.296875 35.25 61.46875 
Q 31.984375 64.65625 26.8125 64.65625 
Q 21.6875 64.65625 18.265625 61.421875 
Q 14.84375 58.203125 13.875 51.765625 
L 5.078125 53.328125 
Q 6.6875 62.15625 12.390625 67.015625 
Q 18.109375 71.875 26.609375 71.875 
Q 32.46875 71.875 37.390625 69.359375 
Q 42.328125 66.84375 44.9375 62.5 
Q 47.5625 58.15625 47.5625 53.265625 
Q 47.5625 48.640625 45.0625 44.828125 
Q 42.578125 41.015625 37.703125 38.765625 
Q 44.046875 37.3125 47.5625 32.6875 
Q 51.078125 28.078125 51.078125 21.140625 
Q 51.078125 11.765625 44.234375 5.25 
Q 37.40625 -1.265625 26.953125 -1.265625 
Q 17.53125 -1.265625 11.296875 4.34375 
Q 5.078125 9.96875 4.203125 18.890625 
z
" id="ArialMT-51"/>
      </defs>
      <g style="fill:#262626;" transform="translate(249.143808 269.373594)scale(0.11 -0.11)">
       <use xlink:href="#ArialMT-51"/>
      </g>
     </g>
    </g>
    <g id="xtick_5">
     <g id="line2d_5">
      <path clip-path="url(#pd4e77c413a)" d="M 313.197037 252 
L 313.197037 34.56 
" style="fill:none;stroke:#ffffff;stroke-linecap:round;"/>
     </g>
     <g id="text_5">
      <!-- 4 -->
      <defs>
       <path d="M 32.328125 0 
L 32.328125 17.140625 
L 1.265625 17.140625 
L 1.265625 25.203125 
L 33.9375 71.578125 
L 41.109375 71.578125 
L 41.109375 25.203125 
L 50.78125 25.203125 
L 50.78125 17.140625 
L 41.109375 17.140625 
L 41.109375 0 
z
M 32.328125 25.203125 
L 32.328125 57.46875 
L 9.90625 25.203125 
z
" id="ArialMT-52"/>
      </defs>
      <g style="fill:#262626;" transform="translate(310.138521 269.373594)scale(0.11 -0.11)">
       <use xlink:href="#ArialMT-52"/>
      </g>
     </g>
    </g>
    <g id="xtick_6">
     <g id="line2d_6">
      <path clip-path="url(#pd4e77c413a)" d="M 374.191751 252 
L 374.191751 34.56 
" style="fill:none;stroke:#ffffff;stroke-linecap:round;"/>
     </g>
     <g id="text_6">
      <!-- 5 -->
      <defs>
       <path d="M 4.15625 18.75 
L 13.375 19.53125 
Q 14.40625 12.796875 18.140625 9.390625 
Q 21.875 6 27.15625 6 
Q 33.5 6 37.890625 10.78125 
Q 42.28125 15.578125 42.28125 23.484375 
Q 42.28125 31 38.0625 35.34375 
Q 33.84375 39.703125 27 39.703125 
Q 22.75 39.703125 19.328125 37.765625 
Q 15.921875 35.84375 13.96875 32.765625 
L 5.71875 33.84375 
L 12.640625 70.609375 
L 48.25 70.609375 
L 48.25 62.203125 
L 19.671875 62.203125 
L 15.828125 42.96875 
Q 22.265625 47.46875 29.34375 47.46875 
Q 38.71875 47.46875 45.15625 40.96875 
Q 51.609375 34.46875 51.609375 24.265625 
Q 51.609375 14.546875 45.953125 7.46875 
Q 39.0625 -1.21875 27.15625 -1.21875 
Q 17.390625 -1.21875 11.203125 4.25 
Q 5.03125 9.71875 4.15625 18.75 
z
" id="ArialMT-53"/>
      </defs>
      <g style="fill:#262626;" transform="translate(371.133235 269.373594)scale(0.11 -0.11)">
       <use xlink:href="#ArialMT-53"/>
      </g>
     </g>
    </g>
    <g id="text_7">
     <!-- t [s] -->
     <defs>
      <path d="M 25.78125 7.859375 
L 27.046875 0.09375 
Q 23.34375 -0.6875 20.40625 -0.6875 
Q 15.625 -0.6875 12.984375 0.828125 
Q 10.359375 2.34375 9.28125 4.8125 
Q 8.203125 7.28125 8.203125 15.1875 
L 8.203125 45.015625 
L 1.765625 45.015625 
L 1.765625 51.859375 
L 8.203125 51.859375 
L 8.203125 64.703125 
L 16.9375 69.96875 
L 16.9375 51.859375 
L 25.78125 51.859375 
L 25.78125 45.015625 
L 16.9375 45.015625 
L 16.9375 14.703125 
Q 16.9375 10.9375 17.40625 9.859375 
Q 17.875 8.796875 18.921875 8.15625 
Q 19.96875 7.515625 21.921875 7.515625 
Q 23.390625 7.515625 25.78125 7.859375 
z
" id="ArialMT-116"/>
      <path id="ArialMT-32"/>
      <path d="M 6.78125 -19.875 
L 6.78125 71.578125 
L 26.171875 71.578125 
L 26.171875 64.3125 
L 15.578125 64.3125 
L 15.578125 -12.59375 
L 26.171875 -12.59375 
L 26.171875 -19.875 
z
" id="ArialMT-91"/>
      <path d="M 3.078125 15.484375 
L 11.765625 16.84375 
Q 12.5 11.625 15.84375 8.84375 
Q 19.1875 6.0625 25.203125 6.0625 
Q 31.25 6.0625 34.171875 8.515625 
Q 37.109375 10.984375 37.109375 14.3125 
Q 37.109375 17.28125 34.515625 19 
Q 32.71875 20.171875 25.53125 21.96875 
Q 15.875 24.421875 12.140625 26.203125 
Q 8.40625 27.984375 6.46875 31.125 
Q 4.546875 34.28125 4.546875 38.09375 
Q 4.546875 41.546875 6.125 44.5 
Q 7.71875 47.46875 10.453125 49.421875 
Q 12.5 50.921875 16.03125 51.96875 
Q 19.578125 53.03125 23.640625 53.03125 
Q 29.734375 53.03125 34.34375 51.265625 
Q 38.96875 49.515625 41.15625 46.5 
Q 43.359375 43.5 44.1875 38.484375 
L 35.59375 37.3125 
Q 35.015625 41.3125 32.203125 43.546875 
Q 29.390625 45.796875 24.265625 45.796875 
Q 18.21875 45.796875 15.625 43.796875 
Q 13.03125 41.796875 13.03125 39.109375 
Q 13.03125 37.40625 14.109375 36.03125 
Q 15.1875 34.625 17.484375 33.6875 
Q 18.796875 33.203125 25.25 31.453125 
Q 34.578125 28.953125 38.25 27.359375 
Q 41.9375 25.78125 44.03125 22.75 
Q 46.140625 19.734375 46.140625 15.234375 
Q 46.140625 10.84375 43.578125 6.953125 
Q 41.015625 3.078125 36.171875 0.953125 
Q 31.34375 -1.171875 25.25 -1.171875 
Q 15.140625 -1.171875 9.84375 3.03125 
Q 4.546875 7.234375 3.078125 15.484375 
z
" id="ArialMT-115"/>
      <path d="M 21.296875 -19.875 
L 1.90625 -19.875 
L 1.90625 -12.59375 
L 12.5 -12.59375 
L 12.5 64.3125 
L 1.90625 64.3125 
L 1.90625 71.578125 
L 21.296875 71.578125 
z
" id="ArialMT-93"/>
     </defs>
     <g style="fill:#262626;" transform="translate(211.7325 284.149219)scale(0.12 -0.12)">
      <use xlink:href="#ArialMT-116"/>
      <use x="27.783203" xlink:href="#ArialMT-32"/>
      <use x="55.566406" xlink:href="#ArialMT-91"/>
      <use x="83.349609" xlink:href="#ArialMT-115"/>
      <use x="133.349609" xlink:href="#ArialMT-93"/>
     </g>
    </g>
   </g>
   <g id="matplotlib.axis_2">
    <g id="ytick_1">
     <g id="line2d_7">
      <path clip-path="url(#pd4e77c413a)" d="M 54 238.142995 
L 388.8 238.142995 
" style="fill:none;stroke:#ffffff;stroke-linecap:round;"/>
     </g>
     <g id="text_8">
      <!-- −1.5 -->
      <defs>
       <path d="M 52.828125 31.203125 
L 5.5625 31.203125 
L 5.5625 39.40625 
L 52.828125 39.40625 
z
" id="ArialMT-8722"/>
       <path d="M 9.078125 0 
L 9.078125 10.015625 
L 19.09375 10.015625 
L 19.09375 0 
z
" id="ArialMT-46"/>
      </defs>
      <g style="fill:#262626;" transform="translate(22.785312 242.079792)scale(0.11 -0.11)">
       <use xlink:href="#ArialMT-8722"/>
       <use x="58.398438" xlink:href="#ArialMT-49"/>
       <use x="114.013672" xlink:href="#ArialMT-46"/>
       <use x="141.796875" xlink:href="#ArialMT-53"/>
      </g>
     </g>
    </g>
    <g id="ytick_2">
     <g id="line2d_8">
      <path clip-path="url(#pd4e77c413a)" d="M 54 206.052789 
L 388.8 206.052789 
" style="fill:none;stroke:#ffffff;stroke-linecap:round;"/>
     </g>
     <g id="text_9">
      <!-- −1.0 -->
      <g style="fill:#262626;" transform="translate(22.785312 209.989586)scale(0.11 -0.11)">
       <use xlink:href="#ArialMT-8722"/>
       <use x="58.398438" xlink:href="#ArialMT-49"/>
       <use x="114.013672" xlink:href="#ArialMT-46"/>
       <use x="141.796875" xlink:href="#ArialMT-48"/>
      </g>
     </g>
    </g>
    <g id="ytick_3">
     <g id="line2d_9">
      <path clip-path="url(#pd4e77c413a)" d="M 54 173.962584 
L 388.8 173.962584 
" style="fill:none;stroke:#ffffff;stroke-linecap:round;"/>
     </g>
     <g id="text_10">
      <!-- −0.5 -->
      <g style="fill:#262626;" transform="translate(22.785312 177.89938)scale(0.11 -0.11)">
       <use xlink:href="#ArialMT-8722"/>
       <use x="58.398438" xlink:href="#ArialMT-48"/>
       <use x="114.013672" xlink:href="#ArialMT-46"/>
       <use x="141.796875" xlink:href="#ArialMT-53"/>
      </g>
     </g>
    </g>
    <g id="ytick_4">
     <g id="line2d_10">
      <path clip-path="url(#pd4e77c413a)" d="M 54 141.872378 
L 388.8 141.872378 
" style="fill:none;stroke:#ffffff;stroke-linecap:round;"/>
     </g>
     <g id="text_11">
      <!-- 0.0 -->
      <g style="fill:#262626;" transform="translate(29.21 145.809175)scale(0.11 -0.11)">
       <use xlink:href="#ArialMT-48"/>
       <use x="55.615234" xlink:href="#ArialMT-46"/>
       <use x="83.398438" xlink:href="#ArialMT-48"/>
      </g>
     </g>
    </g>
    <g id="ytick_5">
     <g id="line2d_11">
      <path clip-path="url(#pd4e77c413a)" d="M 54 109.782172 
L 388.8 109.782172 
" style="fill:none;stroke:#ffffff;stroke-linecap:round;"/>
     </g>
     <g id="text_12">
      <!-- 0.5 -->
      <g style="fill:#262626;" transform="translate(29.21 113.718969)scale(0.11 -0.11)">
       <use xlink:href="#ArialMT-48"/>
       <use x="55.615234" xlink:href="#ArialMT-46"/>
       <use x="83.398438" xlink:href="#ArialMT-53"/>
      </g>
     </g>
    </g>
    <g id="ytick_6">
     <g id="line2d_12">
      <path clip-path="url(#pd4e77c413a)" d="M 54 77.691966 
L 388.8 77.691966 
" style="fill:none;stroke:#ffffff;stroke-linecap:round;"/>
     </g>
     <g id="text_13">
      <!-- 1.0 -->
      <g style="fill:#262626;" transform="translate(29.21 81.628763)scale(0.11 -0.11)">
       <use xlink:href="#ArialMT-49"/>
       <use x="55.615234" xlink:href="#ArialMT-46"/>
       <use x="83.398438" xlink:href="#ArialMT-48"/>
      </g>
     </g>
    </g>
    <g id="ytick_7">
     <g id="line2d_13">
      <path clip-path="url(#pd4e77c413a)" d="M 54 45.60176 
L 388.8 45.60176 
" style="fill:none;stroke:#ffffff;stroke-linecap:round;"/>
     </g>
     <g id="text_14">
      <!-- 1.5 -->
      <g style="fill:#262626;" transform="translate(29.21 49.538557)scale(0.11 -0.11)">
       <use xlink:href="#ArialMT-49"/>
       <use x="55.615234" xlink:href="#ArialMT-46"/>
       <use x="83.398438" xlink:href="#ArialMT-53"/>
      </g>
     </g>
    </g>
    <g id="text_15">
     <!-- $p_1 [Pa]$ -->
     <defs>
      <path d="M 49.609375 33.6875 
Q 49.609375 40.875 46.484375 44.671875 
Q 43.359375 48.484375 37.5 48.484375 
Q 33.5 48.484375 29.859375 46.4375 
Q 26.21875 44.390625 23.390625 40.484375 
Q 20.609375 36.625 18.9375 31.15625 
Q 17.28125 25.6875 17.28125 20.3125 
Q 17.28125 13.484375 20.40625 9.796875 
Q 23.53125 6.109375 29.296875 6.109375 
Q 33.546875 6.109375 37.1875 8.109375 
Q 40.828125 10.109375 43.40625 13.921875 
Q 46.1875 17.921875 47.890625 23.34375 
Q 49.609375 28.765625 49.609375 33.6875 
z
M 21.78125 46.390625 
Q 25.390625 51.125 30.296875 53.5625 
Q 35.203125 56 41.21875 56 
Q 49.609375 56 54.25 50.5 
Q 58.890625 45.015625 58.890625 35.109375 
Q 58.890625 27 56 19.65625 
Q 53.125 12.3125 47.703125 6.5 
Q 44.09375 2.640625 39.546875 0.609375 
Q 35.015625 -1.421875 29.984375 -1.421875 
Q 24.171875 -1.421875 20.21875 1 
Q 16.265625 3.421875 14.3125 8.203125 
L 8.6875 -20.796875 
L -0.296875 -20.796875 
L 14.40625 54.6875 
L 23.390625 54.6875 
z
" id="DejaVuSans-Oblique-112"/>
      <path d="M 12.40625 8.296875 
L 28.515625 8.296875 
L 28.515625 63.921875 
L 10.984375 60.40625 
L 10.984375 69.390625 
L 28.421875 72.90625 
L 38.28125 72.90625 
L 38.28125 8.296875 
L 54.390625 8.296875 
L 54.390625 0 
L 12.40625 0 
z
" id="DejaVuSans-49"/>
      <path d="M 8.59375 75.984375 
L 29.296875 75.984375 
L 29.296875 69 
L 17.578125 69 
L 17.578125 -6.203125 
L 29.296875 -6.203125 
L 29.296875 -13.1875 
L 8.59375 -13.1875 
z
" id="DejaVuSans-91"/>
      <path d="M 16.890625 72.90625 
L 39.703125 72.90625 
Q 49.65625 72.90625 54.875 68.265625 
Q 60.109375 63.625 60.109375 54.6875 
Q 60.109375 42.671875 52.390625 35.984375 
Q 44.671875 29.296875 30.71875 29.296875 
L 18.3125 29.296875 
L 12.59375 0 
L 2.6875 0 
z
M 25.203125 64.796875 
L 19.921875 37.40625 
L 32.328125 37.40625 
Q 40.71875 37.40625 45.203125 41.703125 
Q 49.703125 46 49.703125 54 
Q 49.703125 59.125 46.65625 61.953125 
Q 43.609375 64.796875 38.09375 64.796875 
z
" id="DejaVuSans-Oblique-80"/>
      <path d="M 53.71875 31.203125 
L 47.609375 0 
L 38.625 0 
L 40.28125 8.296875 
Q 36.328125 3.421875 31.265625 1 
Q 26.21875 -1.421875 20.015625 -1.421875 
Q 13.03125 -1.421875 8.5625 2.84375 
Q 4.109375 7.125 4.109375 13.8125 
Q 4.109375 23.390625 11.75 28.953125 
Q 19.390625 34.515625 32.8125 34.515625 
L 45.3125 34.515625 
L 45.796875 36.921875 
Q 45.90625 37.3125 45.953125 37.765625 
Q 46 38.234375 46 39.203125 
Q 46 43.5625 42.453125 45.96875 
Q 38.921875 48.390625 32.515625 48.390625 
Q 28.125 48.390625 23.5 47.265625 
Q 18.890625 46.140625 14.015625 43.890625 
L 15.578125 52.203125 
Q 20.65625 54.109375 25.515625 55.046875 
Q 30.375 56 34.90625 56 
Q 44.578125 56 49.625 51.796875 
Q 54.6875 47.609375 54.6875 39.59375 
Q 54.6875 37.984375 54.4375 35.8125 
Q 54.203125 33.640625 53.71875 31.203125 
z
M 44 27.484375 
L 35.015625 27.484375 
Q 23.96875 27.484375 18.671875 24.53125 
Q 13.375 21.578125 13.375 15.375 
Q 13.375 11.078125 16.078125 8.640625 
Q 18.796875 6.203125 23.578125 6.203125 
Q 30.90625 6.203125 36.375 11.453125 
Q 41.84375 16.703125 43.609375 25.484375 
z
" id="DejaVuSans-Oblique-97"/>
      <path d="M 30.421875 75.984375 
L 30.421875 -13.1875 
L 9.71875 -13.1875 
L 9.71875 -6.203125 
L 21.390625 -6.203125 
L 21.390625 69 
L 9.71875 69 
L 9.71875 75.984375 
z
" id="DejaVuSans-93"/>
     </defs>
     <g style="fill:#262626;" transform="translate(16.265313 161.94)rotate(-90)scale(0.12 -0.12)">
      <use transform="translate(0 0.015625)" xlink:href="#DejaVuSans-Oblique-112"/>
      <use transform="translate(63.476562 -16.390625)scale(0.7)" xlink:href="#DejaVuSans-49"/>
      <use transform="translate(110.74707 0.015625)" xlink:href="#DejaVuSans-91"/>
      <use transform="translate(149.760742 0.015625)" xlink:href="#DejaVuSans-Oblique-80"/>
      <use transform="translate(210.063477 0.015625)" xlink:href="#DejaVuSans-Oblique-97"/>
      <use transform="translate(271.342773 0.015625)" xlink:href="#DejaVuSans-93"/>
     </g>
    </g>
   </g>
   <g id="line2d_14">
    <path clip-path="url(#pd4e77c413a)" d="M 69.218182 215.215911 
L 69.828129 214.516998 
L 70.438076 214.796321 
L 71.048023 213.372525 
L 71.65797 217.997218 
L 72.267918 214.046028 
L 72.877865 218.089522 
L 73.487812 216.243581 
L 74.097759 215.491433 
L 74.707706 222.565164 
L 75.317653 220.891854 
L 75.927601 227.365326 
L 76.537548 218.793591 
L 77.147495 220.906663 
L 77.757442 219.055914 
L 78.367389 222.978131 
L 78.977336 221.859155 
L 79.587284 220.487957 
L 80.197231 220.849151 
L 80.807178 228.291878 
L 81.417125 226.268082 
L 82.027072 221.744839 
L 82.637019 222.132634 
L 83.246967 228.969649 
L 83.856914 231.636988 
L 84.466861 227.654771 
L 85.076808 226.924883 
L 85.686755 235.20272 
L 86.296702 228.364982 
L 86.90665 224.160295 
L 87.516597 218.365848 
L 88.126544 208.103544 
L 88.736491 184.629479 
L 89.956385 146.255559 
L 91.17628 102.104148 
L 91.786227 96.979599 
L 92.396174 85.356007 
L 93.006121 93.782752 
L 93.616069 88.576989 
L 94.226016 87.494355 
L 94.835963 87.203048 
L 95.44591 81.466258 
L 96.055857 85.240728 
L 96.665804 78.040848 
L 97.275752 79.773434 
L 97.885699 85.012143 
L 98.495646 82.124118 
L 99.105593 82.572442 
L 99.71554 83.302012 
L 100.325487 85.79857 
L 100.935435 89.859919 
L 101.545382 86.547876 
L 102.155329 79.565523 
L 102.765276 87.419473 
L 103.375223 90.223465 
L 103.98517 90.189411 
L 104.595118 88.77481 
L 105.205065 90.297567 
L 105.815012 88.170152 
L 106.424959 84.166431 
L 107.034906 86.526251 
L 107.644853 85.320275 
L 108.254801 89.687374 
L 108.864748 91.836327 
L 109.474695 89.328196 
L 110.084642 90.202544 
L 110.694589 93.329549 
L 111.304536 83.760064 
L 111.914484 84.497327 
L 112.524431 78.681464 
L 113.134378 81.666174 
L 113.744325 67.649458 
L 114.354272 63.182793 
L 115.574167 44.443636 
L 116.184114 49.362184 
L 116.794061 56.431307 
L 117.404008 65.840476 
L 118.013955 58.194285 
L 118.623902 49.006781 
L 119.23385 53.595806 
L 120.453744 64.924784 
L 121.063691 61.646389 
L 121.673638 70.401376 
L 122.283585 67.600006 
L 122.893533 78.039839 
L 124.113427 80.35511 
L 124.723374 86.667777 
L 125.333321 86.003222 
L 125.943268 84.517324 
L 126.553216 89.108058 
L 127.163163 83.395932 
L 127.77311 84.881646 
L 128.383057 88.721431 
L 128.993004 80.741873 
L 129.602951 86.413497 
L 130.212899 85.041799 
L 130.822846 86.026611 
L 131.432793 89.27602 
L 132.04274 90.814638 
L 132.652687 92.940374 
L 133.262634 99.586452 
L 133.872582 101.908708 
L 134.482529 96.581019 
L 135.092476 100.911449 
L 135.702423 97.483463 
L 136.922317 92.379932 
L 137.532265 97.79375 
L 138.142212 93.995653 
L 138.752159 94.89534 
L 139.362106 92.941454 
L 139.972053 89.070641 
L 140.582 93.549811 
L 141.191948 86.290155 
L 141.801895 88.452881 
L 142.411842 85.706215 
L 143.631736 83.010672 
L 144.241683 83.479321 
L 144.851631 82.7177 
L 146.071525 82.457157 
L 146.681472 83.843376 
L 147.901366 85.065692 
L 149.121261 88.888294 
L 149.731208 87.012512 
L 150.341155 91.053239 
L 150.951102 96.678115 
L 151.561049 88.406076 
L 152.170997 94.734386 
L 152.780944 94.024732 
L 153.390891 91.008816 
L 154.000838 96.176017 
L 154.610785 92.8706 
L 155.220732 90.537806 
L 155.83068 93.07061 
L 156.440627 93.43243 
L 157.660521 79.55599 
L 158.270468 81.096267 
L 158.880415 84.503032 
L 159.490363 87.165431 
L 160.10031 88.141498 
L 160.710257 87.298361 
L 161.320204 84.248105 
L 161.930151 82.575588 
L 162.540098 87.262943 
L 163.150046 90.898002 
L 163.759993 93.050716 
L 164.36994 96.91238 
L 164.979887 94.083421 
L 165.589834 96.531426 
L 166.199781 103.140891 
L 166.809729 97.671789 
L 167.419676 103.546064 
L 168.029623 102.818925 
L 168.63957 102.59299 
L 169.249517 101.278973 
L 169.859464 104.832457 
L 170.469412 99.669823 
L 171.079359 99.231546 
L 171.689306 92.025118 
L 172.299253 92.705486 
L 172.9092 97.116189 
L 173.519147 92.536218 
L 174.129095 96.816254 
L 174.739042 94.94282 
L 175.348989 87.646943 
L 176.568883 93.989777 
L 177.17883 90.653085 
L 177.788778 88.222085 
L 178.398725 90.077418 
L 179.008672 92.493907 
L 179.618619 91.247662 
L 180.228566 94.010201 
L 180.838513 98.227996 
L 182.058408 96.465114 
L 182.668355 99.763547 
L 183.278302 97.688515 
L 183.888249 104.058408 
L 184.498196 99.671519 
L 185.108144 101.950166 
L 185.718091 97.751436 
L 186.328038 102.950855 
L 186.937985 100.891798 
L 187.547932 98.215776 
L 188.157879 102.136198 
L 188.767827 99.792778 
L 189.377774 104.892875 
L 189.987721 104.524253 
L 190.597668 93.359684 
L 191.207615 95.813501 
L 191.817562 94.700526 
L 192.42751 99.693004 
L 193.037457 98.508168 
L 193.647404 92.656212 
L 194.257351 91.306541 
L 194.867298 92.1827 
L 196.087193 102.407758 
L 196.69714 100.387323 
L 197.307087 97.684977 
L 197.917034 104.889071 
L 199.136928 101.190054 
L 200.356823 109.124694 
L 200.96677 114.908446 
L 201.576717 114.444524 
L 202.186664 114.833999 
L 202.796611 113.000709 
L 203.406559 109.30638 
L 204.016506 112.319187 
L 204.626453 107.394113 
L 205.2364 109.430992 
L 205.846347 105.592801 
L 206.456294 104.884959 
L 207.066242 104.523086 
L 207.676189 95.939697 
L 208.286136 103.806675 
L 208.896083 98.105643 
L 209.50603 98.567925 
L 210.115977 94.225723 
L 210.725925 99.457974 
L 211.335872 99.038614 
L 211.945819 93.509569 
L 212.555766 98.505019 
L 213.165713 93.441341 
L 213.77566 103.065292 
L 214.385608 94.736004 
L 214.995555 100.15079 
L 215.605502 101.668294 
L 216.215449 95.351084 
L 217.435343 106.389553 
L 218.045291 96.933094 
L 218.655238 94.914421 
L 219.265185 88.783049 
L 219.875132 90.523578 
L 220.485079 85.699336 
L 221.095026 96.041017 
L 221.704974 87.299378 
L 222.314921 95.405961 
L 222.924868 92.625349 
L 223.534815 86.721213 
L 224.144762 90.96501 
L 224.754709 93.806603 
L 225.364657 103.576044 
L 227.194498 94.543884 
L 227.804445 99.265077 
L 228.414392 99.447692 
L 229.02434 106.616682 
L 229.634287 103.200767 
L 230.244234 101.368897 
L 230.854181 99.109831 
L 231.464128 101.81093 
L 232.074075 100.064386 
L 232.684023 107.350501 
L 233.29397 104.335494 
L 233.903917 97.813024 
L 234.513864 97.832134 
L 235.123811 87.98937 
L 235.733758 88.303624 
L 236.343706 82.433371 
L 236.953653 81.187099 
L 237.5636 74.492728 
L 238.173547 74.232308 
L 238.783494 70.018497 
L 239.393441 61.878098 
L 240.003389 62.98436 
L 240.613336 57.515364 
L 241.223283 61.24116 
L 241.83323 62.349807 
L 243.053124 68.879623 
L 243.663072 71.936452 
L 244.273019 69.154652 
L 244.882966 72.530003 
L 245.492913 80.301768 
L 246.10286 76.94501 
L 246.712807 72.516774 
L 247.322755 70.035097 
L 247.932702 71.714301 
L 248.542649 70.659294 
L 249.152596 66.542381 
L 249.762543 66.618952 
L 250.37249 68.876548 
L 250.982438 72.15502 
L 251.592385 73.856809 
L 252.202332 86.797907 
L 252.812279 96.463115 
L 253.422226 100.57959 
L 254.032173 109.928116 
L 254.642121 107.24411 
L 255.252068 112.792793 
L 255.862015 110.3667 
L 256.471962 116.852482 
L 257.081909 109.554289 
L 257.691856 115.161476 
L 258.301804 108.442481 
L 258.911751 113.774937 
L 259.521698 107.535912 
L 260.131645 110.341199 
L 260.741592 109.812188 
L 261.351539 112.3327 
L 261.961487 109.149013 
L 262.571434 102.940037 
L 263.181381 106.56573 
L 263.791328 101.185949 
L 264.401275 110.174456 
L 265.011222 109.366604 
L 265.62117 107.531147 
L 266.231117 113.241935 
L 266.841064 105.328634 
L 267.451011 105.699149 
L 268.060958 101.6823 
L 268.670905 104.709806 
L 269.280853 108.553935 
L 269.8908 108.443794 
L 270.500747 101.318541 
L 271.110694 99.746104 
L 271.720641 104.673686 
L 272.330588 102.714235 
L 272.940536 103.521801 
L 273.550483 109.454032 
L 274.16043 101.329232 
L 274.770377 105.123088 
L 275.380324 107.242594 
L 275.990271 102.875425 
L 276.600219 102.934532 
L 277.210166 106.250966 
L 277.820113 103.706497 
L 278.43006 105.92965 
L 279.040007 97.167959 
L 280.259902 105.089602 
L 281.479796 108.898882 
L 282.089743 100.634839 
L 282.69969 109.717538 
L 283.309637 109.683122 
L 284.529532 111.741854 
L 285.749426 104.798278 
L 286.359373 112.293567 
L 286.96932 101.558163 
L 287.579268 107.910544 
L 288.189215 106.599226 
L 288.799162 116.099438 
L 289.409109 116.062538 
L 290.019056 117.407638 
L 290.629003 108.879577 
L 291.238951 109.645049 
L 291.848898 111.87727 
L 292.458845 104.70343 
L 293.068792 111.428245 
L 293.678739 108.293167 
L 294.288686 111.117239 
L 294.898634 111.845096 
L 295.508581 111.903759 
L 296.118528 111.186997 
L 296.728475 111.779491 
L 297.338422 116.363293 
L 297.948369 108.89831 
L 298.558317 114.617903 
L 299.168264 119.222456 
L 299.778211 120.416842 
L 300.388158 121.929982 
L 300.998105 121.462172 
L 301.608052 118.20083 
L 302.218 123.255198 
L 302.827947 123.569142 
L 303.437894 122.788507 
L 304.657788 115.881581 
L 305.267735 114.050569 
L 305.877683 111.023656 
L 306.48763 111.611692 
L 307.097577 102.778542 
L 307.707524 108.483269 
L 308.317471 100.890252 
L 308.927418 109.550924 
L 309.537366 111.496617 
L 310.147313 108.43341 
L 310.75726 114.13817 
L 311.367207 116.613124 
L 311.977154 118.535947 
L 312.587101 126.380576 
L 313.197049 124.696717 
L 313.806996 133.081074 
L 314.416943 133.00443 
L 315.02689 131.975417 
L 315.636837 132.935415 
L 316.246784 133.440444 
L 316.856732 134.299723 
L 317.466679 126.110878 
L 318.076626 130.545245 
L 318.686573 128.260628 
L 319.29652 131.217036 
L 319.906467 123.448417 
L 320.516415 127.607918 
L 321.126362 118.920611 
L 321.736309 126.903297 
L 322.346256 114.117427 
L 322.956203 106.786495 
L 323.56615 110.934992 
L 324.176098 100.245751 
L 324.786045 110.206564 
L 325.395992 101.306634 
L 326.005939 95.698594 
L 326.615886 92.821736 
L 327.225833 87.631636 
L 327.835781 78.285026 
L 328.445728 65.920441 
L 329.055675 63.085473 
L 329.665622 64.241247 
L 330.275569 69.459751 
L 330.885516 70.120867 
L 331.495464 69.933245 
L 332.105411 77.299217 
L 332.715358 80.494282 
L 333.325305 93.342931 
L 333.935252 98.990306 
L 334.545199 109.329913 
L 335.155147 108.42576 
L 336.375041 116.669608 
L 336.984988 116.387188 
L 337.594935 121.593115 
L 338.204882 119.848615 
L 338.81483 124.070938 
L 339.424777 123.529178 
L 340.034724 118.056863 
L 340.644671 119.376149 
L 341.254618 115.831527 
L 341.864565 111.187357 
L 342.474513 109.361565 
L 343.08446 106.815654 
L 343.694407 111.86038 
L 344.304354 107.820702 
L 344.914301 113.793488 
L 345.524248 109.217807 
L 346.134196 106.026414 
L 346.744143 108.079481 
L 347.35409 102.667873 
L 347.964037 109.642255 
L 348.573984 110.842489 
L 349.183931 109.14708 
L 349.793879 112.149392 
L 350.403826 117.134681 
L 351.013773 108.898703 
L 351.62372 113.905887 
L 352.233667 113.15732 
L 352.843615 114.815825 
L 353.453562 108.601994 
L 354.673456 118.494677 
L 355.283403 113.590599 
L 355.89335 109.860866 
L 356.503298 114.310948 
L 357.113245 114.076431 
L 357.723192 114.208597 
L 358.333139 113.530349 
L 358.943086 107.354566 
L 359.553033 111.487592 
L 360.162981 119.432374 
L 360.772928 117.521228 
L 361.382875 113.478208 
L 361.992822 118.131625 
L 362.602769 116.314709 
L 363.212716 119.784737 
L 363.822664 118.851804 
L 364.432611 114.878976 
L 365.042558 112.924761 
L 365.652505 120.509349 
L 366.262452 117.734681 
L 366.872399 121.921483 
L 367.482347 115.782682 
L 368.092294 114.830102 
L 368.702241 114.74308 
L 369.312188 111.566538 
L 369.922135 118.383766 
L 370.532082 115.053755 
L 371.14203 122.292586 
L 371.751977 117.050479 
L 372.361924 118.562865 
L 372.971871 121.546093 
L 373.581818 117.426186 
L 373.581818 117.426186 
" style="fill:none;stroke:#4c72b0;stroke-linecap:round;stroke-width:1.5;"/>
   </g>
   <g id="line2d_15">
    <path clip-path="url(#pd4e77c413a)" d="M 69.218182 225.895805 
L 70.438076 227.350218 
L 72.877865 229.758539 
L 74.707706 231.46199 
L 77.757442 234.541294 
L 78.367389 234.983898 
L 79.587284 236.333024 
L 80.807178 237.347217 
L 82.027072 238.829 
L 83.246967 240.449318 
L 84.466861 241.682494 
L 85.076808 241.969143 
L 85.686755 242.116364 
L 86.296702 240.537898 
L 86.90665 236.732597 
L 87.516597 230.225671 
L 88.126544 216.054354 
L 89.346438 178.481627 
L 90.566333 136.308643 
L 91.17628 118.404004 
L 91.786227 107.598959 
L 92.396174 103.999886 
L 93.006121 102.481806 
L 93.616069 101.475256 
L 95.44591 95.631894 
L 96.055857 94.457097 
L 96.665804 93.937425 
L 97.275752 94.104476 
L 97.885699 94.6265 
L 98.495646 94.883514 
L 99.105593 94.957227 
L 100.325487 95.737869 
L 100.935435 96.218981 
L 101.545382 96.29155 
L 102.155329 96.580464 
L 103.375223 98.624387 
L 103.98517 99.434782 
L 104.595118 99.784301 
L 105.205065 99.964684 
L 105.815012 100.896335 
L 107.034906 101.257176 
L 107.644853 102.147391 
L 108.864748 104.824116 
L 109.474695 104.65611 
L 110.084642 104.128788 
L 110.694589 103.328179 
L 111.304536 100.816873 
L 111.914484 96.77641 
L 113.134378 86.61515 
L 115.574167 61.498238 
L 116.184114 58.089249 
L 116.794061 70.27278 
L 117.404008 77.13116 
L 118.623902 65.714448 
L 119.23385 65.42528 
L 119.843797 67.798335 
L 120.453744 72.096231 
L 121.063691 75.26156 
L 123.50348 89.969882 
L 124.113427 93.475688 
L 125.333321 98.223694 
L 125.943268 99.729507 
L 126.553216 100.147761 
L 127.77311 98.860069 
L 128.383057 98.366384 
L 128.993004 97.70575 
L 129.602951 97.557378 
L 130.212899 98.205237 
L 130.822846 99.505719 
L 131.432793 101.257827 
L 133.262634 107.5292 
L 133.872582 109.173621 
L 135.092476 111.166633 
L 135.702423 111.726607 
L 136.31237 111.795417 
L 136.922317 111.380147 
L 138.142212 110.101947 
L 138.752159 109.066004 
L 139.362106 107.467334 
L 142.411842 97.847376 
L 143.021789 97.022238 
L 143.631736 96.658992 
L 144.241683 96.714331 
L 144.851631 97.281429 
L 146.681472 99.524462 
L 148.511314 101.751044 
L 149.121261 102.240383 
L 149.731208 103.304657 
L 150.341155 104.603474 
L 150.951102 105.585214 
L 151.561049 106.197456 
L 152.170997 106.634161 
L 152.780944 106.87778 
L 153.390891 106.610324 
L 154.610785 105.128719 
L 155.83068 103.291784 
L 157.050574 101.161485 
L 158.880415 98.668708 
L 159.490363 97.906861 
L 160.10031 97.541924 
L 160.710257 97.449867 
L 161.320204 97.911535 
L 161.930151 99.031027 
L 163.150046 103.701253 
L 163.759993 105.74954 
L 164.36994 108.416091 
L 164.979887 110.365969 
L 166.199781 113.068443 
L 168.029623 115.234735 
L 168.63957 115.403496 
L 169.249517 115.160629 
L 169.859464 114.600969 
L 170.469412 113.584013 
L 171.689306 109.686444 
L 173.519147 103.48534 
L 174.129095 101.909472 
L 174.739042 101.504856 
L 175.348989 101.268209 
L 175.958936 101.258364 
L 177.17883 102.66719 
L 180.228566 108.425668 
L 180.838513 109.86483 
L 182.668355 112.321469 
L 183.278302 112.515192 
L 183.888249 112.511788 
L 185.108144 113.051059 
L 186.328038 112.185357 
L 186.937985 112.248487 
L 188.157879 113.818184 
L 188.767827 113.986962 
L 189.987721 112.928007 
L 191.207615 111.086933 
L 193.647404 107.293155 
L 194.257351 107.184116 
L 196.087193 108.372472 
L 196.69714 109.509362 
L 197.917034 113.551664 
L 200.356823 122.330386 
L 200.96677 123.654929 
L 201.576717 124.383559 
L 202.186664 125.302995 
L 202.796611 125.755529 
L 203.406559 125.562088 
L 204.016506 124.930022 
L 204.626453 123.631423 
L 205.2364 121.316522 
L 206.456294 115.871902 
L 207.676189 112.249845 
L 208.286136 110.886441 
L 208.896083 109.885891 
L 209.50603 109.420675 
L 210.115977 109.246162 
L 210.725925 109.261152 
L 211.335872 109.584382 
L 212.555766 111.212725 
L 213.77566 113.085801 
L 214.385608 113.642023 
L 214.995555 113.921164 
L 216.215449 112.632773 
L 216.825396 111.783781 
L 217.435343 110.584787 
L 218.655238 107.202698 
L 219.875132 105.223383 
L 220.485079 104.487193 
L 221.095026 104.123772 
L 221.704974 104.239179 
L 222.924868 105.043155 
L 223.534815 105.737889 
L 225.364657 108.978706 
L 225.974604 109.758432 
L 229.634287 115.538971 
L 230.244234 115.950846 
L 230.854181 115.939457 
L 231.464128 115.805613 
L 232.074075 115.113524 
L 233.29397 111.698305 
L 234.513864 107.274447 
L 235.123811 104.257126 
L 237.5636 88.380448 
L 238.783494 79.369648 
L 239.393441 75.783465 
L 240.003389 73.099039 
L 240.613336 72.035251 
L 241.223283 72.452283 
L 241.83323 74.34758 
L 244.273019 84.153133 
L 245.492913 87.952634 
L 246.712807 87.774762 
L 247.322755 86.364782 
L 247.932702 84.312315 
L 248.542649 82.79429 
L 249.152596 81.859227 
L 249.762543 81.936939 
L 250.37249 82.557771 
L 250.982438 85.935705 
L 251.592385 91.991178 
L 253.422226 114.083671 
L 254.032173 119.632482 
L 254.642121 123.084469 
L 255.252068 124.885711 
L 255.862015 125.625927 
L 256.471962 125.845826 
L 257.081909 125.611301 
L 258.301804 124.624858 
L 258.911751 124.485688 
L 259.521698 124.127435 
L 261.351539 122.358995 
L 261.961487 121.759564 
L 262.571434 120.939933 
L 263.181381 120.562495 
L 264.401275 120.355161 
L 265.62117 119.779867 
L 266.231117 119.8188 
L 266.841064 119.651493 
L 267.451011 119.152952 
L 268.060958 118.82213 
L 269.280853 118.608802 
L 269.8908 118.332672 
L 270.500747 118.374619 
L 271.110694 118.718797 
L 271.720641 118.864138 
L 272.940536 118.618853 
L 273.550483 118.678746 
L 274.16043 118.623715 
L 275.380324 117.989114 
L 276.600219 117.529813 
L 277.820113 116.895485 
L 280.259902 117.627666 
L 280.869849 118.341578 
L 281.479796 119.352179 
L 282.69969 120.671712 
L 283.309637 121.490371 
L 283.919585 121.983728 
L 284.529532 122.160019 
L 285.139479 122.026828 
L 286.359373 122.113237 
L 287.579268 121.653143 
L 288.189215 121.731938 
L 289.409109 122.21794 
L 290.019056 122.182459 
L 290.629003 122.5954 
L 291.238951 122.840796 
L 293.068792 123.124808 
L 293.678739 123.585531 
L 294.288686 123.122371 
L 294.898634 123.146187 
L 296.118528 124.103711 
L 297.338422 127.588726 
L 298.558317 130.525555 
L 300.388158 132.833798 
L 300.998105 133.884246 
L 301.608052 134.47774 
L 302.827947 134.391591 
L 303.437894 133.743605 
L 304.047841 132.441198 
L 305.267735 127.340949 
L 306.48763 122.2631 
L 307.097577 120.404353 
L 307.707524 119.200387 
L 308.317471 118.926721 
L 309.537366 120.418088 
L 310.147313 122.764269 
L 311.977154 134.061552 
L 313.197049 139.498022 
L 313.806996 141.582001 
L 314.416943 142.94709 
L 315.02689 143.786649 
L 315.636837 144.070148 
L 316.246784 144.080405 
L 317.466679 142.973823 
L 318.686573 142.251454 
L 319.29652 141.518975 
L 319.906467 140.409667 
L 320.516415 138.819168 
L 321.126362 136.272333 
L 323.56615 122.691193 
L 325.395992 115.85619 
L 326.005939 112.905522 
L 327.835781 91.300627 
L 328.445728 83.057559 
L 329.055675 78.383458 
L 329.665622 77.386921 
L 330.275569 79.303694 
L 330.885516 82.191329 
L 331.495464 86.009663 
L 332.105411 91.044538 
L 334.545199 117.117267 
L 335.765094 126.581998 
L 336.375041 129.807308 
L 337.594935 134.67045 
L 338.204882 136.188352 
L 338.81483 136.383813 
L 339.424777 135.549128 
L 340.034724 133.946513 
L 340.644671 131.805607 
L 342.474513 123.930905 
L 343.694407 120.125006 
L 344.304354 118.806822 
L 344.914301 118.185036 
L 345.524248 118.255071 
L 346.134196 118.577467 
L 346.744143 119.303786 
L 347.964037 121.666616 
L 348.573984 122.558588 
L 350.403826 123.861379 
L 351.013773 124.026342 
L 352.233667 123.898551 
L 354.673456 124.625308 
L 355.89335 125.748976 
L 356.503298 126.146965 
L 357.113245 126.696085 
L 357.723192 127.511569 
L 358.333139 128.114119 
L 359.553033 128.638664 
L 360.772928 129.311018 
L 361.992822 129.474161 
L 362.602769 129.688128 
L 363.212716 129.780932 
L 364.432611 129.721342 
L 365.652505 129.960791 
L 368.702241 129.863558 
L 369.312188 130.0536 
L 369.922135 130.490469 
L 373.581818 133.938319 
L 373.581818 133.938319 
" style="fill:none;stroke:#dd8452;stroke-linecap:round;stroke-width:1.5;"/>
   </g>
   <g id="patch_3">
    <path d="M 54 252 
L 54 34.56 
" style="fill:none;stroke:#ffffff;stroke-linecap:square;stroke-linejoin:miter;stroke-width:1.25;"/>
   </g>
   <g id="patch_4">
    <path d="M 388.8 252 
L 388.8 34.56 
" style="fill:none;stroke:#ffffff;stroke-linecap:square;stroke-linejoin:miter;stroke-width:1.25;"/>
   </g>
   <g id="patch_5">
    <path d="M 54 252 
L 388.8 252 
" style="fill:none;stroke:#ffffff;stroke-linecap:square;stroke-linejoin:miter;stroke-width:1.25;"/>
   </g>
   <g id="patch_6">
    <path d="M 54 34.56 
L 388.8 34.56 
" style="fill:none;stroke:#ffffff;stroke-linecap:square;stroke-linejoin:miter;stroke-width:1.25;"/>
   </g>
   <g id="legend_1">
    <g id="patch_7">
     <path d="M 242.585938 246.5 
L 381.1 246.5 
Q 383.3 246.5 383.3 244.3 
L 383.3 214.0225 
Q 383.3 211.8225 381.1 211.8225 
L 242.585938 211.8225 
Q 240.385938 211.8225 240.385938 214.0225 
L 240.385938 244.3 
Q 240.385938 246.5 242.585938 246.5 
z
" style="fill:#eaeaf2;opacity:0.8;stroke:#cccccc;stroke-linejoin:miter;"/>
    </g>
    <g id="line2d_16">
     <path d="M 244.785938 220.246094 
L 266.785938 220.246094 
" style="fill:none;stroke:#4c72b0;stroke-linecap:round;stroke-width:1.5;"/>
    </g>
    <g id="line2d_17"/>
    <g id="text_16">
     <!-- nowa sekwencja -->
     <defs>
      <path d="M 6.59375 0 
L 6.59375 51.859375 
L 14.5 51.859375 
L 14.5 44.484375 
Q 20.21875 53.03125 31 53.03125 
Q 35.6875 53.03125 39.625 51.34375 
Q 43.5625 49.65625 45.515625 46.921875 
Q 47.46875 44.1875 48.25 40.4375 
Q 48.734375 37.984375 48.734375 31.890625 
L 48.734375 0 
L 39.9375 0 
L 39.9375 31.546875 
Q 39.9375 36.921875 38.90625 39.578125 
Q 37.890625 42.234375 35.28125 43.8125 
Q 32.671875 45.40625 29.15625 45.40625 
Q 23.53125 45.40625 19.453125 41.84375 
Q 15.375 38.28125 15.375 28.328125 
L 15.375 0 
z
" id="ArialMT-110"/>
      <path d="M 3.328125 25.921875 
Q 3.328125 40.328125 11.328125 47.265625 
Q 18.015625 53.03125 27.640625 53.03125 
Q 38.328125 53.03125 45.109375 46.015625 
Q 51.90625 39.015625 51.90625 26.65625 
Q 51.90625 16.65625 48.90625 10.90625 
Q 45.90625 5.171875 40.15625 2 
Q 34.421875 -1.171875 27.640625 -1.171875 
Q 16.75 -1.171875 10.03125 5.8125 
Q 3.328125 12.796875 3.328125 25.921875 
z
M 12.359375 25.921875 
Q 12.359375 15.96875 16.703125 11.015625 
Q 21.046875 6.0625 27.640625 6.0625 
Q 34.1875 6.0625 38.53125 11.03125 
Q 42.875 16.015625 42.875 26.21875 
Q 42.875 35.84375 38.5 40.796875 
Q 34.125 45.75 27.640625 45.75 
Q 21.046875 45.75 16.703125 40.8125 
Q 12.359375 35.890625 12.359375 25.921875 
z
" id="ArialMT-111"/>
      <path d="M 16.15625 0 
L 0.296875 51.859375 
L 9.375 51.859375 
L 17.625 21.921875 
L 20.703125 10.796875 
Q 20.90625 11.625 23.390625 21.484375 
L 31.640625 51.859375 
L 40.671875 51.859375 
L 48.4375 21.78125 
L 51.03125 11.859375 
L 54 21.875 
L 62.890625 51.859375 
L 71.4375 51.859375 
L 55.21875 0 
L 46.09375 0 
L 37.84375 31.0625 
L 35.84375 39.890625 
L 25.34375 0 
z
" id="ArialMT-119"/>
      <path d="M 40.4375 6.390625 
Q 35.546875 2.25 31.03125 0.53125 
Q 26.515625 -1.171875 21.34375 -1.171875 
Q 12.796875 -1.171875 8.203125 3 
Q 3.609375 7.171875 3.609375 13.671875 
Q 3.609375 17.484375 5.34375 20.625 
Q 7.078125 23.78125 9.890625 25.6875 
Q 12.703125 27.59375 16.21875 28.5625 
Q 18.796875 29.25 24.03125 29.890625 
Q 34.671875 31.15625 39.703125 32.90625 
Q 39.75 34.71875 39.75 35.203125 
Q 39.75 40.578125 37.25 42.78125 
Q 33.890625 45.75 27.25 45.75 
Q 21.046875 45.75 18.09375 43.578125 
Q 15.140625 41.40625 13.71875 35.890625 
L 5.125 37.0625 
Q 6.296875 42.578125 8.984375 45.96875 
Q 11.671875 49.359375 16.75 51.1875 
Q 21.828125 53.03125 28.515625 53.03125 
Q 35.15625 53.03125 39.296875 51.46875 
Q 43.453125 49.90625 45.40625 47.53125 
Q 47.359375 45.171875 48.140625 41.546875 
Q 48.578125 39.3125 48.578125 33.453125 
L 48.578125 21.734375 
Q 48.578125 9.46875 49.140625 6.21875 
Q 49.703125 2.984375 51.375 0 
L 42.1875 0 
Q 40.828125 2.734375 40.4375 6.390625 
z
M 39.703125 26.03125 
Q 34.90625 24.078125 25.34375 22.703125 
Q 19.921875 21.921875 17.671875 20.9375 
Q 15.4375 19.96875 14.203125 18.09375 
Q 12.984375 16.21875 12.984375 13.921875 
Q 12.984375 10.40625 15.640625 8.0625 
Q 18.3125 5.71875 23.4375 5.71875 
Q 28.515625 5.71875 32.46875 7.9375 
Q 36.421875 10.15625 38.28125 14.015625 
Q 39.703125 17 39.703125 22.796875 
z
" id="ArialMT-97"/>
      <path d="M 42.09375 16.703125 
L 51.171875 15.578125 
Q 49.03125 7.625 43.21875 3.21875 
Q 37.40625 -1.171875 28.375 -1.171875 
Q 17 -1.171875 10.328125 5.828125 
Q 3.65625 12.84375 3.65625 25.484375 
Q 3.65625 38.578125 10.390625 45.796875 
Q 17.140625 53.03125 27.875 53.03125 
Q 38.28125 53.03125 44.875 45.953125 
Q 51.46875 38.875 51.46875 26.03125 
Q 51.46875 25.25 51.421875 23.6875 
L 12.75 23.6875 
Q 13.234375 15.140625 17.578125 10.59375 
Q 21.921875 6.0625 28.421875 6.0625 
Q 33.25 6.0625 36.671875 8.59375 
Q 40.09375 11.140625 42.09375 16.703125 
z
M 13.234375 30.90625 
L 42.1875 30.90625 
Q 41.609375 37.453125 38.875 40.71875 
Q 34.671875 45.796875 27.984375 45.796875 
Q 21.921875 45.796875 17.796875 41.75 
Q 13.671875 37.703125 13.234375 30.90625 
z
" id="ArialMT-101"/>
      <path d="M 6.640625 0 
L 6.640625 71.578125 
L 15.4375 71.578125 
L 15.4375 30.765625 
L 36.234375 51.859375 
L 47.609375 51.859375 
L 27.78125 32.625 
L 49.609375 0 
L 38.765625 0 
L 21.625 26.515625 
L 15.4375 20.5625 
L 15.4375 0 
z
" id="ArialMT-107"/>
      <path d="M 40.4375 19 
L 49.078125 17.875 
Q 47.65625 8.9375 41.8125 3.875 
Q 35.984375 -1.171875 27.484375 -1.171875 
Q 16.84375 -1.171875 10.375 5.78125 
Q 3.90625 12.75 3.90625 25.734375 
Q 3.90625 34.125 6.6875 40.421875 
Q 9.46875 46.734375 15.15625 49.875 
Q 20.84375 53.03125 27.546875 53.03125 
Q 35.984375 53.03125 41.359375 48.75 
Q 46.734375 44.484375 48.25 36.625 
L 39.703125 35.296875 
Q 38.484375 40.53125 35.375 43.15625 
Q 32.28125 45.796875 27.875 45.796875 
Q 21.234375 45.796875 17.078125 41.03125 
Q 12.9375 36.28125 12.9375 25.984375 
Q 12.9375 15.53125 16.9375 10.796875 
Q 20.953125 6.0625 27.390625 6.0625 
Q 32.5625 6.0625 36.03125 9.234375 
Q 39.5 12.40625 40.4375 19 
z
" id="ArialMT-99"/>
      <path d="M 6.546875 61.375 
L 6.546875 71.578125 
L 15.328125 71.578125 
L 15.328125 61.375 
z
M -4.59375 -20.125 
L -2.9375 -12.640625 
Q -0.296875 -13.328125 1.21875 -13.328125 
Q 3.90625 -13.328125 5.21875 -11.546875 
Q 6.546875 -9.765625 6.546875 -2.640625 
L 6.546875 51.859375 
L 15.328125 51.859375 
L 15.328125 -2.828125 
Q 15.328125 -12.40625 12.84375 -16.15625 
Q 9.671875 -21.046875 2.296875 -21.046875 
Q -1.265625 -21.046875 -4.59375 -20.125 
z
" id="ArialMT-106"/>
     </defs>
     <g style="fill:#262626;" transform="translate(275.585938 224.096094)scale(0.11 -0.11)">
      <use xlink:href="#ArialMT-110"/>
      <use x="55.615234" xlink:href="#ArialMT-111"/>
      <use x="111.230469" xlink:href="#ArialMT-119"/>
      <use x="183.447266" xlink:href="#ArialMT-97"/>
      <use x="239.0625" xlink:href="#ArialMT-32"/>
      <use x="266.845703" xlink:href="#ArialMT-115"/>
      <use x="316.845703" xlink:href="#ArialMT-101"/>
      <use x="372.460938" xlink:href="#ArialMT-107"/>
      <use x="422.460938" xlink:href="#ArialMT-119"/>
      <use x="494.677734" xlink:href="#ArialMT-101"/>
      <use x="550.292969" xlink:href="#ArialMT-110"/>
      <use x="605.908203" xlink:href="#ArialMT-99"/>
      <use x="655.908203" xlink:href="#ArialMT-106"/>
      <use x="678.125" xlink:href="#ArialMT-97"/>
     </g>
    </g>
    <g id="line2d_18">
     <path d="M 244.785938 235.934844 
L 266.785938 235.934844 
" style="fill:none;stroke:#dd8452;stroke-linecap:round;stroke-width:1.5;"/>
    </g>
    <g id="line2d_19"/>
    <g id="text_17">
     <!-- sekwencja wzorcowa -->
     <defs>
      <path d="M 1.953125 0 
L 1.953125 7.125 
L 34.96875 45.015625 
Q 29.34375 44.734375 25.046875 44.734375 
L 3.90625 44.734375 
L 3.90625 51.859375 
L 46.296875 51.859375 
L 46.296875 46.046875 
L 18.21875 13.140625 
L 12.796875 7.125 
Q 18.703125 7.5625 23.875 7.5625 
L 47.859375 7.5625 
L 47.859375 0 
z
" id="ArialMT-122"/>
      <path d="M 6.5 0 
L 6.5 51.859375 
L 14.40625 51.859375 
L 14.40625 44 
Q 17.4375 49.515625 20 51.265625 
Q 22.5625 53.03125 25.640625 53.03125 
Q 30.078125 53.03125 34.671875 50.203125 
L 31.640625 42.046875 
Q 28.421875 43.953125 25.203125 43.953125 
Q 22.3125 43.953125 20.015625 42.21875 
Q 17.71875 40.484375 16.75 37.40625 
Q 15.28125 32.71875 15.28125 27.15625 
L 15.28125 0 
z
" id="ArialMT-114"/>
     </defs>
     <g style="fill:#262626;" transform="translate(275.585938 239.784844)scale(0.11 -0.11)">
      <use xlink:href="#ArialMT-115"/>
      <use x="50" xlink:href="#ArialMT-101"/>
      <use x="105.615234" xlink:href="#ArialMT-107"/>
      <use x="155.615234" xlink:href="#ArialMT-119"/>
      <use x="227.832031" xlink:href="#ArialMT-101"/>
      <use x="283.447266" xlink:href="#ArialMT-110"/>
      <use x="339.0625" xlink:href="#ArialMT-99"/>
      <use x="389.0625" xlink:href="#ArialMT-106"/>
      <use x="411.279297" xlink:href="#ArialMT-97"/>
      <use x="466.894531" xlink:href="#ArialMT-32"/>
      <use x="494.677734" xlink:href="#ArialMT-119"/>
      <use x="566.894531" xlink:href="#ArialMT-122"/>
      <use x="616.894531" xlink:href="#ArialMT-111"/>
      <use x="672.509766" xlink:href="#ArialMT-114"/>
      <use x="705.810547" xlink:href="#ArialMT-99"/>
      <use x="755.810547" xlink:href="#ArialMT-111"/>
      <use x="811.425781" xlink:href="#ArialMT-119"/>
      <use x="883.642578" xlink:href="#ArialMT-97"/>
     </g>
    </g>
   </g>
  </g>
 </g>
 <defs>
  <clipPath id="pd4e77c413a">
   <rect height="217.44" width="334.8" x="54" y="34.56"/>
  </clipPath>
 </defs>
</svg>
