<?xml version="1.0" encoding="utf-8" standalone="no"?>
<!DOCTYPE svg PUBLIC "-//W3C//DTD SVG 1.1//EN"
  "http://www.w3.org/Graphics/SVG/1.1/DTD/svg11.dtd">
<!-- Created with matplotlib (https://matplotlib.org/) -->
<svg height="288pt" version="1.1" viewBox="0 0 432 288" width="432pt" xmlns="http://www.w3.org/2000/svg" xmlns:xlink="http://www.w3.org/1999/xlink">
 <defs>
  <style type="text/css">
*{stroke-linecap:butt;stroke-linejoin:round;}
  </style>
 </defs>
 <g id="figure_1">
  <g id="patch_1">
   <path d="M 0 288 
L 432 288 
L 432 0 
L 0 0 
z
" style="fill:#ffffff;"/>
  </g>
  <g id="axes_1">
   <g id="patch_2">
    <path d="M 54 252 
L 388.8 252 
L 388.8 34.56 
L 54 34.56 
z
" style="fill:#eaeaf2;"/>
   </g>
   <g id="matplotlib.axis_1">
    <g id="xtick_1">
     <g id="line2d_1">
      <path clip-path="url(#pd24c10b5ca)" d="M 69.218182 252 
L 69.218182 34.56 
" style="fill:none;stroke:#ffffff;stroke-linecap:round;"/>
     </g>
     <g id="text_1">
      <!-- 0 -->
      <defs>
       <path d="M 4.15625 35.296875 
Q 4.15625 48 6.765625 55.734375 
Q 9.375 63.484375 14.515625 67.671875 
Q 19.671875 71.875 27.484375 71.875 
Q 33.25 71.875 37.59375 69.546875 
Q 41.9375 67.234375 44.765625 62.859375 
Q 47.609375 58.5 49.21875 52.21875 
Q 50.828125 45.953125 50.828125 35.296875 
Q 50.828125 22.703125 48.234375 14.96875 
Q 45.65625 7.234375 40.5 3 
Q 35.359375 -1.21875 27.484375 -1.21875 
Q 17.140625 -1.21875 11.234375 6.203125 
Q 4.15625 15.140625 4.15625 35.296875 
z
M 13.1875 35.296875 
Q 13.1875 17.671875 17.3125 11.828125 
Q 21.4375 6 27.484375 6 
Q 33.546875 6 37.671875 11.859375 
Q 41.796875 17.71875 41.796875 35.296875 
Q 41.796875 52.984375 37.671875 58.78125 
Q 33.546875 64.59375 27.390625 64.59375 
Q 21.34375 64.59375 17.71875 59.46875 
Q 13.1875 52.9375 13.1875 35.296875 
z
" id="ArialMT-48"/>
      </defs>
      <g style="fill:#262626;" transform="translate(66.159666 269.373594)scale(0.11 -0.11)">
       <use xlink:href="#ArialMT-48"/>
      </g>
     </g>
    </g>
    <g id="xtick_2">
     <g id="line2d_2">
      <path clip-path="url(#pd24c10b5ca)" d="M 130.212896 252 
L 130.212896 34.56 
" style="fill:none;stroke:#ffffff;stroke-linecap:round;"/>
     </g>
     <g id="text_2">
      <!-- 1 -->
      <defs>
       <path d="M 37.25 0 
L 28.46875 0 
L 28.46875 56 
Q 25.296875 52.984375 20.140625 49.953125 
Q 14.984375 46.921875 10.890625 45.40625 
L 10.890625 53.90625 
Q 18.265625 57.375 23.78125 62.296875 
Q 29.296875 67.234375 31.59375 71.875 
L 37.25 71.875 
z
" id="ArialMT-49"/>
      </defs>
      <g style="fill:#262626;" transform="translate(127.15438 269.373594)scale(0.11 -0.11)">
       <use xlink:href="#ArialMT-49"/>
      </g>
     </g>
    </g>
    <g id="xtick_3">
     <g id="line2d_3">
      <path clip-path="url(#pd24c10b5ca)" d="M 191.207609 252 
L 191.207609 34.56 
" style="fill:none;stroke:#ffffff;stroke-linecap:round;"/>
     </g>
     <g id="text_3">
      <!-- 2 -->
      <defs>
       <path d="M 50.34375 8.453125 
L 50.34375 0 
L 3.03125 0 
Q 2.9375 3.171875 4.046875 6.109375 
Q 5.859375 10.9375 9.828125 15.625 
Q 13.8125 20.3125 21.34375 26.46875 
Q 33.015625 36.03125 37.109375 41.625 
Q 41.21875 47.21875 41.21875 52.203125 
Q 41.21875 57.421875 37.46875 61 
Q 33.734375 64.59375 27.734375 64.59375 
Q 21.390625 64.59375 17.578125 60.78125 
Q 13.765625 56.984375 13.71875 50.25 
L 4.6875 51.171875 
Q 5.609375 61.28125 11.65625 66.578125 
Q 17.71875 71.875 27.9375 71.875 
Q 38.234375 71.875 44.234375 66.15625 
Q 50.25 60.453125 50.25 52 
Q 50.25 47.703125 48.484375 43.546875 
Q 46.734375 39.40625 42.65625 34.8125 
Q 38.578125 30.21875 29.109375 22.21875 
Q 21.1875 15.578125 18.9375 13.203125 
Q 16.703125 10.84375 15.234375 8.453125 
z
" id="ArialMT-50"/>
      </defs>
      <g style="fill:#262626;" transform="translate(188.149094 269.373594)scale(0.11 -0.11)">
       <use xlink:href="#ArialMT-50"/>
      </g>
     </g>
    </g>
    <g id="xtick_4">
     <g id="line2d_4">
      <path clip-path="url(#pd24c10b5ca)" d="M 252.202323 252 
L 252.202323 34.56 
" style="fill:none;stroke:#ffffff;stroke-linecap:round;"/>
     </g>
     <g id="text_4">
      <!-- 3 -->
      <defs>
       <path d="M 4.203125 18.890625 
L 12.984375 20.0625 
Q 14.5 12.59375 18.140625 9.296875 
Q 21.78125 6 27 6 
Q 33.203125 6 37.46875 10.296875 
Q 41.75 14.59375 41.75 20.953125 
Q 41.75 27 37.796875 30.921875 
Q 33.84375 34.859375 27.734375 34.859375 
Q 25.25 34.859375 21.53125 33.890625 
L 22.515625 41.609375 
Q 23.390625 41.5 23.921875 41.5 
Q 29.546875 41.5 34.03125 44.421875 
Q 38.53125 47.359375 38.53125 53.46875 
Q 38.53125 58.296875 35.25 61.46875 
Q 31.984375 64.65625 26.8125 64.65625 
Q 21.6875 64.65625 18.265625 61.421875 
Q 14.84375 58.203125 13.875 51.765625 
L 5.078125 53.328125 
Q 6.6875 62.15625 12.390625 67.015625 
Q 18.109375 71.875 26.609375 71.875 
Q 32.46875 71.875 37.390625 69.359375 
Q 42.328125 66.84375 44.9375 62.5 
Q 47.5625 58.15625 47.5625 53.265625 
Q 47.5625 48.640625 45.0625 44.828125 
Q 42.578125 41.015625 37.703125 38.765625 
Q 44.046875 37.3125 47.5625 32.6875 
Q 51.078125 28.078125 51.078125 21.140625 
Q 51.078125 11.765625 44.234375 5.25 
Q 37.40625 -1.265625 26.953125 -1.265625 
Q 17.53125 -1.265625 11.296875 4.34375 
Q 5.078125 9.96875 4.203125 18.890625 
z
" id="ArialMT-51"/>
      </defs>
      <g style="fill:#262626;" transform="translate(249.143808 269.373594)scale(0.11 -0.11)">
       <use xlink:href="#ArialMT-51"/>
      </g>
     </g>
    </g>
    <g id="xtick_5">
     <g id="line2d_5">
      <path clip-path="url(#pd24c10b5ca)" d="M 313.197037 252 
L 313.197037 34.56 
" style="fill:none;stroke:#ffffff;stroke-linecap:round;"/>
     </g>
     <g id="text_5">
      <!-- 4 -->
      <defs>
       <path d="M 32.328125 0 
L 32.328125 17.140625 
L 1.265625 17.140625 
L 1.265625 25.203125 
L 33.9375 71.578125 
L 41.109375 71.578125 
L 41.109375 25.203125 
L 50.78125 25.203125 
L 50.78125 17.140625 
L 41.109375 17.140625 
L 41.109375 0 
z
M 32.328125 25.203125 
L 32.328125 57.46875 
L 9.90625 25.203125 
z
" id="ArialMT-52"/>
      </defs>
      <g style="fill:#262626;" transform="translate(310.138521 269.373594)scale(0.11 -0.11)">
       <use xlink:href="#ArialMT-52"/>
      </g>
     </g>
    </g>
    <g id="xtick_6">
     <g id="line2d_6">
      <path clip-path="url(#pd24c10b5ca)" d="M 374.191751 252 
L 374.191751 34.56 
" style="fill:none;stroke:#ffffff;stroke-linecap:round;"/>
     </g>
     <g id="text_6">
      <!-- 5 -->
      <defs>
       <path d="M 4.15625 18.75 
L 13.375 19.53125 
Q 14.40625 12.796875 18.140625 9.390625 
Q 21.875 6 27.15625 6 
Q 33.5 6 37.890625 10.78125 
Q 42.28125 15.578125 42.28125 23.484375 
Q 42.28125 31 38.0625 35.34375 
Q 33.84375 39.703125 27 39.703125 
Q 22.75 39.703125 19.328125 37.765625 
Q 15.921875 35.84375 13.96875 32.765625 
L 5.71875 33.84375 
L 12.640625 70.609375 
L 48.25 70.609375 
L 48.25 62.203125 
L 19.671875 62.203125 
L 15.828125 42.96875 
Q 22.265625 47.46875 29.34375 47.46875 
Q 38.71875 47.46875 45.15625 40.96875 
Q 51.609375 34.46875 51.609375 24.265625 
Q 51.609375 14.546875 45.953125 7.46875 
Q 39.0625 -1.21875 27.15625 -1.21875 
Q 17.390625 -1.21875 11.203125 4.25 
Q 5.03125 9.71875 4.15625 18.75 
z
" id="ArialMT-53"/>
      </defs>
      <g style="fill:#262626;" transform="translate(371.133235 269.373594)scale(0.11 -0.11)">
       <use xlink:href="#ArialMT-53"/>
      </g>
     </g>
    </g>
    <g id="text_7">
     <!-- t [s] -->
     <defs>
      <path d="M 25.78125 7.859375 
L 27.046875 0.09375 
Q 23.34375 -0.6875 20.40625 -0.6875 
Q 15.625 -0.6875 12.984375 0.828125 
Q 10.359375 2.34375 9.28125 4.8125 
Q 8.203125 7.28125 8.203125 15.1875 
L 8.203125 45.015625 
L 1.765625 45.015625 
L 1.765625 51.859375 
L 8.203125 51.859375 
L 8.203125 64.703125 
L 16.9375 69.96875 
L 16.9375 51.859375 
L 25.78125 51.859375 
L 25.78125 45.015625 
L 16.9375 45.015625 
L 16.9375 14.703125 
Q 16.9375 10.9375 17.40625 9.859375 
Q 17.875 8.796875 18.921875 8.15625 
Q 19.96875 7.515625 21.921875 7.515625 
Q 23.390625 7.515625 25.78125 7.859375 
z
" id="ArialMT-116"/>
      <path id="ArialMT-32"/>
      <path d="M 6.78125 -19.875 
L 6.78125 71.578125 
L 26.171875 71.578125 
L 26.171875 64.3125 
L 15.578125 64.3125 
L 15.578125 -12.59375 
L 26.171875 -12.59375 
L 26.171875 -19.875 
z
" id="ArialMT-91"/>
      <path d="M 3.078125 15.484375 
L 11.765625 16.84375 
Q 12.5 11.625 15.84375 8.84375 
Q 19.1875 6.0625 25.203125 6.0625 
Q 31.25 6.0625 34.171875 8.515625 
Q 37.109375 10.984375 37.109375 14.3125 
Q 37.109375 17.28125 34.515625 19 
Q 32.71875 20.171875 25.53125 21.96875 
Q 15.875 24.421875 12.140625 26.203125 
Q 8.40625 27.984375 6.46875 31.125 
Q 4.546875 34.28125 4.546875 38.09375 
Q 4.546875 41.546875 6.125 44.5 
Q 7.71875 47.46875 10.453125 49.421875 
Q 12.5 50.921875 16.03125 51.96875 
Q 19.578125 53.03125 23.640625 53.03125 
Q 29.734375 53.03125 34.34375 51.265625 
Q 38.96875 49.515625 41.15625 46.5 
Q 43.359375 43.5 44.1875 38.484375 
L 35.59375 37.3125 
Q 35.015625 41.3125 32.203125 43.546875 
Q 29.390625 45.796875 24.265625 45.796875 
Q 18.21875 45.796875 15.625 43.796875 
Q 13.03125 41.796875 13.03125 39.109375 
Q 13.03125 37.40625 14.109375 36.03125 
Q 15.1875 34.625 17.484375 33.6875 
Q 18.796875 33.203125 25.25 31.453125 
Q 34.578125 28.953125 38.25 27.359375 
Q 41.9375 25.78125 44.03125 22.75 
Q 46.140625 19.734375 46.140625 15.234375 
Q 46.140625 10.84375 43.578125 6.953125 
Q 41.015625 3.078125 36.171875 0.953125 
Q 31.34375 -1.171875 25.25 -1.171875 
Q 15.140625 -1.171875 9.84375 3.03125 
Q 4.546875 7.234375 3.078125 15.484375 
z
" id="ArialMT-115"/>
      <path d="M 21.296875 -19.875 
L 1.90625 -19.875 
L 1.90625 -12.59375 
L 12.5 -12.59375 
L 12.5 64.3125 
L 1.90625 64.3125 
L 1.90625 71.578125 
L 21.296875 71.578125 
z
" id="ArialMT-93"/>
     </defs>
     <g style="fill:#262626;" transform="translate(211.7325 284.149219)scale(0.12 -0.12)">
      <use xlink:href="#ArialMT-116"/>
      <use x="27.783203" xlink:href="#ArialMT-32"/>
      <use x="55.566406" xlink:href="#ArialMT-91"/>
      <use x="83.349609" xlink:href="#ArialMT-115"/>
      <use x="133.349609" xlink:href="#ArialMT-93"/>
     </g>
    </g>
   </g>
   <g id="matplotlib.axis_2">
    <g id="ytick_1">
     <g id="line2d_7">
      <path clip-path="url(#pd24c10b5ca)" d="M 54 238.048413 
L 388.8 238.048413 
" style="fill:none;stroke:#ffffff;stroke-linecap:round;"/>
     </g>
     <g id="text_8">
      <!-- −1.5 -->
      <defs>
       <path d="M 52.828125 31.203125 
L 5.5625 31.203125 
L 5.5625 39.40625 
L 52.828125 39.40625 
z
" id="ArialMT-8722"/>
       <path d="M 9.078125 0 
L 9.078125 10.015625 
L 19.09375 10.015625 
L 19.09375 0 
z
" id="ArialMT-46"/>
      </defs>
      <g style="fill:#262626;" transform="translate(22.785312 241.98521)scale(0.11 -0.11)">
       <use xlink:href="#ArialMT-8722"/>
       <use x="58.398438" xlink:href="#ArialMT-49"/>
       <use x="114.013672" xlink:href="#ArialMT-46"/>
       <use x="141.796875" xlink:href="#ArialMT-53"/>
      </g>
     </g>
    </g>
    <g id="ytick_2">
     <g id="line2d_8">
      <path clip-path="url(#pd24c10b5ca)" d="M 54 205.194336 
L 388.8 205.194336 
" style="fill:none;stroke:#ffffff;stroke-linecap:round;"/>
     </g>
     <g id="text_9">
      <!-- −1.0 -->
      <g style="fill:#262626;" transform="translate(22.785312 209.131133)scale(0.11 -0.11)">
       <use xlink:href="#ArialMT-8722"/>
       <use x="58.398438" xlink:href="#ArialMT-49"/>
       <use x="114.013672" xlink:href="#ArialMT-46"/>
       <use x="141.796875" xlink:href="#ArialMT-48"/>
      </g>
     </g>
    </g>
    <g id="ytick_3">
     <g id="line2d_9">
      <path clip-path="url(#pd24c10b5ca)" d="M 54 172.340258 
L 388.8 172.340258 
" style="fill:none;stroke:#ffffff;stroke-linecap:round;"/>
     </g>
     <g id="text_10">
      <!-- −0.5 -->
      <g style="fill:#262626;" transform="translate(22.785312 176.277055)scale(0.11 -0.11)">
       <use xlink:href="#ArialMT-8722"/>
       <use x="58.398438" xlink:href="#ArialMT-48"/>
       <use x="114.013672" xlink:href="#ArialMT-46"/>
       <use x="141.796875" xlink:href="#ArialMT-53"/>
      </g>
     </g>
    </g>
    <g id="ytick_4">
     <g id="line2d_10">
      <path clip-path="url(#pd24c10b5ca)" d="M 54 139.48618 
L 388.8 139.48618 
" style="fill:none;stroke:#ffffff;stroke-linecap:round;"/>
     </g>
     <g id="text_11">
      <!-- 0.0 -->
      <g style="fill:#262626;" transform="translate(29.21 143.422977)scale(0.11 -0.11)">
       <use xlink:href="#ArialMT-48"/>
       <use x="55.615234" xlink:href="#ArialMT-46"/>
       <use x="83.398438" xlink:href="#ArialMT-48"/>
      </g>
     </g>
    </g>
    <g id="ytick_5">
     <g id="line2d_11">
      <path clip-path="url(#pd24c10b5ca)" d="M 54 106.632103 
L 388.8 106.632103 
" style="fill:none;stroke:#ffffff;stroke-linecap:round;"/>
     </g>
     <g id="text_12">
      <!-- 0.5 -->
      <g style="fill:#262626;" transform="translate(29.21 110.568899)scale(0.11 -0.11)">
       <use xlink:href="#ArialMT-48"/>
       <use x="55.615234" xlink:href="#ArialMT-46"/>
       <use x="83.398438" xlink:href="#ArialMT-53"/>
      </g>
     </g>
    </g>
    <g id="ytick_6">
     <g id="line2d_12">
      <path clip-path="url(#pd24c10b5ca)" d="M 54 73.778025 
L 388.8 73.778025 
" style="fill:none;stroke:#ffffff;stroke-linecap:round;"/>
     </g>
     <g id="text_13">
      <!-- 1.0 -->
      <g style="fill:#262626;" transform="translate(29.21 77.714822)scale(0.11 -0.11)">
       <use xlink:href="#ArialMT-49"/>
       <use x="55.615234" xlink:href="#ArialMT-46"/>
       <use x="83.398438" xlink:href="#ArialMT-48"/>
      </g>
     </g>
    </g>
    <g id="ytick_7">
     <g id="line2d_13">
      <path clip-path="url(#pd24c10b5ca)" d="M 54 40.923947 
L 388.8 40.923947 
" style="fill:none;stroke:#ffffff;stroke-linecap:round;"/>
     </g>
     <g id="text_14">
      <!-- 1.5 -->
      <g style="fill:#262626;" transform="translate(29.21 44.860744)scale(0.11 -0.11)">
       <use xlink:href="#ArialMT-49"/>
       <use x="55.615234" xlink:href="#ArialMT-46"/>
       <use x="83.398438" xlink:href="#ArialMT-53"/>
      </g>
     </g>
    </g>
    <g id="text_15">
     <!-- $p_1 [Pa]$ -->
     <defs>
      <path d="M 49.609375 33.6875 
Q 49.609375 40.875 46.484375 44.671875 
Q 43.359375 48.484375 37.5 48.484375 
Q 33.5 48.484375 29.859375 46.4375 
Q 26.21875 44.390625 23.390625 40.484375 
Q 20.609375 36.625 18.9375 31.15625 
Q 17.28125 25.6875 17.28125 20.3125 
Q 17.28125 13.484375 20.40625 9.796875 
Q 23.53125 6.109375 29.296875 6.109375 
Q 33.546875 6.109375 37.1875 8.109375 
Q 40.828125 10.109375 43.40625 13.921875 
Q 46.1875 17.921875 47.890625 23.34375 
Q 49.609375 28.765625 49.609375 33.6875 
z
M 21.78125 46.390625 
Q 25.390625 51.125 30.296875 53.5625 
Q 35.203125 56 41.21875 56 
Q 49.609375 56 54.25 50.5 
Q 58.890625 45.015625 58.890625 35.109375 
Q 58.890625 27 56 19.65625 
Q 53.125 12.3125 47.703125 6.5 
Q 44.09375 2.640625 39.546875 0.609375 
Q 35.015625 -1.421875 29.984375 -1.421875 
Q 24.171875 -1.421875 20.21875 1 
Q 16.265625 3.421875 14.3125 8.203125 
L 8.6875 -20.796875 
L -0.296875 -20.796875 
L 14.40625 54.6875 
L 23.390625 54.6875 
z
" id="DejaVuSans-Oblique-112"/>
      <path d="M 12.40625 8.296875 
L 28.515625 8.296875 
L 28.515625 63.921875 
L 10.984375 60.40625 
L 10.984375 69.390625 
L 28.421875 72.90625 
L 38.28125 72.90625 
L 38.28125 8.296875 
L 54.390625 8.296875 
L 54.390625 0 
L 12.40625 0 
z
" id="DejaVuSans-49"/>
      <path d="M 8.59375 75.984375 
L 29.296875 75.984375 
L 29.296875 69 
L 17.578125 69 
L 17.578125 -6.203125 
L 29.296875 -6.203125 
L 29.296875 -13.1875 
L 8.59375 -13.1875 
z
" id="DejaVuSans-91"/>
      <path d="M 16.890625 72.90625 
L 39.703125 72.90625 
Q 49.65625 72.90625 54.875 68.265625 
Q 60.109375 63.625 60.109375 54.6875 
Q 60.109375 42.671875 52.390625 35.984375 
Q 44.671875 29.296875 30.71875 29.296875 
L 18.3125 29.296875 
L 12.59375 0 
L 2.6875 0 
z
M 25.203125 64.796875 
L 19.921875 37.40625 
L 32.328125 37.40625 
Q 40.71875 37.40625 45.203125 41.703125 
Q 49.703125 46 49.703125 54 
Q 49.703125 59.125 46.65625 61.953125 
Q 43.609375 64.796875 38.09375 64.796875 
z
" id="DejaVuSans-Oblique-80"/>
      <path d="M 53.71875 31.203125 
L 47.609375 0 
L 38.625 0 
L 40.28125 8.296875 
Q 36.328125 3.421875 31.265625 1 
Q 26.21875 -1.421875 20.015625 -1.421875 
Q 13.03125 -1.421875 8.5625 2.84375 
Q 4.109375 7.125 4.109375 13.8125 
Q 4.109375 23.390625 11.75 28.953125 
Q 19.390625 34.515625 32.8125 34.515625 
L 45.3125 34.515625 
L 45.796875 36.921875 
Q 45.90625 37.3125 45.953125 37.765625 
Q 46 38.234375 46 39.203125 
Q 46 43.5625 42.453125 45.96875 
Q 38.921875 48.390625 32.515625 48.390625 
Q 28.125 48.390625 23.5 47.265625 
Q 18.890625 46.140625 14.015625 43.890625 
L 15.578125 52.203125 
Q 20.65625 54.109375 25.515625 55.046875 
Q 30.375 56 34.90625 56 
Q 44.578125 56 49.625 51.796875 
Q 54.6875 47.609375 54.6875 39.59375 
Q 54.6875 37.984375 54.4375 35.8125 
Q 54.203125 33.640625 53.71875 31.203125 
z
M 44 27.484375 
L 35.015625 27.484375 
Q 23.96875 27.484375 18.671875 24.53125 
Q 13.375 21.578125 13.375 15.375 
Q 13.375 11.078125 16.078125 8.640625 
Q 18.796875 6.203125 23.578125 6.203125 
Q 30.90625 6.203125 36.375 11.453125 
Q 41.84375 16.703125 43.609375 25.484375 
z
" id="DejaVuSans-Oblique-97"/>
      <path d="M 30.421875 75.984375 
L 30.421875 -13.1875 
L 9.71875 -13.1875 
L 9.71875 -6.203125 
L 21.390625 -6.203125 
L 21.390625 69 
L 9.71875 69 
L 9.71875 75.984375 
z
" id="DejaVuSans-93"/>
     </defs>
     <g style="fill:#262626;" transform="translate(16.265313 161.94)rotate(-90)scale(0.12 -0.12)">
      <use transform="translate(0 0.015625)" xlink:href="#DejaVuSans-Oblique-112"/>
      <use transform="translate(63.476562 -16.390625)scale(0.7)" xlink:href="#DejaVuSans-49"/>
      <use transform="translate(110.74707 0.015625)" xlink:href="#DejaVuSans-91"/>
      <use transform="translate(149.760742 0.015625)" xlink:href="#DejaVuSans-Oblique-80"/>
      <use transform="translate(210.063477 0.015625)" xlink:href="#DejaVuSans-Oblique-97"/>
      <use transform="translate(271.342773 0.015625)" xlink:href="#DejaVuSans-93"/>
     </g>
    </g>
   </g>
   <g id="line2d_14">
    <path clip-path="url(#pd24c10b5ca)" d="M 99.71554 79.45865 
L 100.325487 79.187049 
L 100.935435 79.18379 
L 102.155329 80.772564 
L 102.765276 81.84034 
L 103.375223 82.662973 
L 103.98517 83.049366 
L 104.595118 83.941821 
L 105.205065 84.232814 
L 105.815012 84.674936 
L 106.424959 85.495435 
L 107.034906 86.840313 
L 107.644853 88.551469 
L 108.864748 89.538907 
L 109.474695 89.408687 
L 110.084642 87.751029 
L 110.694589 84.605038 
L 111.914484 74.712963 
L 114.354272 48.56216 
L 114.964219 44.443636 
L 115.574167 52.637837 
L 116.184114 56.590962 
L 116.794061 55.186696 
L 117.404008 51.991067 
L 118.013955 49.670238 
L 118.623902 49.44076 
L 119.843797 55.359414 
L 122.893533 74.947417 
L 123.50348 78.494809 
L 124.113427 81.346131 
L 124.723374 83.307633 
L 125.333321 83.830948 
L 125.943268 82.923948 
L 126.553216 81.673914 
L 127.163163 80.809044 
L 128.383057 77.840254 
L 128.993004 77.609918 
L 129.602951 78.615382 
L 130.212899 80.714492 
L 132.652687 91.342701 
L 133.262634 92.960294 
L 133.872582 94.170796 
L 134.482529 94.775334 
L 135.092476 94.790705 
L 137.532265 93.238895 
L 138.142212 92.143037 
L 139.362106 88.972061 
L 140.582 84.369106 
L 141.191948 82.983664 
L 141.801895 82.25537 
L 142.411842 82.763615 
L 143.631736 85.051576 
L 144.241683 86.572048 
L 144.851631 86.51064 
L 146.071525 83.090548 
L 146.681472 82.671033 
L 147.291419 82.641656 
L 147.901366 82.295765 
L 148.511314 82.391821 
L 149.121261 83.05647 
L 150.951102 86.687038 
L 151.561049 87.628891 
L 152.170997 88.205806 
L 152.780944 88.328012 
L 153.390891 88.195807 
L 154.000838 87.872406 
L 155.220732 86.672928 
L 157.050574 84.5915 
L 158.270468 82.506751 
L 158.880415 81.8198 
L 159.490363 85.215125 
L 160.10031 84.665968 
L 160.710257 81.109409 
L 164.36994 93.900579 
L 164.979887 95.418651 
L 165.589834 96.073902 
L 166.809729 97.859356 
L 167.419676 97.84836 
L 169.249517 96.949068 
L 169.859464 96.018199 
L 171.079359 93.362928 
L 171.689306 92.376994 
L 172.299253 90.928192 
L 172.9092 89.790676 
L 173.519147 89.896899 
L 174.129095 90.287118 
L 175.348989 91.389295 
L 175.958936 91.478031 
L 176.568883 85.375636 
L 177.17883 82.244681 
L 177.788778 90.145326 
L 178.398725 95.714859 
L 179.008672 93.617126 
L 179.618619 90.639725 
L 180.228566 89.0232 
L 180.838513 89.988818 
L 181.448461 91.413996 
L 182.058408 91.854654 
L 182.668355 92.963106 
L 183.888249 94.303396 
L 184.498196 95.115879 
L 185.108144 95.50446 
L 185.718091 96.106433 
L 186.328038 96.972982 
L 186.937985 97.604742 
L 187.547932 96.994768 
L 188.157879 96.058158 
L 188.767827 94.44185 
L 189.377774 91.926939 
L 189.987721 89.910416 
L 190.597668 88.657522 
L 191.207615 88.17624 
L 191.817562 88.04006 
L 192.42751 88.249427 
L 193.037457 88.949436 
L 194.867298 91.58369 
L 195.477245 92.808185 
L 196.69714 96.91821 
L 197.917034 102.264146 
L 199.136928 107.935197 
L 199.746876 110.038486 
L 200.356823 111.503729 
L 200.96677 112.36025 
L 202.186664 112.460927 
L 202.796611 112.064418 
L 203.406559 112.193078 
L 204.016506 111.496152 
L 204.626453 109.296432 
L 205.2364 107.619597 
L 205.846347 104.49323 
L 207.066242 95.569234 
L 207.676189 92.958836 
L 208.286136 91.753847 
L 209.50603 90.044979 
L 210.115977 89.788721 
L 210.725925 90.738903 
L 213.165713 96.652171 
L 213.77566 97.712871 
L 214.385608 97.674562 
L 214.995555 97.505151 
L 215.605502 97.119422 
L 216.215449 96.381488 
L 218.045291 92.531846 
L 219.265185 90.370468 
L 219.875132 89.540598 
L 220.485079 93.402155 
L 221.095026 92.437788 
L 221.704974 87.41593 
L 222.314921 87.61474 
L 224.144762 89.85397 
L 224.754709 90.928681 
L 225.974604 93.717847 
L 226.584551 94.573985 
L 227.194498 95.628122 
L 227.804445 97.029579 
L 228.414392 97.935042 
L 229.634287 98.774767 
L 230.244234 99.510249 
L 230.854181 99.929638 
L 232.684023 97.259821 
L 233.29397 95.695382 
L 233.903917 92.981598 
L 235.733758 81.758592 
L 236.953653 70.910522 
L 237.5636 61.00217 
L 238.173547 54.42244 
L 238.783494 56.351154 
L 239.393441 57.88242 
L 240.003389 56.193487 
L 240.613336 55.328924 
L 241.223283 56.266604 
L 241.83323 58.408466 
L 243.053124 64.221296 
L 243.663072 66.899876 
L 244.273019 69.043646 
L 244.882966 69.347089 
L 245.492913 70.120403 
L 246.10286 69.268184 
L 247.322755 66.042403 
L 247.932702 64.895392 
L 248.542649 64.442157 
L 249.152596 64.74122 
L 249.762543 67.43883 
L 250.37249 72.203682 
L 253.422226 103.398906 
L 254.032173 106.177285 
L 254.642121 107.614381 
L 255.252068 108.549164 
L 255.862015 108.776391 
L 257.081909 107.85542 
L 259.521698 107.618824 
L 260.131645 107.828913 
L 260.741592 107.894371 
L 261.351539 107.677591 
L 262.571434 106.663186 
L 263.181381 106.706388 
L 263.791328 106.608251 
L 264.401275 107.631906 
L 265.011222 109.330449 
L 265.62117 110.026982 
L 266.231117 110.519545 
L 266.841064 108.94119 
L 268.060958 101.850696 
L 268.670905 99.500803 
L 269.280853 98.445968 
L 269.8908 97.755434 
L 271.110694 96.118905 
L 271.720641 96.345891 
L 272.940536 97.992029 
L 273.550483 98.484067 
L 274.770377 100.007106 
L 275.380324 100.51086 
L 276.600219 100.988655 
L 277.820113 102.302204 
L 278.43006 102.705673 
L 279.040007 102.873543 
L 279.649954 103.380956 
L 280.259902 104.119431 
L 280.869849 104.382249 
L 281.479796 110.335646 
L 282.089743 109.83709 
L 282.69969 103.634575 
L 283.309637 103.499353 
L 283.919585 103.102381 
L 285.139479 102.721187 
L 285.749426 102.846158 
L 286.96932 103.736401 
L 288.189215 104.301134 
L 290.019056 105.135948 
L 290.629003 105.688608 
L 291.238951 106.764894 
L 292.458845 109.607168 
L 293.068792 110.542859 
L 294.288686 114.095153 
L 294.898634 115.609594 
L 296.728475 125.422343 
L 297.338422 127.2031 
L 297.948369 126.85512 
L 298.558317 115.000012 
L 299.168264 109.015501 
L 299.778211 120.842039 
L 300.388158 128.894188 
L 301.608052 115.046164 
L 302.218 110.728151 
L 302.827947 109.613443 
L 303.437894 108.163646 
L 304.047841 105.887511 
L 304.657788 104.692306 
L 305.267735 102.691202 
L 305.877683 101.431552 
L 306.48763 101.596103 
L 307.097577 102.223742 
L 307.707524 103.654275 
L 308.317471 104.509223 
L 308.927418 106.648595 
L 310.75726 115.084366 
L 311.367207 115.356782 
L 311.977154 116.100516 
L 312.587101 117.47215 
L 315.02689 125.15066 
L 316.246784 125.992888 
L 316.856732 126.2267 
L 317.466679 125.925767 
L 318.076626 125.103321 
L 319.29652 122.821438 
L 319.906467 120.884257 
L 321.126362 115.309211 
L 322.346256 109.705795 
L 324.176098 102.124046 
L 324.786045 99.206445 
L 326.005939 86.708137 
L 327.225833 70.814026 
L 327.835781 65.23334 
L 328.445728 62.387833 
L 329.055675 62.59234 
L 329.665622 64.394729 
L 330.275569 67.645488 
L 330.885516 72.069963 
L 332.105411 84.35369 
L 333.935252 102.759249 
L 335.155147 111.933258 
L 336.375041 118.73202 
L 336.984988 121.015665 
L 337.594935 121.957476 
L 338.204882 121.845846 
L 338.81483 120.823584 
L 339.424777 119.033633 
L 341.864565 107.526999 
L 341.864565 107.526999 
" style="fill:none;stroke:#4c72b0;stroke-linecap:round;stroke-width:1.5;"/>
   </g>
   <g id="line2d_15">
    <path clip-path="url(#pd24c10b5ca)" d="M 69.218182 225.509692 
L 70.438076 226.998726 
L 72.877865 229.464375 
L 74.707706 231.208374 
L 77.757442 234.360978 
L 78.367389 234.814118 
L 79.587284 236.195358 
L 80.807178 237.233692 
L 82.027072 238.750748 
L 83.246967 240.409636 
L 84.466861 241.672166 
L 85.076808 241.965639 
L 85.686755 242.116364 
L 86.296702 240.500325 
L 86.90665 236.604442 
L 87.516597 229.942626 
L 88.126544 215.433976 
L 89.346438 176.966872 
L 90.566333 133.790007 
L 91.17628 115.459167 
L 91.786227 104.39692 
L 92.396174 100.712175 
L 93.006121 99.157959 
L 93.616069 98.12745 
L 95.44591 92.144993 
L 96.055857 90.942231 
L 96.665804 90.410188 
L 97.275752 90.581217 
L 97.885699 91.115666 
L 98.495646 91.378799 
L 99.105593 91.454266 
L 100.325487 92.25349 
L 100.935435 92.746055 
L 101.545382 92.820351 
L 102.155329 93.116142 
L 103.375223 95.208718 
L 103.98517 96.038405 
L 104.595118 96.396243 
L 105.205065 96.58092 
L 105.815012 97.534748 
L 107.034906 97.904178 
L 107.644853 98.815584 
L 108.864748 101.556026 
L 109.474695 101.38402 
L 110.084642 100.844146 
L 110.694589 100.024479 
L 111.304536 97.453395 
L 111.914484 93.316752 
L 113.134378 82.913615 
L 115.574167 57.198823 
L 116.184114 53.708687 
L 116.794061 66.182234 
L 117.404008 73.203869 
L 118.623902 61.515395 
L 119.23385 61.219344 
L 119.843797 63.648887 
L 120.453744 68.049089 
L 121.063691 71.289765 
L 123.50348 86.348203 
L 124.113427 89.93746 
L 125.333321 94.798488 
L 125.943268 96.340145 
L 126.553216 96.768355 
L 127.77311 95.450011 
L 128.383057 94.944574 
L 128.993004 94.268215 
L 129.602951 94.116311 
L 130.212899 94.779591 
L 130.822846 96.11103 
L 131.432793 97.904845 
L 133.262634 104.325501 
L 133.872582 106.009065 
L 135.092476 108.049519 
L 135.702423 108.622823 
L 136.31237 108.693271 
L 136.922317 108.268115 
L 138.142212 106.959489 
L 138.752159 105.898887 
L 139.362106 104.262162 
L 142.411842 94.413212 
L 143.021789 93.568432 
L 143.631736 93.19654 
L 144.241683 93.253196 
L 144.851631 93.833793 
L 146.681472 96.130219 
L 148.511314 98.409803 
L 149.121261 98.91079 
L 149.731208 100.000398 
L 150.341155 101.330132 
L 150.951102 102.335241 
L 151.561049 102.962056 
L 152.170997 103.409157 
L 152.780944 103.658574 
L 153.390891 103.384753 
L 154.610785 101.867879 
L 155.83068 99.987218 
L 157.050574 97.806209 
L 158.880415 95.254095 
L 159.490363 94.474113 
L 160.10031 94.100489 
L 160.710257 94.006241 
L 161.320204 94.478898 
L 161.930151 95.625038 
L 163.150046 100.406434 
L 163.759993 102.503478 
L 164.36994 105.233504 
L 164.979887 107.229796 
L 166.199781 109.9966 
L 168.029623 112.214457 
L 168.63957 112.387236 
L 169.249517 112.138587 
L 169.859464 111.565606 
L 170.469412 110.524442 
L 171.689306 106.534096 
L 173.519147 100.185381 
L 174.129095 98.572001 
L 174.739042 98.157755 
L 175.348989 97.915474 
L 175.958936 97.905395 
L 177.17883 99.347757 
L 180.228566 105.243308 
L 180.838513 106.716728 
L 182.668355 109.231844 
L 183.278302 109.430179 
L 183.888249 109.426694 
L 185.108144 109.978802 
L 186.328038 109.092492 
L 186.937985 109.157125 
L 188.157879 110.764188 
L 188.767827 110.936983 
L 189.987721 109.852821 
L 191.207615 107.967922 
L 193.647404 104.083838 
L 194.257351 103.972203 
L 196.087193 105.188846 
L 196.69714 106.352798 
L 197.917034 110.491323 
L 200.356823 119.479013 
L 200.96677 120.835086 
L 201.576717 121.58106 
L 202.186664 122.522382 
L 202.796611 122.985687 
L 203.406559 122.787642 
L 204.016506 122.140531 
L 204.626453 120.81102 
L 205.2364 118.441015 
L 206.456294 112.866792 
L 207.676189 109.158516 
L 208.286136 107.762657 
L 208.896083 106.738291 
L 209.50603 106.262001 
L 210.115977 106.083333 
L 210.725925 106.098681 
L 211.335872 106.429605 
L 212.555766 108.096708 
L 213.77566 110.01437 
L 214.385608 110.583833 
L 214.995555 110.869619 
L 216.215449 109.550559 
L 216.825396 108.681358 
L 217.435343 107.453823 
L 218.655238 103.991227 
L 219.875132 101.964796 
L 220.485079 101.211083 
L 221.095026 100.839011 
L 221.704974 100.957165 
L 222.924868 101.780279 
L 223.534815 102.49155 
L 225.364657 105.809511 
L 225.974604 106.607797 
L 229.634287 112.525936 
L 230.244234 112.947615 
L 230.854181 112.935955 
L 231.464128 112.798925 
L 232.074075 112.090362 
L 233.29397 108.593847 
L 234.513864 104.064684 
L 235.123811 100.975539 
L 237.5636 84.720934 
L 238.783494 75.495642 
L 239.393441 71.824094 
L 240.003389 69.075768 
L 240.613336 67.986658 
L 241.223283 68.413617 
L 241.83323 70.35403 
L 244.273019 80.392992 
L 245.492913 84.282937 
L 246.712807 84.10083 
L 247.322755 82.657288 
L 247.932702 80.555964 
L 248.542649 79.001803 
L 249.152596 78.044483 
L 249.762543 78.124045 
L 250.37249 78.759655 
L 250.982438 82.217997 
L 251.592385 88.417614 
L 253.422226 111.035994 
L 254.032173 116.716888 
L 254.642121 120.251046 
L 255.252068 122.095165 
L 255.862015 122.853001 
L 256.471962 123.078134 
L 257.081909 122.838026 
L 258.301804 121.828103 
L 258.911751 121.68562 
L 259.521698 121.318839 
L 261.351539 119.508303 
L 261.961487 118.894603 
L 262.571434 118.055462 
L 263.181381 117.669039 
L 264.401275 117.45677 
L 265.62117 116.867782 
L 266.231117 116.907642 
L 266.841064 116.736351 
L 267.451011 116.225943 
L 268.060958 115.887247 
L 269.280853 115.668841 
L 269.8908 115.386138 
L 270.500747 115.429083 
L 271.110694 115.781454 
L 271.720641 115.930255 
L 272.940536 115.679131 
L 273.550483 115.74045 
L 274.16043 115.684109 
L 275.380324 115.034402 
L 276.600219 114.564168 
L 277.820113 113.91474 
L 280.259902 114.66435 
L 280.869849 115.395256 
L 281.479796 116.429913 
L 282.69969 117.780856 
L 283.309637 118.619002 
L 283.919585 119.124103 
L 284.529532 119.30459 
L 285.139479 119.168229 
L 286.359373 119.256695 
L 287.579268 118.785649 
L 288.189215 118.86632 
L 289.409109 119.36389 
L 290.019056 119.327564 
L 290.629003 119.750335 
L 291.238951 120.001573 
L 293.068792 120.292345 
L 293.678739 120.764035 
L 294.288686 120.28985 
L 294.898634 120.314233 
L 296.118528 121.29455 
L 297.338422 124.862522 
L 298.558317 127.869259 
L 300.388158 130.232447 
L 300.998105 131.3079 
L 301.608052 131.915522 
L 302.827947 131.827322 
L 303.437894 131.163911 
L 304.047841 129.830502 
L 305.267735 124.608847 
L 306.48763 119.410125 
L 307.097577 117.507133 
L 307.707524 116.274508 
L 308.317471 115.994327 
L 309.537366 117.521194 
L 310.147313 119.923224 
L 311.977154 131.489427 
L 313.197049 137.055305 
L 313.806996 139.188891 
L 314.416943 140.586474 
L 315.02689 141.446018 
L 315.636837 141.736266 
L 316.246784 141.746768 
L 317.466679 140.613844 
L 318.686573 139.87428 
L 319.29652 139.124365 
L 319.906467 137.988651 
L 320.516415 136.360292 
L 321.126362 133.752833 
L 323.56615 119.848409 
L 325.395992 112.850706 
L 326.005939 109.829801 
L 327.835781 87.710625 
L 328.445728 79.27134 
L 329.055675 74.485977 
L 329.665622 73.465718 
L 330.275569 75.428118 
L 330.885516 78.38449 
L 331.495464 82.293715 
L 332.105411 87.44844 
L 334.545199 114.141801 
L 335.765094 123.83183 
L 336.375041 127.133915 
L 337.594935 132.112818 
L 338.204882 133.666852 
L 338.81483 133.866966 
L 339.424777 133.012413 
L 340.034724 131.371649 
L 340.644671 129.179781 
L 342.474513 121.117631 
L 343.694407 117.221136 
L 344.304354 115.871574 
L 344.914301 115.234988 
L 345.524248 115.306689 
L 346.134196 115.63676 
L 346.744143 116.380368 
L 347.964037 118.799443 
L 348.573984 119.712647 
L 350.403826 121.046449 
L 351.013773 121.215339 
L 352.233667 121.084506 
L 354.673456 121.828563 
L 355.89335 122.978979 
L 356.503298 123.386442 
L 357.113245 123.948633 
L 357.723192 124.783528 
L 358.333139 125.400421 
L 359.553033 125.937452 
L 360.772928 126.625812 
L 361.992822 126.792837 
L 362.602769 127.011898 
L 363.212716 127.106911 
L 364.432611 127.045903 
L 365.652505 127.291052 
L 368.702241 127.191504 
L 369.312188 127.386069 
L 369.922135 127.833338 
L 373.581818 131.36326 
L 373.581818 131.36326 
" style="fill:none;stroke:#dd8452;stroke-linecap:round;stroke-width:1.5;"/>
   </g>
   <g id="patch_3">
    <path d="M 54 252 
L 54 34.56 
" style="fill:none;stroke:#ffffff;stroke-linecap:square;stroke-linejoin:miter;stroke-width:1.25;"/>
   </g>
   <g id="patch_4">
    <path d="M 388.8 252 
L 388.8 34.56 
" style="fill:none;stroke:#ffffff;stroke-linecap:square;stroke-linejoin:miter;stroke-width:1.25;"/>
   </g>
   <g id="patch_5">
    <path d="M 54 252 
L 388.8 252 
" style="fill:none;stroke:#ffffff;stroke-linecap:square;stroke-linejoin:miter;stroke-width:1.25;"/>
   </g>
   <g id="patch_6">
    <path d="M 54 34.56 
L 388.8 34.56 
" style="fill:none;stroke:#ffffff;stroke-linecap:square;stroke-linejoin:miter;stroke-width:1.25;"/>
   </g>
   <g id="legend_1">
    <g id="patch_7">
     <path d="M 242.585938 246.5 
L 381.1 246.5 
Q 383.3 246.5 383.3 244.3 
L 383.3 214.0225 
Q 383.3 211.8225 381.1 211.8225 
L 242.585938 211.8225 
Q 240.385938 211.8225 240.385938 214.0225 
L 240.385938 244.3 
Q 240.385938 246.5 242.585938 246.5 
z
" style="fill:#eaeaf2;opacity:0.8;stroke:#cccccc;stroke-linejoin:miter;"/>
    </g>
    <g id="line2d_16">
     <path d="M 244.785938 220.246094 
L 266.785938 220.246094 
" style="fill:none;stroke:#4c72b0;stroke-linecap:round;stroke-width:1.5;"/>
    </g>
    <g id="line2d_17"/>
    <g id="text_16">
     <!-- nowa sekwencja -->
     <defs>
      <path d="M 6.59375 0 
L 6.59375 51.859375 
L 14.5 51.859375 
L 14.5 44.484375 
Q 20.21875 53.03125 31 53.03125 
Q 35.6875 53.03125 39.625 51.34375 
Q 43.5625 49.65625 45.515625 46.921875 
Q 47.46875 44.1875 48.25 40.4375 
Q 48.734375 37.984375 48.734375 31.890625 
L 48.734375 0 
L 39.9375 0 
L 39.9375 31.546875 
Q 39.9375 36.921875 38.90625 39.578125 
Q 37.890625 42.234375 35.28125 43.8125 
Q 32.671875 45.40625 29.15625 45.40625 
Q 23.53125 45.40625 19.453125 41.84375 
Q 15.375 38.28125 15.375 28.328125 
L 15.375 0 
z
" id="ArialMT-110"/>
      <path d="M 3.328125 25.921875 
Q 3.328125 40.328125 11.328125 47.265625 
Q 18.015625 53.03125 27.640625 53.03125 
Q 38.328125 53.03125 45.109375 46.015625 
Q 51.90625 39.015625 51.90625 26.65625 
Q 51.90625 16.65625 48.90625 10.90625 
Q 45.90625 5.171875 40.15625 2 
Q 34.421875 -1.171875 27.640625 -1.171875 
Q 16.75 -1.171875 10.03125 5.8125 
Q 3.328125 12.796875 3.328125 25.921875 
z
M 12.359375 25.921875 
Q 12.359375 15.96875 16.703125 11.015625 
Q 21.046875 6.0625 27.640625 6.0625 
Q 34.1875 6.0625 38.53125 11.03125 
Q 42.875 16.015625 42.875 26.21875 
Q 42.875 35.84375 38.5 40.796875 
Q 34.125 45.75 27.640625 45.75 
Q 21.046875 45.75 16.703125 40.8125 
Q 12.359375 35.890625 12.359375 25.921875 
z
" id="ArialMT-111"/>
      <path d="M 16.15625 0 
L 0.296875 51.859375 
L 9.375 51.859375 
L 17.625 21.921875 
L 20.703125 10.796875 
Q 20.90625 11.625 23.390625 21.484375 
L 31.640625 51.859375 
L 40.671875 51.859375 
L 48.4375 21.78125 
L 51.03125 11.859375 
L 54 21.875 
L 62.890625 51.859375 
L 71.4375 51.859375 
L 55.21875 0 
L 46.09375 0 
L 37.84375 31.0625 
L 35.84375 39.890625 
L 25.34375 0 
z
" id="ArialMT-119"/>
      <path d="M 40.4375 6.390625 
Q 35.546875 2.25 31.03125 0.53125 
Q 26.515625 -1.171875 21.34375 -1.171875 
Q 12.796875 -1.171875 8.203125 3 
Q 3.609375 7.171875 3.609375 13.671875 
Q 3.609375 17.484375 5.34375 20.625 
Q 7.078125 23.78125 9.890625 25.6875 
Q 12.703125 27.59375 16.21875 28.5625 
Q 18.796875 29.25 24.03125 29.890625 
Q 34.671875 31.15625 39.703125 32.90625 
Q 39.75 34.71875 39.75 35.203125 
Q 39.75 40.578125 37.25 42.78125 
Q 33.890625 45.75 27.25 45.75 
Q 21.046875 45.75 18.09375 43.578125 
Q 15.140625 41.40625 13.71875 35.890625 
L 5.125 37.0625 
Q 6.296875 42.578125 8.984375 45.96875 
Q 11.671875 49.359375 16.75 51.1875 
Q 21.828125 53.03125 28.515625 53.03125 
Q 35.15625 53.03125 39.296875 51.46875 
Q 43.453125 49.90625 45.40625 47.53125 
Q 47.359375 45.171875 48.140625 41.546875 
Q 48.578125 39.3125 48.578125 33.453125 
L 48.578125 21.734375 
Q 48.578125 9.46875 49.140625 6.21875 
Q 49.703125 2.984375 51.375 0 
L 42.1875 0 
Q 40.828125 2.734375 40.4375 6.390625 
z
M 39.703125 26.03125 
Q 34.90625 24.078125 25.34375 22.703125 
Q 19.921875 21.921875 17.671875 20.9375 
Q 15.4375 19.96875 14.203125 18.09375 
Q 12.984375 16.21875 12.984375 13.921875 
Q 12.984375 10.40625 15.640625 8.0625 
Q 18.3125 5.71875 23.4375 5.71875 
Q 28.515625 5.71875 32.46875 7.9375 
Q 36.421875 10.15625 38.28125 14.015625 
Q 39.703125 17 39.703125 22.796875 
z
" id="ArialMT-97"/>
      <path d="M 42.09375 16.703125 
L 51.171875 15.578125 
Q 49.03125 7.625 43.21875 3.21875 
Q 37.40625 -1.171875 28.375 -1.171875 
Q 17 -1.171875 10.328125 5.828125 
Q 3.65625 12.84375 3.65625 25.484375 
Q 3.65625 38.578125 10.390625 45.796875 
Q 17.140625 53.03125 27.875 53.03125 
Q 38.28125 53.03125 44.875 45.953125 
Q 51.46875 38.875 51.46875 26.03125 
Q 51.46875 25.25 51.421875 23.6875 
L 12.75 23.6875 
Q 13.234375 15.140625 17.578125 10.59375 
Q 21.921875 6.0625 28.421875 6.0625 
Q 33.25 6.0625 36.671875 8.59375 
Q 40.09375 11.140625 42.09375 16.703125 
z
M 13.234375 30.90625 
L 42.1875 30.90625 
Q 41.609375 37.453125 38.875 40.71875 
Q 34.671875 45.796875 27.984375 45.796875 
Q 21.921875 45.796875 17.796875 41.75 
Q 13.671875 37.703125 13.234375 30.90625 
z
" id="ArialMT-101"/>
      <path d="M 6.640625 0 
L 6.640625 71.578125 
L 15.4375 71.578125 
L 15.4375 30.765625 
L 36.234375 51.859375 
L 47.609375 51.859375 
L 27.78125 32.625 
L 49.609375 0 
L 38.765625 0 
L 21.625 26.515625 
L 15.4375 20.5625 
L 15.4375 0 
z
" id="ArialMT-107"/>
      <path d="M 40.4375 19 
L 49.078125 17.875 
Q 47.65625 8.9375 41.8125 3.875 
Q 35.984375 -1.171875 27.484375 -1.171875 
Q 16.84375 -1.171875 10.375 5.78125 
Q 3.90625 12.75 3.90625 25.734375 
Q 3.90625 34.125 6.6875 40.421875 
Q 9.46875 46.734375 15.15625 49.875 
Q 20.84375 53.03125 27.546875 53.03125 
Q 35.984375 53.03125 41.359375 48.75 
Q 46.734375 44.484375 48.25 36.625 
L 39.703125 35.296875 
Q 38.484375 40.53125 35.375 43.15625 
Q 32.28125 45.796875 27.875 45.796875 
Q 21.234375 45.796875 17.078125 41.03125 
Q 12.9375 36.28125 12.9375 25.984375 
Q 12.9375 15.53125 16.9375 10.796875 
Q 20.953125 6.0625 27.390625 6.0625 
Q 32.5625 6.0625 36.03125 9.234375 
Q 39.5 12.40625 40.4375 19 
z
" id="ArialMT-99"/>
      <path d="M 6.546875 61.375 
L 6.546875 71.578125 
L 15.328125 71.578125 
L 15.328125 61.375 
z
M -4.59375 -20.125 
L -2.9375 -12.640625 
Q -0.296875 -13.328125 1.21875 -13.328125 
Q 3.90625 -13.328125 5.21875 -11.546875 
Q 6.546875 -9.765625 6.546875 -2.640625 
L 6.546875 51.859375 
L 15.328125 51.859375 
L 15.328125 -2.828125 
Q 15.328125 -12.40625 12.84375 -16.15625 
Q 9.671875 -21.046875 2.296875 -21.046875 
Q -1.265625 -21.046875 -4.59375 -20.125 
z
" id="ArialMT-106"/>
     </defs>
     <g style="fill:#262626;" transform="translate(275.585938 224.096094)scale(0.11 -0.11)">
      <use xlink:href="#ArialMT-110"/>
      <use x="55.615234" xlink:href="#ArialMT-111"/>
      <use x="111.230469" xlink:href="#ArialMT-119"/>
      <use x="183.447266" xlink:href="#ArialMT-97"/>
      <use x="239.0625" xlink:href="#ArialMT-32"/>
      <use x="266.845703" xlink:href="#ArialMT-115"/>
      <use x="316.845703" xlink:href="#ArialMT-101"/>
      <use x="372.460938" xlink:href="#ArialMT-107"/>
      <use x="422.460938" xlink:href="#ArialMT-119"/>
      <use x="494.677734" xlink:href="#ArialMT-101"/>
      <use x="550.292969" xlink:href="#ArialMT-110"/>
      <use x="605.908203" xlink:href="#ArialMT-99"/>
      <use x="655.908203" xlink:href="#ArialMT-106"/>
      <use x="678.125" xlink:href="#ArialMT-97"/>
     </g>
    </g>
    <g id="line2d_18">
     <path d="M 244.785938 235.934844 
L 266.785938 235.934844 
" style="fill:none;stroke:#dd8452;stroke-linecap:round;stroke-width:1.5;"/>
    </g>
    <g id="line2d_19"/>
    <g id="text_17">
     <!-- sekwencja wzorcowa -->
     <defs>
      <path d="M 1.953125 0 
L 1.953125 7.125 
L 34.96875 45.015625 
Q 29.34375 44.734375 25.046875 44.734375 
L 3.90625 44.734375 
L 3.90625 51.859375 
L 46.296875 51.859375 
L 46.296875 46.046875 
L 18.21875 13.140625 
L 12.796875 7.125 
Q 18.703125 7.5625 23.875 7.5625 
L 47.859375 7.5625 
L 47.859375 0 
z
" id="ArialMT-122"/>
      <path d="M 6.5 0 
L 6.5 51.859375 
L 14.40625 51.859375 
L 14.40625 44 
Q 17.4375 49.515625 20 51.265625 
Q 22.5625 53.03125 25.640625 53.03125 
Q 30.078125 53.03125 34.671875 50.203125 
L 31.640625 42.046875 
Q 28.421875 43.953125 25.203125 43.953125 
Q 22.3125 43.953125 20.015625 42.21875 
Q 17.71875 40.484375 16.75 37.40625 
Q 15.28125 32.71875 15.28125 27.15625 
L 15.28125 0 
z
" id="ArialMT-114"/>
     </defs>
     <g style="fill:#262626;" transform="translate(275.585938 239.784844)scale(0.11 -0.11)">
      <use xlink:href="#ArialMT-115"/>
      <use x="50" xlink:href="#ArialMT-101"/>
      <use x="105.615234" xlink:href="#ArialMT-107"/>
      <use x="155.615234" xlink:href="#ArialMT-119"/>
      <use x="227.832031" xlink:href="#ArialMT-101"/>
      <use x="283.447266" xlink:href="#ArialMT-110"/>
      <use x="339.0625" xlink:href="#ArialMT-99"/>
      <use x="389.0625" xlink:href="#ArialMT-106"/>
      <use x="411.279297" xlink:href="#ArialMT-97"/>
      <use x="466.894531" xlink:href="#ArialMT-32"/>
      <use x="494.677734" xlink:href="#ArialMT-119"/>
      <use x="566.894531" xlink:href="#ArialMT-122"/>
      <use x="616.894531" xlink:href="#ArialMT-111"/>
      <use x="672.509766" xlink:href="#ArialMT-114"/>
      <use x="705.810547" xlink:href="#ArialMT-99"/>
      <use x="755.810547" xlink:href="#ArialMT-111"/>
      <use x="811.425781" xlink:href="#ArialMT-119"/>
      <use x="883.642578" xlink:href="#ArialMT-97"/>
     </g>
    </g>
   </g>
  </g>
 </g>
 <defs>
  <clipPath id="pd24c10b5ca">
   <rect height="217.44" width="334.8" x="54" y="34.56"/>
  </clipPath>
 </defs>
</svg>
