<?xml version="1.0" encoding="utf-8" standalone="no"?>
<!DOCTYPE svg PUBLIC "-//W3C//DTD SVG 1.1//EN"
  "http://www.w3.org/Graphics/SVG/1.1/DTD/svg11.dtd">
<!-- Created with matplotlib (https://matplotlib.org/) -->
<svg height="288pt" version="1.1" viewBox="0 0 432 288" width="432pt" xmlns="http://www.w3.org/2000/svg" xmlns:xlink="http://www.w3.org/1999/xlink">
 <defs>
  <style type="text/css">
*{stroke-linecap:butt;stroke-linejoin:round;}
  </style>
 </defs>
 <g id="figure_1">
  <g id="patch_1">
   <path d="M 0 288 
L 432 288 
L 432 0 
L 0 0 
z
" style="fill:#ffffff;"/>
  </g>
  <g id="axes_1">
   <g id="patch_2">
    <path d="M 62.05 56.425 
L 412.075 56.425 
L 412.075 16.8 
L 62.05 16.8 
z
" style="fill:#eaeaf2;"/>
   </g>
   <g id="matplotlib.axis_1">
    <g id="xtick_1">
     <g id="line2d_1">
      <path clip-path="url(#p0414b8706e)" d="M 62.05 56.425 
L 62.05 16.8 
" style="fill:none;stroke:#ffffff;stroke-linecap:round;"/>
     </g>
    </g>
    <g id="xtick_2">
     <g id="line2d_2">
      <path clip-path="url(#p0414b8706e)" d="M 132.055 56.425 
L 132.055 16.8 
" style="fill:none;stroke:#ffffff;stroke-linecap:round;"/>
     </g>
    </g>
    <g id="xtick_3">
     <g id="line2d_3">
      <path clip-path="url(#p0414b8706e)" d="M 202.06 56.425 
L 202.06 16.8 
" style="fill:none;stroke:#ffffff;stroke-linecap:round;"/>
     </g>
    </g>
    <g id="xtick_4">
     <g id="line2d_4">
      <path clip-path="url(#p0414b8706e)" d="M 272.065 56.425 
L 272.065 16.8 
" style="fill:none;stroke:#ffffff;stroke-linecap:round;"/>
     </g>
    </g>
    <g id="xtick_5">
     <g id="line2d_5">
      <path clip-path="url(#p0414b8706e)" d="M 342.07 56.425 
L 342.07 16.8 
" style="fill:none;stroke:#ffffff;stroke-linecap:round;"/>
     </g>
    </g>
    <g id="xtick_6">
     <g id="line2d_6">
      <path clip-path="url(#p0414b8706e)" d="M 412.075 56.425 
L 412.075 16.8 
" style="fill:none;stroke:#ffffff;stroke-linecap:round;"/>
     </g>
    </g>
   </g>
   <g id="matplotlib.axis_2">
    <g id="ytick_1">
     <g id="line2d_7">
      <path clip-path="url(#p0414b8706e)" d="M 62.05 50.998099 
L 412.075 50.998099 
" style="fill:none;stroke:#ffffff;stroke-linecap:round;"/>
     </g>
     <g id="text_1">
      <!-- −2.5 -->
      <defs>
       <path d="M 52.828125 31.203125 
L 5.5625 31.203125 
L 5.5625 39.40625 
L 52.828125 39.40625 
z
" id="ArialMT-8722"/>
       <path d="M 50.34375 8.453125 
L 50.34375 0 
L 3.03125 0 
Q 2.9375 3.171875 4.046875 6.109375 
Q 5.859375 10.9375 9.828125 15.625 
Q 13.8125 20.3125 21.34375 26.46875 
Q 33.015625 36.03125 37.109375 41.625 
Q 41.21875 47.21875 41.21875 52.203125 
Q 41.21875 57.421875 37.46875 61 
Q 33.734375 64.59375 27.734375 64.59375 
Q 21.390625 64.59375 17.578125 60.78125 
Q 13.765625 56.984375 13.71875 50.25 
L 4.6875 51.171875 
Q 5.609375 61.28125 11.65625 66.578125 
Q 17.71875 71.875 27.9375 71.875 
Q 38.234375 71.875 44.234375 66.15625 
Q 50.25 60.453125 50.25 52 
Q 50.25 47.703125 48.484375 43.546875 
Q 46.734375 39.40625 42.65625 34.8125 
Q 38.578125 30.21875 29.109375 22.21875 
Q 21.1875 15.578125 18.9375 13.203125 
Q 16.703125 10.84375 15.234375 8.453125 
z
" id="ArialMT-50"/>
       <path d="M 9.078125 0 
L 9.078125 10.015625 
L 19.09375 10.015625 
L 19.09375 0 
z
" id="ArialMT-46"/>
       <path d="M 4.15625 18.75 
L 13.375 19.53125 
Q 14.40625 12.796875 18.140625 9.390625 
Q 21.875 6 27.15625 6 
Q 33.5 6 37.890625 10.78125 
Q 42.28125 15.578125 42.28125 23.484375 
Q 42.28125 31 38.0625 35.34375 
Q 33.84375 39.703125 27 39.703125 
Q 22.75 39.703125 19.328125 37.765625 
Q 15.921875 35.84375 13.96875 32.765625 
L 5.71875 33.84375 
L 12.640625 70.609375 
L 48.25 70.609375 
L 48.25 62.203125 
L 19.671875 62.203125 
L 15.828125 42.96875 
Q 22.265625 47.46875 29.34375 47.46875 
Q 38.71875 47.46875 45.15625 40.96875 
Q 51.609375 34.46875 51.609375 24.265625 
Q 51.609375 14.546875 45.953125 7.46875 
Q 39.0625 -1.21875 27.15625 -1.21875 
Q 17.390625 -1.21875 11.203125 4.25 
Q 5.03125 9.71875 4.15625 18.75 
z
" id="ArialMT-53"/>
      </defs>
      <g style="fill:#262626;" transform="translate(30.835313 54.934896)scale(0.11 -0.11)">
       <use xlink:href="#ArialMT-8722"/>
       <use x="58.398438" xlink:href="#ArialMT-50"/>
       <use x="114.013672" xlink:href="#ArialMT-46"/>
       <use x="141.796875" xlink:href="#ArialMT-53"/>
      </g>
     </g>
    </g>
    <g id="ytick_2">
     <g id="line2d_8">
      <path clip-path="url(#p0414b8706e)" d="M 62.05 26.393045 
L 412.075 26.393045 
" style="fill:none;stroke:#ffffff;stroke-linecap:round;"/>
     </g>
     <g id="text_2">
      <!-- 0.0 -->
      <defs>
       <path d="M 4.15625 35.296875 
Q 4.15625 48 6.765625 55.734375 
Q 9.375 63.484375 14.515625 67.671875 
Q 19.671875 71.875 27.484375 71.875 
Q 33.25 71.875 37.59375 69.546875 
Q 41.9375 67.234375 44.765625 62.859375 
Q 47.609375 58.5 49.21875 52.21875 
Q 50.828125 45.953125 50.828125 35.296875 
Q 50.828125 22.703125 48.234375 14.96875 
Q 45.65625 7.234375 40.5 3 
Q 35.359375 -1.21875 27.484375 -1.21875 
Q 17.140625 -1.21875 11.234375 6.203125 
Q 4.15625 15.140625 4.15625 35.296875 
z
M 13.1875 35.296875 
Q 13.1875 17.671875 17.3125 11.828125 
Q 21.4375 6 27.484375 6 
Q 33.546875 6 37.671875 11.859375 
Q 41.796875 17.71875 41.796875 35.296875 
Q 41.796875 52.984375 37.671875 58.78125 
Q 33.546875 64.59375 27.390625 64.59375 
Q 21.34375 64.59375 17.71875 59.46875 
Q 13.1875 52.9375 13.1875 35.296875 
z
" id="ArialMT-48"/>
      </defs>
      <g style="fill:#262626;" transform="translate(37.26 30.329841)scale(0.11 -0.11)">
       <use xlink:href="#ArialMT-48"/>
       <use x="55.615234" xlink:href="#ArialMT-46"/>
       <use x="83.398438" xlink:href="#ArialMT-48"/>
      </g>
     </g>
    </g>
    <g id="text_3">
     <!-- Observed -->
     <defs>
      <path d="M 4.828125 34.859375 
Q 4.828125 52.6875 14.390625 62.765625 
Q 23.96875 72.859375 39.109375 72.859375 
Q 49.03125 72.859375 56.984375 68.109375 
Q 64.9375 63.375 69.109375 54.90625 
Q 73.296875 46.4375 73.296875 35.6875 
Q 73.296875 24.8125 68.890625 16.21875 
Q 64.5 7.625 56.4375 3.203125 
Q 48.390625 -1.21875 39.0625 -1.21875 
Q 28.953125 -1.21875 20.984375 3.65625 
Q 13.03125 8.546875 8.921875 16.984375 
Q 4.828125 25.4375 4.828125 34.859375 
z
M 14.59375 34.71875 
Q 14.59375 21.78125 21.546875 14.328125 
Q 28.515625 6.890625 39.015625 6.890625 
Q 49.703125 6.890625 56.609375 14.40625 
Q 63.53125 21.921875 63.53125 35.75 
Q 63.53125 44.484375 60.578125 51 
Q 57.625 57.515625 51.921875 61.109375 
Q 46.234375 64.703125 39.15625 64.703125 
Q 29.109375 64.703125 21.84375 57.78125 
Q 14.59375 50.875 14.59375 34.71875 
z
" id="ArialMT-79"/>
      <path d="M 14.703125 0 
L 6.546875 0 
L 6.546875 71.578125 
L 15.328125 71.578125 
L 15.328125 46.046875 
Q 20.90625 53.03125 29.546875 53.03125 
Q 34.328125 53.03125 38.59375 51.09375 
Q 42.875 49.171875 45.625 45.671875 
Q 48.390625 42.1875 49.953125 37.25 
Q 51.515625 32.328125 51.515625 26.703125 
Q 51.515625 13.375 44.921875 6.09375 
Q 38.328125 -1.171875 29.109375 -1.171875 
Q 19.921875 -1.171875 14.703125 6.5 
z
M 14.59375 26.3125 
Q 14.59375 17 17.140625 12.84375 
Q 21.296875 6.0625 28.375 6.0625 
Q 34.125 6.0625 38.328125 11.0625 
Q 42.53125 16.0625 42.53125 25.984375 
Q 42.53125 36.140625 38.5 40.96875 
Q 34.46875 45.796875 28.765625 45.796875 
Q 23 45.796875 18.796875 40.796875 
Q 14.59375 35.796875 14.59375 26.3125 
z
" id="ArialMT-98"/>
      <path d="M 3.078125 15.484375 
L 11.765625 16.84375 
Q 12.5 11.625 15.84375 8.84375 
Q 19.1875 6.0625 25.203125 6.0625 
Q 31.25 6.0625 34.171875 8.515625 
Q 37.109375 10.984375 37.109375 14.3125 
Q 37.109375 17.28125 34.515625 19 
Q 32.71875 20.171875 25.53125 21.96875 
Q 15.875 24.421875 12.140625 26.203125 
Q 8.40625 27.984375 6.46875 31.125 
Q 4.546875 34.28125 4.546875 38.09375 
Q 4.546875 41.546875 6.125 44.5 
Q 7.71875 47.46875 10.453125 49.421875 
Q 12.5 50.921875 16.03125 51.96875 
Q 19.578125 53.03125 23.640625 53.03125 
Q 29.734375 53.03125 34.34375 51.265625 
Q 38.96875 49.515625 41.15625 46.5 
Q 43.359375 43.5 44.1875 38.484375 
L 35.59375 37.3125 
Q 35.015625 41.3125 32.203125 43.546875 
Q 29.390625 45.796875 24.265625 45.796875 
Q 18.21875 45.796875 15.625 43.796875 
Q 13.03125 41.796875 13.03125 39.109375 
Q 13.03125 37.40625 14.109375 36.03125 
Q 15.1875 34.625 17.484375 33.6875 
Q 18.796875 33.203125 25.25 31.453125 
Q 34.578125 28.953125 38.25 27.359375 
Q 41.9375 25.78125 44.03125 22.75 
Q 46.140625 19.734375 46.140625 15.234375 
Q 46.140625 10.84375 43.578125 6.953125 
Q 41.015625 3.078125 36.171875 0.953125 
Q 31.34375 -1.171875 25.25 -1.171875 
Q 15.140625 -1.171875 9.84375 3.03125 
Q 4.546875 7.234375 3.078125 15.484375 
z
" id="ArialMT-115"/>
      <path d="M 42.09375 16.703125 
L 51.171875 15.578125 
Q 49.03125 7.625 43.21875 3.21875 
Q 37.40625 -1.171875 28.375 -1.171875 
Q 17 -1.171875 10.328125 5.828125 
Q 3.65625 12.84375 3.65625 25.484375 
Q 3.65625 38.578125 10.390625 45.796875 
Q 17.140625 53.03125 27.875 53.03125 
Q 38.28125 53.03125 44.875 45.953125 
Q 51.46875 38.875 51.46875 26.03125 
Q 51.46875 25.25 51.421875 23.6875 
L 12.75 23.6875 
Q 13.234375 15.140625 17.578125 10.59375 
Q 21.921875 6.0625 28.421875 6.0625 
Q 33.25 6.0625 36.671875 8.59375 
Q 40.09375 11.140625 42.09375 16.703125 
z
M 13.234375 30.90625 
L 42.1875 30.90625 
Q 41.609375 37.453125 38.875 40.71875 
Q 34.671875 45.796875 27.984375 45.796875 
Q 21.921875 45.796875 17.796875 41.75 
Q 13.671875 37.703125 13.234375 30.90625 
z
" id="ArialMT-101"/>
      <path d="M 6.5 0 
L 6.5 51.859375 
L 14.40625 51.859375 
L 14.40625 44 
Q 17.4375 49.515625 20 51.265625 
Q 22.5625 53.03125 25.640625 53.03125 
Q 30.078125 53.03125 34.671875 50.203125 
L 31.640625 42.046875 
Q 28.421875 43.953125 25.203125 43.953125 
Q 22.3125 43.953125 20.015625 42.21875 
Q 17.71875 40.484375 16.75 37.40625 
Q 15.28125 32.71875 15.28125 27.15625 
L 15.28125 0 
z
" id="ArialMT-114"/>
      <path d="M 21 0 
L 1.265625 51.859375 
L 10.546875 51.859375 
L 21.6875 20.796875 
Q 23.484375 15.765625 25 10.359375 
Q 26.171875 14.453125 28.265625 20.21875 
L 39.796875 51.859375 
L 48.828125 51.859375 
L 29.203125 0 
z
" id="ArialMT-118"/>
      <path d="M 40.234375 0 
L 40.234375 6.546875 
Q 35.296875 -1.171875 25.734375 -1.171875 
Q 19.53125 -1.171875 14.328125 2.25 
Q 9.125 5.671875 6.265625 11.796875 
Q 3.421875 17.921875 3.421875 25.875 
Q 3.421875 33.640625 6 39.96875 
Q 8.59375 46.296875 13.765625 49.65625 
Q 18.953125 53.03125 25.34375 53.03125 
Q 30.03125 53.03125 33.6875 51.046875 
Q 37.359375 49.078125 39.65625 45.90625 
L 39.65625 71.578125 
L 48.390625 71.578125 
L 48.390625 0 
z
M 12.453125 25.875 
Q 12.453125 15.921875 16.640625 10.984375 
Q 20.84375 6.0625 26.5625 6.0625 
Q 32.328125 6.0625 36.34375 10.765625 
Q 40.375 15.484375 40.375 25.140625 
Q 40.375 35.796875 36.265625 40.765625 
Q 32.171875 45.75 26.171875 45.75 
Q 20.3125 45.75 16.375 40.96875 
Q 12.453125 36.1875 12.453125 25.875 
z
" id="ArialMT-100"/>
     </defs>
     <g style="fill:#262626;" transform="translate(24.450313 62.623437)rotate(-90)scale(0.12 -0.12)">
      <use xlink:href="#ArialMT-79"/>
      <use x="77.783203" xlink:href="#ArialMT-98"/>
      <use x="133.398438" xlink:href="#ArialMT-115"/>
      <use x="183.398438" xlink:href="#ArialMT-101"/>
      <use x="239.013672" xlink:href="#ArialMT-114"/>
      <use x="272.314453" xlink:href="#ArialMT-118"/>
      <use x="322.314453" xlink:href="#ArialMT-101"/>
      <use x="377.929688" xlink:href="#ArialMT-100"/>
     </g>
    </g>
   </g>
   <g id="line2d_9">
    <path clip-path="url(#p0414b8706e)" d="M 62.05 18.601136 
L 78.15115 18.932039 
L 80.95135 19.212082 
L 82.35145 19.608386 
L 83.0515 19.939465 
L 83.75155 20.531599 
L 84.4516 21.324725 
L 85.15165 22.373777 
L 85.8517 23.760225 
L 86.55175 25.489322 
L 90.052 36.642859 
L 90.75205 38.25644 
L 91.4521 39.199342 
L 92.15215 39.401753 
L 92.8522 39.08767 
L 94.95235 37.599943 
L 97.0525 36.943482 
L 100.55275 36.304865 
L 101.95285 36.396551 
L 104.053 36.66681 
L 105.4531 37.039056 
L 106.8532 37.655615 
L 107.55325 38.032131 
L 108.2533 38.547206 
L 108.95335 39.46316 
L 109.6534 40.87901 
L 110.35345 42.831999 
L 113.15365 52.306082 
L 113.8537 53.895806 
L 114.55375 54.623864 
L 115.2538 54.383344 
L 115.95385 53.191416 
L 117.35395 42.864808 
L 118.054 40.327348 
L 118.75405 38.404175 
L 119.4541 36.821234 
L 120.8542 35.416247 
L 122.2543 34.540726 
L 122.95435 34.001041 
L 123.6544 33.707076 
L 124.35445 33.231112 
L 127.8547 30.153027 
L 130.6549 28.461474 
L 132.75505 27.190023 
L 134.8552 25.710075 
L 136.2553 25.110161 
L 136.95535 24.968795 
L 138.35545 25.043659 
L 139.75555 25.429958 
L 141.8557 26.337672 
L 144.6559 27.641538 
L 145.35595 27.804489 
L 146.75605 27.810672 
L 148.15615 27.441272 
L 150.95635 26.469822 
L 153.0565 26.046999 
L 155.15665 25.821993 
L 157.2568 25.864058 
L 159.35695 26.19971 
L 164.2573 27.115747 
L 166.35745 27.057118 
L 167.75755 26.851659 
L 169.15765 26.470245 
L 170.55775 25.900746 
L 171.2578 25.708753 
L 172.6579 25.666472 
L 174.058 25.983339 
L 178.2583 27.326739 
L 181.0585 28.348775 
L 182.4586 28.595532 
L 183.8587 28.584046 
L 188.059 27.99565 
L 191.55925 27.62604 
L 192.95935 27.92575 
L 194.35945 28.509508 
L 196.4596 29.386138 
L 197.8597 29.771285 
L 199.2598 30.038371 
L 202.76005 31.051729 
L 204.16015 31.243668 
L 205.56025 31.104367 
L 206.96035 30.600291 
L 208.36045 30.072469 
L 211.16065 29.461195 
L 212.56075 29.510315 
L 213.2608 29.690684 
L 213.96085 30.001898 
L 220.2613 34.214093 
L 220.96135 34.724258 
L 221.6614 35.013568 
L 222.36145 35.139863 
L 223.0615 35.150759 
L 224.4616 34.780671 
L 225.8617 34.385795 
L 228.6619 33.804702 
L 230.062 33.790705 
L 231.4621 34.046526 
L 233.56225 34.630834 
L 234.96235 35.198577 
L 235.6624 35.324097 
L 236.36245 35.227719 
L 237.0625 34.957932 
L 237.76255 34.514829 
L 239.16265 33.270083 
L 241.96285 30.704789 
L 243.36295 29.824798 
L 244.063 29.485372 
L 244.76305 29.280349 
L 245.4631 29.193633 
L 246.8632 29.307101 
L 248.2633 29.710712 
L 249.6634 30.406135 
L 250.36345 30.807062 
L 251.76355 31.983196 
L 253.16365 33.42743 
L 254.56375 34.935757 
L 255.2638 35.422749 
L 255.96385 35.623263 
L 256.6639 35.454191 
L 257.36395 34.930471 
L 258.064 34.119854 
L 260.8642 29.82618 
L 262.2643 28.293268 
L 262.96435 27.835853 
L 263.6644 27.627279 
L 264.36445 27.566215 
L 265.0645 27.895161 
L 265.76455 28.495604 
L 266.4646 29.441555 
L 267.8647 32.139529 
L 269.2648 34.876113 
L 269.96485 35.892198 
L 270.6649 36.573019 
L 271.36495 37.034318 
L 272.065 37.122124 
L 272.76505 36.76491 
L 274.16515 35.501727 
L 275.56525 34.249381 
L 276.2653 33.81986 
L 277.6654 33.411585 
L 279.0655 33.454242 
L 283.2658 34.52302 
L 285.36595 34.664336 
L 289.56625 34.565817 
L 293.76655 34.894648 
L 303.56725 34.662882 
L 309.8677 33.731205 
L 311.96785 33.686241 
L 319.6684 32.989812 
L 320.36845 32.870605 
L 322.4686 32.227336 
L 323.8687 31.966553 
L 327.36895 31.576278 
L 329.4691 31.671991 
L 330.16915 31.730088 
L 331.56925 32.319538 
L 334.36945 33.567046 
L 335.76955 33.827622 
L 336.4696 33.852435 
L 337.8697 33.170655 
L 338.56975 32.587311 
L 340.6699 30.363434 
L 341.36995 29.823761 
L 342.07 29.431299 
L 342.77005 29.181848 
L 343.4701 29.166768 
L 344.17015 29.47721 
L 344.8702 30.065912 
L 346.97035 32.332202 
L 348.37045 33.178695 
L 349.77055 34.025928 
L 350.4706 34.579494 
L 353.97085 38.287186 
L 356.071 39.331422 
L 356.77105 39.498909 
L 357.4711 40.306378 
L 358.17115 40.896237 
L 358.8712 42.206437 
L 359.57125 44.282965 
L 360.2713 45.470903 
L 360.97135 45.786203 
L 361.6714 45.318217 
L 362.37145 44.188219 
L 366.57175 34.568252 
L 367.97185 32.371334 
L 368.6719 31.562521 
L 369.37195 30.962059 
L 370.072 30.54457 
L 370.77205 30.315659 
L 371.4721 30.245162 
L 372.17215 30.329605 
L 373.57225 30.980826 
L 376.37245 32.770733 
L 377.0725 33.023706 
L 378.4726 33.166184 
L 379.8727 32.938915 
L 381.2728 32.481979 
L 382.6729 32.228449 
L 384.77305 32.388881 
L 386.17315 32.274471 
L 390.37345 32.747401 
L 391.0735 32.682217 
L 392.4736 32.089534 
L 393.8737 31.882677 
L 395.97385 31.55125 
L 396.6739 31.299598 
L 398.074 30.571479 
L 400.8742 30.460142 
L 403.6744 30.200637 
L 405.77455 30.085332 
L 407.17465 30.038649 
L 408.57475 29.88391 
L 411.37495 29.176112 
L 411.37495 29.176112 
" style="fill:none;stroke:#4c72b0;stroke-linecap:round;stroke-width:1.5;"/>
   </g>
   <g id="patch_3">
    <path d="M 62.05 56.425 
L 62.05 16.8 
" style="fill:none;stroke:#ffffff;stroke-linecap:square;stroke-linejoin:miter;stroke-width:1.25;"/>
   </g>
   <g id="patch_4">
    <path d="M 412.075 56.425 
L 412.075 16.8 
" style="fill:none;stroke:#ffffff;stroke-linecap:square;stroke-linejoin:miter;stroke-width:1.25;"/>
   </g>
   <g id="patch_5">
    <path d="M 62.05 56.425 
L 412.075 56.425 
" style="fill:none;stroke:#ffffff;stroke-linecap:square;stroke-linejoin:miter;stroke-width:1.25;"/>
   </g>
   <g id="patch_6">
    <path d="M 62.05 16.8 
L 412.075 16.8 
" style="fill:none;stroke:#ffffff;stroke-linecap:square;stroke-linejoin:miter;stroke-width:1.25;"/>
   </g>
  </g>
  <g id="axes_2">
   <g id="patch_7">
    <path d="M 62.05 118.85 
L 412.075 118.85 
L 412.075 79.225 
L 62.05 79.225 
z
" style="fill:#eaeaf2;"/>
   </g>
   <g id="matplotlib.axis_3">
    <g id="xtick_7">
     <g id="line2d_10">
      <path clip-path="url(#p25a88624e1)" d="M 62.05 118.85 
L 62.05 79.225 
" style="fill:none;stroke:#ffffff;stroke-linecap:round;"/>
     </g>
    </g>
    <g id="xtick_8">
     <g id="line2d_11">
      <path clip-path="url(#p25a88624e1)" d="M 132.055 118.85 
L 132.055 79.225 
" style="fill:none;stroke:#ffffff;stroke-linecap:round;"/>
     </g>
    </g>
    <g id="xtick_9">
     <g id="line2d_12">
      <path clip-path="url(#p25a88624e1)" d="M 202.06 118.85 
L 202.06 79.225 
" style="fill:none;stroke:#ffffff;stroke-linecap:round;"/>
     </g>
    </g>
    <g id="xtick_10">
     <g id="line2d_13">
      <path clip-path="url(#p25a88624e1)" d="M 272.065 118.85 
L 272.065 79.225 
" style="fill:none;stroke:#ffffff;stroke-linecap:round;"/>
     </g>
    </g>
    <g id="xtick_11">
     <g id="line2d_14">
      <path clip-path="url(#p25a88624e1)" d="M 342.07 118.85 
L 342.07 79.225 
" style="fill:none;stroke:#ffffff;stroke-linecap:round;"/>
     </g>
    </g>
    <g id="xtick_12">
     <g id="line2d_15">
      <path clip-path="url(#p25a88624e1)" d="M 412.075 118.85 
L 412.075 79.225 
" style="fill:none;stroke:#ffffff;stroke-linecap:round;"/>
     </g>
    </g>
   </g>
   <g id="matplotlib.axis_4">
    <g id="ytick_3">
     <g id="line2d_16">
      <path clip-path="url(#p25a88624e1)" d="M 62.05 113.335688 
L 412.075 113.335688 
" style="fill:none;stroke:#ffffff;stroke-linecap:round;"/>
     </g>
     <g id="text_4">
      <!-- −0.75 -->
      <defs>
       <path d="M 4.734375 62.203125 
L 4.734375 70.65625 
L 51.078125 70.65625 
L 51.078125 63.8125 
Q 44.234375 56.546875 37.515625 44.484375 
Q 30.8125 32.421875 27.15625 19.671875 
Q 24.515625 10.6875 23.78125 0 
L 14.75 0 
Q 14.890625 8.453125 18.0625 20.40625 
Q 21.234375 32.375 27.171875 43.484375 
Q 33.109375 54.59375 39.796875 62.203125 
z
" id="ArialMT-55"/>
      </defs>
      <g style="fill:#262626;" transform="translate(24.718281 117.272485)scale(0.11 -0.11)">
       <use xlink:href="#ArialMT-8722"/>
       <use x="58.398438" xlink:href="#ArialMT-48"/>
       <use x="114.013672" xlink:href="#ArialMT-46"/>
       <use x="141.796875" xlink:href="#ArialMT-55"/>
       <use x="197.412109" xlink:href="#ArialMT-53"/>
      </g>
     </g>
    </g>
    <g id="ytick_4">
     <g id="line2d_17">
      <path clip-path="url(#p25a88624e1)" d="M 62.05 101.447348 
L 412.075 101.447348 
" style="fill:none;stroke:#ffffff;stroke-linecap:round;"/>
     </g>
     <g id="text_5">
      <!-- −0.50 -->
      <g style="fill:#262626;" transform="translate(24.718281 105.384145)scale(0.11 -0.11)">
       <use xlink:href="#ArialMT-8722"/>
       <use x="58.398438" xlink:href="#ArialMT-48"/>
       <use x="114.013672" xlink:href="#ArialMT-46"/>
       <use x="141.796875" xlink:href="#ArialMT-53"/>
       <use x="197.412109" xlink:href="#ArialMT-48"/>
      </g>
     </g>
    </g>
    <g id="ytick_5">
     <g id="line2d_18">
      <path clip-path="url(#p25a88624e1)" d="M 62.05 89.559008 
L 412.075 89.559008 
" style="fill:none;stroke:#ffffff;stroke-linecap:round;"/>
     </g>
     <g id="text_6">
      <!-- −0.25 -->
      <g style="fill:#262626;" transform="translate(24.718281 93.495805)scale(0.11 -0.11)">
       <use xlink:href="#ArialMT-8722"/>
       <use x="58.398438" xlink:href="#ArialMT-48"/>
       <use x="114.013672" xlink:href="#ArialMT-46"/>
       <use x="141.796875" xlink:href="#ArialMT-50"/>
       <use x="197.412109" xlink:href="#ArialMT-53"/>
      </g>
     </g>
    </g>
    <g id="text_7">
     <!-- Trend -->
     <defs>
      <path d="M 25.921875 0 
L 25.921875 63.140625 
L 2.34375 63.140625 
L 2.34375 71.578125 
L 59.078125 71.578125 
L 59.078125 63.140625 
L 35.40625 63.140625 
L 35.40625 0 
z
" id="ArialMT-84"/>
      <path d="M 6.59375 0 
L 6.59375 51.859375 
L 14.5 51.859375 
L 14.5 44.484375 
Q 20.21875 53.03125 31 53.03125 
Q 35.6875 53.03125 39.625 51.34375 
Q 43.5625 49.65625 45.515625 46.921875 
Q 47.46875 44.1875 48.25 40.4375 
Q 48.734375 37.984375 48.734375 31.890625 
L 48.734375 0 
L 39.9375 0 
L 39.9375 31.546875 
Q 39.9375 36.921875 38.90625 39.578125 
Q 37.890625 42.234375 35.28125 43.8125 
Q 32.671875 45.40625 29.15625 45.40625 
Q 23.53125 45.40625 19.453125 41.84375 
Q 15.375 38.28125 15.375 28.328125 
L 15.375 0 
z
" id="ArialMT-110"/>
     </defs>
     <g style="fill:#262626;" transform="translate(18.333281 114.706875)rotate(-90)scale(0.12 -0.12)">
      <use xlink:href="#ArialMT-84"/>
      <use x="61.037109" xlink:href="#ArialMT-114"/>
      <use x="94.337891" xlink:href="#ArialMT-101"/>
      <use x="149.953125" xlink:href="#ArialMT-110"/>
      <use x="205.568359" xlink:href="#ArialMT-100"/>
     </g>
    </g>
   </g>
   <g id="line2d_19">
    <path clip-path="url(#p25a88624e1)" d="M 97.0525 100.960858 
L 99.15265 102.164546 
L 101.95285 103.476093 
L 106.15315 105.376783 
L 108.95335 106.892899 
L 115.95385 110.978599 
L 118.75405 112.231639 
L 120.15415 112.665323 
L 121.55425 112.85588 
L 122.95435 112.673791 
L 124.35445 112.060101 
L 125.75455 111.07356 
L 129.95485 107.646205 
L 143.2558 98.019592 
L 144.6559 96.861374 
L 146.056 95.430233 
L 147.4561 93.578802 
L 148.8562 91.303497 
L 151.6564 86.489908 
L 152.35645 85.652919 
L 153.75655 84.447045 
L 155.15665 83.559459 
L 157.2568 82.462866 
L 159.35695 81.623108 
L 160.75705 81.257561 
L 162.15715 81.066934 
L 164.2573 81.049477 
L 166.35745 81.299263 
L 168.4576 81.816904 
L 171.2578 82.853343 
L 174.058 83.880127 
L 176.15815 84.473585 
L 183.15865 86.103117 
L 185.2588 87.031673 
L 187.35895 88.250231 
L 192.2593 91.215834 
L 196.4596 93.433798 
L 201.35995 96.064276 
L 204.16015 97.531944 
L 206.96035 98.691069 
L 209.0605 99.312245 
L 211.8607 99.866629 
L 216.76105 100.756733 
L 218.8612 101.403394 
L 220.96135 102.366851 
L 223.0615 103.371586 
L 224.4616 103.867372 
L 225.8617 104.169199 
L 227.96185 104.312303 
L 232.8622 104.275997 
L 234.2623 104.631462 
L 236.36245 105.466462 
L 238.4626 106.316756 
L 240.56275 106.894598 
L 245.4631 108.027276 
L 251.76355 109.875631 
L 253.8637 110.16707 
L 255.96385 110.262519 
L 262.2643 110.308602 
L 269.96485 110.623359 
L 274.16515 110.451142 
L 276.2653 110.662697 
L 278.36545 111.1223 
L 284.6659 112.790437 
L 286.76605 113.024702 
L 288.16615 112.981487 
L 289.56625 112.767224 
L 293.76655 111.825484 
L 295.16665 111.797318 
L 296.56675 112.003023 
L 297.96685 112.418691 
L 302.16715 113.927929 
L 303.56725 114.019943 
L 304.96735 113.731575 
L 306.36745 113.142842 
L 309.16765 111.745636 
L 310.56775 111.287465 
L 311.96785 111.069587 
L 314.068 111.003158 
L 316.16815 111.092777 
L 318.2683 111.417186 
L 321.0685 112.194955 
L 323.16865 112.980569 
L 324.56875 113.741198 
L 328.069 116.173395 
L 329.4691 116.753178 
L 330.8692 117.024648 
L 332.2693 117.00805 
L 333.6694 116.779219 
L 335.76955 116.193969 
L 339.2698 115.187801 
L 341.36995 114.860076 
L 351.17065 114.11905 
L 354.6709 113.943922 
L 364.4716 113.725891 
L 367.2718 113.416972 
L 370.072 112.826745 
L 374.2723 111.872361 
L 376.37245 111.678115 
L 376.37245 111.678115 
" style="fill:none;stroke:#4c72b0;stroke-linecap:round;stroke-width:1.5;"/>
   </g>
   <g id="patch_8">
    <path d="M 62.05 118.85 
L 62.05 79.225 
" style="fill:none;stroke:#ffffff;stroke-linecap:square;stroke-linejoin:miter;stroke-width:1.25;"/>
   </g>
   <g id="patch_9">
    <path d="M 412.075 118.85 
L 412.075 79.225 
" style="fill:none;stroke:#ffffff;stroke-linecap:square;stroke-linejoin:miter;stroke-width:1.25;"/>
   </g>
   <g id="patch_10">
    <path d="M 62.05 118.85 
L 412.075 118.85 
" style="fill:none;stroke:#ffffff;stroke-linecap:square;stroke-linejoin:miter;stroke-width:1.25;"/>
   </g>
   <g id="patch_11">
    <path d="M 62.05 79.225 
L 412.075 79.225 
" style="fill:none;stroke:#ffffff;stroke-linecap:square;stroke-linejoin:miter;stroke-width:1.25;"/>
   </g>
  </g>
  <g id="axes_3">
   <g id="patch_12">
    <path d="M 62.05 181.275 
L 412.075 181.275 
L 412.075 141.65 
L 62.05 141.65 
z
" style="fill:#eaeaf2;"/>
   </g>
   <g id="matplotlib.axis_5">
    <g id="xtick_13">
     <g id="line2d_20">
      <path clip-path="url(#pd48895eef7)" d="M 62.05 181.275 
L 62.05 141.65 
" style="fill:none;stroke:#ffffff;stroke-linecap:round;"/>
     </g>
    </g>
    <g id="xtick_14">
     <g id="line2d_21">
      <path clip-path="url(#pd48895eef7)" d="M 132.055 181.275 
L 132.055 141.65 
" style="fill:none;stroke:#ffffff;stroke-linecap:round;"/>
     </g>
    </g>
    <g id="xtick_15">
     <g id="line2d_22">
      <path clip-path="url(#pd48895eef7)" d="M 202.06 181.275 
L 202.06 141.65 
" style="fill:none;stroke:#ffffff;stroke-linecap:round;"/>
     </g>
    </g>
    <g id="xtick_16">
     <g id="line2d_23">
      <path clip-path="url(#pd48895eef7)" d="M 272.065 181.275 
L 272.065 141.65 
" style="fill:none;stroke:#ffffff;stroke-linecap:round;"/>
     </g>
    </g>
    <g id="xtick_17">
     <g id="line2d_24">
      <path clip-path="url(#pd48895eef7)" d="M 342.07 181.275 
L 342.07 141.65 
" style="fill:none;stroke:#ffffff;stroke-linecap:round;"/>
     </g>
    </g>
    <g id="xtick_18">
     <g id="line2d_25">
      <path clip-path="url(#pd48895eef7)" d="M 412.075 181.275 
L 412.075 141.65 
" style="fill:none;stroke:#ffffff;stroke-linecap:round;"/>
     </g>
    </g>
   </g>
   <g id="matplotlib.axis_6">
    <g id="ytick_6">
     <g id="line2d_26">
      <path clip-path="url(#pd48895eef7)" d="M 62.05 179.474676 
L 412.075 179.474676 
" style="fill:none;stroke:#ffffff;stroke-linecap:round;"/>
     </g>
     <g id="text_8">
      <!-- −0.5 -->
      <g style="fill:#262626;" transform="translate(30.835313 183.411473)scale(0.11 -0.11)">
       <use xlink:href="#ArialMT-8722"/>
       <use x="58.398438" xlink:href="#ArialMT-48"/>
       <use x="114.013672" xlink:href="#ArialMT-46"/>
       <use x="141.796875" xlink:href="#ArialMT-53"/>
      </g>
     </g>
    </g>
    <g id="ytick_7">
     <g id="line2d_27">
      <path clip-path="url(#pd48895eef7)" d="M 62.05 155.599547 
L 412.075 155.599547 
" style="fill:none;stroke:#ffffff;stroke-linecap:round;"/>
     </g>
     <g id="text_9">
      <!-- 0.0 -->
      <g style="fill:#262626;" transform="translate(37.26 159.536344)scale(0.11 -0.11)">
       <use xlink:href="#ArialMT-48"/>
       <use x="55.615234" xlink:href="#ArialMT-46"/>
       <use x="83.398438" xlink:href="#ArialMT-48"/>
      </g>
     </g>
    </g>
    <g id="text_10">
     <!-- Seasonal -->
     <defs>
      <path d="M 4.5 23 
L 13.421875 23.78125 
Q 14.0625 18.40625 16.375 14.96875 
Q 18.703125 11.53125 23.578125 9.40625 
Q 28.46875 7.28125 34.578125 7.28125 
Q 39.984375 7.28125 44.140625 8.890625 
Q 48.296875 10.5 50.3125 13.296875 
Q 52.34375 16.109375 52.34375 19.4375 
Q 52.34375 22.796875 50.390625 25.3125 
Q 48.4375 27.828125 43.953125 29.546875 
Q 41.0625 30.671875 31.203125 33.03125 
Q 21.34375 35.40625 17.390625 37.5 
Q 12.25 40.1875 9.734375 44.15625 
Q 7.234375 48.140625 7.234375 53.078125 
Q 7.234375 58.5 10.296875 63.203125 
Q 13.375 67.921875 19.28125 70.359375 
Q 25.203125 72.796875 32.421875 72.796875 
Q 40.375 72.796875 46.453125 70.234375 
Q 52.546875 67.671875 55.8125 62.6875 
Q 59.078125 57.71875 59.328125 51.421875 
L 50.25 50.734375 
Q 49.515625 57.515625 45.28125 60.984375 
Q 41.0625 64.453125 32.8125 64.453125 
Q 24.21875 64.453125 20.28125 61.296875 
Q 16.359375 58.15625 16.359375 53.71875 
Q 16.359375 49.859375 19.140625 47.359375 
Q 21.875 44.875 33.421875 42.265625 
Q 44.96875 39.65625 49.265625 37.703125 
Q 55.515625 34.8125 58.484375 30.390625 
Q 61.46875 25.984375 61.46875 20.21875 
Q 61.46875 14.5 58.203125 9.4375 
Q 54.9375 4.390625 48.796875 1.578125 
Q 42.671875 -1.21875 35.015625 -1.21875 
Q 25.296875 -1.21875 18.71875 1.609375 
Q 12.15625 4.4375 8.421875 10.125 
Q 4.6875 15.828125 4.5 23 
z
" id="ArialMT-83"/>
      <path d="M 40.4375 6.390625 
Q 35.546875 2.25 31.03125 0.53125 
Q 26.515625 -1.171875 21.34375 -1.171875 
Q 12.796875 -1.171875 8.203125 3 
Q 3.609375 7.171875 3.609375 13.671875 
Q 3.609375 17.484375 5.34375 20.625 
Q 7.078125 23.78125 9.890625 25.6875 
Q 12.703125 27.59375 16.21875 28.5625 
Q 18.796875 29.25 24.03125 29.890625 
Q 34.671875 31.15625 39.703125 32.90625 
Q 39.75 34.71875 39.75 35.203125 
Q 39.75 40.578125 37.25 42.78125 
Q 33.890625 45.75 27.25 45.75 
Q 21.046875 45.75 18.09375 43.578125 
Q 15.140625 41.40625 13.71875 35.890625 
L 5.125 37.0625 
Q 6.296875 42.578125 8.984375 45.96875 
Q 11.671875 49.359375 16.75 51.1875 
Q 21.828125 53.03125 28.515625 53.03125 
Q 35.15625 53.03125 39.296875 51.46875 
Q 43.453125 49.90625 45.40625 47.53125 
Q 47.359375 45.171875 48.140625 41.546875 
Q 48.578125 39.3125 48.578125 33.453125 
L 48.578125 21.734375 
Q 48.578125 9.46875 49.140625 6.21875 
Q 49.703125 2.984375 51.375 0 
L 42.1875 0 
Q 40.828125 2.734375 40.4375 6.390625 
z
M 39.703125 26.03125 
Q 34.90625 24.078125 25.34375 22.703125 
Q 19.921875 21.921875 17.671875 20.9375 
Q 15.4375 19.96875 14.203125 18.09375 
Q 12.984375 16.21875 12.984375 13.921875 
Q 12.984375 10.40625 15.640625 8.0625 
Q 18.3125 5.71875 23.4375 5.71875 
Q 28.515625 5.71875 32.46875 7.9375 
Q 36.421875 10.15625 38.28125 14.015625 
Q 39.703125 17 39.703125 22.796875 
z
" id="ArialMT-97"/>
      <path d="M 3.328125 25.921875 
Q 3.328125 40.328125 11.328125 47.265625 
Q 18.015625 53.03125 27.640625 53.03125 
Q 38.328125 53.03125 45.109375 46.015625 
Q 51.90625 39.015625 51.90625 26.65625 
Q 51.90625 16.65625 48.90625 10.90625 
Q 45.90625 5.171875 40.15625 2 
Q 34.421875 -1.171875 27.640625 -1.171875 
Q 16.75 -1.171875 10.03125 5.8125 
Q 3.328125 12.796875 3.328125 25.921875 
z
M 12.359375 25.921875 
Q 12.359375 15.96875 16.703125 11.015625 
Q 21.046875 6.0625 27.640625 6.0625 
Q 34.1875 6.0625 38.53125 11.03125 
Q 42.875 16.015625 42.875 26.21875 
Q 42.875 35.84375 38.5 40.796875 
Q 34.125 45.75 27.640625 45.75 
Q 21.046875 45.75 16.703125 40.8125 
Q 12.359375 35.890625 12.359375 25.921875 
z
" id="ArialMT-111"/>
      <path d="M 6.390625 0 
L 6.390625 71.578125 
L 15.1875 71.578125 
L 15.1875 0 
z
" id="ArialMT-108"/>
     </defs>
     <g style="fill:#262626;" transform="translate(24.450313 186.480625)rotate(-90)scale(0.12 -0.12)">
      <use xlink:href="#ArialMT-83"/>
      <use x="66.699219" xlink:href="#ArialMT-101"/>
      <use x="122.314453" xlink:href="#ArialMT-97"/>
      <use x="177.929688" xlink:href="#ArialMT-115"/>
      <use x="227.929688" xlink:href="#ArialMT-111"/>
      <use x="283.544922" xlink:href="#ArialMT-110"/>
      <use x="339.160156" xlink:href="#ArialMT-97"/>
      <use x="394.775391" xlink:href="#ArialMT-108"/>
     </g>
    </g>
   </g>
   <g id="line2d_28">
    <path clip-path="url(#pd48895eef7)" d="M 62.05 147.581699 
L 64.15015 144.426857 
L 64.8502 143.755683 
L 65.55025 143.485971 
L 66.95035 143.49702 
L 67.6504 143.549193 
L 68.35045 143.850326 
L 69.0505 144.460724 
L 69.75055 145.352379 
L 70.4506 146.474525 
L 71.15065 147.86848 
L 75.35095 157.651899 
L 76.051 158.65924 
L 76.75105 159.389232 
L 77.4511 160.915719 
L 78.15115 162.157132 
L 78.8512 164.295394 
L 79.55125 167.371382 
L 80.2513 169.538555 
L 80.95135 170.694899 
L 81.6514 170.614413 
L 82.35145 169.416023 
L 83.75155 165.254976 
L 85.8517 158.610969 
L 86.55175 156.681394 
L 87.2518 155.121695 
L 87.95185 153.851254 
L 88.6519 152.934684 
L 89.35195 152.414755 
L 90.052 152.201404 
L 90.75205 152.259391 
L 91.4521 152.532922 
L 92.8522 153.577788 
L 94.95235 156.065166 
L 95.6524 156.57127 
L 96.35245 156.744022 
L 97.0525 163.904803 
L 98.4526 161.47828 
L 100.55275 157.067441 
L 101.2528 155.850283 
L 102.6529 154.262802 
L 104.053 153.654859 
L 104.75305 153.587023 
L 105.4531 153.743595 
L 106.15315 154.061931 
L 107.55325 155.17694 
L 108.2533 156.068304 
L 108.95335 157.583148 
L 109.6534 159.714862 
L 110.35345 162.484589 
L 113.8537 178.178483 
L 114.55375 179.473864 
L 115.2538 179.228946 
L 115.95385 177.509372 
L 117.35395 163.111199 
L 118.75405 154.606956 
L 119.4541 151.163874 
L 120.15415 148.702742 
L 120.8542 146.687127 
L 121.55425 145.410319 
L 122.2543 144.41206 
L 122.95435 143.843733 
L 124.35445 143.990037 
L 125.0545 144.276751 
L 125.75455 144.838249 
L 128.55475 148.106877 
L 129.95485 148.683992 
L 131.35495 148.171366 
L 132.055 147.581699 
L 134.15515 144.426857 
L 134.8552 143.755683 
L 135.55525 143.485971 
L 136.95535 143.49702 
L 137.6554 143.549193 
L 138.35545 143.850326 
L 139.0555 144.460724 
L 139.75555 145.352379 
L 140.4556 146.474525 
L 141.15565 147.86848 
L 145.35595 157.651899 
L 146.056 158.65924 
L 146.75605 159.389232 
L 147.4561 160.915719 
L 148.15615 162.157132 
L 148.8562 164.295394 
L 149.55625 167.371382 
L 150.2563 169.538555 
L 150.95635 170.694899 
L 151.6564 170.614413 
L 152.35645 169.416023 
L 153.75655 165.254976 
L 155.8567 158.610969 
L 156.55675 156.681394 
L 157.2568 155.121695 
L 157.95685 153.851254 
L 158.6569 152.934684 
L 159.35695 152.414755 
L 160.057 152.201404 
L 160.75705 152.259391 
L 161.4571 152.532922 
L 162.8572 153.577788 
L 164.95735 156.065166 
L 165.6574 156.57127 
L 166.35745 156.744022 
L 167.0575 163.904803 
L 168.4576 161.47828 
L 170.55775 157.067441 
L 171.2578 155.850283 
L 172.6579 154.262802 
L 174.058 153.654859 
L 174.75805 153.587023 
L 175.4581 153.743595 
L 176.15815 154.061931 
L 177.55825 155.17694 
L 178.2583 156.068304 
L 178.95835 157.583148 
L 179.6584 159.714862 
L 180.35845 162.484589 
L 183.8587 178.178483 
L 184.55875 179.473864 
L 185.2588 179.228946 
L 185.95885 177.509372 
L 187.35895 163.111199 
L 188.75905 154.606956 
L 189.4591 151.163874 
L 190.15915 148.702742 
L 190.8592 146.687127 
L 191.55925 145.410319 
L 192.2593 144.41206 
L 192.95935 143.843733 
L 194.35945 143.990037 
L 195.0595 144.276751 
L 195.75955 144.838249 
L 198.55975 148.106877 
L 199.95985 148.683992 
L 201.35995 148.171366 
L 202.06 147.581699 
L 204.16015 144.426857 
L 204.8602 143.755683 
L 205.56025 143.485971 
L 206.96035 143.49702 
L 207.6604 143.549193 
L 208.36045 143.850326 
L 209.0605 144.460724 
L 209.76055 145.352379 
L 210.4606 146.474525 
L 211.16065 147.86848 
L 215.36095 157.651899 
L 216.061 158.65924 
L 216.76105 159.389232 
L 217.4611 160.915719 
L 218.16115 162.157132 
L 218.8612 164.295394 
L 219.56125 167.371382 
L 220.2613 169.538555 
L 220.96135 170.694899 
L 221.6614 170.614413 
L 222.36145 169.416023 
L 223.76155 165.254976 
L 225.8617 158.610969 
L 226.56175 156.681394 
L 227.2618 155.121695 
L 227.96185 153.851254 
L 228.6619 152.934684 
L 229.36195 152.414755 
L 230.062 152.201404 
L 230.76205 152.259391 
L 231.4621 152.532922 
L 232.8622 153.577788 
L 234.96235 156.065166 
L 235.6624 156.57127 
L 236.36245 156.744022 
L 237.0625 163.904803 
L 238.4626 161.47828 
L 240.56275 157.067441 
L 241.2628 155.850283 
L 242.6629 154.262802 
L 244.063 153.654859 
L 244.76305 153.587023 
L 245.4631 153.743595 
L 246.16315 154.061931 
L 247.56325 155.17694 
L 248.2633 156.068304 
L 248.96335 157.583148 
L 249.6634 159.714862 
L 250.36345 162.484589 
L 253.8637 178.178483 
L 254.56375 179.473864 
L 255.2638 179.228946 
L 255.96385 177.509372 
L 257.36395 163.111199 
L 258.76405 154.606956 
L 259.4641 151.163874 
L 260.16415 148.702742 
L 260.8642 146.687127 
L 261.56425 145.410319 
L 262.2643 144.41206 
L 262.96435 143.843733 
L 264.36445 143.990037 
L 265.0645 144.276751 
L 265.76455 144.838249 
L 268.56475 148.106877 
L 269.96485 148.683992 
L 271.36495 148.171366 
L 272.065 147.581699 
L 274.16515 144.426857 
L 274.8652 143.755683 
L 275.56525 143.485971 
L 276.96535 143.49702 
L 277.6654 143.549193 
L 278.36545 143.850326 
L 279.0655 144.460724 
L 279.76555 145.352379 
L 280.4656 146.474525 
L 281.16565 147.86848 
L 285.36595 157.651899 
L 286.066 158.65924 
L 286.76605 159.389232 
L 287.4661 160.915719 
L 288.16615 162.157132 
L 288.8662 164.295394 
L 289.56625 167.371382 
L 290.2663 169.538555 
L 290.96635 170.694899 
L 291.6664 170.614413 
L 292.36645 169.416023 
L 293.76655 165.254976 
L 295.8667 158.610969 
L 296.56675 156.681394 
L 297.2668 155.121695 
L 297.96685 153.851254 
L 298.6669 152.934684 
L 299.36695 152.414755 
L 300.067 152.201404 
L 300.76705 152.259391 
L 301.4671 152.532922 
L 302.8672 153.577788 
L 304.96735 156.065166 
L 305.6674 156.57127 
L 306.36745 156.744022 
L 307.0675 163.904803 
L 308.4676 161.47828 
L 310.56775 157.067441 
L 311.2678 155.850283 
L 312.6679 154.262802 
L 314.068 153.654859 
L 314.76805 153.587023 
L 315.4681 153.743595 
L 316.16815 154.061931 
L 317.56825 155.17694 
L 318.2683 156.068304 
L 318.96835 157.583148 
L 319.6684 159.714862 
L 320.36845 162.484589 
L 323.8687 178.178483 
L 324.56875 179.473864 
L 325.2688 179.228946 
L 325.96885 177.509372 
L 327.36895 163.111199 
L 328.76905 154.606956 
L 329.4691 151.163874 
L 330.16915 148.702742 
L 330.8692 146.687127 
L 331.56925 145.410319 
L 332.2693 144.41206 
L 332.96935 143.843733 
L 334.36945 143.990037 
L 335.0695 144.276751 
L 335.76955 144.838249 
L 338.56975 148.106877 
L 339.96985 148.683992 
L 341.36995 148.171366 
L 342.07 147.581699 
L 344.17015 144.426857 
L 344.8702 143.755683 
L 345.57025 143.485971 
L 346.97035 143.49702 
L 347.6704 143.549193 
L 348.37045 143.850326 
L 349.0705 144.460724 
L 349.77055 145.352379 
L 350.4706 146.474525 
L 351.17065 147.86848 
L 355.37095 157.651899 
L 356.071 158.65924 
L 356.77105 159.389232 
L 357.4711 160.915719 
L 358.17115 162.157132 
L 358.8712 164.295394 
L 359.57125 167.371382 
L 360.2713 169.538555 
L 360.97135 170.694899 
L 361.6714 170.614413 
L 362.37145 169.416023 
L 363.77155 165.254976 
L 365.8717 158.610969 
L 366.57175 156.681394 
L 367.2718 155.121695 
L 367.97185 153.851254 
L 368.6719 152.934684 
L 369.37195 152.414755 
L 370.072 152.201404 
L 370.77205 152.259391 
L 371.4721 152.532922 
L 372.8722 153.577788 
L 374.97235 156.065166 
L 375.6724 156.57127 
L 376.37245 156.744022 
L 377.0725 163.904803 
L 378.4726 161.47828 
L 380.57275 157.067441 
L 381.2728 155.850283 
L 382.6729 154.262802 
L 384.073 153.654859 
L 384.77305 153.587023 
L 385.4731 153.743595 
L 386.17315 154.061931 
L 387.57325 155.17694 
L 388.2733 156.068304 
L 388.97335 157.583148 
L 389.6734 159.714862 
L 390.37345 162.484589 
L 393.8737 178.178483 
L 394.57375 179.473864 
L 395.2738 179.228946 
L 395.97385 177.509372 
L 397.37395 163.111199 
L 398.77405 154.606956 
L 399.4741 151.163874 
L 400.17415 148.702742 
L 400.8742 146.687127 
L 401.57425 145.410319 
L 402.2743 144.41206 
L 402.97435 143.843733 
L 404.37445 143.990037 
L 405.0745 144.276751 
L 405.77455 144.838249 
L 408.57475 148.106877 
L 409.97485 148.683992 
L 411.37495 148.171366 
L 411.37495 148.171366 
" style="fill:none;stroke:#4c72b0;stroke-linecap:round;stroke-width:1.5;"/>
   </g>
   <g id="patch_13">
    <path d="M 62.05 181.275 
L 62.05 141.65 
" style="fill:none;stroke:#ffffff;stroke-linecap:square;stroke-linejoin:miter;stroke-width:1.25;"/>
   </g>
   <g id="patch_14">
    <path d="M 412.075 181.275 
L 412.075 141.65 
" style="fill:none;stroke:#ffffff;stroke-linecap:square;stroke-linejoin:miter;stroke-width:1.25;"/>
   </g>
   <g id="patch_15">
    <path d="M 62.05 181.275 
L 412.075 181.275 
" style="fill:none;stroke:#ffffff;stroke-linecap:square;stroke-linejoin:miter;stroke-width:1.25;"/>
   </g>
   <g id="patch_16">
    <path d="M 62.05 141.65 
L 412.075 141.65 
" style="fill:none;stroke:#ffffff;stroke-linecap:square;stroke-linejoin:miter;stroke-width:1.25;"/>
   </g>
  </g>
  <g id="axes_4">
   <g id="patch_17">
    <path d="M 62.05 243.7 
L 412.075 243.7 
L 412.075 204.075 
L 62.05 204.075 
z
" style="fill:#eaeaf2;"/>
   </g>
   <g id="matplotlib.axis_7">
    <g id="xtick_19">
     <g id="line2d_29">
      <path clip-path="url(#pb12eab24ab)" d="M 62.05 243.7 
L 62.05 204.075 
" style="fill:none;stroke:#ffffff;stroke-linecap:round;"/>
     </g>
     <g id="text_11">
      <!-- 0 -->
      <g style="fill:#262626;" transform="translate(58.991484 261.073594)scale(0.11 -0.11)">
       <use xlink:href="#ArialMT-48"/>
      </g>
     </g>
    </g>
    <g id="xtick_20">
     <g id="line2d_30">
      <path clip-path="url(#pb12eab24ab)" d="M 132.055 243.7 
L 132.055 204.075 
" style="fill:none;stroke:#ffffff;stroke-linecap:round;"/>
     </g>
     <g id="text_12">
      <!-- 100 -->
      <defs>
       <path d="M 37.25 0 
L 28.46875 0 
L 28.46875 56 
Q 25.296875 52.984375 20.140625 49.953125 
Q 14.984375 46.921875 10.890625 45.40625 
L 10.890625 53.90625 
Q 18.265625 57.375 23.78125 62.296875 
Q 29.296875 67.234375 31.59375 71.875 
L 37.25 71.875 
z
" id="ArialMT-49"/>
      </defs>
      <g style="fill:#262626;" transform="translate(122.879453 261.073594)scale(0.11 -0.11)">
       <use xlink:href="#ArialMT-49"/>
       <use x="55.615234" xlink:href="#ArialMT-48"/>
       <use x="111.230469" xlink:href="#ArialMT-48"/>
      </g>
     </g>
    </g>
    <g id="xtick_21">
     <g id="line2d_31">
      <path clip-path="url(#pb12eab24ab)" d="M 202.06 243.7 
L 202.06 204.075 
" style="fill:none;stroke:#ffffff;stroke-linecap:round;"/>
     </g>
     <g id="text_13">
      <!-- 200 -->
      <g style="fill:#262626;" transform="translate(192.884453 261.073594)scale(0.11 -0.11)">
       <use xlink:href="#ArialMT-50"/>
       <use x="55.615234" xlink:href="#ArialMT-48"/>
       <use x="111.230469" xlink:href="#ArialMT-48"/>
      </g>
     </g>
    </g>
    <g id="xtick_22">
     <g id="line2d_32">
      <path clip-path="url(#pb12eab24ab)" d="M 272.065 243.7 
L 272.065 204.075 
" style="fill:none;stroke:#ffffff;stroke-linecap:round;"/>
     </g>
     <g id="text_14">
      <!-- 300 -->
      <defs>
       <path d="M 4.203125 18.890625 
L 12.984375 20.0625 
Q 14.5 12.59375 18.140625 9.296875 
Q 21.78125 6 27 6 
Q 33.203125 6 37.46875 10.296875 
Q 41.75 14.59375 41.75 20.953125 
Q 41.75 27 37.796875 30.921875 
Q 33.84375 34.859375 27.734375 34.859375 
Q 25.25 34.859375 21.53125 33.890625 
L 22.515625 41.609375 
Q 23.390625 41.5 23.921875 41.5 
Q 29.546875 41.5 34.03125 44.421875 
Q 38.53125 47.359375 38.53125 53.46875 
Q 38.53125 58.296875 35.25 61.46875 
Q 31.984375 64.65625 26.8125 64.65625 
Q 21.6875 64.65625 18.265625 61.421875 
Q 14.84375 58.203125 13.875 51.765625 
L 5.078125 53.328125 
Q 6.6875 62.15625 12.390625 67.015625 
Q 18.109375 71.875 26.609375 71.875 
Q 32.46875 71.875 37.390625 69.359375 
Q 42.328125 66.84375 44.9375 62.5 
Q 47.5625 58.15625 47.5625 53.265625 
Q 47.5625 48.640625 45.0625 44.828125 
Q 42.578125 41.015625 37.703125 38.765625 
Q 44.046875 37.3125 47.5625 32.6875 
Q 51.078125 28.078125 51.078125 21.140625 
Q 51.078125 11.765625 44.234375 5.25 
Q 37.40625 -1.265625 26.953125 -1.265625 
Q 17.53125 -1.265625 11.296875 4.34375 
Q 5.078125 9.96875 4.203125 18.890625 
z
" id="ArialMT-51"/>
      </defs>
      <g style="fill:#262626;" transform="translate(262.889453 261.073594)scale(0.11 -0.11)">
       <use xlink:href="#ArialMT-51"/>
       <use x="55.615234" xlink:href="#ArialMT-48"/>
       <use x="111.230469" xlink:href="#ArialMT-48"/>
      </g>
     </g>
    </g>
    <g id="xtick_23">
     <g id="line2d_33">
      <path clip-path="url(#pb12eab24ab)" d="M 342.07 243.7 
L 342.07 204.075 
" style="fill:none;stroke:#ffffff;stroke-linecap:round;"/>
     </g>
     <g id="text_15">
      <!-- 400 -->
      <defs>
       <path d="M 32.328125 0 
L 32.328125 17.140625 
L 1.265625 17.140625 
L 1.265625 25.203125 
L 33.9375 71.578125 
L 41.109375 71.578125 
L 41.109375 25.203125 
L 50.78125 25.203125 
L 50.78125 17.140625 
L 41.109375 17.140625 
L 41.109375 0 
z
M 32.328125 25.203125 
L 32.328125 57.46875 
L 9.90625 25.203125 
z
" id="ArialMT-52"/>
      </defs>
      <g style="fill:#262626;" transform="translate(332.894453 261.073594)scale(0.11 -0.11)">
       <use xlink:href="#ArialMT-52"/>
       <use x="55.615234" xlink:href="#ArialMT-48"/>
       <use x="111.230469" xlink:href="#ArialMT-48"/>
      </g>
     </g>
    </g>
    <g id="xtick_24">
     <g id="line2d_34">
      <path clip-path="url(#pb12eab24ab)" d="M 412.075 243.7 
L 412.075 204.075 
" style="fill:none;stroke:#ffffff;stroke-linecap:round;"/>
     </g>
     <g id="text_16">
      <!-- 500 -->
      <g style="fill:#262626;" transform="translate(402.899453 261.073594)scale(0.11 -0.11)">
       <use xlink:href="#ArialMT-53"/>
       <use x="55.615234" xlink:href="#ArialMT-48"/>
       <use x="111.230469" xlink:href="#ArialMT-48"/>
      </g>
     </g>
    </g>
    <g id="text_17">
     <!-- t [*100 s] -->
     <defs>
      <path d="M 25.78125 7.859375 
L 27.046875 0.09375 
Q 23.34375 -0.6875 20.40625 -0.6875 
Q 15.625 -0.6875 12.984375 0.828125 
Q 10.359375 2.34375 9.28125 4.8125 
Q 8.203125 7.28125 8.203125 15.1875 
L 8.203125 45.015625 
L 1.765625 45.015625 
L 1.765625 51.859375 
L 8.203125 51.859375 
L 8.203125 64.703125 
L 16.9375 69.96875 
L 16.9375 51.859375 
L 25.78125 51.859375 
L 25.78125 45.015625 
L 16.9375 45.015625 
L 16.9375 14.703125 
Q 16.9375 10.9375 17.40625 9.859375 
Q 17.875 8.796875 18.921875 8.15625 
Q 19.96875 7.515625 21.921875 7.515625 
Q 23.390625 7.515625 25.78125 7.859375 
z
" id="ArialMT-116"/>
      <path id="ArialMT-32"/>
      <path d="M 6.78125 -19.875 
L 6.78125 71.578125 
L 26.171875 71.578125 
L 26.171875 64.3125 
L 15.578125 64.3125 
L 15.578125 -12.59375 
L 26.171875 -12.59375 
L 26.171875 -19.875 
z
" id="ArialMT-91"/>
      <path d="M 3.125 58.453125 
L 5.375 65.375 
Q 13.140625 62.640625 16.65625 60.640625 
Q 15.71875 69.484375 15.671875 72.796875 
L 22.75 72.796875 
Q 22.609375 67.96875 21.625 60.6875 
Q 26.65625 63.234375 33.15625 65.375 
L 35.40625 58.453125 
Q 29.203125 56.390625 23.25 55.71875 
Q 26.21875 53.125 31.640625 46.484375 
L 25.78125 42.328125 
Q 22.953125 46.1875 19.09375 52.828125 
Q 15.484375 45.953125 12.75 42.328125 
L 6.984375 46.484375 
Q 12.640625 53.46875 15.09375 55.71875 
Q 8.796875 56.9375 3.125 58.453125 
z
" id="ArialMT-42"/>
      <path d="M 21.296875 -19.875 
L 1.90625 -19.875 
L 1.90625 -12.59375 
L 12.5 -12.59375 
L 12.5 64.3125 
L 1.90625 64.3125 
L 1.90625 71.578125 
L 21.296875 71.578125 
z
" id="ArialMT-93"/>
     </defs>
     <g style="fill:#262626;" transform="translate(213.383125 275.995469)scale(0.12 -0.12)">
      <use xlink:href="#ArialMT-116"/>
      <use x="27.783203" xlink:href="#ArialMT-32"/>
      <use x="55.566406" xlink:href="#ArialMT-91"/>
      <use x="83.349609" xlink:href="#ArialMT-42"/>
      <use x="122.265625" xlink:href="#ArialMT-49"/>
      <use x="177.880859" xlink:href="#ArialMT-48"/>
      <use x="233.496094" xlink:href="#ArialMT-48"/>
      <use x="289.111328" xlink:href="#ArialMT-32"/>
      <use x="316.894531" xlink:href="#ArialMT-115"/>
      <use x="366.894531" xlink:href="#ArialMT-93"/>
     </g>
    </g>
   </g>
   <g id="matplotlib.axis_8">
    <g id="ytick_8">
     <g id="line2d_35">
      <path clip-path="url(#pb12eab24ab)" d="M 62.05 231.62734 
L 412.075 231.62734 
" style="fill:none;stroke:#ffffff;stroke-linecap:round;"/>
     </g>
     <g id="text_18">
      <!-- −1 -->
      <g style="fill:#262626;" transform="translate(40.008281 235.564137)scale(0.11 -0.11)">
       <use xlink:href="#ArialMT-8722"/>
       <use x="58.398438" xlink:href="#ArialMT-49"/>
      </g>
     </g>
    </g>
    <g id="ytick_9">
     <g id="line2d_36">
      <path clip-path="url(#pb12eab24ab)" d="M 62.05 216.596442 
L 412.075 216.596442 
" style="fill:none;stroke:#ffffff;stroke-linecap:round;"/>
     </g>
     <g id="text_19">
      <!-- 0 -->
      <g style="fill:#262626;" transform="translate(46.432969 220.533239)scale(0.11 -0.11)">
       <use xlink:href="#ArialMT-48"/>
      </g>
     </g>
    </g>
    <g id="text_20">
     <!-- Residual -->
     <defs>
      <path d="M 7.859375 0 
L 7.859375 71.578125 
L 39.59375 71.578125 
Q 49.171875 71.578125 54.140625 69.640625 
Q 59.125 67.71875 62.109375 62.828125 
Q 65.09375 57.953125 65.09375 52.046875 
Q 65.09375 44.4375 60.15625 39.203125 
Q 55.21875 33.984375 44.921875 32.5625 
Q 48.6875 30.765625 50.640625 29 
Q 54.78125 25.203125 58.5 19.484375 
L 70.953125 0 
L 59.03125 0 
L 49.5625 14.890625 
Q 45.40625 21.34375 42.71875 24.75 
Q 40.046875 28.171875 37.921875 29.53125 
Q 35.796875 30.90625 33.59375 31.453125 
Q 31.984375 31.78125 28.328125 31.78125 
L 17.328125 31.78125 
L 17.328125 0 
z
M 17.328125 39.984375 
L 37.703125 39.984375 
Q 44.1875 39.984375 47.84375 41.328125 
Q 51.515625 42.671875 53.421875 45.625 
Q 55.328125 48.578125 55.328125 52.046875 
Q 55.328125 57.125 51.640625 60.390625 
Q 47.953125 63.671875 39.984375 63.671875 
L 17.328125 63.671875 
z
" id="ArialMT-82"/>
      <path d="M 6.640625 61.46875 
L 6.640625 71.578125 
L 15.4375 71.578125 
L 15.4375 61.46875 
z
M 6.640625 0 
L 6.640625 51.859375 
L 15.4375 51.859375 
L 15.4375 0 
z
" id="ArialMT-105"/>
      <path d="M 40.578125 0 
L 40.578125 7.625 
Q 34.515625 -1.171875 24.125 -1.171875 
Q 19.53125 -1.171875 15.546875 0.578125 
Q 11.578125 2.34375 9.640625 5 
Q 7.71875 7.671875 6.9375 11.53125 
Q 6.390625 14.109375 6.390625 19.734375 
L 6.390625 51.859375 
L 15.1875 51.859375 
L 15.1875 23.09375 
Q 15.1875 16.21875 15.71875 13.8125 
Q 16.546875 10.359375 19.234375 8.375 
Q 21.921875 6.390625 25.875 6.390625 
Q 29.828125 6.390625 33.296875 8.421875 
Q 36.765625 10.453125 38.203125 13.9375 
Q 39.65625 17.4375 39.65625 24.078125 
L 39.65625 51.859375 
L 48.4375 51.859375 
L 48.4375 0 
z
" id="ArialMT-117"/>
     </defs>
     <g style="fill:#262626;" transform="translate(33.623281 247.233125)rotate(-90)scale(0.12 -0.12)">
      <use xlink:href="#ArialMT-82"/>
      <use x="72.216797" xlink:href="#ArialMT-101"/>
      <use x="127.832031" xlink:href="#ArialMT-115"/>
      <use x="177.832031" xlink:href="#ArialMT-105"/>
      <use x="200.048828" xlink:href="#ArialMT-100"/>
      <use x="255.664062" xlink:href="#ArialMT-117"/>
      <use x="311.279297" xlink:href="#ArialMT-97"/>
      <use x="366.894531" xlink:href="#ArialMT-108"/>
     </g>
    </g>
   </g>
   <g id="line2d_37">
    <path clip-path="url(#pb12eab24ab)" d="M 97.0525 222.733227 
L 98.4526 222.853944 
L 100.55275 223.312887 
L 102.6529 224.148246 
L 106.8532 225.250345 
L 108.2533 225.901864 
L 108.95335 226.696233 
L 109.6534 228.055053 
L 110.35345 230.030063 
L 113.15365 239.775554 
L 113.8537 241.317469 
L 114.55375 241.898864 
L 115.2538 241.49067 
L 115.95385 240.098418 
L 117.35395 228.648411 
L 118.054 226.088291 
L 118.75405 224.328287 
L 119.4541 222.918527 
L 120.8542 222.078982 
L 121.55425 221.859812 
L 122.2543 221.451411 
L 122.95435 220.852055 
L 123.6544 220.46859 
L 124.35445 219.824131 
L 125.75455 217.972073 
L 127.8547 214.955897 
L 128.55475 214.193222 
L 129.95485 213.053763 
L 132.055 212.013843 
L 133.4551 211.534193 
L 136.2553 210.384458 
L 136.95535 210.317289 
L 138.35545 210.649704 
L 141.8557 211.655979 
L 145.35595 212.251761 
L 146.75605 212.229602 
L 148.15615 211.449928 
L 148.8562 210.753547 
L 149.55625 209.793274 
L 150.2563 209.148201 
L 150.95635 208.83228 
L 151.6564 208.935267 
L 152.35645 209.373225 
L 153.75655 210.747667 
L 157.95685 215.053387 
L 159.35695 216.054385 
L 160.75705 216.669253 
L 161.4571 216.845314 
L 162.8572 216.923844 
L 164.2573 216.740881 
L 166.35745 216.103422 
L 167.0575 213.692773 
L 169.15765 213.951187 
L 171.2578 213.834289 
L 172.6579 214.098385 
L 176.15815 215.275022 
L 178.2583 215.586564 
L 178.95835 215.495707 
L 179.6584 215.187532 
L 180.35845 214.650785 
L 181.0585 213.93383 
L 182.4586 212.020066 
L 183.8587 210.08297 
L 184.55875 209.453683 
L 185.2588 209.232543 
L 185.95885 209.526191 
L 187.35895 213.521007 
L 188.75905 215.589203 
L 189.4591 216.446469 
L 190.15915 216.971962 
L 190.8592 217.315896 
L 191.55925 217.532326 
L 195.0595 219.128926 
L 195.75955 219.31224 
L 197.15965 219.298109 
L 198.55975 218.960156 
L 199.95985 219.104894 
L 202.76005 220.511892 
L 204.16015 221.243501 
L 204.8602 221.293485 
L 205.56025 221.130616 
L 206.2603 220.742226 
L 212.56075 215.682147 
L 213.2608 215.336731 
L 213.96085 215.251965 
L 215.36095 215.699819 
L 218.16115 216.828563 
L 218.8612 216.804413 
L 219.56125 216.421049 
L 220.2613 216.456783 
L 221.6614 217.117997 
L 223.76155 218.508727 
L 225.8617 219.479378 
L 227.2618 220.053179 
L 229.36195 220.428901 
L 232.16215 220.996668 
L 233.56225 221.105124 
L 234.96235 221.295931 
L 235.6624 221.238944 
L 236.36245 220.942812 
L 237.0625 218.181008 
L 237.76255 217.765907 
L 240.56275 215.37797 
L 242.6629 213.475898 
L 244.063 212.454763 
L 245.4631 211.862502 
L 247.56325 211.613481 
L 248.96335 211.559798 
L 249.6634 211.409939 
L 251.0635 210.851626 
L 252.4636 210.570436 
L 253.16365 210.741942 
L 253.8637 211.116811 
L 255.2638 212.650398 
L 255.96385 213.494385 
L 256.6639 215.428986 
L 257.36395 216.972787 
L 258.064 217.150813 
L 258.76405 216.779442 
L 259.4641 216.183339 
L 262.2643 212.703752 
L 262.96435 212.171892 
L 263.6644 211.824196 
L 264.36445 211.684134 
L 265.0645 212.079548 
L 265.76455 212.803959 
L 266.4646 213.981762 
L 267.8647 217.55662 
L 269.2648 221.394747 
L 269.96485 222.864748 
L 270.6649 223.990653 
L 271.36495 224.799081 
L 272.065 225.133102 
L 272.76505 224.931606 
L 273.4651 224.427376 
L 276.2653 221.33461 
L 277.6654 220.5902 
L 279.0655 220.252368 
L 280.4656 220.061404 
L 281.8657 219.548053 
L 283.2658 218.798927 
L 286.066 217.062215 
L 286.76605 216.724274 
L 287.4661 216.155108 
L 288.16615 215.748444 
L 288.8662 215.139658 
L 289.56625 214.278988 
L 290.2663 213.754682 
L 290.96635 213.645308 
L 291.6664 213.872075 
L 292.36645 214.312418 
L 296.56675 218.267877 
L 297.96685 218.966379 
L 299.36695 219.354876 
L 300.067 219.382786 
L 301.4671 219.081939 
L 302.8672 218.544999 
L 304.96735 217.377508 
L 305.6674 217.076204 
L 306.36745 216.976459 
L 307.0675 214.642739 
L 308.4676 215.328109 
L 309.8677 216.212604 
L 310.56775 216.726522 
L 311.96785 217.373779 
L 314.068 217.721994 
L 315.4681 217.487867 
L 317.56825 216.623197 
L 318.96835 215.49801 
L 319.6684 214.597223 
L 320.36845 213.478692 
L 323.16865 207.728252 
L 323.8687 206.732498 
L 324.56875 206.057628 
L 325.2688 205.876136 
L 325.96885 206.130754 
L 328.069 211.401488 
L 329.4691 213.701414 
L 330.16915 214.510017 
L 331.56925 216.408008 
L 332.96935 217.992973 
L 334.36945 218.899794 
L 335.0695 219.108278 
L 335.76955 219.161476 
L 336.4696 219.016259 
L 337.8697 217.584212 
L 340.6699 213.128976 
L 341.36995 212.419133 
L 342.07 212.024599 
L 342.77005 211.991652 
L 343.4701 212.345464 
L 344.17015 213.125299 
L 345.57025 215.496805 
L 346.2703 216.788453 
L 346.97035 217.840359 
L 347.6704 218.573198 
L 351.17065 221.151255 
L 353.2708 223.211114 
L 353.97085 223.560431 
L 356.071 223.931489 
L 356.77105 223.957154 
L 357.4711 224.710893 
L 358.17115 225.222814 
L 358.8712 226.552129 
L 359.57125 228.756436 
L 360.2713 229.890082 
L 360.97135 230.009979 
L 361.6714 229.324408 
L 362.37145 227.983428 
L 365.17165 220.778765 
L 366.57175 217.409501 
L 367.2718 216.091296 
L 368.6719 214.115489 
L 369.37195 213.411586 
L 370.072 212.894087 
L 370.77205 212.582027 
L 371.4721 212.446075 
L 372.17215 212.486088 
L 373.57225 213.139741 
L 374.97235 214.084428 
L 376.37245 215.227054 
L 376.37245 215.227054 
" style="fill:none;stroke:#4c72b0;stroke-linecap:round;stroke-width:1.5;"/>
   </g>
   <g id="patch_18">
    <path d="M 62.05 243.7 
L 62.05 204.075 
" style="fill:none;stroke:#ffffff;stroke-linecap:square;stroke-linejoin:miter;stroke-width:1.25;"/>
   </g>
   <g id="patch_19">
    <path d="M 412.075 243.7 
L 412.075 204.075 
" style="fill:none;stroke:#ffffff;stroke-linecap:square;stroke-linejoin:miter;stroke-width:1.25;"/>
   </g>
   <g id="patch_20">
    <path d="M 62.05 243.7 
L 412.075 243.7 
" style="fill:none;stroke:#ffffff;stroke-linecap:square;stroke-linejoin:miter;stroke-width:1.25;"/>
   </g>
   <g id="patch_21">
    <path d="M 62.05 204.075 
L 412.075 204.075 
" style="fill:none;stroke:#ffffff;stroke-linecap:square;stroke-linejoin:miter;stroke-width:1.25;"/>
   </g>
  </g>
 </g>
 <defs>
  <clipPath id="p0414b8706e">
   <rect height="39.625" width="350.025" x="62.05" y="16.8"/>
  </clipPath>
  <clipPath id="p25a88624e1">
   <rect height="39.625" width="350.025" x="62.05" y="79.225"/>
  </clipPath>
  <clipPath id="pd48895eef7">
   <rect height="39.625" width="350.025" x="62.05" y="141.65"/>
  </clipPath>
  <clipPath id="pb12eab24ab">
   <rect height="39.625" width="350.025" x="62.05" y="204.075"/>
  </clipPath>
 </defs>
</svg>
