<?xml version="1.0" encoding="utf-8" standalone="no"?>
<!DOCTYPE svg PUBLIC "-//W3C//DTD SVG 1.1//EN"
  "http://www.w3.org/Graphics/SVG/1.1/DTD/svg11.dtd">
<!-- Created with matplotlib (https://matplotlib.org/) -->
<svg height="595.44pt" version="1.1" viewBox="0 0 842.4 595.44" width="842.4pt" xmlns="http://www.w3.org/2000/svg" xmlns:xlink="http://www.w3.org/1999/xlink">
 <defs>
  <style type="text/css">
*{stroke-linecap:butt;stroke-linejoin:round;}
  </style>
 </defs>
 <g id="figure_1">
  <g id="patch_1">
   <path d="M 0 595.44 
L 842.4 595.44 
L 842.4 0 
L 0 0 
z
" style="fill:#ffffff;"/>
  </g>
  <g id="axes_1">
   <g id="patch_2">
    <path d="M 105.3 521.01 
L 758.16 521.01 
L 758.16 71.4528 
L 105.3 71.4528 
z
" style="fill:#eaeaf2;"/>
   </g>
   <g id="matplotlib.axis_1">
    <g id="xtick_1">
     <g id="line2d_1">
      <path clip-path="url(#pb1e6424e0f)" d="M 105.3 521.01 
L 105.3 71.4528 
" style="fill:none;stroke:#ffffff;stroke-linecap:round;stroke-width:1.5;"/>
     </g>
     <g id="text_1">
      <!-- 0 -->
      <defs>
       <path d="M 4.15625 35.296875 
Q 4.15625 48 6.765625 55.734375 
Q 9.375 63.484375 14.515625 67.671875 
Q 19.671875 71.875 27.484375 71.875 
Q 33.25 71.875 37.59375 69.546875 
Q 41.9375 67.234375 44.765625 62.859375 
Q 47.609375 58.5 49.21875 52.21875 
Q 50.828125 45.953125 50.828125 35.296875 
Q 50.828125 22.703125 48.234375 14.96875 
Q 45.65625 7.234375 40.5 3 
Q 35.359375 -1.21875 27.484375 -1.21875 
Q 17.140625 -1.21875 11.234375 6.203125 
Q 4.15625 15.140625 4.15625 35.296875 
z
M 13.1875 35.296875 
Q 13.1875 17.671875 17.3125 11.828125 
Q 21.4375 6 27.484375 6 
Q 33.546875 6 37.671875 11.859375 
Q 41.796875 17.71875 41.796875 35.296875 
Q 41.796875 52.984375 37.671875 58.78125 
Q 33.546875 64.59375 27.390625 64.59375 
Q 21.34375 64.59375 17.71875 59.46875 
Q 13.1875 52.9375 13.1875 35.296875 
z
" id="ArialMT-48"/>
      </defs>
      <g style="fill:#262626;" transform="translate(98.41834 551.225586)scale(0.2475 -0.2475)">
       <use xlink:href="#ArialMT-48"/>
      </g>
     </g>
    </g>
    <g id="xtick_2">
     <g id="line2d_2">
      <path clip-path="url(#pb1e6424e0f)" d="M 235.872 521.01 
L 235.872 71.4528 
" style="fill:none;stroke:#ffffff;stroke-linecap:round;stroke-width:1.5;"/>
     </g>
     <g id="text_2">
      <!-- 1 -->
      <defs>
       <path d="M 37.25 0 
L 28.46875 0 
L 28.46875 56 
Q 25.296875 52.984375 20.140625 49.953125 
Q 14.984375 46.921875 10.890625 45.40625 
L 10.890625 53.90625 
Q 18.265625 57.375 23.78125 62.296875 
Q 29.296875 67.234375 31.59375 71.875 
L 37.25 71.875 
z
" id="ArialMT-49"/>
      </defs>
      <g style="fill:#262626;" transform="translate(228.99034 551.225586)scale(0.2475 -0.2475)">
       <use xlink:href="#ArialMT-49"/>
      </g>
     </g>
    </g>
    <g id="xtick_3">
     <g id="line2d_3">
      <path clip-path="url(#pb1e6424e0f)" d="M 366.444 521.01 
L 366.444 71.4528 
" style="fill:none;stroke:#ffffff;stroke-linecap:round;stroke-width:1.5;"/>
     </g>
     <g id="text_3">
      <!-- 2 -->
      <defs>
       <path d="M 50.34375 8.453125 
L 50.34375 0 
L 3.03125 0 
Q 2.9375 3.171875 4.046875 6.109375 
Q 5.859375 10.9375 9.828125 15.625 
Q 13.8125 20.3125 21.34375 26.46875 
Q 33.015625 36.03125 37.109375 41.625 
Q 41.21875 47.21875 41.21875 52.203125 
Q 41.21875 57.421875 37.46875 61 
Q 33.734375 64.59375 27.734375 64.59375 
Q 21.390625 64.59375 17.578125 60.78125 
Q 13.765625 56.984375 13.71875 50.25 
L 4.6875 51.171875 
Q 5.609375 61.28125 11.65625 66.578125 
Q 17.71875 71.875 27.9375 71.875 
Q 38.234375 71.875 44.234375 66.15625 
Q 50.25 60.453125 50.25 52 
Q 50.25 47.703125 48.484375 43.546875 
Q 46.734375 39.40625 42.65625 34.8125 
Q 38.578125 30.21875 29.109375 22.21875 
Q 21.1875 15.578125 18.9375 13.203125 
Q 16.703125 10.84375 15.234375 8.453125 
z
" id="ArialMT-50"/>
      </defs>
      <g style="fill:#262626;" transform="translate(359.56234 551.225586)scale(0.2475 -0.2475)">
       <use xlink:href="#ArialMT-50"/>
      </g>
     </g>
    </g>
    <g id="xtick_4">
     <g id="line2d_4">
      <path clip-path="url(#pb1e6424e0f)" d="M 497.016 521.01 
L 497.016 71.4528 
" style="fill:none;stroke:#ffffff;stroke-linecap:round;stroke-width:1.5;"/>
     </g>
     <g id="text_4">
      <!-- 3 -->
      <defs>
       <path d="M 4.203125 18.890625 
L 12.984375 20.0625 
Q 14.5 12.59375 18.140625 9.296875 
Q 21.78125 6 27 6 
Q 33.203125 6 37.46875 10.296875 
Q 41.75 14.59375 41.75 20.953125 
Q 41.75 27 37.796875 30.921875 
Q 33.84375 34.859375 27.734375 34.859375 
Q 25.25 34.859375 21.53125 33.890625 
L 22.515625 41.609375 
Q 23.390625 41.5 23.921875 41.5 
Q 29.546875 41.5 34.03125 44.421875 
Q 38.53125 47.359375 38.53125 53.46875 
Q 38.53125 58.296875 35.25 61.46875 
Q 31.984375 64.65625 26.8125 64.65625 
Q 21.6875 64.65625 18.265625 61.421875 
Q 14.84375 58.203125 13.875 51.765625 
L 5.078125 53.328125 
Q 6.6875 62.15625 12.390625 67.015625 
Q 18.109375 71.875 26.609375 71.875 
Q 32.46875 71.875 37.390625 69.359375 
Q 42.328125 66.84375 44.9375 62.5 
Q 47.5625 58.15625 47.5625 53.265625 
Q 47.5625 48.640625 45.0625 44.828125 
Q 42.578125 41.015625 37.703125 38.765625 
Q 44.046875 37.3125 47.5625 32.6875 
Q 51.078125 28.078125 51.078125 21.140625 
Q 51.078125 11.765625 44.234375 5.25 
Q 37.40625 -1.265625 26.953125 -1.265625 
Q 17.53125 -1.265625 11.296875 4.34375 
Q 5.078125 9.96875 4.203125 18.890625 
z
" id="ArialMT-51"/>
      </defs>
      <g style="fill:#262626;" transform="translate(490.13434 551.225586)scale(0.2475 -0.2475)">
       <use xlink:href="#ArialMT-51"/>
      </g>
     </g>
    </g>
    <g id="xtick_5">
     <g id="line2d_5">
      <path clip-path="url(#pb1e6424e0f)" d="M 627.588 521.01 
L 627.588 71.4528 
" style="fill:none;stroke:#ffffff;stroke-linecap:round;stroke-width:1.5;"/>
     </g>
     <g id="text_5">
      <!-- 4 -->
      <defs>
       <path d="M 32.328125 0 
L 32.328125 17.140625 
L 1.265625 17.140625 
L 1.265625 25.203125 
L 33.9375 71.578125 
L 41.109375 71.578125 
L 41.109375 25.203125 
L 50.78125 25.203125 
L 50.78125 17.140625 
L 41.109375 17.140625 
L 41.109375 0 
z
M 32.328125 25.203125 
L 32.328125 57.46875 
L 9.90625 25.203125 
z
" id="ArialMT-52"/>
      </defs>
      <g style="fill:#262626;" transform="translate(620.70634 551.225586)scale(0.2475 -0.2475)">
       <use xlink:href="#ArialMT-52"/>
      </g>
     </g>
    </g>
    <g id="xtick_6">
     <g id="line2d_6">
      <path clip-path="url(#pb1e6424e0f)" d="M 758.16 521.01 
L 758.16 71.4528 
" style="fill:none;stroke:#ffffff;stroke-linecap:round;stroke-width:1.5;"/>
     </g>
     <g id="text_6">
      <!-- 5 -->
      <defs>
       <path d="M 4.15625 18.75 
L 13.375 19.53125 
Q 14.40625 12.796875 18.140625 9.390625 
Q 21.875 6 27.15625 6 
Q 33.5 6 37.890625 10.78125 
Q 42.28125 15.578125 42.28125 23.484375 
Q 42.28125 31 38.0625 35.34375 
Q 33.84375 39.703125 27 39.703125 
Q 22.75 39.703125 19.328125 37.765625 
Q 15.921875 35.84375 13.96875 32.765625 
L 5.71875 33.84375 
L 12.640625 70.609375 
L 48.25 70.609375 
L 48.25 62.203125 
L 19.671875 62.203125 
L 15.828125 42.96875 
Q 22.265625 47.46875 29.34375 47.46875 
Q 38.71875 47.46875 45.15625 40.96875 
Q 51.609375 34.46875 51.609375 24.265625 
Q 51.609375 14.546875 45.953125 7.46875 
Q 39.0625 -1.21875 27.15625 -1.21875 
Q 17.390625 -1.21875 11.203125 4.25 
Q 5.03125 9.71875 4.15625 18.75 
z
" id="ArialMT-53"/>
      </defs>
      <g style="fill:#262626;" transform="translate(751.27834 551.225586)scale(0.2475 -0.2475)">
       <use xlink:href="#ArialMT-53"/>
      </g>
     </g>
    </g>
    <g id="text_7">
     <!-- t [s] -->
     <defs>
      <path d="M 25.78125 7.859375 
L 27.046875 0.09375 
Q 23.34375 -0.6875 20.40625 -0.6875 
Q 15.625 -0.6875 12.984375 0.828125 
Q 10.359375 2.34375 9.28125 4.8125 
Q 8.203125 7.28125 8.203125 15.1875 
L 8.203125 45.015625 
L 1.765625 45.015625 
L 1.765625 51.859375 
L 8.203125 51.859375 
L 8.203125 64.703125 
L 16.9375 69.96875 
L 16.9375 51.859375 
L 25.78125 51.859375 
L 25.78125 45.015625 
L 16.9375 45.015625 
L 16.9375 14.703125 
Q 16.9375 10.9375 17.40625 9.859375 
Q 17.875 8.796875 18.921875 8.15625 
Q 19.96875 7.515625 21.921875 7.515625 
Q 23.390625 7.515625 25.78125 7.859375 
z
" id="ArialMT-116"/>
      <path id="ArialMT-32"/>
      <path d="M 6.78125 -19.875 
L 6.78125 71.578125 
L 26.171875 71.578125 
L 26.171875 64.3125 
L 15.578125 64.3125 
L 15.578125 -12.59375 
L 26.171875 -12.59375 
L 26.171875 -19.875 
z
" id="ArialMT-91"/>
      <path d="M 3.078125 15.484375 
L 11.765625 16.84375 
Q 12.5 11.625 15.84375 8.84375 
Q 19.1875 6.0625 25.203125 6.0625 
Q 31.25 6.0625 34.171875 8.515625 
Q 37.109375 10.984375 37.109375 14.3125 
Q 37.109375 17.28125 34.515625 19 
Q 32.71875 20.171875 25.53125 21.96875 
Q 15.875 24.421875 12.140625 26.203125 
Q 8.40625 27.984375 6.46875 31.125 
Q 4.546875 34.28125 4.546875 38.09375 
Q 4.546875 41.546875 6.125 44.5 
Q 7.71875 47.46875 10.453125 49.421875 
Q 12.5 50.921875 16.03125 51.96875 
Q 19.578125 53.03125 23.640625 53.03125 
Q 29.734375 53.03125 34.34375 51.265625 
Q 38.96875 49.515625 41.15625 46.5 
Q 43.359375 43.5 44.1875 38.484375 
L 35.59375 37.3125 
Q 35.015625 41.3125 32.203125 43.546875 
Q 29.390625 45.796875 24.265625 45.796875 
Q 18.21875 45.796875 15.625 43.796875 
Q 13.03125 41.796875 13.03125 39.109375 
Q 13.03125 37.40625 14.109375 36.03125 
Q 15.1875 34.625 17.484375 33.6875 
Q 18.796875 33.203125 25.25 31.453125 
Q 34.578125 28.953125 38.25 27.359375 
Q 41.9375 25.78125 44.03125 22.75 
Q 46.140625 19.734375 46.140625 15.234375 
Q 46.140625 10.84375 43.578125 6.953125 
Q 41.015625 3.078125 36.171875 0.953125 
Q 31.34375 -1.171875 25.25 -1.171875 
Q 15.140625 -1.171875 9.84375 3.03125 
Q 4.546875 7.234375 3.078125 15.484375 
z
" id="ArialMT-115"/>
      <path d="M 21.296875 -19.875 
L 1.90625 -19.875 
L 1.90625 -12.59375 
L 12.5 -12.59375 
L 12.5 64.3125 
L 1.90625 64.3125 
L 1.90625 71.578125 
L 21.296875 71.578125 
z
" id="ArialMT-93"/>
     </defs>
     <g style="fill:#262626;" transform="translate(409.978125 579.470742)scale(0.27 -0.27)">
      <use xlink:href="#ArialMT-116"/>
      <use x="27.783203" xlink:href="#ArialMT-32"/>
      <use x="55.566406" xlink:href="#ArialMT-91"/>
      <use x="83.349609" xlink:href="#ArialMT-115"/>
      <use x="133.349609" xlink:href="#ArialMT-93"/>
     </g>
    </g>
   </g>
   <g id="matplotlib.axis_2">
    <g id="ytick_1">
     <g id="line2d_7">
      <path clip-path="url(#pb1e6424e0f)" d="M 105.3 518.261873 
L 758.16 518.261873 
" style="fill:none;stroke:#ffffff;stroke-linecap:round;stroke-width:1.5;"/>
     </g>
     <g id="text_8">
      <!-- −1.0 -->
      <defs>
       <path d="M 52.828125 31.203125 
L 5.5625 31.203125 
L 5.5625 39.40625 
L 52.828125 39.40625 
z
" id="ArialMT-8722"/>
       <path d="M 9.078125 0 
L 9.078125 10.015625 
L 19.09375 10.015625 
L 19.09375 0 
z
" id="ArialMT-46"/>
      </defs>
      <g style="fill:#262626;" transform="translate(43.941953 527.119666)scale(0.2475 -0.2475)">
       <use xlink:href="#ArialMT-8722"/>
       <use x="58.398438" xlink:href="#ArialMT-49"/>
       <use x="114.013672" xlink:href="#ArialMT-46"/>
       <use x="141.796875" xlink:href="#ArialMT-48"/>
      </g>
     </g>
    </g>
    <g id="ytick_2">
     <g id="line2d_8">
      <path clip-path="url(#pb1e6424e0f)" d="M 105.3 459.130267 
L 758.16 459.130267 
" style="fill:none;stroke:#ffffff;stroke-linecap:round;stroke-width:1.5;"/>
     </g>
     <g id="text_9">
      <!-- −0.5 -->
      <g style="fill:#262626;" transform="translate(43.941953 467.98806)scale(0.2475 -0.2475)">
       <use xlink:href="#ArialMT-8722"/>
       <use x="58.398438" xlink:href="#ArialMT-48"/>
       <use x="114.013672" xlink:href="#ArialMT-46"/>
       <use x="141.796875" xlink:href="#ArialMT-53"/>
      </g>
     </g>
    </g>
    <g id="ytick_3">
     <g id="line2d_9">
      <path clip-path="url(#pb1e6424e0f)" d="M 105.3 399.998661 
L 758.16 399.998661 
" style="fill:none;stroke:#ffffff;stroke-linecap:round;stroke-width:1.5;"/>
     </g>
     <g id="text_10">
      <!-- 0.0 -->
      <g style="fill:#262626;" transform="translate(58.3975 408.856454)scale(0.2475 -0.2475)">
       <use xlink:href="#ArialMT-48"/>
       <use x="55.615234" xlink:href="#ArialMT-46"/>
       <use x="83.398438" xlink:href="#ArialMT-48"/>
      </g>
     </g>
    </g>
    <g id="ytick_4">
     <g id="line2d_10">
      <path clip-path="url(#pb1e6424e0f)" d="M 105.3 340.867056 
L 758.16 340.867056 
" style="fill:none;stroke:#ffffff;stroke-linecap:round;stroke-width:1.5;"/>
     </g>
     <g id="text_11">
      <!-- 0.5 -->
      <g style="fill:#262626;" transform="translate(58.3975 349.724848)scale(0.2475 -0.2475)">
       <use xlink:href="#ArialMT-48"/>
       <use x="55.615234" xlink:href="#ArialMT-46"/>
       <use x="83.398438" xlink:href="#ArialMT-53"/>
      </g>
     </g>
    </g>
    <g id="ytick_5">
     <g id="line2d_11">
      <path clip-path="url(#pb1e6424e0f)" d="M 105.3 281.73545 
L 758.16 281.73545 
" style="fill:none;stroke:#ffffff;stroke-linecap:round;stroke-width:1.5;"/>
     </g>
     <g id="text_12">
      <!-- 1.0 -->
      <g style="fill:#262626;" transform="translate(58.3975 290.593242)scale(0.2475 -0.2475)">
       <use xlink:href="#ArialMT-49"/>
       <use x="55.615234" xlink:href="#ArialMT-46"/>
       <use x="83.398438" xlink:href="#ArialMT-48"/>
      </g>
     </g>
    </g>
    <g id="ytick_6">
     <g id="line2d_12">
      <path clip-path="url(#pb1e6424e0f)" d="M 105.3 222.603844 
L 758.16 222.603844 
" style="fill:none;stroke:#ffffff;stroke-linecap:round;stroke-width:1.5;"/>
     </g>
     <g id="text_13">
      <!-- 1.5 -->
      <g style="fill:#262626;" transform="translate(58.3975 231.461636)scale(0.2475 -0.2475)">
       <use xlink:href="#ArialMT-49"/>
       <use x="55.615234" xlink:href="#ArialMT-46"/>
       <use x="83.398438" xlink:href="#ArialMT-53"/>
      </g>
     </g>
    </g>
    <g id="ytick_7">
     <g id="line2d_13">
      <path clip-path="url(#pb1e6424e0f)" d="M 105.3 163.472238 
L 758.16 163.472238 
" style="fill:none;stroke:#ffffff;stroke-linecap:round;stroke-width:1.5;"/>
     </g>
     <g id="text_14">
      <!-- 2.0 -->
      <g style="fill:#262626;" transform="translate(58.3975 172.330031)scale(0.2475 -0.2475)">
       <use xlink:href="#ArialMT-50"/>
       <use x="55.615234" xlink:href="#ArialMT-46"/>
       <use x="83.398438" xlink:href="#ArialMT-48"/>
      </g>
     </g>
    </g>
    <g id="ytick_8">
     <g id="line2d_14">
      <path clip-path="url(#pb1e6424e0f)" d="M 105.3 104.340632 
L 758.16 104.340632 
" style="fill:none;stroke:#ffffff;stroke-linecap:round;stroke-width:1.5;"/>
     </g>
     <g id="text_15">
      <!-- 2.5 -->
      <g style="fill:#262626;" transform="translate(58.3975 113.198425)scale(0.2475 -0.2475)">
       <use xlink:href="#ArialMT-50"/>
       <use x="55.615234" xlink:href="#ArialMT-46"/>
       <use x="83.398438" xlink:href="#ArialMT-53"/>
      </g>
     </g>
    </g>
    <g id="text_16">
     <!-- p1 [Pa] -->
     <defs>
      <path d="M 6.59375 -19.875 
L 6.59375 51.859375 
L 14.59375 51.859375 
L 14.59375 45.125 
Q 17.4375 49.078125 21 51.046875 
Q 24.5625 53.03125 29.640625 53.03125 
Q 36.28125 53.03125 41.359375 49.609375 
Q 46.4375 46.1875 49.015625 39.953125 
Q 51.609375 33.734375 51.609375 26.3125 
Q 51.609375 18.359375 48.75 11.984375 
Q 45.90625 5.609375 40.453125 2.21875 
Q 35.015625 -1.171875 29 -1.171875 
Q 24.609375 -1.171875 21.109375 0.6875 
Q 17.625 2.546875 15.375 5.375 
L 15.375 -19.875 
z
M 14.546875 25.640625 
Q 14.546875 15.625 18.59375 10.84375 
Q 22.65625 6.0625 28.421875 6.0625 
Q 34.28125 6.0625 38.453125 11.015625 
Q 42.625 15.96875 42.625 26.375 
Q 42.625 36.28125 38.546875 41.203125 
Q 34.46875 46.140625 28.8125 46.140625 
Q 23.1875 46.140625 18.859375 40.890625 
Q 14.546875 35.640625 14.546875 25.640625 
z
" id="ArialMT-112"/>
      <path d="M 7.71875 0 
L 7.71875 71.578125 
L 34.71875 71.578125 
Q 41.84375 71.578125 45.609375 70.90625 
Q 50.875 70.015625 54.4375 67.546875 
Q 58.015625 65.09375 60.1875 60.640625 
Q 62.359375 56.203125 62.359375 50.875 
Q 62.359375 41.75 56.546875 35.421875 
Q 50.734375 29.109375 35.546875 29.109375 
L 17.1875 29.109375 
L 17.1875 0 
z
M 17.1875 37.546875 
L 35.6875 37.546875 
Q 44.875 37.546875 48.734375 40.96875 
Q 52.59375 44.390625 52.59375 50.59375 
Q 52.59375 55.078125 50.3125 58.265625 
Q 48.046875 61.46875 44.34375 62.5 
Q 41.9375 63.140625 35.5 63.140625 
L 17.1875 63.140625 
z
" id="ArialMT-80"/>
      <path d="M 40.4375 6.390625 
Q 35.546875 2.25 31.03125 0.53125 
Q 26.515625 -1.171875 21.34375 -1.171875 
Q 12.796875 -1.171875 8.203125 3 
Q 3.609375 7.171875 3.609375 13.671875 
Q 3.609375 17.484375 5.34375 20.625 
Q 7.078125 23.78125 9.890625 25.6875 
Q 12.703125 27.59375 16.21875 28.5625 
Q 18.796875 29.25 24.03125 29.890625 
Q 34.671875 31.15625 39.703125 32.90625 
Q 39.75 34.71875 39.75 35.203125 
Q 39.75 40.578125 37.25 42.78125 
Q 33.890625 45.75 27.25 45.75 
Q 21.046875 45.75 18.09375 43.578125 
Q 15.140625 41.40625 13.71875 35.890625 
L 5.125 37.0625 
Q 6.296875 42.578125 8.984375 45.96875 
Q 11.671875 49.359375 16.75 51.1875 
Q 21.828125 53.03125 28.515625 53.03125 
Q 35.15625 53.03125 39.296875 51.46875 
Q 43.453125 49.90625 45.40625 47.53125 
Q 47.359375 45.171875 48.140625 41.546875 
Q 48.578125 39.3125 48.578125 33.453125 
L 48.578125 21.734375 
Q 48.578125 9.46875 49.140625 6.21875 
Q 49.703125 2.984375 51.375 0 
L 42.1875 0 
Q 40.828125 2.734375 40.4375 6.390625 
z
M 39.703125 26.03125 
Q 34.90625 24.078125 25.34375 22.703125 
Q 19.921875 21.921875 17.671875 20.9375 
Q 15.4375 19.96875 14.203125 18.09375 
Q 12.984375 16.21875 12.984375 13.921875 
Q 12.984375 10.40625 15.640625 8.0625 
Q 18.3125 5.71875 23.4375 5.71875 
Q 28.515625 5.71875 32.46875 7.9375 
Q 36.421875 10.15625 38.28125 14.015625 
Q 39.703125 17 39.703125 22.796875 
z
" id="ArialMT-97"/>
     </defs>
     <g style="fill:#262626;" transform="translate(34.575703 339.009525)rotate(-90)scale(0.27 -0.27)">
      <use xlink:href="#ArialMT-112"/>
      <use x="55.615234" xlink:href="#ArialMT-49"/>
      <use x="111.230469" xlink:href="#ArialMT-32"/>
      <use x="139.013672" xlink:href="#ArialMT-91"/>
      <use x="166.796875" xlink:href="#ArialMT-80"/>
      <use x="233.496094" xlink:href="#ArialMT-97"/>
      <use x="289.111328" xlink:href="#ArialMT-93"/>
     </g>
    </g>
   </g>
   <g id="PolyCollection_1">
    <defs>
     <path d="M 105.3 -269.06919 
L 105.3 -119.029607 
L 106.60572 -124.074513 
L 107.91144 -123.580754 
L 109.21716 -119.369484 
L 110.52288 -121.974258 
L 111.8286 -125.85676 
L 113.13432 -123.871124 
L 114.44004 -128.641609 
L 115.74576 -131.736865 
L 117.051481 -125.378343 
L 118.357201 -130.473734 
L 119.662921 -128.10498 
L 120.968641 -127.903213 
L 122.274361 -127.787184 
L 123.580081 -126.436306 
L 124.885801 -129.032263 
L 126.191521 -128.57809 
L 127.497241 -130.08527 
L 128.802961 -126.977421 
L 130.108681 -128.790052 
L 131.414401 -125.186079 
L 132.720121 -125.228756 
L 134.025841 -125.841892 
L 135.331561 -129.465764 
L 136.637281 -136.504954 
L 137.943002 -132.513252 
L 139.248722 -139.100605 
L 140.554442 -138.864242 
L 141.860162 -138.680821 
L 143.165882 -139.785313 
L 144.471602 -140.062991 
L 145.777322 -136.971025 
L 147.083042 -138.091961 
L 148.388762 -142.334089 
L 149.694482 -141.972898 
L 151.000202 -135.568041 
L 152.305922 -139.451826 
L 153.611642 -139.771716 
L 154.917362 -135.384353 
L 156.223082 -136.358741 
L 157.528802 -142.881571 
L 158.834523 -142.013497 
L 160.140243 -138.035123 
L 161.445963 -138.866414 
L 162.751683 -140.335309 
L 164.057403 -140.131866 
L 165.363123 -141.786861 
L 166.668843 -138.963128 
L 167.974563 -137.848462 
L 169.280283 -144.846724 
L 170.586003 -142.252325 
L 171.891723 -144.945825 
L 173.197443 -141.744113 
L 174.503163 -141.352222 
L 175.808883 -147.783918 
L 177.114603 -145.23273 
L 178.420323 -151.863635 
L 179.726044 -148.723249 
L 181.031764 -152.595277 
L 182.337484 -153.822095 
L 183.643204 -154.564233 
L 184.948924 -156.447222 
L 186.254644 -156.890084 
L 187.560364 -155.650072 
L 188.866084 -154.798552 
L 190.171804 -156.729791 
L 191.477524 -154.090689 
L 192.783244 -152.307986 
L 194.088964 -151.192855 
L 195.394684 -151.697569 
L 196.700404 -144.678205 
L 198.006124 -144.798012 
L 199.311844 -143.362097 
L 200.617565 -141.251602 
L 201.923285 -144.918891 
L 203.229005 -146.149569 
L 204.534725 -145.435193 
L 205.840445 -150.507834 
L 207.146165 -148.608472 
L 208.451885 -150.637718 
L 209.757605 -152.276541 
L 211.063325 -152.762829 
L 212.369045 -152.988609 
L 213.674765 -149.716988 
L 214.980485 -149.050364 
L 216.286205 -150.641012 
L 217.591925 -151.958438 
L 218.897645 -144.759095 
L 220.203365 -152.061816 
L 221.509086 -144.165168 
L 222.814806 -147.009846 
L 224.120526 -145.725376 
L 225.426246 -141.045252 
L 226.731966 -144.624026 
L 228.037686 -143.359021 
L 229.343406 -145.523814 
L 230.649126 -155.236451 
L 231.954846 -148.662825 
L 233.260566 -155.63443 
L 234.566286 -151.7525 
L 235.872006 -157.406817 
L 237.177726 -155.609198 
L 238.483446 -155.533272 
L 239.789166 -156.993215 
L 241.094886 -160.161939 
L 242.400607 -154.440237 
L 243.706327 -153.137365 
L 245.012047 -153.717466 
L 246.317767 -158.160494 
L 247.623487 -152.74328 
L 248.929207 -154.516389 
L 250.234927 -153.721539 
L 251.540647 -151.777292 
L 252.846367 -148.189298 
L 254.152087 -151.951686 
L 255.457807 -151.316693 
L 256.763527 -156.014429 
L 258.069247 -155.217584 
L 259.374967 -156.153646 
L 260.680687 -161.912006 
L 261.986407 -162.166747 
L 263.292128 -160.818028 
L 264.597848 -161.183403 
L 265.903568 -158.87536 
L 267.209288 -160.683096 
L 268.515008 -158.779861 
L 269.820728 -164.303317 
L 271.126448 -162.697656 
L 272.432168 -164.544356 
L 273.737888 -162.443088 
L 275.043608 -159.793505 
L 276.349328 -159.153962 
L 277.655048 -158.505486 
L 278.960768 -153.732877 
L 280.266488 -154.595614 
L 281.572208 -151.723598 
L 282.877928 -154.525808 
L 284.183648 -147.065469 
L 285.489369 -147.629854 
L 286.795089 -148.61562 
L 288.100809 -145.550684 
L 289.406529 -144.571751 
L 290.712249 -143.625852 
L 292.017969 -142.037254 
L 293.323689 -142.105127 
L 294.629409 -140.249215 
L 295.935129 -141.604573 
L 297.240849 -142.837132 
L 298.546569 -142.483132 
L 299.852289 -138.713985 
L 301.158009 -142.918284 
L 302.463729 -144.768694 
L 303.769449 -144.23889 
L 305.075169 -145.089001 
L 306.38089 -138.480151 
L 307.68661 -145.382208 
L 308.99233 -140.506807 
L 310.29805 -138.472106 
L 311.60377 -137.661102 
L 312.90949 -139.250117 
L 314.21521 -135.529387 
L 315.52093 -134.9237 
L 316.82665 -134.724799 
L 318.13237 -132.269266 
L 319.43809 -132.301875 
L 320.74381 -132.60163 
L 322.04953 -129.405428 
L 323.35525 -129.632454 
L 324.66097 -127.455868 
L 325.96669 -129.05573 
L 327.272411 -129.206348 
L 328.578131 -128.774734 
L 329.883851 -132.184432 
L 331.189571 -130.686253 
L 332.495291 -131.224035 
L 333.801011 -134.648642 
L 335.106731 -133.895773 
L 336.412451 -134.911597 
L 337.718171 -136.223932 
L 339.023891 -133.312817 
L 340.329611 -136.744249 
L 341.635331 -132.214461 
L 342.941051 -138.720749 
L 344.246771 -135.31827 
L 345.552491 -129.673215 
L 346.858211 -130.958626 
L 348.163932 -131.858152 
L 349.469652 -135.620352 
L 350.775372 -133.661782 
L 352.081092 -137.392415 
L 353.386812 -132.95038 
L 354.692532 -127.554789 
L 355.998252 -128.394926 
L 357.303972 -126.230702 
L 358.609692 -126.768373 
L 359.915412 -122.744911 
L 361.221132 -125.836887 
L 362.526852 -127.385376 
L 363.832572 -130.075168 
L 365.138292 -130.302076 
L 366.444012 -132.124379 
L 367.749732 -134.550677 
L 369.055453 -136.745422 
L 370.361173 -136.868653 
L 371.666893 -137.492921 
L 372.972613 -143.117924 
L 374.278333 -142.15436 
L 375.584053 -146.474389 
L 376.889773 -148.02418 
L 378.195493 -149.468363 
L 379.501213 -151.249718 
L 380.806933 -150.838847 
L 382.112653 -149.519741 
L 383.418373 -150.852682 
L 384.724093 -149.307759 
L 386.029813 -149.572083 
L 387.335533 -147.42076 
L 388.641253 -149.040616 
L 389.946974 -146.194245 
L 391.252694 -148.669338 
L 392.558414 -146.292093 
L 393.864134 -148.19004 
L 395.169854 -146.749303 
L 396.475574 -146.252977 
L 397.781294 -147.923211 
L 399.087014 -148.966765 
L 400.392734 -147.785465 
L 401.698454 -146.215467 
L 403.004174 -145.559917 
L 404.309894 -144.809919 
L 405.615614 -143.986899 
L 406.921334 -142.399049 
L 408.227054 -140.012194 
L 409.532774 -138.692982 
L 410.838495 -142.825592 
L 412.144215 -142.571548 
L 413.449935 -141.275751 
L 414.755655 -141.277505 
L 416.061375 -145.717797 
L 417.367095 -146.008243 
L 418.672815 -147.608416 
L 419.978535 -148.811503 
L 421.284255 -147.570771 
L 422.589975 -153.936256 
L 423.895695 -151.672957 
L 425.201415 -158.305551 
L 426.507135 -161.112272 
L 427.812855 -162.129484 
L 429.118575 -165.107665 
L 430.424295 -167.550557 
L 431.730016 -170.646354 
L 433.035736 -171.433449 
L 434.341456 -174.780478 
L 435.647176 -176.785994 
L 436.952896 -177.415581 
L 438.258616 -177.583679 
L 439.564336 -178.640865 
L 440.870056 -178.234212 
L 442.175776 -180.491526 
L 443.481496 -181.200174 
L 444.787216 -182.269421 
L 446.092936 -181.68885 
L 447.398656 -180.730995 
L 448.704376 -181.900891 
L 450.010096 -180.904609 
L 451.315816 -178.956291 
L 452.621536 -179.890984 
L 453.927257 -180.4341 
L 455.232977 -178.673669 
L 456.538697 -177.84515 
L 457.844417 -181.321352 
L 459.150137 -177.961664 
L 460.455857 -181.414362 
L 461.761577 -183.606842 
L 463.067297 -181.949329 
L 464.373017 -181.514236 
L 465.678737 -184.034624 
L 466.984457 -184.502301 
L 468.290177 -185.2708 
L 469.595897 -186.583513 
L 470.901617 -187.134674 
L 472.207337 -187.805256 
L 473.513057 -187.692728 
L 474.818778 -189.124595 
L 476.124498 -190.284548 
L 477.430218 -188.41457 
L 478.735938 -189.398005 
L 480.041658 -187.504508 
L 481.347378 -187.596221 
L 482.653098 -189.200095 
L 483.958818 -188.77819 
L 485.264538 -186.928428 
L 486.570258 -186.308439 
L 487.875978 -185.018822 
L 489.181698 -183.670217 
L 490.487418 -184.494951 
L 491.793138 -186.260527 
L 493.098858 -185.698061 
L 494.404578 -185.865229 
L 495.710299 -184.630611 
L 497.016019 -184.672647 
L 498.321739 -181.97836 
L 499.627459 -182.739324 
L 500.933179 -182.42763 
L 502.238899 -181.499731 
L 503.544619 -181.86862 
L 504.850339 -180.67732 
L 506.156059 -180.929984 
L 507.461779 -181.105104 
L 508.767499 -181.878375 
L 510.073219 -181.688768 
L 511.378939 -181.115481 
L 512.684659 -183.110248 
L 513.990379 -182.368615 
L 515.296099 -183.130896 
L 516.60182 -184.074686 
L 517.90754 -184.301992 
L 519.21326 -183.140896 
L 520.51898 -182.807813 
L 521.8247 -183.151576 
L 523.13042 -183.844902 
L 524.43614 -181.964739 
L 525.74186 -183.749079 
L 527.04758 -183.547523 
L 528.3533 -183.218663 
L 529.65902 -187.373643 
L 530.96474 -182.794187 
L 532.27046 -188.239787 
L 533.57618 -188.397923 
L 534.8819 -188.109511 
L 536.18762 -189.53196 
L 537.493341 -191.857276 
L 538.799061 -189.469953 
L 540.104781 -192.126866 
L 541.410501 -191.191198 
L 542.716221 -190.754836 
L 544.021941 -189.760379 
L 545.327661 -190.721649 
L 546.633381 -188.585401 
L 547.939101 -189.102986 
L 549.244821 -188.568335 
L 550.550541 -186.887433 
L 551.856261 -184.979959 
L 553.161981 -181.644832 
L 554.467701 -180.02828 
L 555.773421 -180.794095 
L 557.079141 -176.624683 
L 558.384862 -177.818238 
L 559.690582 -176.624243 
L 560.996302 -174.418066 
L 562.302022 -174.785262 
L 563.607742 -175.295012 
L 564.913462 -174.666016 
L 566.219182 -180.129244 
L 567.524902 -185.435441 
L 568.830622 -184.839839 
L 570.136342 -182.859327 
L 571.442062 -183.531539 
L 572.747782 -182.236871 
L 574.053502 -182.688058 
L 575.359222 -179.38354 
L 576.664942 -177.805137 
L 577.970662 -177.256247 
L 579.276383 -178.334494 
L 580.582103 -174.157224 
L 581.887823 -177.729591 
L 583.193543 -176.305746 
L 584.499263 -175.457777 
L 585.804983 -176.913272 
L 587.110703 -171.380989 
L 588.416423 -163.579112 
L 589.722143 -150.801102 
L 591.027863 -144.430687 
L 592.333583 -141.957708 
L 593.639303 -133.529609 
L 594.945023 -132.01587 
L 596.250743 -129.180048 
L 597.556463 -130.816441 
L 598.862183 -124.229725 
L 600.167904 -123.761982 
L 601.473624 -132.810438 
L 602.779344 -127.258195 
L 604.085064 -128.878669 
L 605.390784 -138.899644 
L 606.696504 -145.079036 
L 608.002224 -154.654122 
L 609.307944 -158.780606 
L 610.613664 -164.625053 
L 611.919384 -163.013079 
L 613.225104 -164.362149 
L 614.530824 -161.24645 
L 615.836544 -158.355809 
L 617.142264 -160.082368 
L 618.447984 -158.546805 
L 619.753704 -156.096429 
L 621.059424 -157.860158 
L 622.365145 -158.982378 
L 623.670865 -157.076594 
L 624.976585 -157.929048 
L 626.282305 -153.358779 
L 627.588025 -152.837755 
L 628.893745 -145.515578 
L 630.199465 -139.592657 
L 631.505185 -129.399742 
L 632.810905 -121.211865 
L 634.116625 -113.716583 
L 635.422345 -101.859156 
L 636.728065 -101.312336 
L 638.033785 -94.864418 
L 639.339505 -97.266204 
L 640.645225 -97.184344 
L 641.950945 -97.110567 
L 643.256666 -101.330817 
L 644.562386 -100.421109 
L 645.868106 -108.485611 
L 647.173826 -115.109549 
L 648.479546 -114.409629 
L 649.785266 -120.466221 
L 651.090986 -129.631616 
L 652.396706 -136.88717 
L 653.702426 -139.140354 
L 655.008146 -148.626831 
L 656.313866 -150.051667 
L 657.619586 -155.480208 
L 658.925306 -159.939443 
L 660.231026 -161.577224 
L 661.536746 -165.594332 
L 662.842466 -167.042934 
L 664.148187 -164.894962 
L 665.453907 -153.140455 
L 666.759627 -153.560483 
L 668.065347 -148.059863 
L 669.371067 -141.548078 
L 670.676787 -136.575683 
L 671.982507 -133.1367 
L 673.288227 -123.441451 
L 674.593947 -118.498012 
L 675.899667 -120.561178 
L 677.205387 -117.144726 
L 678.511107 -109.788067 
L 679.816827 -112.673234 
L 681.122547 -120.384892 
L 682.428267 -126.254186 
L 683.733987 -123.609946 
L 685.039708 -132.303088 
L 686.345428 -134.224059 
L 687.651148 -142.375919 
L 688.956868 -149.46453 
L 690.262588 -148.805374 
L 691.568308 -154.700816 
L 692.874028 -153.445286 
L 694.179748 -155.591942 
L 695.485468 -158.781605 
L 696.791188 -152.843084 
L 698.096908 -156.376026 
L 699.402628 -160.193684 
L 700.708348 -154.660643 
L 702.014068 -155.50341 
L 703.319788 -150.420828 
L 704.625508 -149.790387 
L 705.931229 -150.615666 
L 707.236949 -146.293903 
L 708.542669 -151.132909 
L 709.848389 -150.406799 
L 711.154109 -149.348934 
L 712.459829 -151.898895 
L 713.765549 -149.642009 
L 715.071269 -155.431342 
L 716.376989 -151.533928 
L 717.682709 -153.781352 
L 718.988429 -162.054823 
L 720.294149 -159.531767 
L 721.599869 -159.542285 
L 722.905589 -167.20898 
L 724.211309 -160.523611 
L 725.517029 -163.447389 
L 726.82275 -162.586761 
L 728.12847 -164.91579 
L 729.43419 -166.69535 
L 730.73991 -165.041702 
L 732.04563 -167.330472 
L 733.35135 -170.038746 
L 734.65707 -164.487324 
L 735.96279 -162.694112 
L 737.26851 -165.266111 
L 738.57423 -167.329208 
L 739.87995 -168.152971 
L 741.18567 -165.626601 
L 742.49139 -169.351045 
L 743.79711 -168.673252 
L 745.10283 -168.801825 
L 746.40855 -171.75693 
L 747.714271 -170.333013 
L 749.019991 -172.484236 
L 750.325711 -173.607469 
L 751.631431 -175.089759 
L 752.937151 -180.004564 
L 754.242871 -180.313155 
L 755.548591 -182.61767 
L 756.854311 -184.566014 
L 756.854311 -256.816078 
L 756.854311 -256.816078 
L 755.548591 -258.19868 
L 754.242871 -256.007084 
L 752.937151 -256.027528 
L 751.631431 -259.54925 
L 750.325711 -258.724722 
L 749.019991 -259.030793 
L 747.714271 -254.088455 
L 746.40855 -251.925162 
L 745.10283 -251.30672 
L 743.79711 -252.953976 
L 742.49139 -253.839356 
L 741.18567 -255.566776 
L 739.87995 -255.697507 
L 738.57423 -255.978212 
L 737.26851 -260.667681 
L 735.96279 -264.615321 
L 734.65707 -266.526759 
L 733.35135 -272.907846 
L 732.04563 -271.619933 
L 730.73991 -276.842635 
L 729.43419 -275.094803 
L 728.12847 -275.856627 
L 726.82275 -272.873361 
L 725.517029 -274.199516 
L 724.211309 -268.162903 
L 722.905589 -269.194411 
L 721.599869 -266.6844 
L 720.294149 -268.281132 
L 718.988429 -266.208782 
L 717.682709 -263.596735 
L 716.376989 -260.748453 
L 715.071269 -259.859178 
L 713.765549 -253.741479 
L 712.459829 -261.6583 
L 711.154109 -256.0897 
L 709.848389 -254.060338 
L 708.542669 -261.488624 
L 707.236949 -260.547629 
L 705.931229 -264.328373 
L 704.625508 -267.426232 
L 703.319788 -265.476299 
L 702.014068 -270.615889 
L 700.708348 -265.844285 
L 699.402628 -264.537147 
L 698.096908 -262.531026 
L 696.791188 -264.942699 
L 695.485468 -262.00588 
L 694.179748 -261.290646 
L 692.874028 -257.62802 
L 691.568308 -257.509219 
L 690.262588 -257.006501 
L 688.956868 -257.01572 
L 687.651148 -254.783473 
L 686.345428 -251.215561 
L 685.039708 -249.527742 
L 683.733987 -247.338867 
L 682.428267 -251.324548 
L 681.122547 -247.389749 
L 679.816827 -243.086654 
L 678.511107 -241.902582 
L 677.205387 -239.847994 
L 675.899667 -242.42526 
L 674.593947 -241.104796 
L 673.288227 -243.941708 
L 671.982507 -241.144356 
L 670.676787 -248.066749 
L 669.371067 -250.255997 
L 668.065347 -252.076695 
L 666.759627 -260.949152 
L 665.453907 -266.501677 
L 664.148187 -275.964968 
L 662.842466 -283.670268 
L 661.536746 -282.747099 
L 660.231026 -282.523596 
L 658.925306 -286.863443 
L 657.619586 -282.388589 
L 656.313866 -281.212438 
L 655.008146 -272.640143 
L 653.702426 -260.209233 
L 652.396706 -253.167169 
L 651.090986 -246.580795 
L 649.785266 -239.949255 
L 648.479546 -233.701061 
L 647.173826 -224.897756 
L 645.868106 -224.963315 
L 644.562386 -223.508152 
L 643.256666 -214.82284 
L 641.950945 -215.191259 
L 640.645225 -215.452564 
L 639.339505 -216.011816 
L 638.033785 -217.397254 
L 636.728065 -219.340544 
L 635.422345 -218.052035 
L 634.116625 -218.153398 
L 632.810905 -229.512894 
L 631.505185 -231.467541 
L 630.199465 -233.634425 
L 628.893745 -239.400741 
L 627.588025 -246.748688 
L 626.282305 -254.141846 
L 624.976585 -267.940892 
L 623.670865 -277.11438 
L 622.365145 -287.105918 
L 621.059424 -297.34184 
L 619.753704 -307.812729 
L 618.447984 -307.622596 
L 617.142264 -304.692589 
L 615.836544 -298.357955 
L 614.530824 -295.225274 
L 613.225104 -287.117531 
L 611.919384 -281.513998 
L 610.613664 -275.403992 
L 609.307944 -279.46087 
L 608.002224 -278.738661 
L 606.696504 -289.833697 
L 605.390784 -305.118148 
L 604.085064 -317.448822 
L 602.779344 -327.152901 
L 601.473624 -334.714879 
L 600.167904 -342.813141 
L 598.862183 -361.406028 
L 597.556463 -367.067328 
L 596.250743 -380.545827 
L 594.945023 -379.638049 
L 593.639303 -381.009241 
L 592.333583 -408.811475 
L 591.027863 -403.347922 
L 589.722143 -412.056741 
L 588.416423 -419.087745 
L 587.110703 -426.446567 
L 585.804983 -432.964133 
L 584.499263 -445.245148 
L 583.193543 -453.736526 
L 581.887823 -466.61299 
L 580.582103 -477.995416 
L 579.276383 -465.892455 
L 577.970662 -489.63383 
L 576.664942 -484.627864 
L 575.359222 -501.666152 
L 574.053502 -472.781014 
L 572.747782 -497.114743 
L 571.442062 -466.147 
L 570.136342 -481.737722 
L 568.830622 -457.890793 
L 567.524902 -453.555564 
L 566.219182 -449.648011 
L 564.913462 -449.305527 
L 563.607742 -446.104663 
L 562.302022 -453.897481 
L 560.996302 -455.868702 
L 559.690582 -455.072151 
L 558.384862 -457.220174 
L 557.079141 -456.462802 
L 555.773421 -455.030549 
L 554.467701 -458.69015 
L 553.161981 -463.676866 
L 551.856261 -464.476852 
L 550.550541 -467.183601 
L 549.244821 -464.186992 
L 547.939101 -463.26874 
L 546.633381 -473.010526 
L 545.327661 -469.886675 
L 544.021941 -469.295205 
L 542.716221 -467.613105 
L 541.410501 -468.250704 
L 540.104781 -466.90224 
L 538.799061 -473.856936 
L 537.493341 -465.375191 
L 536.18762 -467.062184 
L 534.8819 -464.192144 
L 533.57618 -465.755338 
L 532.27046 -461.694637 
L 530.96474 -462.127504 
L 529.65902 -463.876635 
L 528.3533 -456.084694 
L 527.04758 -464.147198 
L 525.74186 -462.617432 
L 524.43614 -458.67093 
L 523.13042 -462.732633 
L 521.8247 -459.505585 
L 520.51898 -458.034967 
L 519.21326 -454.130506 
L 517.90754 -453.638476 
L 516.60182 -455.54816 
L 515.296099 -458.100818 
L 513.990379 -454.325831 
L 512.684659 -460.947224 
L 511.378939 -461.369613 
L 510.073219 -460.359733 
L 508.767499 -459.294308 
L 507.461779 -458.805823 
L 506.156059 -460.298885 
L 504.850339 -457.924444 
L 503.544619 -459.90265 
L 502.238899 -457.854079 
L 500.933179 -459.54653 
L 499.627459 -460.970853 
L 498.321739 -463.592508 
L 497.016019 -462.239119 
L 495.710299 -453.519366 
L 494.404578 -454.526176 
L 493.098858 -464.817861 
L 491.793138 -458.477484 
L 490.487418 -455.087641 
L 489.181698 -456.092416 
L 487.875978 -458.58839 
L 486.570258 -460.498977 
L 485.264538 -462.369785 
L 483.958818 -454.524789 
L 482.653098 -459.320838 
L 481.347378 -454.876341 
L 480.041658 -455.381247 
L 478.735938 -458.600702 
L 477.430218 -457.278326 
L 476.124498 -467.119515 
L 474.818778 -462.143974 
L 473.513057 -458.883041 
L 472.207337 -460.459458 
L 470.901617 -459.929081 
L 469.595897 -460.137407 
L 468.290177 -468.339431 
L 466.984457 -466.837947 
L 465.678737 -463.851124 
L 464.373017 -465.15402 
L 463.067297 -463.974071 
L 461.761577 -459.620427 
L 460.455857 -467.30982 
L 459.150137 -459.391535 
L 457.844417 -458.757976 
L 456.538697 -460.414236 
L 455.232977 -464.010332 
L 453.927257 -467.205719 
L 452.621536 -467.004423 
L 451.315816 -454.324349 
L 450.010096 -466.189599 
L 448.704376 -463.644827 
L 447.398656 -458.636909 
L 446.092936 -453.693327 
L 444.787216 -456.399955 
L 443.481496 -458.325243 
L 442.175776 -453.286425 
L 440.870056 -461.254181 
L 439.564336 -455.070275 
L 438.258616 -464.50144 
L 436.952896 -464.025107 
L 435.647176 -459.263824 
L 434.341456 -455.494895 
L 433.035736 -454.799241 
L 431.730016 -458.259984 
L 430.424295 -459.744453 
L 429.118575 -460.546034 
L 427.812855 -448.85975 
L 426.507135 -451.55329 
L 425.201415 -465.056779 
L 423.895695 -448.656402 
L 422.589975 -447.468574 
L 421.284255 -445.242154 
L 419.978535 -432.513923 
L 418.672815 -439.928954 
L 417.367095 -431.917547 
L 416.061375 -432.589584 
L 414.755655 -426.935885 
L 413.449935 -419.639004 
L 412.144215 -431.236156 
L 410.838495 -421.462733 
L 409.532774 -425.148913 
L 408.227054 -428.095708 
L 406.921334 -427.879574 
L 405.615614 -425.484664 
L 404.309894 -427.412399 
L 403.004174 -432.9451 
L 401.698454 -426.861525 
L 400.392734 -432.921423 
L 399.087014 -437.623667 
L 397.781294 -428.370719 
L 396.475574 -432.274067 
L 395.169854 -431.409172 
L 393.864134 -425.84762 
L 392.558414 -427.280973 
L 391.252694 -433.992435 
L 389.946974 -425.126278 
L 388.641253 -429.401548 
L 387.335533 -433.809116 
L 386.029813 -503.552782 
L 384.724093 -441.754126 
L 383.418373 -446.158583 
L 382.112653 -447.761247 
L 380.806933 -451.646305 
L 379.501213 -450.688974 
L 378.195493 -455.432608 
L 376.889773 -446.159053 
L 375.584053 -458.999935 
L 374.278333 -463.445684 
L 372.972613 -443.516927 
L 371.666893 -436.048069 
L 370.361173 -437.717214 
L 369.055453 -434.749518 
L 367.749732 -427.531582 
L 366.444012 -424.03574 
L 365.138292 -414.909577 
L 363.832572 -407.504566 
L 362.526852 -406.984308 
L 361.221132 -419.722408 
L 359.915412 -412.784444 
L 358.609692 -421.751883 
L 357.303972 -425.324123 
L 355.998252 -422.29224 
L 354.692532 -429.743431 
L 353.386812 -427.150798 
L 352.081092 -435.887065 
L 350.775372 -429.100358 
L 349.469652 -438.869317 
L 348.163932 -435.723469 
L 346.858211 -442.219991 
L 345.552491 -443.341019 
L 344.246771 -437.426569 
L 342.941051 -444.440166 
L 341.635331 -454.025481 
L 340.329611 -442.833232 
L 339.023891 -456.355048 
L 337.718171 -444.659482 
L 336.412451 -441.530289 
L 335.106731 -433.025899 
L 333.801011 -445.436132 
L 332.495291 -452.891844 
L 331.189571 -453.312277 
L 329.883851 -444.876916 
L 328.578131 -444.372847 
L 327.272411 -446.51543 
L 325.96669 -441.31928 
L 324.66097 -441.203205 
L 323.35525 -448.523865 
L 322.04953 -442.020342 
L 320.74381 -472.354062 
L 319.43809 -449.466296 
L 318.13237 -443.18581 
L 316.82665 -434.755128 
L 315.52093 -441.906195 
L 314.21521 -456.6471 
L 312.90949 -436.180982 
L 311.60377 -432.505432 
L 310.29805 -440.425904 
L 308.99233 -437.953808 
L 307.68661 -445.217113 
L 306.38089 -444.262724 
L 305.075169 -436.304911 
L 303.769449 -445.132939 
L 302.463729 -448.913044 
L 301.158009 -450.14533 
L 299.852289 -444.280606 
L 298.546569 -442.376722 
L 297.240849 -438.254591 
L 295.935129 -446.595996 
L 294.629409 -437.868873 
L 293.323689 -439.629577 
L 292.017969 -454.667752 
L 290.712249 -443.606615 
L 289.406529 -442.968904 
L 288.100809 -447.093675 
L 286.795089 -445.995585 
L 285.489369 -448.224836 
L 284.183648 -443.871625 
L 282.877928 -449.505824 
L 281.572208 -450.103051 
L 280.266488 -448.451059 
L 278.960768 -460.893547 
L 277.655048 -451.4963 
L 276.349328 -460.092581 
L 275.043608 -449.79777 
L 273.737888 -451.137716 
L 272.432168 -450.770275 
L 271.126448 -447.618445 
L 269.820728 -446.716201 
L 268.515008 -440.916486 
L 267.209288 -440.659942 
L 265.903568 -442.037594 
L 264.597848 -434.717775 
L 263.292128 -438.228736 
L 261.986407 -440.186426 
L 260.680687 -441.872227 
L 259.374967 -420.5661 
L 258.069247 -430.520315 
L 256.763527 -426.376923 
L 255.457807 -433.088907 
L 254.152087 -432.443222 
L 252.846367 -411.964285 
L 251.540647 -413.889587 
L 250.234927 -419.181265 
L 248.929207 -419.997387 
L 247.623487 -428.107645 
L 246.317767 -427.25104 
L 245.012047 -415.282143 
L 243.706327 -416.80819 
L 242.400607 -430.199894 
L 241.094886 -425.498573 
L 239.789166 -426.493547 
L 238.483446 -413.84562 
L 237.177726 -420.895005 
L 235.872006 -419.603008 
L 234.566286 -414.599641 
L 233.260566 -412.854722 
L 231.954846 -412.690044 
L 230.649126 -404.66271 
L 229.343406 -408.595055 
L 228.037686 -416.984479 
L 226.731966 -411.524474 
L 225.426246 -407.372737 
L 224.120526 -394.864606 
L 222.814806 -414.364279 
L 221.509086 -415.135756 
L 220.203365 -397.004743 
L 218.897645 -394.369818 
L 217.591925 -398.634328 
L 216.286205 -397.136293 
L 214.980485 -399.5311 
L 213.674765 -392.18634 
L 212.369045 -393.7204 
L 211.063325 -388.056237 
L 209.757605 -392.307735 
L 208.451885 -394.882801 
L 207.146165 -389.963045 
L 205.840445 -392.609848 
L 204.534725 -378.413724 
L 203.229005 -376.563016 
L 201.923285 -376.964064 
L 200.617565 -387.536846 
L 199.311844 -375.085251 
L 198.006124 -376.2321 
L 196.700404 -374.45083 
L 195.394684 -387.897162 
L 194.088964 -377.31468 
L 192.783244 -376.43182 
L 191.477524 -379.198143 
L 190.171804 -384.545198 
L 188.866084 -376.242685 
L 187.560364 -377.174929 
L 186.254644 -371.745688 
L 184.948924 -374.799182 
L 183.643204 -366.456884 
L 182.337484 -361.823125 
L 181.031764 -368.771037 
L 179.726044 -368.452981 
L 178.420323 -372.336761 
L 177.114603 -349.248531 
L 175.808883 -358.602313 
L 174.503163 -350.846864 
L 173.197443 -348.643916 
L 171.891723 -343.675753 
L 170.586003 -352.678442 
L 169.280283 -344.655471 
L 167.974563 -340.728373 
L 166.668843 -342.938773 
L 165.363123 -349.696732 
L 164.057403 -346.614243 
L 162.751683 -350.180853 
L 161.445963 -351.573348 
L 160.140243 -345.236042 
L 158.834523 -346.49692 
L 157.528802 -343.648216 
L 156.223082 -351.806345 
L 154.917362 -355.120415 
L 153.611642 -332.448856 
L 152.305922 -332.864301 
L 151.000202 -331.82456 
L 149.694482 -331.278377 
L 148.388762 -334.49042 
L 147.083042 -328.751384 
L 145.777322 -334.382489 
L 144.471602 -329.126592 
L 143.165882 -331.195678 
L 141.860162 -321.586174 
L 140.554442 -318.525959 
L 139.248722 -324.658606 
L 137.943002 -323.740982 
L 136.637281 -319.454226 
L 135.331561 -319.243812 
L 134.025841 -326.422757 
L 132.720121 -320.658548 
L 131.414401 -319.834747 
L 130.108681 -310.990328 
L 128.802961 -325.157548 
L 127.497241 -320.530586 
L 126.191521 -307.314322 
L 124.885801 -311.156474 
L 123.580081 -315.268513 
L 122.274361 -310.773945 
L 120.968641 -314.810685 
L 119.662921 -314.933147 
L 118.357201 -309.786413 
L 117.051481 -299.915796 
L 115.74576 -302.443856 
L 114.44004 -295.791856 
L 113.13432 -295.379274 
L 111.8286 -288.244571 
L 110.52288 -290.427009 
L 109.21716 -284.167074 
L 107.91144 -273.513405 
L 106.60572 -270.043004 
L 105.3 -269.06919 
z
" id="m3523a66e6a" style="stroke:#0000ff;stroke-opacity:0.2;stroke-width:1.5;"/>
    </defs>
    <g clip-path="url(#pb1e6424e0f)">
     <use style="fill:#0000ff;fill-opacity:0.2;stroke:#0000ff;stroke-opacity:0.2;stroke-width:1.5;" x="0" xlink:href="#m3523a66e6a" y="595.44"/>
    </g>
   </g>
   <g id="line2d_15">
    <path clip-path="url(#pb1e6424e0f)" d="M 105.3 405.842007 
L 107.91144 401.615695 
L 111.8286 394.648344 
L 113.13432 392.503209 
L 114.44004 390.648352 
L 115.74576 389.20892 
L 117.051481 388.146134 
L 118.357201 387.401034 
L 120.968641 386.489123 
L 123.580081 386.328756 
L 124.885801 386.28837 
L 126.191521 386.506837 
L 132.720121 385.874237 
L 134.025841 385.480486 
L 135.331561 384.561899 
L 139.248722 379.988445 
L 140.554442 378.811687 
L 141.860162 378.073863 
L 143.165882 377.605047 
L 144.471602 377.383864 
L 147.083042 376.337325 
L 149.694482 375.267793 
L 153.611642 374.214662 
L 156.223082 373.712469 
L 158.834523 372.972244 
L 162.751683 372.285166 
L 169.280283 370.565166 
L 170.586003 369.967459 
L 171.891723 369.099779 
L 173.197443 367.786366 
L 175.808883 364.476567 
L 182.337484 355.546659 
L 183.643204 354.058484 
L 184.948924 352.882515 
L 186.254644 352.148754 
L 187.560364 351.902529 
L 188.866084 352.06346 
L 190.171804 352.583348 
L 191.477524 353.53597 
L 195.394684 357.141223 
L 196.700404 358.255366 
L 198.006124 359.135649 
L 199.311844 359.662314 
L 200.617565 359.858143 
L 201.923285 359.791927 
L 203.229005 359.278797 
L 204.534725 358.202642 
L 209.757605 352.275331 
L 211.063325 351.287665 
L 212.369045 350.615708 
L 214.980485 349.540702 
L 216.286205 349.25213 
L 218.897645 349.19827 
L 221.509086 349.24524 
L 222.814806 349.404673 
L 224.120526 349.341309 
L 225.426246 348.674839 
L 226.731966 347.576678 
L 231.954846 341.905926 
L 233.260566 340.779999 
L 234.566286 339.803654 
L 237.177726 338.231871 
L 238.483446 337.621623 
L 242.400607 336.371986 
L 245.012047 336.438918 
L 247.623487 336.76599 
L 248.929207 337.265687 
L 251.540647 338.64025 
L 252.846367 338.589532 
L 254.152087 337.915743 
L 258.069247 334.856271 
L 259.374967 332.841443 
L 260.680687 331.092835 
L 263.292128 329.07297 
L 267.209288 326.840291 
L 268.515008 326.075024 
L 269.820728 325.137181 
L 272.432168 324.013525 
L 273.737888 323.915421 
L 275.043608 324.333952 
L 276.349328 325.216679 
L 277.655048 326.332603 
L 278.960768 327.651889 
L 281.572208 330.976678 
L 284.183648 334.255915 
L 286.795089 337.061285 
L 288.100809 338.28143 
L 289.406529 339.315262 
L 290.712249 340.190088 
L 293.323689 341.5404 
L 294.629409 341.825595 
L 295.935129 341.974357 
L 297.240849 341.981576 
L 299.852289 341.410749 
L 301.158009 341.074568 
L 305.075169 340.690871 
L 307.68661 340.877235 
L 308.99233 340.979066 
L 311.60377 341.525036 
L 312.90949 341.752142 
L 314.21521 342.137236 
L 315.52093 342.668707 
L 316.82665 343.39116 
L 318.13237 344.274011 
L 319.43809 344.996361 
L 320.74381 345.45634 
L 323.35525 345.899957 
L 324.66097 345.915028 
L 325.96669 345.757341 
L 327.272411 345.286702 
L 329.883851 344.180515 
L 331.189571 343.651214 
L 332.495291 343.283792 
L 333.801011 343.049388 
L 336.412451 342.963891 
L 337.718171 342.917664 
L 340.329611 343.510473 
L 342.941051 344.247215 
L 344.246771 344.54413 
L 348.163932 346.458813 
L 352.081092 349.829363 
L 354.692532 353.147348 
L 355.998252 355.21628 
L 357.303972 357.008113 
L 359.915412 361.109045 
L 361.221132 362.079463 
L 362.526852 361.712173 
L 363.832572 360.235485 
L 365.138292 358.077311 
L 369.055453 349.856077 
L 371.666893 343.514637 
L 374.278333 337.72103 
L 375.584053 335.796382 
L 376.889773 334.953608 
L 378.195493 334.548544 
L 379.501213 334.456417 
L 380.806933 334.760222 
L 383.418373 336.240931 
L 384.724093 337.252077 
L 386.029813 338.913887 
L 387.335533 341.209166 
L 388.641253 342.884322 
L 389.946974 343.565951 
L 391.252694 344.045701 
L 392.558414 344.319554 
L 393.864134 344.359984 
L 395.169854 344.18088 
L 397.781294 343.477846 
L 400.392734 342.377443 
L 401.698454 342.337298 
L 403.004174 343.090926 
L 405.615614 345.562628 
L 408.227054 347.317221 
L 409.532774 347.768965 
L 410.838495 347.525938 
L 413.449935 346.112914 
L 414.755655 344.882336 
L 416.061375 343.283681 
L 417.367095 341.475721 
L 418.672815 339.207454 
L 423.895695 328.933725 
L 429.118575 320.321473 
L 430.424295 318.586561 
L 431.730016 317.253514 
L 433.035736 316.366787 
L 434.341456 315.804149 
L 435.647176 315.480484 
L 438.258616 315.213516 
L 440.870056 315.322389 
L 442.175776 315.011224 
L 443.481496 314.333975 
L 448.704376 310.864943 
L 450.010096 310.49896 
L 451.315816 310.564799 
L 456.538697 311.987596 
L 459.150137 312.163444 
L 460.455857 312.088952 
L 461.761577 311.774472 
L 463.067297 311.3285 
L 465.678737 310.211596 
L 469.595897 308.909916 
L 473.513057 307.903827 
L 474.818778 307.964042 
L 477.430218 309.003335 
L 480.041658 310.020348 
L 481.347378 310.28367 
L 482.653098 310.349915 
L 483.958818 310.554102 
L 485.264538 311.009803 
L 487.875978 312.361022 
L 489.181698 312.765071 
L 490.487418 312.390711 
L 493.098858 310.735917 
L 494.404578 310.271802 
L 495.710299 310.336299 
L 497.016019 310.908035 
L 498.321739 311.358132 
L 499.627459 311.51538 
L 500.933179 311.403651 
L 504.850339 312.630577 
L 506.156059 312.857392 
L 507.461779 312.51264 
L 510.073219 312.333298 
L 511.378939 312.112255 
L 513.990379 312.151597 
L 515.296099 312.299289 
L 517.90754 312.055963 
L 521.8247 312.354876 
L 523.13042 312.307215 
L 527.04758 310.761459 
L 528.3533 310.603806 
L 530.96474 309.794708 
L 532.27046 308.959889 
L 533.57618 307.464782 
L 534.8819 306.471552 
L 536.18762 305.198545 
L 537.493341 304.265491 
L 538.799061 303.536478 
L 540.104781 303.108804 
L 542.716221 303.486114 
L 544.021941 303.985253 
L 545.327661 304.643225 
L 546.633381 305.559341 
L 549.244821 307.823327 
L 553.161981 312.457333 
L 554.467701 313.753333 
L 557.079141 315.811105 
L 559.690582 317.871798 
L 563.607742 321.942888 
L 564.913462 322.246271 
L 566.219182 318.717992 
L 568.830622 302.720665 
L 570.136342 296.536112 
L 571.442062 293.807987 
L 572.747782 292.336802 
L 574.053502 291.704438 
L 575.359222 291.984027 
L 576.664942 293.232431 
L 577.970662 294.975435 
L 580.582103 299.449208 
L 581.887823 302.484289 
L 583.193543 307.175879 
L 584.499263 313.252845 
L 585.804983 320.47356 
L 588.416423 336.860252 
L 589.722143 343.604082 
L 591.027863 348.98856 
L 594.945023 360.382066 
L 597.556463 367.869442 
L 600.167904 376.250739 
L 601.473624 380.00365 
L 602.779344 382.856281 
L 604.085064 384.882741 
L 605.390784 386.01514 
L 606.696504 386.53637 
L 608.002224 385.301284 
L 609.307944 382.484937 
L 610.613664 379.31395 
L 611.919384 375.287061 
L 613.225104 372.499536 
L 614.530824 370.654551 
L 615.836544 369.456493 
L 617.142264 369.711926 
L 618.447984 369.620072 
L 619.753704 370.088409 
L 621.059424 371.677074 
L 622.365145 374.633611 
L 624.976585 384.716651 
L 628.893745 401.101053 
L 632.810905 421.721295 
L 634.116625 427.459428 
L 635.422345 432.032026 
L 636.728065 435.230381 
L 638.033785 436.719792 
L 639.339505 437.58623 
L 640.645225 437.905683 
L 641.950945 437.350317 
L 643.256666 435.617815 
L 644.562386 432.45699 
L 645.868106 428.619566 
L 647.173826 423.825629 
L 648.479546 418.123651 
L 652.396706 397.605875 
L 653.702426 390.474803 
L 655.008146 384.047067 
L 656.313866 378.378631 
L 657.619586 374.275427 
L 658.925306 371.968779 
L 660.231026 370.717648 
L 661.536746 371.039174 
L 662.842466 373.441728 
L 664.148187 377.893516 
L 669.371067 399.833275 
L 670.676787 403.743513 
L 673.288227 410.2945 
L 674.593947 412.855068 
L 675.899667 414.27574 
L 677.205387 414.566488 
L 678.511107 413.860821 
L 679.816827 412.526273 
L 681.122547 410.418262 
L 682.428267 407.973304 
L 683.733987 405.032613 
L 687.651148 395.069913 
L 688.956868 392.209043 
L 691.568308 387.454283 
L 692.874028 385.120983 
L 694.179748 383.251289 
L 695.485468 381.786627 
L 696.791188 381.187356 
L 698.096908 381.336685 
L 699.402628 381.366234 
L 700.708348 381.554173 
L 702.014068 382.124212 
L 703.319788 383.060339 
L 707.236949 388.673005 
L 708.542669 389.978526 
L 709.848389 390.757146 
L 711.154109 391.254598 
L 712.459829 391.276933 
L 713.765549 390.962959 
L 715.071269 389.533345 
L 716.376989 387.741562 
L 717.682709 385.384376 
L 718.988429 382.654479 
L 720.294149 380.973826 
L 721.599869 380.082308 
L 722.905589 379.325564 
L 724.211309 378.230861 
L 726.82275 373.883366 
L 728.12847 372.361148 
L 729.43419 371.103253 
L 730.73991 371.072696 
L 732.04563 371.931887 
L 733.35135 374.012825 
L 735.96279 378.722533 
L 737.26851 380.476664 
L 739.87995 381.603278 
L 741.18567 381.964114 
L 743.79711 382.320138 
L 745.10283 382.071216 
L 746.40855 381.625279 
L 747.714271 380.736338 
L 749.019991 379.198878 
L 751.631431 375.905838 
L 752.937151 374.862243 
L 754.242871 374.376833 
L 755.548591 374.573967 
L 756.854311 375.011064 
L 756.854311 375.011064 
" style="fill:none;stroke:#0000ff;stroke-linecap:round;stroke-width:2.25;"/>
   </g>
   <g id="patch_3">
    <path d="M 105.3 521.01 
L 105.3 71.4528 
" style="fill:none;stroke:#ffffff;stroke-linecap:square;stroke-linejoin:miter;stroke-width:1.875;"/>
   </g>
   <g id="patch_4">
    <path d="M 758.16 521.01 
L 758.16 71.4528 
" style="fill:none;stroke:#ffffff;stroke-linecap:square;stroke-linejoin:miter;stroke-width:1.875;"/>
   </g>
   <g id="patch_5">
    <path d="M 105.3 521.01 
L 758.16 521.01 
" style="fill:none;stroke:#ffffff;stroke-linecap:square;stroke-linejoin:miter;stroke-width:1.875;"/>
   </g>
   <g id="patch_6">
    <path d="M 105.3 71.4528 
L 758.16 71.4528 
" style="fill:none;stroke:#ffffff;stroke-linecap:square;stroke-linejoin:miter;stroke-width:1.875;"/>
   </g>
  </g>
 </g>
 <defs>
  <clipPath id="pb1e6424e0f">
   <rect height="449.5572" width="652.86" x="105.3" y="71.4528"/>
  </clipPath>
 </defs>
</svg>
