<?xml version="1.0" encoding="utf-8" standalone="no"?>
<!DOCTYPE svg PUBLIC "-//W3C//DTD SVG 1.1//EN"
  "http://www.w3.org/Graphics/SVG/1.1/DTD/svg11.dtd">
<!-- Created with matplotlib (https://matplotlib.org/) -->
<svg height="595.44pt" version="1.1" viewBox="0 0 842.4 595.44" width="842.4pt" xmlns="http://www.w3.org/2000/svg" xmlns:xlink="http://www.w3.org/1999/xlink">
 <defs>
  <style type="text/css">
*{stroke-linecap:butt;stroke-linejoin:round;}
  </style>
 </defs>
 <g id="figure_1">
  <g id="patch_1">
   <path d="M 0 595.44 
L 842.4 595.44 
L 842.4 0 
L 0 0 
z
" style="fill:#ffffff;"/>
  </g>
  <g id="axes_1">
   <g id="patch_2">
    <path d="M 105.3 521.01 
L 758.16 521.01 
L 758.16 71.4528 
L 105.3 71.4528 
z
" style="fill:#eaeaf2;"/>
   </g>
   <g id="matplotlib.axis_1">
    <g id="xtick_1">
     <g id="line2d_1">
      <path clip-path="url(#pae2f49cf29)" d="M 105.3 521.01 
L 105.3 71.4528 
" style="fill:none;stroke:#ffffff;stroke-linecap:round;stroke-width:1.5;"/>
     </g>
     <g id="text_1">
      <!-- 0 -->
      <defs>
       <path d="M 4.15625 35.296875 
Q 4.15625 48 6.765625 55.734375 
Q 9.375 63.484375 14.515625 67.671875 
Q 19.671875 71.875 27.484375 71.875 
Q 33.25 71.875 37.59375 69.546875 
Q 41.9375 67.234375 44.765625 62.859375 
Q 47.609375 58.5 49.21875 52.21875 
Q 50.828125 45.953125 50.828125 35.296875 
Q 50.828125 22.703125 48.234375 14.96875 
Q 45.65625 7.234375 40.5 3 
Q 35.359375 -1.21875 27.484375 -1.21875 
Q 17.140625 -1.21875 11.234375 6.203125 
Q 4.15625 15.140625 4.15625 35.296875 
z
M 13.1875 35.296875 
Q 13.1875 17.671875 17.3125 11.828125 
Q 21.4375 6 27.484375 6 
Q 33.546875 6 37.671875 11.859375 
Q 41.796875 17.71875 41.796875 35.296875 
Q 41.796875 52.984375 37.671875 58.78125 
Q 33.546875 64.59375 27.390625 64.59375 
Q 21.34375 64.59375 17.71875 59.46875 
Q 13.1875 52.9375 13.1875 35.296875 
z
" id="ArialMT-48"/>
      </defs>
      <g style="fill:#262626;" transform="translate(98.41834 551.225586)scale(0.2475 -0.2475)">
       <use xlink:href="#ArialMT-48"/>
      </g>
     </g>
    </g>
    <g id="xtick_2">
     <g id="line2d_2">
      <path clip-path="url(#pae2f49cf29)" d="M 235.872 521.01 
L 235.872 71.4528 
" style="fill:none;stroke:#ffffff;stroke-linecap:round;stroke-width:1.5;"/>
     </g>
     <g id="text_2">
      <!-- 1 -->
      <defs>
       <path d="M 37.25 0 
L 28.46875 0 
L 28.46875 56 
Q 25.296875 52.984375 20.140625 49.953125 
Q 14.984375 46.921875 10.890625 45.40625 
L 10.890625 53.90625 
Q 18.265625 57.375 23.78125 62.296875 
Q 29.296875 67.234375 31.59375 71.875 
L 37.25 71.875 
z
" id="ArialMT-49"/>
      </defs>
      <g style="fill:#262626;" transform="translate(228.99034 551.225586)scale(0.2475 -0.2475)">
       <use xlink:href="#ArialMT-49"/>
      </g>
     </g>
    </g>
    <g id="xtick_3">
     <g id="line2d_3">
      <path clip-path="url(#pae2f49cf29)" d="M 366.444 521.01 
L 366.444 71.4528 
" style="fill:none;stroke:#ffffff;stroke-linecap:round;stroke-width:1.5;"/>
     </g>
     <g id="text_3">
      <!-- 2 -->
      <defs>
       <path d="M 50.34375 8.453125 
L 50.34375 0 
L 3.03125 0 
Q 2.9375 3.171875 4.046875 6.109375 
Q 5.859375 10.9375 9.828125 15.625 
Q 13.8125 20.3125 21.34375 26.46875 
Q 33.015625 36.03125 37.109375 41.625 
Q 41.21875 47.21875 41.21875 52.203125 
Q 41.21875 57.421875 37.46875 61 
Q 33.734375 64.59375 27.734375 64.59375 
Q 21.390625 64.59375 17.578125 60.78125 
Q 13.765625 56.984375 13.71875 50.25 
L 4.6875 51.171875 
Q 5.609375 61.28125 11.65625 66.578125 
Q 17.71875 71.875 27.9375 71.875 
Q 38.234375 71.875 44.234375 66.15625 
Q 50.25 60.453125 50.25 52 
Q 50.25 47.703125 48.484375 43.546875 
Q 46.734375 39.40625 42.65625 34.8125 
Q 38.578125 30.21875 29.109375 22.21875 
Q 21.1875 15.578125 18.9375 13.203125 
Q 16.703125 10.84375 15.234375 8.453125 
z
" id="ArialMT-50"/>
      </defs>
      <g style="fill:#262626;" transform="translate(359.56234 551.225586)scale(0.2475 -0.2475)">
       <use xlink:href="#ArialMT-50"/>
      </g>
     </g>
    </g>
    <g id="xtick_4">
     <g id="line2d_4">
      <path clip-path="url(#pae2f49cf29)" d="M 497.016 521.01 
L 497.016 71.4528 
" style="fill:none;stroke:#ffffff;stroke-linecap:round;stroke-width:1.5;"/>
     </g>
     <g id="text_4">
      <!-- 3 -->
      <defs>
       <path d="M 4.203125 18.890625 
L 12.984375 20.0625 
Q 14.5 12.59375 18.140625 9.296875 
Q 21.78125 6 27 6 
Q 33.203125 6 37.46875 10.296875 
Q 41.75 14.59375 41.75 20.953125 
Q 41.75 27 37.796875 30.921875 
Q 33.84375 34.859375 27.734375 34.859375 
Q 25.25 34.859375 21.53125 33.890625 
L 22.515625 41.609375 
Q 23.390625 41.5 23.921875 41.5 
Q 29.546875 41.5 34.03125 44.421875 
Q 38.53125 47.359375 38.53125 53.46875 
Q 38.53125 58.296875 35.25 61.46875 
Q 31.984375 64.65625 26.8125 64.65625 
Q 21.6875 64.65625 18.265625 61.421875 
Q 14.84375 58.203125 13.875 51.765625 
L 5.078125 53.328125 
Q 6.6875 62.15625 12.390625 67.015625 
Q 18.109375 71.875 26.609375 71.875 
Q 32.46875 71.875 37.390625 69.359375 
Q 42.328125 66.84375 44.9375 62.5 
Q 47.5625 58.15625 47.5625 53.265625 
Q 47.5625 48.640625 45.0625 44.828125 
Q 42.578125 41.015625 37.703125 38.765625 
Q 44.046875 37.3125 47.5625 32.6875 
Q 51.078125 28.078125 51.078125 21.140625 
Q 51.078125 11.765625 44.234375 5.25 
Q 37.40625 -1.265625 26.953125 -1.265625 
Q 17.53125 -1.265625 11.296875 4.34375 
Q 5.078125 9.96875 4.203125 18.890625 
z
" id="ArialMT-51"/>
      </defs>
      <g style="fill:#262626;" transform="translate(490.13434 551.225586)scale(0.2475 -0.2475)">
       <use xlink:href="#ArialMT-51"/>
      </g>
     </g>
    </g>
    <g id="xtick_5">
     <g id="line2d_5">
      <path clip-path="url(#pae2f49cf29)" d="M 627.588 521.01 
L 627.588 71.4528 
" style="fill:none;stroke:#ffffff;stroke-linecap:round;stroke-width:1.5;"/>
     </g>
     <g id="text_5">
      <!-- 4 -->
      <defs>
       <path d="M 32.328125 0 
L 32.328125 17.140625 
L 1.265625 17.140625 
L 1.265625 25.203125 
L 33.9375 71.578125 
L 41.109375 71.578125 
L 41.109375 25.203125 
L 50.78125 25.203125 
L 50.78125 17.140625 
L 41.109375 17.140625 
L 41.109375 0 
z
M 32.328125 25.203125 
L 32.328125 57.46875 
L 9.90625 25.203125 
z
" id="ArialMT-52"/>
      </defs>
      <g style="fill:#262626;" transform="translate(620.70634 551.225586)scale(0.2475 -0.2475)">
       <use xlink:href="#ArialMT-52"/>
      </g>
     </g>
    </g>
    <g id="xtick_6">
     <g id="line2d_6">
      <path clip-path="url(#pae2f49cf29)" d="M 758.16 521.01 
L 758.16 71.4528 
" style="fill:none;stroke:#ffffff;stroke-linecap:round;stroke-width:1.5;"/>
     </g>
     <g id="text_6">
      <!-- 5 -->
      <defs>
       <path d="M 4.15625 18.75 
L 13.375 19.53125 
Q 14.40625 12.796875 18.140625 9.390625 
Q 21.875 6 27.15625 6 
Q 33.5 6 37.890625 10.78125 
Q 42.28125 15.578125 42.28125 23.484375 
Q 42.28125 31 38.0625 35.34375 
Q 33.84375 39.703125 27 39.703125 
Q 22.75 39.703125 19.328125 37.765625 
Q 15.921875 35.84375 13.96875 32.765625 
L 5.71875 33.84375 
L 12.640625 70.609375 
L 48.25 70.609375 
L 48.25 62.203125 
L 19.671875 62.203125 
L 15.828125 42.96875 
Q 22.265625 47.46875 29.34375 47.46875 
Q 38.71875 47.46875 45.15625 40.96875 
Q 51.609375 34.46875 51.609375 24.265625 
Q 51.609375 14.546875 45.953125 7.46875 
Q 39.0625 -1.21875 27.15625 -1.21875 
Q 17.390625 -1.21875 11.203125 4.25 
Q 5.03125 9.71875 4.15625 18.75 
z
" id="ArialMT-53"/>
      </defs>
      <g style="fill:#262626;" transform="translate(751.27834 551.225586)scale(0.2475 -0.2475)">
       <use xlink:href="#ArialMT-53"/>
      </g>
     </g>
    </g>
    <g id="text_7">
     <!-- t [s] -->
     <defs>
      <path d="M 25.78125 7.859375 
L 27.046875 0.09375 
Q 23.34375 -0.6875 20.40625 -0.6875 
Q 15.625 -0.6875 12.984375 0.828125 
Q 10.359375 2.34375 9.28125 4.8125 
Q 8.203125 7.28125 8.203125 15.1875 
L 8.203125 45.015625 
L 1.765625 45.015625 
L 1.765625 51.859375 
L 8.203125 51.859375 
L 8.203125 64.703125 
L 16.9375 69.96875 
L 16.9375 51.859375 
L 25.78125 51.859375 
L 25.78125 45.015625 
L 16.9375 45.015625 
L 16.9375 14.703125 
Q 16.9375 10.9375 17.40625 9.859375 
Q 17.875 8.796875 18.921875 8.15625 
Q 19.96875 7.515625 21.921875 7.515625 
Q 23.390625 7.515625 25.78125 7.859375 
z
" id="ArialMT-116"/>
      <path id="ArialMT-32"/>
      <path d="M 6.78125 -19.875 
L 6.78125 71.578125 
L 26.171875 71.578125 
L 26.171875 64.3125 
L 15.578125 64.3125 
L 15.578125 -12.59375 
L 26.171875 -12.59375 
L 26.171875 -19.875 
z
" id="ArialMT-91"/>
      <path d="M 3.078125 15.484375 
L 11.765625 16.84375 
Q 12.5 11.625 15.84375 8.84375 
Q 19.1875 6.0625 25.203125 6.0625 
Q 31.25 6.0625 34.171875 8.515625 
Q 37.109375 10.984375 37.109375 14.3125 
Q 37.109375 17.28125 34.515625 19 
Q 32.71875 20.171875 25.53125 21.96875 
Q 15.875 24.421875 12.140625 26.203125 
Q 8.40625 27.984375 6.46875 31.125 
Q 4.546875 34.28125 4.546875 38.09375 
Q 4.546875 41.546875 6.125 44.5 
Q 7.71875 47.46875 10.453125 49.421875 
Q 12.5 50.921875 16.03125 51.96875 
Q 19.578125 53.03125 23.640625 53.03125 
Q 29.734375 53.03125 34.34375 51.265625 
Q 38.96875 49.515625 41.15625 46.5 
Q 43.359375 43.5 44.1875 38.484375 
L 35.59375 37.3125 
Q 35.015625 41.3125 32.203125 43.546875 
Q 29.390625 45.796875 24.265625 45.796875 
Q 18.21875 45.796875 15.625 43.796875 
Q 13.03125 41.796875 13.03125 39.109375 
Q 13.03125 37.40625 14.109375 36.03125 
Q 15.1875 34.625 17.484375 33.6875 
Q 18.796875 33.203125 25.25 31.453125 
Q 34.578125 28.953125 38.25 27.359375 
Q 41.9375 25.78125 44.03125 22.75 
Q 46.140625 19.734375 46.140625 15.234375 
Q 46.140625 10.84375 43.578125 6.953125 
Q 41.015625 3.078125 36.171875 0.953125 
Q 31.34375 -1.171875 25.25 -1.171875 
Q 15.140625 -1.171875 9.84375 3.03125 
Q 4.546875 7.234375 3.078125 15.484375 
z
" id="ArialMT-115"/>
      <path d="M 21.296875 -19.875 
L 1.90625 -19.875 
L 1.90625 -12.59375 
L 12.5 -12.59375 
L 12.5 64.3125 
L 1.90625 64.3125 
L 1.90625 71.578125 
L 21.296875 71.578125 
z
" id="ArialMT-93"/>
     </defs>
     <g style="fill:#262626;" transform="translate(409.978125 579.470742)scale(0.27 -0.27)">
      <use xlink:href="#ArialMT-116"/>
      <use x="27.783203" xlink:href="#ArialMT-32"/>
      <use x="55.566406" xlink:href="#ArialMT-91"/>
      <use x="83.349609" xlink:href="#ArialMT-115"/>
      <use x="133.349609" xlink:href="#ArialMT-93"/>
     </g>
    </g>
   </g>
   <g id="matplotlib.axis_2">
    <g id="ytick_1">
     <g id="line2d_7">
      <path clip-path="url(#pae2f49cf29)" d="M 105.3 445.186572 
L 758.16 445.186572 
" style="fill:none;stroke:#ffffff;stroke-linecap:round;stroke-width:1.5;"/>
     </g>
     <g id="text_8">
      <!-- −1.0 -->
      <defs>
       <path d="M 52.828125 31.203125 
L 5.5625 31.203125 
L 5.5625 39.40625 
L 52.828125 39.40625 
z
" id="ArialMT-8722"/>
       <path d="M 9.078125 0 
L 9.078125 10.015625 
L 19.09375 10.015625 
L 19.09375 0 
z
" id="ArialMT-46"/>
      </defs>
      <g style="fill:#262626;" transform="translate(43.941953 454.044365)scale(0.2475 -0.2475)">
       <use xlink:href="#ArialMT-8722"/>
       <use x="58.398438" xlink:href="#ArialMT-49"/>
       <use x="114.013672" xlink:href="#ArialMT-46"/>
       <use x="141.796875" xlink:href="#ArialMT-48"/>
      </g>
     </g>
    </g>
    <g id="ytick_2">
     <g id="line2d_8">
      <path clip-path="url(#pae2f49cf29)" d="M 105.3 356.603309 
L 758.16 356.603309 
" style="fill:none;stroke:#ffffff;stroke-linecap:round;stroke-width:1.5;"/>
     </g>
     <g id="text_9">
      <!-- −0.5 -->
      <g style="fill:#262626;" transform="translate(43.941953 365.461102)scale(0.2475 -0.2475)">
       <use xlink:href="#ArialMT-8722"/>
       <use x="58.398438" xlink:href="#ArialMT-48"/>
       <use x="114.013672" xlink:href="#ArialMT-46"/>
       <use x="141.796875" xlink:href="#ArialMT-53"/>
      </g>
     </g>
    </g>
    <g id="ytick_3">
     <g id="line2d_9">
      <path clip-path="url(#pae2f49cf29)" d="M 105.3 268.020046 
L 758.16 268.020046 
" style="fill:none;stroke:#ffffff;stroke-linecap:round;stroke-width:1.5;"/>
     </g>
     <g id="text_10">
      <!-- 0.0 -->
      <g style="fill:#262626;" transform="translate(58.3975 276.877839)scale(0.2475 -0.2475)">
       <use xlink:href="#ArialMT-48"/>
       <use x="55.615234" xlink:href="#ArialMT-46"/>
       <use x="83.398438" xlink:href="#ArialMT-48"/>
      </g>
     </g>
    </g>
    <g id="ytick_4">
     <g id="line2d_10">
      <path clip-path="url(#pae2f49cf29)" d="M 105.3 179.436784 
L 758.16 179.436784 
" style="fill:none;stroke:#ffffff;stroke-linecap:round;stroke-width:1.5;"/>
     </g>
     <g id="text_11">
      <!-- 0.5 -->
      <g style="fill:#262626;" transform="translate(58.3975 188.294577)scale(0.2475 -0.2475)">
       <use xlink:href="#ArialMT-48"/>
       <use x="55.615234" xlink:href="#ArialMT-46"/>
       <use x="83.398438" xlink:href="#ArialMT-53"/>
      </g>
     </g>
    </g>
    <g id="ytick_5">
     <g id="line2d_11">
      <path clip-path="url(#pae2f49cf29)" d="M 105.3 90.853521 
L 758.16 90.853521 
" style="fill:none;stroke:#ffffff;stroke-linecap:round;stroke-width:1.5;"/>
     </g>
     <g id="text_12">
      <!-- 1.0 -->
      <g style="fill:#262626;" transform="translate(58.3975 99.711314)scale(0.2475 -0.2475)">
       <use xlink:href="#ArialMT-49"/>
       <use x="55.615234" xlink:href="#ArialMT-46"/>
       <use x="83.398438" xlink:href="#ArialMT-48"/>
      </g>
     </g>
    </g>
    <g id="text_13">
     <!-- p1 [Pa] -->
     <defs>
      <path d="M 6.59375 -19.875 
L 6.59375 51.859375 
L 14.59375 51.859375 
L 14.59375 45.125 
Q 17.4375 49.078125 21 51.046875 
Q 24.5625 53.03125 29.640625 53.03125 
Q 36.28125 53.03125 41.359375 49.609375 
Q 46.4375 46.1875 49.015625 39.953125 
Q 51.609375 33.734375 51.609375 26.3125 
Q 51.609375 18.359375 48.75 11.984375 
Q 45.90625 5.609375 40.453125 2.21875 
Q 35.015625 -1.171875 29 -1.171875 
Q 24.609375 -1.171875 21.109375 0.6875 
Q 17.625 2.546875 15.375 5.375 
L 15.375 -19.875 
z
M 14.546875 25.640625 
Q 14.546875 15.625 18.59375 10.84375 
Q 22.65625 6.0625 28.421875 6.0625 
Q 34.28125 6.0625 38.453125 11.015625 
Q 42.625 15.96875 42.625 26.375 
Q 42.625 36.28125 38.546875 41.203125 
Q 34.46875 46.140625 28.8125 46.140625 
Q 23.1875 46.140625 18.859375 40.890625 
Q 14.546875 35.640625 14.546875 25.640625 
z
" id="ArialMT-112"/>
      <path d="M 7.71875 0 
L 7.71875 71.578125 
L 34.71875 71.578125 
Q 41.84375 71.578125 45.609375 70.90625 
Q 50.875 70.015625 54.4375 67.546875 
Q 58.015625 65.09375 60.1875 60.640625 
Q 62.359375 56.203125 62.359375 50.875 
Q 62.359375 41.75 56.546875 35.421875 
Q 50.734375 29.109375 35.546875 29.109375 
L 17.1875 29.109375 
L 17.1875 0 
z
M 17.1875 37.546875 
L 35.6875 37.546875 
Q 44.875 37.546875 48.734375 40.96875 
Q 52.59375 44.390625 52.59375 50.59375 
Q 52.59375 55.078125 50.3125 58.265625 
Q 48.046875 61.46875 44.34375 62.5 
Q 41.9375 63.140625 35.5 63.140625 
L 17.1875 63.140625 
z
" id="ArialMT-80"/>
      <path d="M 40.4375 6.390625 
Q 35.546875 2.25 31.03125 0.53125 
Q 26.515625 -1.171875 21.34375 -1.171875 
Q 12.796875 -1.171875 8.203125 3 
Q 3.609375 7.171875 3.609375 13.671875 
Q 3.609375 17.484375 5.34375 20.625 
Q 7.078125 23.78125 9.890625 25.6875 
Q 12.703125 27.59375 16.21875 28.5625 
Q 18.796875 29.25 24.03125 29.890625 
Q 34.671875 31.15625 39.703125 32.90625 
Q 39.75 34.71875 39.75 35.203125 
Q 39.75 40.578125 37.25 42.78125 
Q 33.890625 45.75 27.25 45.75 
Q 21.046875 45.75 18.09375 43.578125 
Q 15.140625 41.40625 13.71875 35.890625 
L 5.125 37.0625 
Q 6.296875 42.578125 8.984375 45.96875 
Q 11.671875 49.359375 16.75 51.1875 
Q 21.828125 53.03125 28.515625 53.03125 
Q 35.15625 53.03125 39.296875 51.46875 
Q 43.453125 49.90625 45.40625 47.53125 
Q 47.359375 45.171875 48.140625 41.546875 
Q 48.578125 39.3125 48.578125 33.453125 
L 48.578125 21.734375 
Q 48.578125 9.46875 49.140625 6.21875 
Q 49.703125 2.984375 51.375 0 
L 42.1875 0 
Q 40.828125 2.734375 40.4375 6.390625 
z
M 39.703125 26.03125 
Q 34.90625 24.078125 25.34375 22.703125 
Q 19.921875 21.921875 17.671875 20.9375 
Q 15.4375 19.96875 14.203125 18.09375 
Q 12.984375 16.21875 12.984375 13.921875 
Q 12.984375 10.40625 15.640625 8.0625 
Q 18.3125 5.71875 23.4375 5.71875 
Q 28.515625 5.71875 32.46875 7.9375 
Q 36.421875 10.15625 38.28125 14.015625 
Q 39.703125 17 39.703125 22.796875 
z
" id="ArialMT-97"/>
     </defs>
     <g style="fill:#262626;" transform="translate(34.575703 339.009525)rotate(-90)scale(0.27 -0.27)">
      <use xlink:href="#ArialMT-112"/>
      <use x="55.615234" xlink:href="#ArialMT-49"/>
      <use x="111.230469" xlink:href="#ArialMT-32"/>
      <use x="139.013672" xlink:href="#ArialMT-91"/>
      <use x="166.796875" xlink:href="#ArialMT-80"/>
      <use x="233.496094" xlink:href="#ArialMT-97"/>
      <use x="289.111328" xlink:href="#ArialMT-93"/>
     </g>
    </g>
   </g>
   <g id="PolyCollection_1">
    <defs>
     <path d="M 105.3 -493.370595 
L 105.3 -284.089468 
L 106.60572 -283.231036 
L 107.91144 -277.472514 
L 109.21716 -278.613977 
L 110.52288 -281.830068 
L 111.8286 -276.445381 
L 113.13432 -275.58809 
L 114.44004 -272.645959 
L 115.74576 -270.720065 
L 117.051481 -263.879944 
L 118.357201 -265.919126 
L 119.662921 -262.288744 
L 120.968641 -257.919381 
L 122.274361 -261.401072 
L 123.580081 -256.75168 
L 124.885801 -257.174995 
L 126.191521 -257.019664 
L 127.497241 -253.414882 
L 128.802961 -249.393211 
L 130.108681 -257.890838 
L 131.414401 -255.299626 
L 132.720121 -258.733918 
L 134.025841 -256.073522 
L 135.331561 -259.803322 
L 136.637281 -265.980419 
L 137.943002 -265.790756 
L 139.248722 -265.036264 
L 140.554442 -259.458331 
L 141.860162 -261.660529 
L 143.165882 -263.783193 
L 144.471602 -264.47468 
L 145.777322 -251.293795 
L 147.083042 -255.862538 
L 148.388762 -252.126245 
L 149.694482 -251.17412 
L 151.000202 -252.782201 
L 152.305922 -248.167159 
L 153.611642 -246.03876 
L 154.917362 -248.910496 
L 156.223082 -246.231112 
L 157.528802 -244.44985 
L 158.834523 -244.112642 
L 160.140243 -242.846901 
L 161.445963 -237.131525 
L 162.751683 -238.119554 
L 164.057403 -239.796015 
L 165.363123 -242.854051 
L 166.668843 -237.47062 
L 167.974563 -241.392755 
L 169.280283 -244.189292 
L 170.586003 -246.785763 
L 171.891723 -245.757502 
L 173.197443 -244.210366 
L 174.503163 -247.263741 
L 175.808883 -241.836025 
L 177.114603 -237.578294 
L 178.420323 -241.193928 
L 179.726044 -235.300929 
L 181.031764 -235.111583 
L 182.337484 -236.349667 
L 183.643204 -237.246398 
L 184.948924 -236.907203 
L 186.254644 -236.339188 
L 187.560364 -234.812179 
L 188.866084 -228.609532 
L 190.171804 -230.809487 
L 191.477524 -231.294765 
L 192.783244 -231.195393 
L 194.088964 -234.981359 
L 195.394684 -236.611545 
L 196.700404 -229.605613 
L 198.006124 -226.275459 
L 199.311844 -222.693131 
L 200.617565 -224.068014 
L 201.923285 -224.403582 
L 203.229005 -214.617537 
L 204.534725 -228.328301 
L 205.840445 -223.205831 
L 207.146165 -228.113176 
L 208.451885 -224.488184 
L 209.757605 -231.016068 
L 211.063325 -231.577517 
L 212.369045 -236.123857 
L 213.674765 -238.702916 
L 214.980485 -234.872141 
L 216.286205 -238.578779 
L 217.591925 -245.629447 
L 218.897645 -243.285319 
L 220.203365 -234.199499 
L 221.509086 -243.66968 
L 222.814806 -241.177888 
L 224.120526 -236.837967 
L 225.426246 -241.412902 
L 226.731966 -241.006729 
L 228.037686 -239.941473 
L 229.343406 -243.217396 
L 230.649126 -241.772629 
L 231.954846 -251.247569 
L 233.260566 -246.790768 
L 234.566286 -244.268639 
L 235.872006 -250.926104 
L 237.177726 -247.361718 
L 238.483446 -244.898949 
L 239.789166 -255.196208 
L 241.094886 -251.057638 
L 242.400607 -249.597621 
L 243.706327 -260.075688 
L 245.012047 -255.582638 
L 246.317767 -260.557784 
L 247.623487 -256.960495 
L 248.929207 -255.881569 
L 250.234927 -258.608843 
L 251.540647 -261.011999 
L 252.846367 -257.466859 
L 254.152087 -260.727213 
L 255.457807 -259.983562 
L 256.763527 -255.872148 
L 258.069247 -264.2387 
L 259.374967 -264.755651 
L 260.680687 -260.67738 
L 261.986407 -263.692871 
L 263.292128 -260.974766 
L 264.597848 -264.218703 
L 265.903568 -266.498341 
L 267.209288 -266.342858 
L 268.515008 -270.308301 
L 269.820728 -269.341951 
L 271.126448 -278.989017 
L 272.432168 -280.468106 
L 273.737888 -276.959516 
L 275.043608 -280.008615 
L 276.349328 -279.449337 
L 277.655048 -281.364227 
L 278.960768 -275.902322 
L 280.266488 -283.873637 
L 281.572208 -280.48008 
L 282.877928 -280.340738 
L 284.183648 -283.207141 
L 285.489369 -280.35801 
L 286.795089 -280.095195 
L 288.100809 -276.383805 
L 289.406529 -280.969911 
L 290.712249 -279.769312 
L 292.017969 -282.391338 
L 293.323689 -283.630802 
L 294.629409 -287.593006 
L 295.935129 -287.64992 
L 297.240849 -284.383687 
L 298.546569 -286.495259 
L 299.852289 -285.66809 
L 301.158009 -281.061745 
L 302.463729 -281.303513 
L 303.769449 -273.677426 
L 305.075169 -268.922174 
L 306.38089 -268.968533 
L 307.68661 -263.610175 
L 308.99233 -261.785367 
L 310.29805 -260.334065 
L 311.60377 -261.924676 
L 312.90949 -268.354212 
L 314.21521 -265.775279 
L 315.52093 -264.943397 
L 316.82665 -264.079149 
L 318.13237 -265.007132 
L 319.43809 -262.694728 
L 320.74381 -270.971863 
L 322.04953 -267.286343 
L 323.35525 -270.252343 
L 324.66097 -272.247981 
L 325.96669 -275.933137 
L 327.272411 -273.355908 
L 328.578131 -271.744036 
L 329.883851 -279.286318 
L 331.189571 -278.02052 
L 332.495291 -277.539564 
L 333.801011 -280.37898 
L 335.106731 -278.059935 
L 336.412451 -277.398631 
L 337.718171 -274.795827 
L 339.023891 -275.808274 
L 340.329611 -271.948218 
L 341.635331 -272.515015 
L 342.941051 -272.017566 
L 344.246771 -269.990017 
L 345.552491 -268.486371 
L 346.858211 -264.869255 
L 348.163932 -266.823699 
L 349.469652 -264.362178 
L 350.775372 -259.422419 
L 352.081092 -261.989373 
L 353.386812 -259.982619 
L 354.692532 -258.214961 
L 355.998252 -262.435969 
L 357.303972 -256.114814 
L 358.609692 -253.880175 
L 359.915412 -254.968041 
L 361.221132 -261.853021 
L 362.526852 -260.756033 
L 363.832572 -259.985501 
L 365.138292 -261.140361 
L 366.444012 -259.178845 
L 367.749732 -260.40091 
L 369.055453 -260.633559 
L 370.361173 -260.69488 
L 371.666893 -264.360159 
L 372.972613 -266.572584 
L 374.278333 -266.700269 
L 375.584053 -264.337333 
L 376.889773 -269.923552 
L 378.195493 -267.718432 
L 379.501213 -267.952836 
L 380.806933 -265.318597 
L 382.112653 -270.769778 
L 383.418373 -266.763767 
L 384.724093 -266.797971 
L 386.029813 -265.061668 
L 387.335533 -258.699327 
L 388.641253 -255.655622 
L 389.946974 -254.34858 
L 391.252694 -252.010193 
L 392.558414 -254.88949 
L 393.864134 -245.759244 
L 395.169854 -250.169597 
L 396.475574 -250.832122 
L 397.781294 -254.646235 
L 399.087014 -257.97653 
L 400.392734 -262.976835 
L 401.698454 -264.376597 
L 403.004174 -265.711658 
L 404.309894 -264.792061 
L 405.615614 -272.435907 
L 406.921334 -273.939731 
L 408.227054 -269.721267 
L 409.532774 -275.891765 
L 410.838495 -269.083746 
L 412.144215 -269.184953 
L 413.449935 -268.74965 
L 414.755655 -266.013064 
L 416.061375 -266.140773 
L 417.367095 -260.414905 
L 418.672815 -261.846646 
L 419.978535 -262.417403 
L 421.284255 -261.76301 
L 422.589975 -267.792918 
L 423.895695 -268.103172 
L 425.201415 -269.672602 
L 426.507135 -274.914284 
L 427.812855 -270.638804 
L 429.118575 -270.387345 
L 430.424295 -273.305077 
L 431.730016 -276.244575 
L 433.035736 -279.387705 
L 434.341456 -277.207181 
L 435.647176 -279.80602 
L 436.952896 -277.827711 
L 438.258616 -281.320833 
L 439.564336 -284.008314 
L 440.870056 -284.839302 
L 442.175776 -283.412736 
L 443.481496 -286.180481 
L 444.787216 -282.86952 
L 446.092936 -283.823408 
L 447.398656 -283.894141 
L 448.704376 -285.005879 
L 450.010096 -286.062457 
L 451.315816 -290.256039 
L 452.621536 -291.585115 
L 453.927257 -295.850576 
L 455.232977 -294.666913 
L 456.538697 -298.131448 
L 457.844417 -297.727457 
L 459.150137 -298.890447 
L 460.455857 -298.815597 
L 461.761577 -298.616784 
L 463.067297 -295.571939 
L 464.373017 -292.044201 
L 465.678737 -293.172235 
L 466.984457 -289.412272 
L 468.290177 -288.229237 
L 469.595897 -288.961841 
L 470.901617 -290.499153 
L 472.207337 -290.041163 
L 473.513057 -287.828122 
L 474.818778 -286.044106 
L 476.124498 -287.076074 
L 477.430218 -285.165938 
L 478.735938 -288.310067 
L 480.041658 -290.964718 
L 481.347378 -285.69412 
L 482.653098 -284.870579 
L 483.958818 -289.469856 
L 485.264538 -286.240213 
L 486.570258 -282.797614 
L 487.875978 -284.443011 
L 489.181698 -278.35456 
L 490.487418 -284.710122 
L 491.793138 -278.271865 
L 493.098858 -271.032494 
L 494.404578 -273.2167 
L 495.710299 -273.593785 
L 497.016019 -272.659068 
L 498.321739 -274.167121 
L 499.627459 -271.593114 
L 500.933179 -270.107665 
L 502.238899 -274.140884 
L 503.544619 -276.654336 
L 504.850339 -277.998431 
L 506.156059 -277.438705 
L 507.461779 -282.130851 
L 508.767499 -271.068759 
L 510.073219 -273.877018 
L 511.378939 -265.16451 
L 512.684659 -267.909243 
L 513.990379 -265.013725 
L 515.296099 -267.349897 
L 516.60182 -263.932059 
L 517.90754 -267.177895 
L 519.21326 -267.320426 
L 520.51898 -268.623394 
L 521.8247 -266.357619 
L 523.13042 -266.327967 
L 524.43614 -263.9454 
L 525.74186 -267.607395 
L 527.04758 -267.511312 
L 528.3533 -265.894526 
L 529.65902 -262.307351 
L 530.96474 -265.594117 
L 532.27046 -264.131595 
L 533.57618 -262.704227 
L 534.8819 -256.666738 
L 536.18762 -258.577507 
L 537.493341 -260.228801 
L 538.799061 -256.295692 
L 540.104781 -256.073633 
L 541.410501 -258.038535 
L 542.716221 -255.982081 
L 544.021941 -251.67228 
L 545.327661 -247.733032 
L 546.633381 -253.633625 
L 547.939101 -255.450051 
L 549.244821 -247.13224 
L 550.550541 -255.259484 
L 551.856261 -254.560335 
L 553.161981 -254.387107 
L 554.467701 -256.600342 
L 555.773421 -257.638397 
L 557.079141 -255.916686 
L 558.384862 -255.21134 
L 559.690582 -253.915097 
L 560.996302 -250.737044 
L 562.302022 -251.94805 
L 563.607742 -242.230789 
L 564.913462 -237.862567 
L 566.219182 -231.892247 
L 567.524902 -229.370429 
L 568.830622 -215.195461 
L 570.136342 -216.453731 
L 571.442062 -215.476896 
L 572.747782 -219.19188 
L 574.053502 -229.530483 
L 575.359222 -234.874498 
L 576.664942 -233.084668 
L 577.970662 -237.361722 
L 579.276383 -244.322309 
L 580.582103 -243.106856 
L 581.887823 -244.903505 
L 583.193543 -248.805816 
L 584.499263 -250.172646 
L 585.804983 -254.828484 
L 587.110703 -260.114602 
L 588.416423 -264.199052 
L 589.722143 -264.13611 
L 591.027863 -268.376683 
L 592.333583 -271.993302 
L 593.639303 -270.142184 
L 594.945023 -272.300584 
L 596.250743 -266.070814 
L 597.556463 -270.150368 
L 598.862183 -273.027161 
L 600.167904 -268.903815 
L 601.473624 -272.522536 
L 602.779344 -267.67635 
L 604.085064 -263.494694 
L 605.390784 -258.892964 
L 606.696504 -260.128023 
L 608.002224 -250.360633 
L 609.307944 -243.018378 
L 610.613664 -238.753328 
L 611.919384 -237.277442 
L 613.225104 -230.262004 
L 614.530824 -234.307555 
L 615.836544 -228.659444 
L 617.142264 -232.035724 
L 618.447984 -233.298547 
L 619.753704 -230.53224 
L 621.059424 -234.311173 
L 622.365145 -229.480279 
L 623.670865 -236.081183 
L 624.976585 -228.264884 
L 626.282305 -239.830788 
L 627.588025 -237.894779 
L 628.893745 -246.194258 
L 630.199465 -243.610542 
L 631.505185 -245.685604 
L 632.810905 -238.993808 
L 634.116625 -242.921726 
L 635.422345 -241.806296 
L 636.728065 -237.277658 
L 638.033785 -237.573013 
L 639.339505 -230.394309 
L 640.645225 -230.893978 
L 641.950945 -228.644323 
L 643.256666 -223.795839 
L 644.562386 -207.035426 
L 645.868106 -189.853824 
L 647.173826 -208.59735 
L 648.479546 -191.169935 
L 649.785266 -187.229763 
L 651.090986 -185.280474 
L 652.396706 -187.80274 
L 653.702426 -190.784104 
L 655.008146 -185.772108 
L 656.313866 -185.900715 
L 657.619586 -172.978773 
L 658.925306 -188.08965 
L 660.231026 -181.469608 
L 661.536746 -182.735077 
L 662.842466 -183.920612 
L 664.148187 -191.50909 
L 665.453907 -190.303139 
L 666.759627 -201.572719 
L 668.065347 -206.407273 
L 669.371067 -206.798567 
L 670.676787 -211.88754 
L 671.982507 -213.166058 
L 673.288227 -210.30909 
L 674.593947 -214.020511 
L 675.899667 -222.685623 
L 677.205387 -224.510808 
L 678.511107 -221.774202 
L 679.816827 -207.268119 
L 681.122547 -208.708125 
L 682.428267 -204.140435 
L 683.733987 -205.315357 
L 685.039708 -203.389171 
L 686.345428 -196.108035 
L 687.651148 -207.474694 
L 688.956868 -204.995871 
L 690.262588 -201.916647 
L 691.568308 -204.730458 
L 692.874028 -209.162535 
L 694.179748 -221.018049 
L 695.485468 -207.093337 
L 696.791188 -211.424909 
L 698.096908 -207.506936 
L 699.402628 -209.677043 
L 700.708348 -188.889874 
L 702.014068 -172.443029 
L 703.319788 -138.694205 
L 704.625508 -130.383833 
L 705.931229 -123.893193 
L 707.236949 -133.903332 
L 708.542669 -122.984032 
L 709.848389 -125.202921 
L 711.154109 -133.037128 
L 712.459829 -134.122095 
L 713.765549 -131.099528 
L 715.071269 -120.120011 
L 716.376989 -123.965676 
L 717.682709 -115.909206 
L 718.988429 -103.681601 
L 720.294149 -94.864418 
L 721.599869 -116.37 
L 722.905589 -111.949401 
L 724.211309 -118.910821 
L 725.517029 -129.261136 
L 726.82275 -128.070943 
L 728.12847 -130.161503 
L 729.43419 -137.862921 
L 730.73991 -160.052884 
L 732.04563 -145.17219 
L 733.35135 -144.068567 
L 734.65707 -149.983929 
L 735.96279 -143.448926 
L 737.26851 -138.222249 
L 738.57423 -137.363105 
L 739.87995 -141.357513 
L 741.18567 -124.451789 
L 742.49139 -121.089081 
L 743.79711 -123.537225 
L 745.10283 -131.254528 
L 746.40855 -135.516789 
L 747.714271 -126.750704 
L 749.019991 -122.378127 
L 750.325711 -128.602009 
L 751.631431 -127.859491 
L 752.937151 -136.106345 
L 754.242871 -148.332608 
L 755.548591 -146.849559 
L 756.854311 -150.528318 
L 756.854311 -361.952983 
L 756.854311 -361.952983 
L 755.548591 -358.119728 
L 754.242871 -357.247793 
L 752.937151 -355.026576 
L 751.631431 -359.558784 
L 750.325711 -353.078598 
L 749.019991 -361.164198 
L 747.714271 -360.022044 
L 746.40855 -349.976665 
L 745.10283 -357.658871 
L 743.79711 -358.757109 
L 742.49139 -359.331144 
L 741.18567 -358.292883 
L 739.87995 -375.702871 
L 738.57423 -362.32092 
L 737.26851 -367.890326 
L 735.96279 -373.961986 
L 734.65707 -381.589326 
L 733.35135 -376.757436 
L 732.04563 -395.593644 
L 730.73991 -376.784915 
L 729.43419 -375.833634 
L 728.12847 -361.370036 
L 726.82275 -358.14757 
L 725.517029 -358.801775 
L 724.211309 -358.042422 
L 722.905589 -365.264036 
L 721.599869 -351.008189 
L 720.294149 -365.231323 
L 718.988429 -355.318144 
L 717.682709 -359.195576 
L 716.376989 -353.384928 
L 715.071269 -362.313682 
L 713.765549 -348.843752 
L 712.459829 -354.393407 
L 711.154109 -365.084968 
L 709.848389 -371.816983 
L 708.542669 -372.687218 
L 707.236949 -382.074011 
L 705.931229 -385.217005 
L 704.625508 -383.132978 
L 703.319788 -388.147563 
L 702.014068 -397.310197 
L 700.708348 -406.920132 
L 699.402628 -414.837061 
L 698.096908 -434.910224 
L 696.791188 -446.952057 
L 695.485468 -444.468364 
L 694.179748 -446.797898 
L 692.874028 -449.376034 
L 691.568308 -435.750619 
L 690.262588 -434.632148 
L 688.956868 -427.582439 
L 687.651148 -430.779191 
L 686.345428 -432.272119 
L 685.039708 -435.945803 
L 683.733987 -443.904787 
L 682.428267 -443.501261 
L 681.122547 -443.086818 
L 679.816827 -436.792584 
L 678.511107 -440.169257 
L 677.205387 -441.536749 
L 675.899667 -433.825127 
L 674.593947 -431.19402 
L 673.288227 -424.960464 
L 671.982507 -432.159373 
L 670.676787 -422.536805 
L 669.371067 -426.694897 
L 668.065347 -414.586273 
L 666.759627 -416.701229 
L 665.453907 -419.482871 
L 664.148187 -411.70442 
L 662.842466 -416.321707 
L 661.536746 -407.261391 
L 660.231026 -412.099168 
L 658.925306 -406.06842 
L 657.619586 -401.239759 
L 656.313866 -388.742454 
L 655.008146 -396.154646 
L 653.702426 -392.651105 
L 652.396706 -389.808527 
L 651.090986 -387.414715 
L 649.785266 -384.474166 
L 648.479546 -385.214207 
L 647.173826 -383.586152 
L 645.868106 -380.137547 
L 644.562386 -392.686883 
L 643.256666 -384.581059 
L 641.950945 -386.886697 
L 640.645225 -388.880223 
L 639.339505 -393.288133 
L 638.033785 -396.932212 
L 636.728065 -403.264671 
L 635.422345 -399.249773 
L 634.116625 -400.32463 
L 632.810905 -397.549198 
L 631.505185 -405.054119 
L 630.199465 -395.120052 
L 628.893745 -392.572143 
L 627.588025 -386.310682 
L 626.282305 -385.198664 
L 624.976585 -375.332642 
L 623.670865 -376.911993 
L 622.365145 -368.369753 
L 621.059424 -370.58997 
L 619.753704 -365.49735 
L 618.447984 -367.093003 
L 617.142264 -365.337793 
L 615.836544 -367.093539 
L 614.530824 -375.347531 
L 613.225104 -372.230759 
L 611.919384 -370.351276 
L 610.613664 -371.684796 
L 609.307944 -376.439345 
L 608.002224 -377.57632 
L 606.696504 -377.983955 
L 605.390784 -375.039701 
L 604.085064 -377.373297 
L 602.779344 -375.893385 
L 601.473624 -373.767786 
L 600.167904 -374.002637 
L 598.862183 -374.424117 
L 597.556463 -371.628815 
L 596.250743 -370.73451 
L 594.945023 -370.661531 
L 593.639303 -368.695957 
L 592.333583 -372.790147 
L 591.027863 -368.321676 
L 589.722143 -361.285351 
L 588.416423 -365.177846 
L 587.110703 -363.373304 
L 585.804983 -358.917484 
L 584.499263 -360.111844 
L 583.193543 -354.405909 
L 581.887823 -351.881186 
L 580.582103 -349.369493 
L 579.276383 -350.087528 
L 577.970662 -345.716618 
L 576.664942 -346.781385 
L 575.359222 -345.499888 
L 574.053502 -346.900946 
L 572.747782 -352.258682 
L 571.442062 -350.674558 
L 570.136342 -351.053284 
L 568.830622 -351.999203 
L 567.524902 -356.372246 
L 566.219182 -361.096609 
L 564.913462 -359.336107 
L 563.607742 -360.694882 
L 562.302022 -357.435702 
L 560.996302 -361.578654 
L 559.690582 -362.466441 
L 558.384862 -358.188597 
L 557.079141 -360.258374 
L 555.773421 -357.733573 
L 554.467701 -356.620642 
L 553.161981 -357.198107 
L 551.856261 -357.535661 
L 550.550541 -359.618486 
L 549.244821 -358.009756 
L 547.939101 -357.231017 
L 546.633381 -355.822548 
L 545.327661 -356.888729 
L 544.021941 -355.886485 
L 542.716221 -360.631912 
L 541.410501 -362.557534 
L 540.104781 -364.796854 
L 538.799061 -370.960898 
L 537.493341 -366.246476 
L 536.18762 -367.212257 
L 534.8819 -370.431985 
L 533.57618 -372.871037 
L 532.27046 -373.975127 
L 530.96474 -374.728831 
L 529.65902 -378.016516 
L 528.3533 -381.275691 
L 527.04758 -375.201005 
L 525.74186 -379.865048 
L 524.43614 -379.813692 
L 523.13042 -383.448199 
L 521.8247 -381.01154 
L 520.51898 -379.931876 
L 519.21326 -382.87942 
L 517.90754 -378.033722 
L 516.60182 -380.145901 
L 515.296099 -380.913305 
L 513.990379 -377.377261 
L 512.684659 -378.373304 
L 511.378939 -380.767652 
L 510.073219 -382.157124 
L 508.767499 -380.871295 
L 507.461779 -381.594887 
L 506.156059 -384.59346 
L 504.850339 -388.384496 
L 503.544619 -387.677896 
L 502.238899 -392.990653 
L 500.933179 -393.244975 
L 499.627459 -393.524695 
L 498.321739 -399.478321 
L 497.016019 -398.602071 
L 495.710299 -404.114499 
L 494.404578 -407.681767 
L 493.098858 -404.639044 
L 491.793138 -406.101081 
L 490.487418 -402.626424 
L 489.181698 -402.548179 
L 487.875978 -396.845961 
L 486.570258 -397.536191 
L 485.264538 -400.509908 
L 483.958818 -395.500464 
L 482.653098 -395.275948 
L 481.347378 -391.685459 
L 480.041658 -388.800475 
L 478.735938 -386.270282 
L 477.430218 -390.305032 
L 476.124498 -391.419644 
L 474.818778 -388.78424 
L 473.513057 -392.139399 
L 472.207337 -393.368631 
L 470.901617 -392.71381 
L 469.595897 -390.877773 
L 468.290177 -392.667906 
L 466.984457 -392.211542 
L 465.678737 -393.390682 
L 464.373017 -392.614988 
L 463.067297 -391.63181 
L 461.761577 -387.666931 
L 460.455857 -385.985568 
L 459.150137 -385.13546 
L 457.844417 -386.12668 
L 456.538697 -385.022134 
L 455.232977 -387.128277 
L 453.927257 -384.61901 
L 452.621536 -381.215341 
L 451.315816 -381.429608 
L 450.010096 -386.659293 
L 448.704376 -388.529533 
L 447.398656 -385.647601 
L 446.092936 -386.783475 
L 444.787216 -389.278765 
L 443.481496 -387.181397 
L 442.175776 -389.065853 
L 440.870056 -386.59909 
L 439.564336 -382.414479 
L 438.258616 -381.278938 
L 436.952896 -375.903842 
L 435.647176 -378.37537 
L 434.341456 -372.321166 
L 433.035736 -369.337699 
L 431.730016 -369.58812 
L 430.424295 -367.303424 
L 429.118575 -371.091407 
L 427.812855 -369.519991 
L 426.507135 -373.339036 
L 425.201415 -377.444564 
L 423.895695 -384.78129 
L 422.589975 -391.505937 
L 421.284255 -395.295362 
L 419.978535 -393.965854 
L 418.672815 -393.892634 
L 417.367095 -403.223343 
L 416.061375 -403.838273 
L 414.755655 -401.614971 
L 413.449935 -396.044015 
L 412.144215 -398.435153 
L 410.838495 -393.311669 
L 409.532774 -390.408123 
L 408.227054 -382.081343 
L 406.921334 -378.651931 
L 405.615614 -370.259202 
L 404.309894 -363.277162 
L 403.004174 -363.153231 
L 401.698454 -359.817666 
L 400.392734 -355.352986 
L 399.087014 -355.170875 
L 397.781294 -355.321418 
L 396.475574 -355.945655 
L 395.169854 -354.98513 
L 393.864134 -359.057979 
L 392.558414 -357.006129 
L 391.252694 -360.490848 
L 389.946974 -362.365219 
L 388.641253 -360.65211 
L 387.335533 -359.951113 
L 386.029813 -365.888565 
L 384.724093 -363.705166 
L 383.418373 -361.715301 
L 382.112653 -366.691215 
L 380.806933 -358.002929 
L 379.501213 -361.087101 
L 378.195493 -358.748179 
L 376.889773 -352.673005 
L 375.584053 -354.754363 
L 374.278333 -348.371152 
L 372.972613 -349.639998 
L 371.666893 -343.531778 
L 370.361173 -349.536485 
L 369.055453 -345.356875 
L 367.749732 -348.845567 
L 366.444012 -347.369307 
L 365.138292 -348.331613 
L 363.832572 -353.365741 
L 362.526852 -352.81525 
L 361.221132 -352.259194 
L 359.915412 -352.389354 
L 358.609692 -362.924172 
L 357.303972 -359.710706 
L 355.998252 -360.294578 
L 354.692532 -360.540075 
L 353.386812 -360.730173 
L 352.081092 -357.315368 
L 350.775372 -358.666589 
L 349.469652 -358.504773 
L 348.163932 -358.097947 
L 346.858211 -362.978885 
L 345.552491 -359.16051 
L 344.246771 -355.942548 
L 342.941051 -357.600588 
L 341.635331 -357.861927 
L 340.329611 -362.332252 
L 339.023891 -361.309239 
L 337.718171 -360.556839 
L 336.412451 -361.765082 
L 335.106731 -360.657555 
L 333.801011 -365.756061 
L 332.495291 -367.29691 
L 331.189571 -368.560801 
L 329.883851 -369.831613 
L 328.578131 -368.970053 
L 327.272411 -373.386909 
L 325.96669 -378.169695 
L 324.66097 -375.920239 
L 323.35525 -381.943596 
L 322.04953 -376.916491 
L 320.74381 -375.633111 
L 319.43809 -377.012356 
L 318.13237 -375.266504 
L 316.82665 -376.58975 
L 315.52093 -378.080993 
L 314.21521 -376.519388 
L 312.90949 -375.382099 
L 311.60377 -373.884877 
L 310.29805 -374.100486 
L 308.99233 -378.622919 
L 307.68661 -376.116233 
L 306.38089 -384.360207 
L 305.075169 -383.19141 
L 303.769449 -378.099525 
L 302.463729 -380.551245 
L 301.158009 -381.243969 
L 299.852289 -382.577577 
L 298.546569 -384.871565 
L 297.240849 -388.948874 
L 295.935129 -391.559909 
L 294.629409 -390.006733 
L 293.323689 -394.341098 
L 292.017969 -390.858205 
L 290.712249 -393.011691 
L 289.406529 -388.96828 
L 288.100809 -387.654968 
L 286.795089 -389.002683 
L 285.489369 -383.77872 
L 284.183648 -385.245869 
L 282.877928 -384.213351 
L 281.572208 -382.353624 
L 280.266488 -383.172315 
L 278.960768 -381.961356 
L 277.655048 -378.902799 
L 276.349328 -379.15999 
L 275.043608 -381.614671 
L 273.737888 -378.561409 
L 272.432168 -381.191894 
L 271.126448 -384.220242 
L 269.820728 -386.541367 
L 268.515008 -387.159433 
L 267.209288 -389.317076 
L 265.903568 -393.887681 
L 264.597848 -395.579681 
L 263.292128 -393.368474 
L 261.986407 -389.006159 
L 260.680687 -396.311955 
L 259.374967 -396.816774 
L 258.069247 -395.30645 
L 256.763527 -397.850946 
L 255.457807 -395.823863 
L 254.152087 -393.795437 
L 252.846367 -395.557446 
L 251.540647 -398.796069 
L 250.234927 -396.179668 
L 248.929207 -396.373853 
L 247.623487 -398.289 
L 246.317767 -393.710803 
L 245.012047 -398.301502 
L 243.706327 -397.761172 
L 242.400607 -393.369353 
L 241.094886 -394.723611 
L 239.789166 -396.872271 
L 238.483446 -390.853179 
L 237.177726 -396.645018 
L 235.872006 -395.410188 
L 234.566286 -394.782879 
L 233.260566 -397.323668 
L 231.954846 -392.947844 
L 230.649126 -397.015514 
L 229.343406 -394.921648 
L 228.037686 -390.981748 
L 226.731966 -389.624121 
L 225.426246 -389.062307 
L 224.120526 -386.618289 
L 222.814806 -378.677513 
L 221.509086 -376.035149 
L 220.203365 -378.492456 
L 218.897645 -376.604577 
L 217.591925 -375.279014 
L 216.286205 -371.803109 
L 214.980485 -374.444275 
L 213.674765 -375.414105 
L 212.369045 -372.62286 
L 211.063325 -377.435663 
L 209.757605 -381.027726 
L 208.451885 -375.674799 
L 207.146165 -379.299762 
L 205.840445 -378.85875 
L 204.534725 -374.006971 
L 203.229005 -374.724257 
L 201.923285 -370.974159 
L 200.617565 -369.428858 
L 199.311844 -372.69028 
L 198.006124 -363.203977 
L 196.700404 -358.489442 
L 195.394684 -355.665774 
L 194.088964 -356.413121 
L 192.783244 -353.986174 
L 191.477524 -353.274692 
L 190.171804 -354.551386 
L 188.866084 -349.422388 
L 187.560364 -349.441803 
L 186.254644 -350.982602 
L 184.948924 -351.511323 
L 183.643204 -352.035412 
L 182.337484 -354.771161 
L 181.031764 -353.462033 
L 179.726044 -354.950539 
L 178.420323 -356.631005 
L 177.114603 -359.602701 
L 175.808883 -358.888625 
L 174.503163 -358.217926 
L 173.197443 -360.787592 
L 171.891723 -364.641865 
L 170.586003 -364.610347 
L 169.280283 -371.326303 
L 167.974563 -364.978031 
L 166.668843 -361.702831 
L 165.363123 -365.541953 
L 164.057403 -362.624036 
L 162.751683 -359.567389 
L 161.445963 -358.000942 
L 160.140243 -359.112316 
L 158.834523 -358.293857 
L 157.528802 -357.532942 
L 156.223082 -361.824124 
L 154.917362 -364.050978 
L 153.611642 -374.4595 
L 152.305922 -378.836958 
L 151.000202 -388.47303 
L 149.694482 -404.856855 
L 148.388762 -412.306824 
L 147.083042 -425.197193 
L 145.777322 -426.753276 
L 144.471602 -443.127726 
L 143.165882 -457.173365 
L 141.860162 -459.587666 
L 140.554442 -478.416643 
L 139.248722 -470.570228 
L 137.943002 -472.872729 
L 136.637281 -485.881393 
L 135.331561 -487.867676 
L 134.025841 -479.462678 
L 132.720121 -476.391324 
L 131.414401 -472.888961 
L 130.108681 -479.690365 
L 128.802961 -470.747847 
L 127.497241 -461.513249 
L 126.191521 -469.232294 
L 124.885801 -471.482586 
L 123.580081 -470.776422 
L 122.274361 -468.416298 
L 120.968641 -465.423387 
L 119.662921 -475.807994 
L 118.357201 -474.692967 
L 117.051481 -476.672152 
L 115.74576 -486.53579 
L 114.44004 -482.730071 
L 113.13432 -488.756833 
L 111.8286 -495.980785 
L 110.52288 -498.394605 
L 109.21716 -492.738774 
L 107.91144 -503.552782 
L 106.60572 -493.520899 
L 105.3 -493.370595 
z
" id="m2a76d03e20" style="stroke:#0000ff;stroke-opacity:0.2;stroke-width:1.5;"/>
    </defs>
    <g clip-path="url(#pae2f49cf29)">
     <use style="fill:#0000ff;fill-opacity:0.2;stroke:#0000ff;stroke-opacity:0.2;stroke-width:1.5;" x="0" xlink:href="#m2a76d03e20" y="595.44"/>
    </g>
   </g>
   <g id="line2d_12">
    <path clip-path="url(#pae2f49cf29)" d="M 105.3 215.193009 
L 106.60572 215.970779 
L 107.91144 216.982062 
L 110.52288 219.639648 
L 113.13432 222.831032 
L 114.44004 224.747758 
L 117.051481 229.959971 
L 119.662921 235.571007 
L 122.274361 239.699687 
L 123.580081 241.29757 
L 124.885801 242.417916 
L 126.191521 243.687515 
L 127.497241 244.26568 
L 128.802961 243.915068 
L 130.108681 242.193565 
L 131.414401 239.241358 
L 134.025841 232.763021 
L 135.331561 230.392792 
L 136.637281 229.191259 
L 137.943002 229.515238 
L 139.248722 231.030867 
L 140.554442 233.035603 
L 141.860162 235.955871 
L 143.165882 240.207535 
L 144.471602 244.971416 
L 148.388762 262.463441 
L 151.000202 273.427377 
L 153.611642 283.13307 
L 154.917362 286.576609 
L 156.223082 289.346114 
L 157.528802 291.4961 
L 158.834523 292.903792 
L 160.140243 293.477054 
L 161.445963 293.123155 
L 162.751683 292.139099 
L 164.057403 291.011163 
L 165.363123 290.117534 
L 166.668843 289.569833 
L 167.974563 289.66169 
L 169.280283 290.187966 
L 170.586003 290.076708 
L 171.891723 289.479712 
L 173.197443 290.632445 
L 175.808883 293.700297 
L 177.114603 294.907251 
L 178.420323 295.849979 
L 181.031764 298.222348 
L 184.948924 301.732319 
L 187.560364 303.232318 
L 188.866084 303.638199 
L 190.171804 303.562074 
L 191.477524 302.927122 
L 192.783244 301.594526 
L 194.088964 299.73547 
L 195.394684 298.866122 
L 198.006124 298.352905 
L 199.311844 298.112513 
L 200.617565 297.736873 
L 201.923285 297.038849 
L 205.840445 295.413519 
L 208.451885 291.122833 
L 209.757605 290.28103 
L 212.369045 288.852348 
L 213.674765 288.415282 
L 216.286205 286.898647 
L 218.897645 285.020133 
L 220.203365 284.512872 
L 221.509086 283.69367 
L 222.814806 282.507966 
L 224.120526 281.023433 
L 229.343406 274.463369 
L 230.649126 273.397041 
L 233.260566 272.148975 
L 237.177726 271.187034 
L 238.483446 270.315475 
L 242.400607 266.86688 
L 243.706327 265.804992 
L 245.012047 265.08605 
L 248.929207 263.450598 
L 251.540647 261.961475 
L 252.846367 261.665304 
L 254.152087 261.849626 
L 255.457807 261.886292 
L 256.763527 262.118328 
L 258.069247 262.583631 
L 259.374967 262.660744 
L 261.986407 262.408226 
L 264.597848 262.970157 
L 265.903568 263.056686 
L 267.209288 263.401964 
L 272.432168 264.101301 
L 273.737888 264.416984 
L 275.043608 264.380534 
L 277.655048 263.631748 
L 278.960768 263.232235 
L 281.572208 262.092003 
L 282.877928 261.246537 
L 284.183648 260.730099 
L 285.489369 259.798907 
L 286.795089 258.528354 
L 288.100809 257.578553 
L 289.406529 256.465971 
L 293.323689 254.771408 
L 295.935129 255.845057 
L 297.240849 256.714163 
L 298.546569 258.149598 
L 299.852289 260.177363 
L 305.075169 270.656643 
L 306.38089 272.127826 
L 307.68661 273.189888 
L 308.99233 273.614765 
L 310.29805 273.848426 
L 312.90949 273.470372 
L 316.82665 272.383843 
L 318.13237 271.67018 
L 319.43809 270.717189 
L 322.04953 269.329838 
L 323.35525 269.049978 
L 324.66097 269.325517 
L 327.272411 271.163062 
L 331.189571 273.120029 
L 333.801011 274.637665 
L 335.106731 275.241618 
L 336.412451 276.254195 
L 337.718171 277.098394 
L 341.635331 279.074876 
L 342.941051 280.020905 
L 346.858211 281.230849 
L 348.163932 281.718359 
L 349.469652 282.432308 
L 350.775372 282.918483 
L 352.081092 283.849465 
L 353.386812 284.543952 
L 354.692532 285.089273 
L 358.609692 286.9984 
L 361.221132 287.876835 
L 362.526852 288.650966 
L 363.832572 289.700972 
L 365.138292 290.586749 
L 366.444012 291.071764 
L 367.749732 291.195428 
L 369.055453 291.184598 
L 370.361173 290.705766 
L 371.666893 290.033864 
L 372.972613 289.194572 
L 374.278333 287.400122 
L 375.584053 285.246779 
L 376.889773 283.349449 
L 378.195493 282.246662 
L 379.501213 281.578083 
L 380.806933 281.294866 
L 382.112653 281.246116 
L 383.418373 281.390859 
L 384.724093 282.169154 
L 387.335533 284.301713 
L 391.252694 288.877472 
L 392.558414 290.058009 
L 395.169854 291.803664 
L 396.475574 291.52453 
L 397.781294 289.923898 
L 399.087014 287.680516 
L 401.698454 283.647963 
L 403.004174 280.816309 
L 405.615614 273.859617 
L 406.921334 269.86743 
L 408.227054 266.410496 
L 409.532774 263.825696 
L 410.838495 262.020101 
L 412.144215 261.212045 
L 413.449935 260.543288 
L 414.755655 260.572127 
L 416.061375 261.240448 
L 417.367095 262.676802 
L 418.672815 264.56368 
L 419.978535 266.205631 
L 421.284255 268.104752 
L 422.589975 269.595293 
L 423.895695 270.671519 
L 427.812855 274.549597 
L 429.118575 274.911772 
L 430.424295 274.659167 
L 431.730016 273.881823 
L 433.035736 272.109427 
L 435.647176 268.138505 
L 436.952896 266.454549 
L 438.258616 265.389868 
L 439.564336 263.923348 
L 442.175776 261.78523 
L 443.481496 260.944851 
L 446.092936 259.79989 
L 448.704376 259.953237 
L 450.010096 259.427231 
L 451.315816 258.620938 
L 452.621536 257.461693 
L 455.232977 256.107053 
L 456.538697 255.864198 
L 459.150137 255.518275 
L 460.455857 255.148938 
L 461.761577 254.492477 
L 463.067297 254.330134 
L 464.373017 254.728091 
L 465.678737 254.790052 
L 476.124498 257.536015 
L 477.430218 257.46961 
L 480.041658 256.954601 
L 481.347378 256.189247 
L 483.958818 254.06918 
L 485.264538 253.391628 
L 487.875978 252.435455 
L 489.181698 252.365588 
L 490.487418 252.477251 
L 493.098858 253.225229 
L 494.404578 253.867437 
L 498.321739 257.06203 
L 499.627459 257.975233 
L 500.933179 258.717234 
L 503.544619 259.841389 
L 504.850339 260.345846 
L 507.461779 262.330296 
L 510.073219 265.391037 
L 512.684659 268.750398 
L 513.990379 269.455252 
L 515.296099 269.855747 
L 516.60182 269.923002 
L 519.21326 269.245471 
L 520.51898 268.843343 
L 521.8247 269.018295 
L 523.13042 269.051091 
L 524.43614 268.932077 
L 527.04758 269.440606 
L 528.3533 270.134548 
L 530.96474 271.928635 
L 534.8819 276.495942 
L 537.493341 279.15184 
L 538.799061 280.740512 
L 540.104781 281.766194 
L 541.410501 282.978992 
L 542.716221 284.816332 
L 545.327661 289.016418 
L 546.633381 290.089653 
L 547.939101 290.06922 
L 549.244821 289.360007 
L 550.550541 288.215848 
L 551.856261 287.347213 
L 553.161981 286.659292 
L 555.773421 286.015406 
L 559.690582 284.2664 
L 560.996302 284.485017 
L 562.302022 285.56893 
L 563.607742 287.356006 
L 564.913462 290.185625 
L 567.524902 297.007332 
L 568.830622 299.833016 
L 570.136342 301.658887 
L 571.442062 302.307066 
L 572.747782 301.325159 
L 574.053502 299.771095 
L 575.359222 298.423252 
L 576.664942 297.584828 
L 577.970662 297.034988 
L 580.582103 295.178589 
L 581.887823 293.303796 
L 583.193543 290.584688 
L 585.804983 284.630649 
L 587.110703 282.350406 
L 588.416423 279.754174 
L 589.722143 277.437548 
L 591.027863 275.758375 
L 592.333583 274.57739 
L 593.639303 274.263346 
L 594.945023 274.191367 
L 596.250743 274.47782 
L 597.556463 274.128166 
L 598.862183 272.831338 
L 600.167904 272.067474 
L 601.473624 272.208662 
L 602.779344 272.569491 
L 604.085064 273.499682 
L 605.390784 274.655558 
L 608.002224 280.817251 
L 609.307944 284.048163 
L 610.613664 286.942752 
L 611.919384 288.683888 
L 613.225104 290.73985 
L 617.142264 295.324521 
L 618.447984 296.094849 
L 619.753704 296.303191 
L 621.059424 295.513486 
L 622.365145 294.161186 
L 623.670865 292.418986 
L 624.976585 289.661259 
L 627.588025 283.11951 
L 628.893745 280.433387 
L 630.199465 278.404787 
L 631.505185 276.725141 
L 632.810905 276.082487 
L 635.422345 275.127282 
L 636.728065 274.949229 
L 638.033785 275.602443 
L 639.339505 277.446582 
L 640.645225 280.154308 
L 643.256666 286.684522 
L 644.562386 290.490092 
L 645.868106 293.789495 
L 647.173826 296.279504 
L 648.479546 298.272387 
L 649.785266 299.78138 
L 651.090986 300.679326 
L 652.396706 300.49782 
L 653.702426 299.493694 
L 655.008146 298.286268 
L 657.619586 294.810845 
L 658.925306 293.434734 
L 660.231026 292.835721 
L 661.536746 291.948581 
L 664.148187 286.339357 
L 665.453907 282.646878 
L 666.759627 278.288916 
L 668.065347 274.45733 
L 669.371067 269.937739 
L 670.676787 267.150551 
L 671.982507 264.662378 
L 673.288227 262.592792 
L 674.593947 261.774 
L 675.899667 260.023916 
L 677.205387 259.772012 
L 678.511107 259.67422 
L 679.816827 259.305731 
L 681.122547 259.89354 
L 682.428267 259.620954 
L 683.733987 261.050375 
L 686.345428 261.842672 
L 687.651148 266.593477 
L 688.956868 267.036499 
L 690.262588 264.029371 
L 691.568308 261.313563 
L 692.874028 259.723754 
L 694.179748 258.890615 
L 695.485468 257.318606 
L 696.791188 256.186043 
L 698.096908 261.230523 
L 699.402628 272.619528 
L 700.708348 288.112732 
L 702.014068 305.465561 
L 703.319788 319.821612 
L 704.625508 328.026848 
L 705.931229 331.61665 
L 707.236949 333.266347 
L 708.542669 334.502574 
L 709.848389 336.559638 
L 712.459829 344.312813 
L 715.071269 349.86046 
L 716.376989 352.073238 
L 717.682709 354.649901 
L 718.988429 356.189999 
L 720.294149 356.185219 
L 721.599869 355.537173 
L 722.905589 355.066044 
L 724.211309 352.269657 
L 725.517029 348.122883 
L 726.82275 343.406674 
L 730.73991 326.798701 
L 732.04563 322.98528 
L 733.35135 323.273196 
L 734.65707 325.054097 
L 735.96279 328.625375 
L 739.87995 342.830056 
L 741.18567 346.45667 
L 742.49139 348.775506 
L 743.79711 349.412846 
L 745.10283 349.251048 
L 746.40855 348.490518 
L 747.714271 347.872467 
L 749.019991 348.268837 
L 750.325711 348.256249 
L 751.631431 347.055011 
L 752.937151 344.89908 
L 755.548591 338.961244 
L 756.854311 335.370574 
L 756.854311 335.370574 
" style="fill:none;stroke:#0000ff;stroke-linecap:round;stroke-width:2.25;"/>
   </g>
   <g id="patch_3">
    <path d="M 105.3 521.01 
L 105.3 71.4528 
" style="fill:none;stroke:#ffffff;stroke-linecap:square;stroke-linejoin:miter;stroke-width:1.875;"/>
   </g>
   <g id="patch_4">
    <path d="M 758.16 521.01 
L 758.16 71.4528 
" style="fill:none;stroke:#ffffff;stroke-linecap:square;stroke-linejoin:miter;stroke-width:1.875;"/>
   </g>
   <g id="patch_5">
    <path d="M 105.3 521.01 
L 758.16 521.01 
" style="fill:none;stroke:#ffffff;stroke-linecap:square;stroke-linejoin:miter;stroke-width:1.875;"/>
   </g>
   <g id="patch_6">
    <path d="M 105.3 71.4528 
L 758.16 71.4528 
" style="fill:none;stroke:#ffffff;stroke-linecap:square;stroke-linejoin:miter;stroke-width:1.875;"/>
   </g>
  </g>
 </g>
 <defs>
  <clipPath id="pae2f49cf29">
   <rect height="449.5572" width="652.86" x="105.3" y="71.4528"/>
  </clipPath>
 </defs>
</svg>
