<?xml version="1.0" encoding="utf-8" standalone="no"?>
<!DOCTYPE svg PUBLIC "-//W3C//DTD SVG 1.1//EN"
  "http://www.w3.org/Graphics/SVG/1.1/DTD/svg11.dtd">
<!-- Created with matplotlib (https://matplotlib.org/) -->
<svg height="595.44pt" version="1.1" viewBox="0 0 842.4 595.44" width="842.4pt" xmlns="http://www.w3.org/2000/svg" xmlns:xlink="http://www.w3.org/1999/xlink">
 <defs>
  <style type="text/css">
*{stroke-linecap:butt;stroke-linejoin:round;}
  </style>
 </defs>
 <g id="figure_1">
  <g id="patch_1">
   <path d="M 0 595.44 
L 842.4 595.44 
L 842.4 0 
L 0 0 
z
" style="fill:#ffffff;"/>
  </g>
  <g id="axes_1">
   <g id="patch_2">
    <path d="M 105.3 521.01 
L 758.16 521.01 
L 758.16 71.4528 
L 105.3 71.4528 
z
" style="fill:#eaeaf2;"/>
   </g>
   <g id="matplotlib.axis_1">
    <g id="xtick_1">
     <g id="line2d_1">
      <path clip-path="url(#pd73c98e723)" d="M 105.3 521.01 
L 105.3 71.4528 
" style="fill:none;stroke:#ffffff;stroke-linecap:round;stroke-width:1.5;"/>
     </g>
     <g id="text_1">
      <!-- 0 -->
      <defs>
       <path d="M 4.15625 35.296875 
Q 4.15625 48 6.765625 55.734375 
Q 9.375 63.484375 14.515625 67.671875 
Q 19.671875 71.875 27.484375 71.875 
Q 33.25 71.875 37.59375 69.546875 
Q 41.9375 67.234375 44.765625 62.859375 
Q 47.609375 58.5 49.21875 52.21875 
Q 50.828125 45.953125 50.828125 35.296875 
Q 50.828125 22.703125 48.234375 14.96875 
Q 45.65625 7.234375 40.5 3 
Q 35.359375 -1.21875 27.484375 -1.21875 
Q 17.140625 -1.21875 11.234375 6.203125 
Q 4.15625 15.140625 4.15625 35.296875 
z
M 13.1875 35.296875 
Q 13.1875 17.671875 17.3125 11.828125 
Q 21.4375 6 27.484375 6 
Q 33.546875 6 37.671875 11.859375 
Q 41.796875 17.71875 41.796875 35.296875 
Q 41.796875 52.984375 37.671875 58.78125 
Q 33.546875 64.59375 27.390625 64.59375 
Q 21.34375 64.59375 17.71875 59.46875 
Q 13.1875 52.9375 13.1875 35.296875 
z
" id="ArialMT-48"/>
      </defs>
      <g style="fill:#262626;" transform="translate(98.41834 551.225586)scale(0.2475 -0.2475)">
       <use xlink:href="#ArialMT-48"/>
      </g>
     </g>
    </g>
    <g id="xtick_2">
     <g id="line2d_2">
      <path clip-path="url(#pd73c98e723)" d="M 235.872 521.01 
L 235.872 71.4528 
" style="fill:none;stroke:#ffffff;stroke-linecap:round;stroke-width:1.5;"/>
     </g>
     <g id="text_2">
      <!-- 1 -->
      <defs>
       <path d="M 37.25 0 
L 28.46875 0 
L 28.46875 56 
Q 25.296875 52.984375 20.140625 49.953125 
Q 14.984375 46.921875 10.890625 45.40625 
L 10.890625 53.90625 
Q 18.265625 57.375 23.78125 62.296875 
Q 29.296875 67.234375 31.59375 71.875 
L 37.25 71.875 
z
" id="ArialMT-49"/>
      </defs>
      <g style="fill:#262626;" transform="translate(228.99034 551.225586)scale(0.2475 -0.2475)">
       <use xlink:href="#ArialMT-49"/>
      </g>
     </g>
    </g>
    <g id="xtick_3">
     <g id="line2d_3">
      <path clip-path="url(#pd73c98e723)" d="M 366.444 521.01 
L 366.444 71.4528 
" style="fill:none;stroke:#ffffff;stroke-linecap:round;stroke-width:1.5;"/>
     </g>
     <g id="text_3">
      <!-- 2 -->
      <defs>
       <path d="M 50.34375 8.453125 
L 50.34375 0 
L 3.03125 0 
Q 2.9375 3.171875 4.046875 6.109375 
Q 5.859375 10.9375 9.828125 15.625 
Q 13.8125 20.3125 21.34375 26.46875 
Q 33.015625 36.03125 37.109375 41.625 
Q 41.21875 47.21875 41.21875 52.203125 
Q 41.21875 57.421875 37.46875 61 
Q 33.734375 64.59375 27.734375 64.59375 
Q 21.390625 64.59375 17.578125 60.78125 
Q 13.765625 56.984375 13.71875 50.25 
L 4.6875 51.171875 
Q 5.609375 61.28125 11.65625 66.578125 
Q 17.71875 71.875 27.9375 71.875 
Q 38.234375 71.875 44.234375 66.15625 
Q 50.25 60.453125 50.25 52 
Q 50.25 47.703125 48.484375 43.546875 
Q 46.734375 39.40625 42.65625 34.8125 
Q 38.578125 30.21875 29.109375 22.21875 
Q 21.1875 15.578125 18.9375 13.203125 
Q 16.703125 10.84375 15.234375 8.453125 
z
" id="ArialMT-50"/>
      </defs>
      <g style="fill:#262626;" transform="translate(359.56234 551.225586)scale(0.2475 -0.2475)">
       <use xlink:href="#ArialMT-50"/>
      </g>
     </g>
    </g>
    <g id="xtick_4">
     <g id="line2d_4">
      <path clip-path="url(#pd73c98e723)" d="M 497.016 521.01 
L 497.016 71.4528 
" style="fill:none;stroke:#ffffff;stroke-linecap:round;stroke-width:1.5;"/>
     </g>
     <g id="text_4">
      <!-- 3 -->
      <defs>
       <path d="M 4.203125 18.890625 
L 12.984375 20.0625 
Q 14.5 12.59375 18.140625 9.296875 
Q 21.78125 6 27 6 
Q 33.203125 6 37.46875 10.296875 
Q 41.75 14.59375 41.75 20.953125 
Q 41.75 27 37.796875 30.921875 
Q 33.84375 34.859375 27.734375 34.859375 
Q 25.25 34.859375 21.53125 33.890625 
L 22.515625 41.609375 
Q 23.390625 41.5 23.921875 41.5 
Q 29.546875 41.5 34.03125 44.421875 
Q 38.53125 47.359375 38.53125 53.46875 
Q 38.53125 58.296875 35.25 61.46875 
Q 31.984375 64.65625 26.8125 64.65625 
Q 21.6875 64.65625 18.265625 61.421875 
Q 14.84375 58.203125 13.875 51.765625 
L 5.078125 53.328125 
Q 6.6875 62.15625 12.390625 67.015625 
Q 18.109375 71.875 26.609375 71.875 
Q 32.46875 71.875 37.390625 69.359375 
Q 42.328125 66.84375 44.9375 62.5 
Q 47.5625 58.15625 47.5625 53.265625 
Q 47.5625 48.640625 45.0625 44.828125 
Q 42.578125 41.015625 37.703125 38.765625 
Q 44.046875 37.3125 47.5625 32.6875 
Q 51.078125 28.078125 51.078125 21.140625 
Q 51.078125 11.765625 44.234375 5.25 
Q 37.40625 -1.265625 26.953125 -1.265625 
Q 17.53125 -1.265625 11.296875 4.34375 
Q 5.078125 9.96875 4.203125 18.890625 
z
" id="ArialMT-51"/>
      </defs>
      <g style="fill:#262626;" transform="translate(490.13434 551.225586)scale(0.2475 -0.2475)">
       <use xlink:href="#ArialMT-51"/>
      </g>
     </g>
    </g>
    <g id="xtick_5">
     <g id="line2d_5">
      <path clip-path="url(#pd73c98e723)" d="M 627.588 521.01 
L 627.588 71.4528 
" style="fill:none;stroke:#ffffff;stroke-linecap:round;stroke-width:1.5;"/>
     </g>
     <g id="text_5">
      <!-- 4 -->
      <defs>
       <path d="M 32.328125 0 
L 32.328125 17.140625 
L 1.265625 17.140625 
L 1.265625 25.203125 
L 33.9375 71.578125 
L 41.109375 71.578125 
L 41.109375 25.203125 
L 50.78125 25.203125 
L 50.78125 17.140625 
L 41.109375 17.140625 
L 41.109375 0 
z
M 32.328125 25.203125 
L 32.328125 57.46875 
L 9.90625 25.203125 
z
" id="ArialMT-52"/>
      </defs>
      <g style="fill:#262626;" transform="translate(620.70634 551.225586)scale(0.2475 -0.2475)">
       <use xlink:href="#ArialMT-52"/>
      </g>
     </g>
    </g>
    <g id="xtick_6">
     <g id="line2d_6">
      <path clip-path="url(#pd73c98e723)" d="M 758.16 521.01 
L 758.16 71.4528 
" style="fill:none;stroke:#ffffff;stroke-linecap:round;stroke-width:1.5;"/>
     </g>
     <g id="text_6">
      <!-- 5 -->
      <defs>
       <path d="M 4.15625 18.75 
L 13.375 19.53125 
Q 14.40625 12.796875 18.140625 9.390625 
Q 21.875 6 27.15625 6 
Q 33.5 6 37.890625 10.78125 
Q 42.28125 15.578125 42.28125 23.484375 
Q 42.28125 31 38.0625 35.34375 
Q 33.84375 39.703125 27 39.703125 
Q 22.75 39.703125 19.328125 37.765625 
Q 15.921875 35.84375 13.96875 32.765625 
L 5.71875 33.84375 
L 12.640625 70.609375 
L 48.25 70.609375 
L 48.25 62.203125 
L 19.671875 62.203125 
L 15.828125 42.96875 
Q 22.265625 47.46875 29.34375 47.46875 
Q 38.71875 47.46875 45.15625 40.96875 
Q 51.609375 34.46875 51.609375 24.265625 
Q 51.609375 14.546875 45.953125 7.46875 
Q 39.0625 -1.21875 27.15625 -1.21875 
Q 17.390625 -1.21875 11.203125 4.25 
Q 5.03125 9.71875 4.15625 18.75 
z
" id="ArialMT-53"/>
      </defs>
      <g style="fill:#262626;" transform="translate(751.27834 551.225586)scale(0.2475 -0.2475)">
       <use xlink:href="#ArialMT-53"/>
      </g>
     </g>
    </g>
    <g id="text_7">
     <!-- t [s] -->
     <defs>
      <path d="M 25.78125 7.859375 
L 27.046875 0.09375 
Q 23.34375 -0.6875 20.40625 -0.6875 
Q 15.625 -0.6875 12.984375 0.828125 
Q 10.359375 2.34375 9.28125 4.8125 
Q 8.203125 7.28125 8.203125 15.1875 
L 8.203125 45.015625 
L 1.765625 45.015625 
L 1.765625 51.859375 
L 8.203125 51.859375 
L 8.203125 64.703125 
L 16.9375 69.96875 
L 16.9375 51.859375 
L 25.78125 51.859375 
L 25.78125 45.015625 
L 16.9375 45.015625 
L 16.9375 14.703125 
Q 16.9375 10.9375 17.40625 9.859375 
Q 17.875 8.796875 18.921875 8.15625 
Q 19.96875 7.515625 21.921875 7.515625 
Q 23.390625 7.515625 25.78125 7.859375 
z
" id="ArialMT-116"/>
      <path id="ArialMT-32"/>
      <path d="M 6.78125 -19.875 
L 6.78125 71.578125 
L 26.171875 71.578125 
L 26.171875 64.3125 
L 15.578125 64.3125 
L 15.578125 -12.59375 
L 26.171875 -12.59375 
L 26.171875 -19.875 
z
" id="ArialMT-91"/>
      <path d="M 3.078125 15.484375 
L 11.765625 16.84375 
Q 12.5 11.625 15.84375 8.84375 
Q 19.1875 6.0625 25.203125 6.0625 
Q 31.25 6.0625 34.171875 8.515625 
Q 37.109375 10.984375 37.109375 14.3125 
Q 37.109375 17.28125 34.515625 19 
Q 32.71875 20.171875 25.53125 21.96875 
Q 15.875 24.421875 12.140625 26.203125 
Q 8.40625 27.984375 6.46875 31.125 
Q 4.546875 34.28125 4.546875 38.09375 
Q 4.546875 41.546875 6.125 44.5 
Q 7.71875 47.46875 10.453125 49.421875 
Q 12.5 50.921875 16.03125 51.96875 
Q 19.578125 53.03125 23.640625 53.03125 
Q 29.734375 53.03125 34.34375 51.265625 
Q 38.96875 49.515625 41.15625 46.5 
Q 43.359375 43.5 44.1875 38.484375 
L 35.59375 37.3125 
Q 35.015625 41.3125 32.203125 43.546875 
Q 29.390625 45.796875 24.265625 45.796875 
Q 18.21875 45.796875 15.625 43.796875 
Q 13.03125 41.796875 13.03125 39.109375 
Q 13.03125 37.40625 14.109375 36.03125 
Q 15.1875 34.625 17.484375 33.6875 
Q 18.796875 33.203125 25.25 31.453125 
Q 34.578125 28.953125 38.25 27.359375 
Q 41.9375 25.78125 44.03125 22.75 
Q 46.140625 19.734375 46.140625 15.234375 
Q 46.140625 10.84375 43.578125 6.953125 
Q 41.015625 3.078125 36.171875 0.953125 
Q 31.34375 -1.171875 25.25 -1.171875 
Q 15.140625 -1.171875 9.84375 3.03125 
Q 4.546875 7.234375 3.078125 15.484375 
z
" id="ArialMT-115"/>
      <path d="M 21.296875 -19.875 
L 1.90625 -19.875 
L 1.90625 -12.59375 
L 12.5 -12.59375 
L 12.5 64.3125 
L 1.90625 64.3125 
L 1.90625 71.578125 
L 21.296875 71.578125 
z
" id="ArialMT-93"/>
     </defs>
     <g style="fill:#262626;" transform="translate(409.978125 579.470742)scale(0.27 -0.27)">
      <use xlink:href="#ArialMT-116"/>
      <use x="27.783203" xlink:href="#ArialMT-32"/>
      <use x="55.566406" xlink:href="#ArialMT-91"/>
      <use x="83.349609" xlink:href="#ArialMT-115"/>
      <use x="133.349609" xlink:href="#ArialMT-93"/>
     </g>
    </g>
   </g>
   <g id="matplotlib.axis_2">
    <g id="ytick_1">
     <g id="line2d_7">
      <path clip-path="url(#pd73c98e723)" d="M 105.3 499.356512 
L 758.16 499.356512 
" style="fill:none;stroke:#ffffff;stroke-linecap:round;stroke-width:1.5;"/>
     </g>
     <g id="text_8">
      <!-- −1.0 -->
      <defs>
       <path d="M 52.828125 31.203125 
L 5.5625 31.203125 
L 5.5625 39.40625 
L 52.828125 39.40625 
z
" id="ArialMT-8722"/>
       <path d="M 9.078125 0 
L 9.078125 10.015625 
L 19.09375 10.015625 
L 19.09375 0 
z
" id="ArialMT-46"/>
      </defs>
      <g style="fill:#262626;" transform="translate(43.941953 508.214305)scale(0.2475 -0.2475)">
       <use xlink:href="#ArialMT-8722"/>
       <use x="58.398438" xlink:href="#ArialMT-49"/>
       <use x="114.013672" xlink:href="#ArialMT-46"/>
       <use x="141.796875" xlink:href="#ArialMT-48"/>
      </g>
     </g>
    </g>
    <g id="ytick_2">
     <g id="line2d_8">
      <path clip-path="url(#pd73c98e723)" d="M 105.3 405.14474 
L 758.16 405.14474 
" style="fill:none;stroke:#ffffff;stroke-linecap:round;stroke-width:1.5;"/>
     </g>
     <g id="text_9">
      <!-- −0.5 -->
      <g style="fill:#262626;" transform="translate(43.941953 414.002533)scale(0.2475 -0.2475)">
       <use xlink:href="#ArialMT-8722"/>
       <use x="58.398438" xlink:href="#ArialMT-48"/>
       <use x="114.013672" xlink:href="#ArialMT-46"/>
       <use x="141.796875" xlink:href="#ArialMT-53"/>
      </g>
     </g>
    </g>
    <g id="ytick_3">
     <g id="line2d_9">
      <path clip-path="url(#pd73c98e723)" d="M 105.3 310.932968 
L 758.16 310.932968 
" style="fill:none;stroke:#ffffff;stroke-linecap:round;stroke-width:1.5;"/>
     </g>
     <g id="text_10">
      <!-- 0.0 -->
      <g style="fill:#262626;" transform="translate(58.3975 319.790761)scale(0.2475 -0.2475)">
       <use xlink:href="#ArialMT-48"/>
       <use x="55.615234" xlink:href="#ArialMT-46"/>
       <use x="83.398438" xlink:href="#ArialMT-48"/>
      </g>
     </g>
    </g>
    <g id="ytick_4">
     <g id="line2d_10">
      <path clip-path="url(#pd73c98e723)" d="M 105.3 216.721196 
L 758.16 216.721196 
" style="fill:none;stroke:#ffffff;stroke-linecap:round;stroke-width:1.5;"/>
     </g>
     <g id="text_11">
      <!-- 0.5 -->
      <g style="fill:#262626;" transform="translate(58.3975 225.578989)scale(0.2475 -0.2475)">
       <use xlink:href="#ArialMT-48"/>
       <use x="55.615234" xlink:href="#ArialMT-46"/>
       <use x="83.398438" xlink:href="#ArialMT-53"/>
      </g>
     </g>
    </g>
    <g id="ytick_5">
     <g id="line2d_11">
      <path clip-path="url(#pd73c98e723)" d="M 105.3 122.509424 
L 758.16 122.509424 
" style="fill:none;stroke:#ffffff;stroke-linecap:round;stroke-width:1.5;"/>
     </g>
     <g id="text_12">
      <!-- 1.0 -->
      <g style="fill:#262626;" transform="translate(58.3975 131.367217)scale(0.2475 -0.2475)">
       <use xlink:href="#ArialMT-49"/>
       <use x="55.615234" xlink:href="#ArialMT-46"/>
       <use x="83.398438" xlink:href="#ArialMT-48"/>
      </g>
     </g>
    </g>
    <g id="text_13">
     <!-- x1 [mm] -->
     <defs>
      <path d="M 0.734375 0 
L 19.671875 26.953125 
L 2.15625 51.859375 
L 13.140625 51.859375 
L 21.09375 39.703125 
Q 23.34375 36.234375 24.703125 33.890625 
Q 26.859375 37.109375 28.65625 39.59375 
L 37.40625 51.859375 
L 47.90625 51.859375 
L 29.984375 27.4375 
L 49.265625 0 
L 38.484375 0 
L 27.828125 16.109375 
L 25 20.453125 
L 11.375 0 
z
" id="ArialMT-120"/>
      <path d="M 6.59375 0 
L 6.59375 51.859375 
L 14.453125 51.859375 
L 14.453125 44.578125 
Q 16.890625 48.390625 20.9375 50.703125 
Q 25 53.03125 30.171875 53.03125 
Q 35.9375 53.03125 39.625 50.640625 
Q 43.3125 48.25 44.828125 43.953125 
Q 50.984375 53.03125 60.84375 53.03125 
Q 68.5625 53.03125 72.703125 48.75 
Q 76.859375 44.484375 76.859375 35.59375 
L 76.859375 0 
L 68.109375 0 
L 68.109375 32.671875 
Q 68.109375 37.9375 67.25 40.25 
Q 66.40625 42.578125 64.15625 43.984375 
Q 61.921875 45.40625 58.890625 45.40625 
Q 53.421875 45.40625 49.796875 41.765625 
Q 46.1875 38.140625 46.1875 30.125 
L 46.1875 0 
L 37.40625 0 
L 37.40625 33.6875 
Q 37.40625 39.546875 35.25 42.46875 
Q 33.109375 45.40625 28.21875 45.40625 
Q 24.515625 45.40625 21.359375 43.453125 
Q 18.21875 41.5 16.796875 37.734375 
Q 15.375 33.984375 15.375 26.90625 
L 15.375 0 
z
" id="ArialMT-109"/>
     </defs>
     <g style="fill:#262626;" transform="translate(34.575703 344.230228)rotate(-90)scale(0.27 -0.27)">
      <use xlink:href="#ArialMT-120"/>
      <use x="50" xlink:href="#ArialMT-49"/>
      <use x="105.615234" xlink:href="#ArialMT-32"/>
      <use x="133.398438" xlink:href="#ArialMT-91"/>
      <use x="161.181641" xlink:href="#ArialMT-109"/>
      <use x="244.482422" xlink:href="#ArialMT-109"/>
      <use x="327.783203" xlink:href="#ArialMT-93"/>
     </g>
    </g>
   </g>
   <g id="PolyCollection_1">
    <defs>
     <path d="M 105.3 -490.274402 
L 105.3 -197.855367 
L 106.60572 -200.744124 
L 107.91144 -201.571408 
L 109.21716 -199.027714 
L 110.52288 -200.476908 
L 111.8286 -198.813892 
L 113.13432 -200.203644 
L 114.44004 -195.792611 
L 115.74576 -202.1961 
L 117.051481 -196.900132 
L 118.357201 -194.047656 
L 119.662921 -192.48988 
L 120.968641 -195.955609 
L 122.274361 -197.075429 
L 123.580081 -190.705293 
L 124.885801 -196.180481 
L 126.191521 -194.161824 
L 127.497241 -199.114873 
L 128.802961 -196.410191 
L 130.108681 -192.742267 
L 131.414401 -195.564562 
L 132.720121 -193.070461 
L 134.025841 -200.834532 
L 135.331561 -188.829246 
L 136.637281 -197.667269 
L 137.943002 -200.335284 
L 139.248722 -191.973456 
L 140.554442 -188.362957 
L 141.860162 -197.518117 
L 143.165882 -192.750431 
L 144.471602 -195.654666 
L 145.777322 -193.174494 
L 147.083042 -195.823577 
L 148.388762 -193.307885 
L 149.694482 -192.197135 
L 151.000202 -201.793814 
L 152.305922 -199.85799 
L 153.611642 -201.218483 
L 154.917362 -194.694974 
L 156.223082 -197.569416 
L 157.528802 -195.552332 
L 158.834523 -196.28059 
L 160.140243 -193.5571 
L 161.445963 -188.438179 
L 162.751683 -186.251898 
L 164.057403 -194.688175 
L 165.363123 -191.200909 
L 166.668843 -192.071987 
L 167.974563 -186.696453 
L 169.280283 -195.033975 
L 170.586003 -189.407021 
L 171.891723 -186.46321 
L 173.197443 -189.413703 
L 174.503163 -188.079391 
L 175.808883 -188.562618 
L 177.114603 -189.400941 
L 178.420323 -190.552616 
L 179.726044 -194.469213 
L 181.031764 -197.102388 
L 182.337484 -190.323577 
L 183.643204 -186.859386 
L 184.948924 -190.647039 
L 186.254644 -187.926593 
L 187.560364 -190.608892 
L 188.866084 -188.207778 
L 190.171804 -193.244659 
L 191.477524 -184.210197 
L 192.783244 -190.838046 
L 194.088964 -191.175082 
L 195.394684 -187.478575 
L 196.700404 -184.988795 
L 198.006124 -178.909434 
L 199.311844 -182.186574 
L 200.617565 -185.081256 
L 201.923285 -193.330145 
L 203.229005 -191.037316 
L 204.534725 -181.325621 
L 205.840445 -181.718912 
L 207.146165 -181.902689 
L 208.451885 -184.735573 
L 209.757605 -182.551142 
L 211.063325 -182.217272 
L 212.369045 -186.489485 
L 213.674765 -184.15364 
L 214.980485 -185.294094 
L 216.286205 -186.263803 
L 217.591925 -180.540097 
L 218.897645 -179.908694 
L 220.203365 -177.641242 
L 221.509086 -173.715168 
L 222.814806 -180.905695 
L 224.120526 -180.551378 
L 225.426246 -182.927568 
L 226.731966 -182.966237 
L 228.037686 -172.809393 
L 229.343406 -179.497292 
L 230.649126 -179.992867 
L 231.954846 -176.326139 
L 233.260566 -176.332747 
L 234.566286 -177.095823 
L 235.872006 -175.397411 
L 237.177726 -178.986206 
L 238.483446 -176.530869 
L 239.789166 -179.449639 
L 241.094886 -182.505262 
L 242.400607 -176.015684 
L 243.706327 -178.17727 
L 245.012047 -176.56953 
L 246.317767 -171.656531 
L 247.623487 -175.038798 
L 248.929207 -174.844341 
L 250.234927 -175.65347 
L 251.540647 -173.396178 
L 252.846367 -172.079473 
L 254.152087 -174.310603 
L 255.457807 -172.032956 
L 256.763527 -166.682202 
L 258.069247 -168.949835 
L 259.374967 -168.211619 
L 260.680687 -169.683856 
L 261.986407 -166.478335 
L 263.292128 -166.164696 
L 264.597848 -170.240213 
L 265.903568 -174.276494 
L 267.209288 -170.972459 
L 268.515008 -170.665962 
L 269.820728 -169.167155 
L 271.126448 -166.807472 
L 272.432168 -170.265405 
L 273.737888 -168.976506 
L 275.043608 -171.266385 
L 276.349328 -171.433838 
L 277.655048 -164.481992 
L 278.960768 -169.428021 
L 280.266488 -157.659096 
L 281.572208 -168.075065 
L 282.877928 -163.869574 
L 284.183648 -163.239038 
L 285.489369 -164.364177 
L 286.795089 -154.420572 
L 288.100809 -165.929034 
L 289.406529 -159.792662 
L 290.712249 -166.496303 
L 292.017969 -162.048688 
L 293.323689 -166.796263 
L 294.629409 -168.439174 
L 295.935129 -166.251238 
L 297.240849 -169.439077 
L 298.546569 -165.655358 
L 299.852289 -163.978912 
L 301.158009 -162.132119 
L 302.463729 -157.185354 
L 303.769449 -160.123525 
L 305.075169 -167.394053 
L 306.38089 -160.299314 
L 307.68661 -155.189922 
L 308.99233 -161.205644 
L 310.29805 -159.924356 
L 311.60377 -162.632076 
L 312.90949 -157.117808 
L 314.21521 -158.042581 
L 315.52093 -168.422993 
L 316.82665 -156.80342 
L 318.13237 -161.786243 
L 319.43809 -156.874092 
L 320.74381 -155.042117 
L 322.04953 -153.324226 
L 323.35525 -159.827271 
L 324.66097 -158.716553 
L 325.96669 -145.987885 
L 327.272411 -147.424258 
L 328.578131 -146.874512 
L 329.883851 -157.749481 
L 331.189571 -156.943189 
L 332.495291 -156.765778 
L 333.801011 -157.191725 
L 335.106731 -157.165262 
L 336.412451 -158.837998 
L 337.718171 -157.53379 
L 339.023891 -154.130263 
L 340.329611 -155.336248 
L 341.635331 -154.913063 
L 342.941051 -154.93594 
L 344.246771 -150.877385 
L 345.552491 -146.190096 
L 346.858211 -149.738789 
L 348.163932 -150.904728 
L 349.469652 -154.12237 
L 350.775372 -148.312922 
L 352.081092 -151.280337 
L 353.386812 -149.503874 
L 354.692532 -147.154492 
L 355.998252 -148.432036 
L 357.303972 -151.340312 
L 358.609692 -151.278577 
L 359.915412 -142.690701 
L 361.221132 -141.499336 
L 362.526852 -145.746072 
L 363.832572 -139.72862 
L 365.138292 -136.60683 
L 366.444012 -132.719717 
L 367.749732 -142.841359 
L 369.055453 -137.235391 
L 370.361173 -136.462287 
L 371.666893 -138.782899 
L 372.972613 -146.384146 
L 374.278333 -129.211507 
L 375.584053 -136.637219 
L 376.889773 -141.069958 
L 378.195493 -148.111735 
L 379.501213 -146.060782 
L 380.806933 -134.989117 
L 382.112653 -139.933987 
L 383.418373 -133.155861 
L 384.724093 -134.592099 
L 386.029813 -141.027533 
L 387.335533 -132.196578 
L 388.641253 -131.292252 
L 389.946974 -135.025384 
L 391.252694 -135.207295 
L 392.558414 -137.955272 
L 393.864134 -141.292118 
L 395.169854 -144.824245 
L 396.475574 -134.046317 
L 397.781294 -135.662631 
L 399.087014 -136.500153 
L 400.392734 -133.817353 
L 401.698454 -137.32256 
L 403.004174 -129.702404 
L 404.309894 -131.575687 
L 405.615614 -136.659243 
L 406.921334 -133.609767 
L 408.227054 -134.981131 
L 409.532774 -132.668237 
L 410.838495 -128.717423 
L 412.144215 -127.197464 
L 413.449935 -132.633881 
L 414.755655 -129.597963 
L 416.061375 -129.051743 
L 417.367095 -131.515043 
L 418.672815 -128.870072 
L 419.978535 -134.773262 
L 421.284255 -128.035802 
L 422.589975 -137.890349 
L 423.895695 -128.579475 
L 425.201415 -136.063382 
L 426.507135 -128.973236 
L 427.812855 -131.565815 
L 429.118575 -128.006785 
L 430.424295 -131.275147 
L 431.730016 -129.283667 
L 433.035736 -126.742204 
L 434.341456 -133.627878 
L 435.647176 -129.605895 
L 436.952896 -133.578733 
L 438.258616 -126.277032 
L 439.564336 -129.481841 
L 440.870056 -128.556577 
L 442.175776 -120.693725 
L 443.481496 -125.815712 
L 444.787216 -132.521986 
L 446.092936 -130.86456 
L 447.398656 -130.53284 
L 448.704376 -133.040472 
L 450.010096 -134.197942 
L 451.315816 -126.47144 
L 452.621536 -124.929298 
L 453.927257 -131.638007 
L 455.232977 -126.946145 
L 456.538697 -122.73781 
L 457.844417 -129.043604 
L 459.150137 -129.479374 
L 460.455857 -122.764126 
L 461.761577 -127.5039 
L 463.067297 -125.440235 
L 464.373017 -136.251922 
L 465.678737 -133.437438 
L 466.984457 -130.150813 
L 468.290177 -127.798379 
L 469.595897 -133.59282 
L 470.901617 -127.101634 
L 472.207337 -135.290656 
L 473.513057 -131.453487 
L 474.818778 -121.957553 
L 476.124498 -131.178379 
L 477.430218 -121.151006 
L 478.735938 -129.757255 
L 480.041658 -135.511949 
L 481.347378 -125.915091 
L 482.653098 -135.632653 
L 483.958818 -133.759438 
L 485.264538 -125.742708 
L 486.570258 -129.986109 
L 487.875978 -128.997521 
L 489.181698 -133.792295 
L 490.487418 -133.638341 
L 491.793138 -130.270951 
L 493.098858 -134.143776 
L 494.404578 -127.166634 
L 495.710299 -132.089863 
L 497.016019 -136.672751 
L 498.321739 -130.740259 
L 499.627459 -131.008256 
L 500.933179 -131.726167 
L 502.238899 -131.283615 
L 503.544619 -127.61922 
L 504.850339 -129.952994 
L 506.156059 -136.445232 
L 507.461779 -126.578087 
L 508.767499 -130.678624 
L 510.073219 -132.450927 
L 511.378939 -126.781845 
L 512.684659 -132.139889 
L 513.990379 -137.181721 
L 515.296099 -134.137912 
L 516.60182 -136.548785 
L 517.90754 -136.393889 
L 519.21326 -130.552272 
L 520.51898 -129.219352 
L 521.8247 -129.312294 
L 523.13042 -125.753649 
L 524.43614 -129.74108 
L 525.74186 -133.302969 
L 527.04758 -132.262223 
L 528.3533 -131.376971 
L 529.65902 -141.035595 
L 530.96474 -138.429997 
L 532.27046 -140.029859 
L 533.57618 -141.017299 
L 534.8819 -125.600488 
L 536.18762 -128.91 
L 537.493341 -129.818944 
L 538.799061 -138.156388 
L 540.104781 -131.834044 
L 541.410501 -132.179929 
L 542.716221 -133.864598 
L 544.021941 -132.614215 
L 545.327661 -137.981008 
L 546.633381 -137.781681 
L 547.939101 -132.112844 
L 549.244821 -144.136971 
L 550.550541 -134.999078 
L 551.856261 -132.377487 
L 553.161981 -138.903815 
L 554.467701 -126.524424 
L 555.773421 -140.062888 
L 557.079141 -136.654311 
L 558.384862 -137.93202 
L 559.690582 -133.711193 
L 560.996302 -134.294485 
L 562.302022 -127.891272 
L 563.607742 -132.214358 
L 564.913462 -133.036118 
L 566.219182 -131.411228 
L 567.524902 -137.602382 
L 568.830622 -126.760801 
L 570.136342 -136.682328 
L 571.442062 -139.337712 
L 572.747782 -131.446709 
L 574.053502 -125.982313 
L 575.359222 -130.710066 
L 576.664942 -123.709125 
L 577.970662 -129.220395 
L 579.276383 -134.405998 
L 580.582103 -133.578284 
L 581.887823 -135.523055 
L 583.193543 -134.699391 
L 584.499263 -128.072372 
L 585.804983 -129.85188 
L 587.110703 -133.708258 
L 588.416423 -136.185409 
L 589.722143 -131.141423 
L 591.027863 -129.346395 
L 592.333583 -128.703564 
L 593.639303 -126.329427 
L 594.945023 -128.729012 
L 596.250743 -127.615381 
L 597.556463 -126.563333 
L 598.862183 -133.096557 
L 600.167904 -135.041473 
L 601.473624 -120.193669 
L 602.779344 -135.895779 
L 604.085064 -132.721108 
L 605.390784 -135.68727 
L 606.696504 -125.128343 
L 608.002224 -129.400534 
L 609.307944 -122.507905 
L 610.613664 -130.221102 
L 611.919384 -124.691015 
L 613.225104 -128.21443 
L 614.530824 -123.168391 
L 615.836544 -129.939592 
L 617.142264 -131.402625 
L 618.447984 -118.370221 
L 619.753704 -125.401083 
L 621.059424 -128.83177 
L 622.365145 -113.525804 
L 623.670865 -132.265739 
L 624.976585 -119.762165 
L 626.282305 -112.798455 
L 627.588025 -119.934167 
L 628.893745 -118.490205 
L 630.199465 -124.14013 
L 631.505185 -116.496514 
L 632.810905 -119.946401 
L 634.116625 -119.106958 
L 635.422345 -120.048492 
L 636.728065 -132.039619 
L 638.033785 -113.338898 
L 639.339505 -120.915973 
L 640.645225 -116.368862 
L 641.950945 -114.586902 
L 643.256666 -124.791424 
L 644.562386 -128.400087 
L 645.868106 -103.945775 
L 647.173826 -127.326641 
L 648.479546 -121.393274 
L 649.785266 -114.886254 
L 651.090986 -114.405446 
L 652.396706 -109.255089 
L 653.702426 -117.829997 
L 655.008146 -119.281291 
L 656.313866 -120.61931 
L 657.619586 -118.775195 
L 658.925306 -112.540228 
L 660.231026 -119.456287 
L 661.536746 -113.556074 
L 662.842466 -118.590849 
L 664.148187 -111.373132 
L 665.453907 -117.095207 
L 666.759627 -119.183337 
L 668.065347 -116.244947 
L 669.371067 -117.584881 
L 670.676787 -112.756513 
L 671.982507 -113.4522 
L 673.288227 -116.198987 
L 674.593947 -112.115324 
L 675.899667 -107.369725 
L 677.205387 -115.352444 
L 678.511107 -113.477812 
L 679.816827 -115.975979 
L 681.122547 -107.665744 
L 682.428267 -122.942408 
L 683.733987 -117.333829 
L 685.039708 -116.278006 
L 686.345428 -103.764683 
L 687.651148 -115.236508 
L 688.956868 -102.452153 
L 690.262588 -116.820426 
L 691.568308 -107.255053 
L 692.874028 -107.020285 
L 694.179748 -112.994053 
L 695.485468 -117.454275 
L 696.791188 -106.252001 
L 698.096908 -104.292179 
L 699.402628 -110.872563 
L 700.708348 -111.816414 
L 702.014068 -106.449652 
L 703.319788 -105.318629 
L 704.625508 -102.488814 
L 705.931229 -108.564207 
L 707.236949 -110.085172 
L 708.542669 -105.412973 
L 709.848389 -108.399318 
L 711.154109 -102.938956 
L 712.459829 -101.56668 
L 713.765549 -109.427607 
L 715.071269 -110.868944 
L 716.376989 -109.604066 
L 717.682709 -107.772201 
L 718.988429 -105.460283 
L 720.294149 -109.88433 
L 721.599869 -109.691527 
L 722.905589 -103.899821 
L 724.211309 -94.864418 
L 725.517029 -109.179854 
L 726.82275 -106.455586 
L 728.12847 -106.100723 
L 729.43419 -104.175614 
L 730.73991 -101.783482 
L 732.04563 -108.911747 
L 733.35135 -113.86704 
L 734.65707 -104.731852 
L 735.96279 -108.074547 
L 737.26851 -100.35357 
L 738.57423 -106.952753 
L 739.87995 -100.454454 
L 741.18567 -98.186905 
L 742.49139 -95.19673 
L 743.79711 -97.594381 
L 745.10283 -106.748701 
L 746.40855 -109.170834 
L 747.714271 -106.670039 
L 749.019991 -97.116506 
L 750.325711 -109.192025 
L 751.631431 -110.218708 
L 752.937151 -97.611342 
L 754.242871 -99.585042 
L 755.548591 -100.3239 
L 756.854311 -102.662384 
L 756.854311 -338.54457 
L 756.854311 -338.54457 
L 755.548591 -336.122849 
L 754.242871 -331.751145 
L 752.937151 -332.070738 
L 751.631431 -334.459977 
L 750.325711 -336.95943 
L 749.019991 -323.004627 
L 747.714271 -337.685028 
L 746.40855 -340.525572 
L 745.10283 -330.823197 
L 743.79711 -341.931698 
L 742.49139 -333.218527 
L 741.18567 -330.719889 
L 739.87995 -337.651281 
L 738.57423 -330.355981 
L 737.26851 -328.265352 
L 735.96279 -326.534664 
L 734.65707 -330.060596 
L 733.35135 -338.918524 
L 732.04563 -330.404959 
L 730.73991 -325.464081 
L 729.43419 -325.922 
L 728.12847 -330.08021 
L 726.82275 -335.675604 
L 725.517029 -334.647901 
L 724.211309 -328.392983 
L 722.905589 -331.634063 
L 721.599869 -327.363241 
L 720.294149 -331.457456 
L 718.988429 -322.718314 
L 717.682709 -335.765805 
L 716.376989 -337.681255 
L 715.071269 -330.911459 
L 713.765549 -329.856075 
L 712.459829 -332.80136 
L 711.154109 -329.34413 
L 709.848389 -338.417441 
L 708.542669 -327.146387 
L 707.236949 -334.643699 
L 705.931229 -327.158091 
L 704.625508 -325.540673 
L 703.319788 -332.624881 
L 702.014068 -336.127141 
L 700.708348 -336.150822 
L 699.402628 -328.365061 
L 698.096908 -338.43171 
L 696.791188 -340.438181 
L 695.485468 -340.622115 
L 694.179748 -339.3595 
L 692.874028 -341.483224 
L 691.568308 -330.444248 
L 690.262588 -334.180843 
L 688.956868 -323.903095 
L 687.651148 -347.151767 
L 686.345428 -334.677491 
L 685.039708 -337.989969 
L 683.733987 -344.926076 
L 682.428267 -331.143845 
L 681.122547 -338.380229 
L 679.816827 -345.045919 
L 678.511107 -343.334194 
L 677.205387 -337.008383 
L 675.899667 -340.428468 
L 674.593947 -344.919634 
L 673.288227 -333.205977 
L 671.982507 -338.148048 
L 670.676787 -337.95247 
L 669.371067 -343.615656 
L 668.065347 -340.115438 
L 666.759627 -341.490136 
L 665.453907 -344.495441 
L 664.148187 -344.946442 
L 662.842466 -341.553298 
L 661.536746 -350.346198 
L 660.231026 -337.808431 
L 658.925306 -337.825934 
L 657.619586 -344.180321 
L 656.313866 -348.163436 
L 655.008146 -345.561503 
L 653.702426 -338.361527 
L 652.396706 -346.389656 
L 651.090986 -350.244029 
L 649.785266 -351.859298 
L 648.479546 -344.442796 
L 647.173826 -348.744021 
L 645.868106 -339.884252 
L 644.562386 -355.146007 
L 643.256666 -344.060265 
L 641.950945 -341.675999 
L 640.645225 -352.029852 
L 639.339505 -338.476837 
L 638.033785 -346.60781 
L 636.728065 -342.164336 
L 635.422345 -359.506833 
L 634.116625 -347.564665 
L 632.810905 -343.005764 
L 631.505185 -342.084586 
L 630.199465 -351.350564 
L 628.893745 -347.502748 
L 627.588025 -348.153185 
L 626.282305 -352.170836 
L 624.976585 -352.097204 
L 623.670865 -353.900217 
L 622.365145 -355.870905 
L 621.059424 -347.92834 
L 619.753704 -350.758767 
L 618.447984 -354.820018 
L 617.142264 -360.48446 
L 615.836544 -356.621975 
L 614.530824 -353.122625 
L 613.225104 -364.454668 
L 611.919384 -351.347493 
L 610.613664 -353.482898 
L 609.307944 -353.392864 
L 608.002224 -352.815155 
L 606.696504 -361.352686 
L 605.390784 -364.76298 
L 604.085064 -358.992195 
L 602.779344 -352.08876 
L 601.473624 -360.317422 
L 600.167904 -355.80427 
L 598.862183 -360.544139 
L 597.556463 -353.261728 
L 596.250743 -359.977263 
L 594.945023 -352.976649 
L 593.639303 -359.63712 
L 592.333583 -352.71214 
L 591.027863 -356.342212 
L 589.722143 -369.068474 
L 588.416423 -359.256084 
L 587.110703 -360.190515 
L 585.804983 -373.613404 
L 584.499263 -358.294288 
L 583.193543 -354.940545 
L 581.887823 -370.957647 
L 580.582103 -360.658427 
L 579.276383 -358.941971 
L 577.970662 -366.654802 
L 576.664942 -360.223151 
L 575.359222 -365.094937 
L 574.053502 -356.421022 
L 572.747782 -362.976672 
L 571.442062 -355.204479 
L 570.136342 -364.981331 
L 568.830622 -359.392785 
L 567.524902 -371.010201 
L 566.219182 -359.434764 
L 564.913462 -364.792543 
L 563.607742 -366.283223 
L 562.302022 -368.765953 
L 560.996302 -367.542898 
L 559.690582 -359.240535 
L 558.384862 -375.153744 
L 557.079141 -369.532872 
L 555.773421 -366.964677 
L 554.467701 -366.391462 
L 553.161981 -361.845313 
L 551.856261 -369.816216 
L 550.550541 -371.974836 
L 549.244821 -368.16054 
L 547.939101 -356.507912 
L 546.633381 -375.255532 
L 545.327661 -373.161338 
L 544.021941 -368.363143 
L 542.716221 -364.427036 
L 541.410501 -367.90774 
L 540.104781 -365.304428 
L 538.799061 -367.521713 
L 537.493341 -366.148455 
L 536.18762 -364.359843 
L 534.8819 -369.489572 
L 533.57618 -361.56627 
L 532.27046 -369.434824 
L 530.96474 -370.198554 
L 529.65902 -368.670821 
L 528.3533 -369.261152 
L 527.04758 -368.691573 
L 525.74186 -366.666954 
L 524.43614 -363.176623 
L 523.13042 -368.383189 
L 521.8247 -381.962085 
L 520.51898 -363.749553 
L 519.21326 -378.839263 
L 517.90754 -374.084977 
L 516.60182 -367.28011 
L 515.296099 -363.428532 
L 513.990379 -368.012122 
L 512.684659 -374.242227 
L 511.378939 -367.733496 
L 510.073219 -365.753535 
L 508.767499 -366.578916 
L 507.461779 -367.631499 
L 506.156059 -364.169483 
L 504.850339 -369.651052 
L 503.544619 -376.352622 
L 502.238899 -368.658536 
L 500.933179 -366.424445 
L 499.627459 -378.878187 
L 498.321739 -366.677615 
L 497.016019 -365.617168 
L 495.710299 -378.572357 
L 494.404578 -367.085873 
L 493.098858 -371.478637 
L 491.793138 -367.053071 
L 490.487418 -368.324711 
L 489.181698 -375.074116 
L 487.875978 -370.544759 
L 486.570258 -368.653825 
L 485.264538 -368.698933 
L 483.958818 -369.80726 
L 482.653098 -367.355256 
L 481.347378 -359.503699 
L 480.041658 -359.010686 
L 478.735938 -360.2445 
L 477.430218 -368.119681 
L 476.124498 -367.803363 
L 474.818778 -364.100499 
L 473.513057 -365.765493 
L 472.207337 -360.331793 
L 470.901617 -373.721181 
L 469.595897 -362.002673 
L 468.290177 -370.03548 
L 466.984457 -357.529872 
L 465.678737 -373.191339 
L 464.373017 -366.265595 
L 463.067297 -368.041973 
L 461.761577 -356.319052 
L 460.455857 -363.2772 
L 459.150137 -368.49929 
L 457.844417 -367.722952 
L 456.538697 -370.206201 
L 455.232977 -361.435971 
L 453.927257 -374.430458 
L 452.621536 -359.187614 
L 451.315816 -369.199467 
L 450.010096 -364.670669 
L 448.704376 -360.080356 
L 447.398656 -373.131047 
L 446.092936 -360.441393 
L 444.787216 -363.674664 
L 443.481496 -373.57773 
L 442.175776 -366.098749 
L 440.870056 -368.310357 
L 439.564336 -366.360355 
L 438.258616 -365.291499 
L 436.952896 -369.41593 
L 435.647176 -361.139936 
L 434.341456 -371.910804 
L 433.035736 -365.985393 
L 431.730016 -367.891637 
L 430.424295 -353.838952 
L 429.118575 -365.92372 
L 427.812855 -359.870023 
L 426.507135 -359.491706 
L 425.201415 -376.099975 
L 423.895695 -371.136997 
L 422.589975 -371.063804 
L 421.284255 -358.821189 
L 419.978535 -359.954522 
L 418.672815 -362.328763 
L 417.367095 -360.438183 
L 416.061375 -363.525554 
L 414.755655 -356.554742 
L 413.449935 -364.793962 
L 412.144215 -369.053504 
L 410.838495 -360.494975 
L 409.532774 -365.051117 
L 408.227054 -363.894799 
L 406.921334 -362.27652 
L 405.615614 -364.328264 
L 404.309894 -371.939901 
L 403.004174 -362.794544 
L 401.698454 -373.617507 
L 400.392734 -366.382821 
L 399.087014 -366.551825 
L 397.781294 -366.078835 
L 396.475574 -365.973424 
L 395.169854 -367.836703 
L 393.864134 -359.180389 
L 392.558414 -371.567287 
L 391.252694 -363.271537 
L 389.946974 -355.974993 
L 388.641253 -365.762119 
L 387.335533 -371.855191 
L 386.029813 -363.843587 
L 384.724093 -362.151163 
L 383.418373 -373.958483 
L 382.112653 -372.685814 
L 380.806933 -372.48434 
L 379.501213 -363.240609 
L 378.195493 -380.705512 
L 376.889773 -367.603685 
L 375.584053 -376.543121 
L 374.278333 -375.113586 
L 372.972613 -373.633424 
L 371.666893 -376.4175 
L 370.361173 -364.295035 
L 369.055453 -375.71926 
L 367.749732 -368.344654 
L 366.444012 -377.219692 
L 365.138292 -375.859934 
L 363.832572 -366.507153 
L 362.526852 -378.567766 
L 361.221132 -370.205157 
L 359.915412 -367.479216 
L 358.609692 -369.555375 
L 357.303972 -376.845852 
L 355.998252 -371.437979 
L 354.692532 -369.470009 
L 353.386812 -374.102306 
L 352.081092 -373.576642 
L 350.775372 -369.30545 
L 349.469652 -378.157094 
L 348.163932 -384.124757 
L 346.858211 -381.750331 
L 345.552491 -368.947362 
L 344.246771 -375.79907 
L 342.941051 -379.521029 
L 341.635331 -374.132939 
L 340.329611 -387.621313 
L 339.023891 -374.550641 
L 337.718171 -382.102623 
L 336.412451 -378.190327 
L 335.106731 -377.965907 
L 333.801011 -387.719479 
L 332.495291 -384.649156 
L 331.189571 -379.034118 
L 329.883851 -379.560018 
L 328.578131 -387.617609 
L 327.272411 -382.445781 
L 325.96669 -384.32005 
L 324.66097 -385.222695 
L 323.35525 -376.899505 
L 322.04953 -393.755272 
L 320.74381 -381.195881 
L 319.43809 -394.572243 
L 318.13237 -386.282692 
L 316.82665 -393.033476 
L 315.52093 -390.269921 
L 314.21521 -381.103814 
L 312.90949 -404.408621 
L 311.60377 -399.778364 
L 310.29805 -403.538931 
L 308.99233 -399.607938 
L 307.68661 -399.879182 
L 306.38089 -396.343074 
L 305.075169 -406.004845 
L 303.769449 -408.93248 
L 302.463729 -398.926375 
L 301.158009 -401.153574 
L 299.852289 -403.146588 
L 298.546569 -412.405089 
L 297.240849 -410.059466 
L 295.935129 -397.355694 
L 294.629409 -398.941132 
L 293.323689 -405.214873 
L 292.017969 -410.165567 
L 290.712249 -400.976207 
L 289.406529 -414.463808 
L 288.100809 -413.29422 
L 286.795089 -409.509538 
L 285.489369 -409.504368 
L 284.183648 -426.784796 
L 282.877928 -405.30573 
L 281.572208 -397.415357 
L 280.266488 -412.71421 
L 278.960768 -410.211439 
L 277.655048 -408.917641 
L 276.349328 -407.352633 
L 275.043608 -408.723529 
L 273.737888 -418.446994 
L 272.432168 -415.262123 
L 271.126448 -425.194759 
L 269.820728 -409.903621 
L 268.515008 -421.916533 
L 267.209288 -420.203525 
L 265.903568 -427.494291 
L 264.597848 -423.888892 
L 263.292128 -415.637437 
L 261.986407 -423.342209 
L 260.680687 -422.752205 
L 259.374967 -444.094248 
L 258.069247 -417.324266 
L 256.763527 -428.723215 
L 255.457807 -423.776096 
L 254.152087 -431.960229 
L 252.846367 -421.222191 
L 251.540647 -416.949045 
L 250.234927 -431.527075 
L 248.929207 -431.193822 
L 247.623487 -428.619209 
L 246.317767 -422.616449 
L 245.012047 -439.99822 
L 243.706327 -438.246832 
L 242.400607 -422.244231 
L 241.094886 -427.446677 
L 239.789166 -437.939049 
L 238.483446 -438.284385 
L 237.177726 -427.234363 
L 235.872006 -424.782826 
L 234.566286 -429.52899 
L 233.260566 -435.602752 
L 231.954846 -438.371201 
L 230.649126 -426.52607 
L 229.343406 -425.514298 
L 228.037686 -443.588777 
L 226.731966 -434.95347 
L 225.426246 -452.509228 
L 224.120526 -443.190413 
L 222.814806 -432.938017 
L 221.509086 -444.468349 
L 220.203365 -441.232984 
L 218.897645 -444.035757 
L 217.591925 -434.889187 
L 216.286205 -446.334083 
L 214.980485 -449.587505 
L 213.674765 -459.479462 
L 212.369045 -441.643904 
L 211.063325 -447.565702 
L 209.757605 -433.422522 
L 208.451885 -445.509254 
L 207.146165 -441.037507 
L 205.840445 -445.647068 
L 204.534725 -445.672684 
L 203.229005 -452.185798 
L 201.923285 -455.594762 
L 200.617565 -445.906699 
L 199.311844 -443.139824 
L 198.006124 -451.971387 
L 196.700404 -454.244063 
L 195.394684 -440.750634 
L 194.088964 -460.020377 
L 192.783244 -459.594833 
L 191.477524 -453.815018 
L 190.171804 -463.321509 
L 188.866084 -456.436484 
L 187.560364 -462.529684 
L 186.254644 -461.02652 
L 184.948924 -457.284474 
L 183.643204 -460.482738 
L 182.337484 -455.359898 
L 181.031764 -470.351923 
L 179.726044 -455.107866 
L 178.420323 -467.047476 
L 177.114603 -464.088407 
L 175.808883 -455.513274 
L 174.503163 -459.068781 
L 173.197443 -459.717985 
L 171.891723 -460.45091 
L 170.586003 -443.77932 
L 169.280283 -466.74776 
L 167.974563 -461.523621 
L 166.668843 -476.10003 
L 165.363123 -463.955067 
L 164.057403 -450.700964 
L 162.751683 -472.297566 
L 161.445963 -461.27187 
L 160.140243 -467.604979 
L 158.834523 -470.027705 
L 157.528802 -476.840146 
L 156.223082 -469.222322 
L 154.917362 -468.241441 
L 153.611642 -475.995591 
L 152.305922 -480.130788 
L 151.000202 -470.359144 
L 149.694482 -481.362447 
L 148.388762 -476.546049 
L 147.083042 -484.521398 
L 145.777322 -479.530726 
L 144.471602 -485.558912 
L 143.165882 -482.425765 
L 141.860162 -475.332618 
L 140.554442 -476.946673 
L 139.248722 -478.612933 
L 137.943002 -464.449293 
L 136.637281 -487.011375 
L 135.331561 -484.250604 
L 134.025841 -503.552782 
L 132.720121 -469.699681 
L 131.414401 -489.746457 
L 130.108681 -481.265402 
L 128.802961 -482.189569 
L 127.497241 -466.250075 
L 126.191521 -481.585375 
L 124.885801 -486.192831 
L 123.580081 -488.226607 
L 122.274361 -482.908078 
L 120.968641 -476.524526 
L 119.662921 -490.478381 
L 118.357201 -479.586331 
L 117.051481 -487.332535 
L 115.74576 -489.948096 
L 114.44004 -473.262117 
L 113.13432 -489.522603 
L 111.8286 -482.578716 
L 110.52288 -476.186939 
L 109.21716 -480.508415 
L 107.91144 -470.918854 
L 106.60572 -481.457441 
L 105.3 -490.274402 
z
" id="m1426d40172" style="stroke:#ff0000;stroke-opacity:0.2;stroke-width:1.5;"/>
    </defs>
    <g clip-path="url(#pd73c98e723)">
     <use style="fill:#ff0000;fill-opacity:0.2;stroke:#ff0000;stroke-opacity:0.2;stroke-width:1.5;" x="0" xlink:href="#m1426d40172" y="595.44"/>
    </g>
   </g>
   <g id="line2d_12">
    <path clip-path="url(#pd73c98e723)" d="M 105.3 269.369269 
L 111.8286 269.632881 
L 119.662921 270.165254 
L 126.191521 270.903487 
L 131.414401 271.669199 
L 137.943002 272.9645 
L 144.471602 274.644687 
L 152.305922 276.890003 
L 178.420323 284.685175 
L 187.560364 287.349555 
L 195.394684 289.827792 
L 211.063325 294.97723 
L 224.120526 299.184945 
L 230.649126 301.260919 
L 238.483446 303.67352 
L 248.929207 306.829995 
L 280.266488 315.985693 
L 301.158009 322.638373 
L 316.82665 327.62376 
L 349.469652 338.321048 
L 355.998252 340.499231 
L 362.526852 342.430185 
L 369.055453 344.004163 
L 382.112653 346.58498 
L 399.087014 349.694222 
L 405.615614 350.732684 
L 416.061375 352.019196 
L 421.284255 352.451169 
L 426.507135 352.714189 
L 434.341456 352.932868 
L 442.175776 352.946925 
L 453.927257 352.526787 
L 468.290177 351.821543 
L 489.181698 350.866055 
L 500.933179 350.46882 
L 536.18762 349.190934 
L 544.021941 349.164978 
L 551.856261 349.326299 
L 562.302022 349.829623 
L 568.830622 350.31464 
L 575.359222 351.076401 
L 584.499263 352.374193 
L 618.447984 358.147036 
L 626.282305 359.82666 
L 641.950945 363.480964 
L 648.479546 364.744211 
L 664.148187 367.62019 
L 673.288227 369.514763 
L 682.428267 371.397324 
L 692.874028 373.287706 
L 704.625508 375.114087 
L 711.154109 375.936722 
L 718.988429 376.655707 
L 726.82275 377.175779 
L 738.57423 377.67921 
L 746.40855 377.710897 
L 752.937151 377.498324 
L 756.854311 377.299057 
L 756.854311 377.299057 
" style="fill:none;stroke:#ff0000;stroke-linecap:round;stroke-width:2.25;"/>
   </g>
   <g id="patch_3">
    <path d="M 105.3 521.01 
L 105.3 71.4528 
" style="fill:none;stroke:#ffffff;stroke-linecap:square;stroke-linejoin:miter;stroke-width:1.875;"/>
   </g>
   <g id="patch_4">
    <path d="M 758.16 521.01 
L 758.16 71.4528 
" style="fill:none;stroke:#ffffff;stroke-linecap:square;stroke-linejoin:miter;stroke-width:1.875;"/>
   </g>
   <g id="patch_5">
    <path d="M 105.3 521.01 
L 758.16 521.01 
" style="fill:none;stroke:#ffffff;stroke-linecap:square;stroke-linejoin:miter;stroke-width:1.875;"/>
   </g>
   <g id="patch_6">
    <path d="M 105.3 71.4528 
L 758.16 71.4528 
" style="fill:none;stroke:#ffffff;stroke-linecap:square;stroke-linejoin:miter;stroke-width:1.875;"/>
   </g>
  </g>
 </g>
 <defs>
  <clipPath id="pd73c98e723">
   <rect height="449.5572" width="652.86" x="105.3" y="71.4528"/>
  </clipPath>
 </defs>
</svg>
