<?xml version="1.0" encoding="utf-8" standalone="no"?>
<!DOCTYPE svg PUBLIC "-//W3C//DTD SVG 1.1//EN"
  "http://www.w3.org/Graphics/SVG/1.1/DTD/svg11.dtd">
<!-- Created with matplotlib (https://matplotlib.org/) -->
<svg height="595.44pt" version="1.1" viewBox="0 0 842.4 595.44" width="842.4pt" xmlns="http://www.w3.org/2000/svg" xmlns:xlink="http://www.w3.org/1999/xlink">
 <defs>
  <style type="text/css">
*{stroke-linecap:butt;stroke-linejoin:round;}
  </style>
 </defs>
 <g id="figure_1">
  <g id="patch_1">
   <path d="M 0 595.44 
L 842.4 595.44 
L 842.4 0 
L 0 0 
z
" style="fill:#ffffff;"/>
  </g>
  <g id="axes_1">
   <g id="patch_2">
    <path d="M 105.3 521.01 
L 758.16 521.01 
L 758.16 71.4528 
L 105.3 71.4528 
z
" style="fill:#eaeaf2;"/>
   </g>
   <g id="matplotlib.axis_1">
    <g id="xtick_1">
     <g id="line2d_1">
      <path clip-path="url(#p65e01ef5a3)" d="M 105.3 521.01 
L 105.3 71.4528 
" style="fill:none;stroke:#ffffff;stroke-linecap:round;stroke-width:1.5;"/>
     </g>
     <g id="text_1">
      <!-- 0 -->
      <defs>
       <path d="M 4.15625 35.296875 
Q 4.15625 48 6.765625 55.734375 
Q 9.375 63.484375 14.515625 67.671875 
Q 19.671875 71.875 27.484375 71.875 
Q 33.25 71.875 37.59375 69.546875 
Q 41.9375 67.234375 44.765625 62.859375 
Q 47.609375 58.5 49.21875 52.21875 
Q 50.828125 45.953125 50.828125 35.296875 
Q 50.828125 22.703125 48.234375 14.96875 
Q 45.65625 7.234375 40.5 3 
Q 35.359375 -1.21875 27.484375 -1.21875 
Q 17.140625 -1.21875 11.234375 6.203125 
Q 4.15625 15.140625 4.15625 35.296875 
z
M 13.1875 35.296875 
Q 13.1875 17.671875 17.3125 11.828125 
Q 21.4375 6 27.484375 6 
Q 33.546875 6 37.671875 11.859375 
Q 41.796875 17.71875 41.796875 35.296875 
Q 41.796875 52.984375 37.671875 58.78125 
Q 33.546875 64.59375 27.390625 64.59375 
Q 21.34375 64.59375 17.71875 59.46875 
Q 13.1875 52.9375 13.1875 35.296875 
z
" id="ArialMT-48"/>
      </defs>
      <g style="fill:#262626;" transform="translate(98.41834 551.225586)scale(0.2475 -0.2475)">
       <use xlink:href="#ArialMT-48"/>
      </g>
     </g>
    </g>
    <g id="xtick_2">
     <g id="line2d_2">
      <path clip-path="url(#p65e01ef5a3)" d="M 235.872 521.01 
L 235.872 71.4528 
" style="fill:none;stroke:#ffffff;stroke-linecap:round;stroke-width:1.5;"/>
     </g>
     <g id="text_2">
      <!-- 1 -->
      <defs>
       <path d="M 37.25 0 
L 28.46875 0 
L 28.46875 56 
Q 25.296875 52.984375 20.140625 49.953125 
Q 14.984375 46.921875 10.890625 45.40625 
L 10.890625 53.90625 
Q 18.265625 57.375 23.78125 62.296875 
Q 29.296875 67.234375 31.59375 71.875 
L 37.25 71.875 
z
" id="ArialMT-49"/>
      </defs>
      <g style="fill:#262626;" transform="translate(228.99034 551.225586)scale(0.2475 -0.2475)">
       <use xlink:href="#ArialMT-49"/>
      </g>
     </g>
    </g>
    <g id="xtick_3">
     <g id="line2d_3">
      <path clip-path="url(#p65e01ef5a3)" d="M 366.444 521.01 
L 366.444 71.4528 
" style="fill:none;stroke:#ffffff;stroke-linecap:round;stroke-width:1.5;"/>
     </g>
     <g id="text_3">
      <!-- 2 -->
      <defs>
       <path d="M 50.34375 8.453125 
L 50.34375 0 
L 3.03125 0 
Q 2.9375 3.171875 4.046875 6.109375 
Q 5.859375 10.9375 9.828125 15.625 
Q 13.8125 20.3125 21.34375 26.46875 
Q 33.015625 36.03125 37.109375 41.625 
Q 41.21875 47.21875 41.21875 52.203125 
Q 41.21875 57.421875 37.46875 61 
Q 33.734375 64.59375 27.734375 64.59375 
Q 21.390625 64.59375 17.578125 60.78125 
Q 13.765625 56.984375 13.71875 50.25 
L 4.6875 51.171875 
Q 5.609375 61.28125 11.65625 66.578125 
Q 17.71875 71.875 27.9375 71.875 
Q 38.234375 71.875 44.234375 66.15625 
Q 50.25 60.453125 50.25 52 
Q 50.25 47.703125 48.484375 43.546875 
Q 46.734375 39.40625 42.65625 34.8125 
Q 38.578125 30.21875 29.109375 22.21875 
Q 21.1875 15.578125 18.9375 13.203125 
Q 16.703125 10.84375 15.234375 8.453125 
z
" id="ArialMT-50"/>
      </defs>
      <g style="fill:#262626;" transform="translate(359.56234 551.225586)scale(0.2475 -0.2475)">
       <use xlink:href="#ArialMT-50"/>
      </g>
     </g>
    </g>
    <g id="xtick_4">
     <g id="line2d_4">
      <path clip-path="url(#p65e01ef5a3)" d="M 497.016 521.01 
L 497.016 71.4528 
" style="fill:none;stroke:#ffffff;stroke-linecap:round;stroke-width:1.5;"/>
     </g>
     <g id="text_4">
      <!-- 3 -->
      <defs>
       <path d="M 4.203125 18.890625 
L 12.984375 20.0625 
Q 14.5 12.59375 18.140625 9.296875 
Q 21.78125 6 27 6 
Q 33.203125 6 37.46875 10.296875 
Q 41.75 14.59375 41.75 20.953125 
Q 41.75 27 37.796875 30.921875 
Q 33.84375 34.859375 27.734375 34.859375 
Q 25.25 34.859375 21.53125 33.890625 
L 22.515625 41.609375 
Q 23.390625 41.5 23.921875 41.5 
Q 29.546875 41.5 34.03125 44.421875 
Q 38.53125 47.359375 38.53125 53.46875 
Q 38.53125 58.296875 35.25 61.46875 
Q 31.984375 64.65625 26.8125 64.65625 
Q 21.6875 64.65625 18.265625 61.421875 
Q 14.84375 58.203125 13.875 51.765625 
L 5.078125 53.328125 
Q 6.6875 62.15625 12.390625 67.015625 
Q 18.109375 71.875 26.609375 71.875 
Q 32.46875 71.875 37.390625 69.359375 
Q 42.328125 66.84375 44.9375 62.5 
Q 47.5625 58.15625 47.5625 53.265625 
Q 47.5625 48.640625 45.0625 44.828125 
Q 42.578125 41.015625 37.703125 38.765625 
Q 44.046875 37.3125 47.5625 32.6875 
Q 51.078125 28.078125 51.078125 21.140625 
Q 51.078125 11.765625 44.234375 5.25 
Q 37.40625 -1.265625 26.953125 -1.265625 
Q 17.53125 -1.265625 11.296875 4.34375 
Q 5.078125 9.96875 4.203125 18.890625 
z
" id="ArialMT-51"/>
      </defs>
      <g style="fill:#262626;" transform="translate(490.13434 551.225586)scale(0.2475 -0.2475)">
       <use xlink:href="#ArialMT-51"/>
      </g>
     </g>
    </g>
    <g id="xtick_5">
     <g id="line2d_5">
      <path clip-path="url(#p65e01ef5a3)" d="M 627.588 521.01 
L 627.588 71.4528 
" style="fill:none;stroke:#ffffff;stroke-linecap:round;stroke-width:1.5;"/>
     </g>
     <g id="text_5">
      <!-- 4 -->
      <defs>
       <path d="M 32.328125 0 
L 32.328125 17.140625 
L 1.265625 17.140625 
L 1.265625 25.203125 
L 33.9375 71.578125 
L 41.109375 71.578125 
L 41.109375 25.203125 
L 50.78125 25.203125 
L 50.78125 17.140625 
L 41.109375 17.140625 
L 41.109375 0 
z
M 32.328125 25.203125 
L 32.328125 57.46875 
L 9.90625 25.203125 
z
" id="ArialMT-52"/>
      </defs>
      <g style="fill:#262626;" transform="translate(620.70634 551.225586)scale(0.2475 -0.2475)">
       <use xlink:href="#ArialMT-52"/>
      </g>
     </g>
    </g>
    <g id="xtick_6">
     <g id="line2d_6">
      <path clip-path="url(#p65e01ef5a3)" d="M 758.16 521.01 
L 758.16 71.4528 
" style="fill:none;stroke:#ffffff;stroke-linecap:round;stroke-width:1.5;"/>
     </g>
     <g id="text_6">
      <!-- 5 -->
      <defs>
       <path d="M 4.15625 18.75 
L 13.375 19.53125 
Q 14.40625 12.796875 18.140625 9.390625 
Q 21.875 6 27.15625 6 
Q 33.5 6 37.890625 10.78125 
Q 42.28125 15.578125 42.28125 23.484375 
Q 42.28125 31 38.0625 35.34375 
Q 33.84375 39.703125 27 39.703125 
Q 22.75 39.703125 19.328125 37.765625 
Q 15.921875 35.84375 13.96875 32.765625 
L 5.71875 33.84375 
L 12.640625 70.609375 
L 48.25 70.609375 
L 48.25 62.203125 
L 19.671875 62.203125 
L 15.828125 42.96875 
Q 22.265625 47.46875 29.34375 47.46875 
Q 38.71875 47.46875 45.15625 40.96875 
Q 51.609375 34.46875 51.609375 24.265625 
Q 51.609375 14.546875 45.953125 7.46875 
Q 39.0625 -1.21875 27.15625 -1.21875 
Q 17.390625 -1.21875 11.203125 4.25 
Q 5.03125 9.71875 4.15625 18.75 
z
" id="ArialMT-53"/>
      </defs>
      <g style="fill:#262626;" transform="translate(751.27834 551.225586)scale(0.2475 -0.2475)">
       <use xlink:href="#ArialMT-53"/>
      </g>
     </g>
    </g>
    <g id="text_7">
     <!-- t [s] -->
     <defs>
      <path d="M 25.78125 7.859375 
L 27.046875 0.09375 
Q 23.34375 -0.6875 20.40625 -0.6875 
Q 15.625 -0.6875 12.984375 0.828125 
Q 10.359375 2.34375 9.28125 4.8125 
Q 8.203125 7.28125 8.203125 15.1875 
L 8.203125 45.015625 
L 1.765625 45.015625 
L 1.765625 51.859375 
L 8.203125 51.859375 
L 8.203125 64.703125 
L 16.9375 69.96875 
L 16.9375 51.859375 
L 25.78125 51.859375 
L 25.78125 45.015625 
L 16.9375 45.015625 
L 16.9375 14.703125 
Q 16.9375 10.9375 17.40625 9.859375 
Q 17.875 8.796875 18.921875 8.15625 
Q 19.96875 7.515625 21.921875 7.515625 
Q 23.390625 7.515625 25.78125 7.859375 
z
" id="ArialMT-116"/>
      <path id="ArialMT-32"/>
      <path d="M 6.78125 -19.875 
L 6.78125 71.578125 
L 26.171875 71.578125 
L 26.171875 64.3125 
L 15.578125 64.3125 
L 15.578125 -12.59375 
L 26.171875 -12.59375 
L 26.171875 -19.875 
z
" id="ArialMT-91"/>
      <path d="M 3.078125 15.484375 
L 11.765625 16.84375 
Q 12.5 11.625 15.84375 8.84375 
Q 19.1875 6.0625 25.203125 6.0625 
Q 31.25 6.0625 34.171875 8.515625 
Q 37.109375 10.984375 37.109375 14.3125 
Q 37.109375 17.28125 34.515625 19 
Q 32.71875 20.171875 25.53125 21.96875 
Q 15.875 24.421875 12.140625 26.203125 
Q 8.40625 27.984375 6.46875 31.125 
Q 4.546875 34.28125 4.546875 38.09375 
Q 4.546875 41.546875 6.125 44.5 
Q 7.71875 47.46875 10.453125 49.421875 
Q 12.5 50.921875 16.03125 51.96875 
Q 19.578125 53.03125 23.640625 53.03125 
Q 29.734375 53.03125 34.34375 51.265625 
Q 38.96875 49.515625 41.15625 46.5 
Q 43.359375 43.5 44.1875 38.484375 
L 35.59375 37.3125 
Q 35.015625 41.3125 32.203125 43.546875 
Q 29.390625 45.796875 24.265625 45.796875 
Q 18.21875 45.796875 15.625 43.796875 
Q 13.03125 41.796875 13.03125 39.109375 
Q 13.03125 37.40625 14.109375 36.03125 
Q 15.1875 34.625 17.484375 33.6875 
Q 18.796875 33.203125 25.25 31.453125 
Q 34.578125 28.953125 38.25 27.359375 
Q 41.9375 25.78125 44.03125 22.75 
Q 46.140625 19.734375 46.140625 15.234375 
Q 46.140625 10.84375 43.578125 6.953125 
Q 41.015625 3.078125 36.171875 0.953125 
Q 31.34375 -1.171875 25.25 -1.171875 
Q 15.140625 -1.171875 9.84375 3.03125 
Q 4.546875 7.234375 3.078125 15.484375 
z
" id="ArialMT-115"/>
      <path d="M 21.296875 -19.875 
L 1.90625 -19.875 
L 1.90625 -12.59375 
L 12.5 -12.59375 
L 12.5 64.3125 
L 1.90625 64.3125 
L 1.90625 71.578125 
L 21.296875 71.578125 
z
" id="ArialMT-93"/>
     </defs>
     <g style="fill:#262626;" transform="translate(409.978125 579.470742)scale(0.27 -0.27)">
      <use xlink:href="#ArialMT-116"/>
      <use x="27.783203" xlink:href="#ArialMT-32"/>
      <use x="55.566406" xlink:href="#ArialMT-91"/>
      <use x="83.349609" xlink:href="#ArialMT-115"/>
      <use x="133.349609" xlink:href="#ArialMT-93"/>
     </g>
    </g>
   </g>
   <g id="matplotlib.axis_2">
    <g id="ytick_1">
     <g id="line2d_7">
      <path clip-path="url(#p65e01ef5a3)" d="M 105.3 486.058086 
L 758.16 486.058086 
" style="fill:none;stroke:#ffffff;stroke-linecap:round;stroke-width:1.5;"/>
     </g>
     <g id="text_8">
      <!-- −0.50 -->
      <defs>
       <path d="M 52.828125 31.203125 
L 5.5625 31.203125 
L 5.5625 39.40625 
L 52.828125 39.40625 
z
" id="ArialMT-8722"/>
       <path d="M 9.078125 0 
L 9.078125 10.015625 
L 19.09375 10.015625 
L 19.09375 0 
z
" id="ArialMT-46"/>
      </defs>
      <g style="fill:#262626;" transform="translate(30.178633 494.915879)scale(0.2475 -0.2475)">
       <use xlink:href="#ArialMT-8722"/>
       <use x="58.398438" xlink:href="#ArialMT-48"/>
       <use x="114.013672" xlink:href="#ArialMT-46"/>
       <use x="141.796875" xlink:href="#ArialMT-53"/>
       <use x="197.412109" xlink:href="#ArialMT-48"/>
      </g>
     </g>
    </g>
    <g id="ytick_2">
     <g id="line2d_8">
      <path clip-path="url(#p65e01ef5a3)" d="M 105.3 434.476402 
L 758.16 434.476402 
" style="fill:none;stroke:#ffffff;stroke-linecap:round;stroke-width:1.5;"/>
     </g>
     <g id="text_9">
      <!-- −0.25 -->
      <g style="fill:#262626;" transform="translate(30.178633 443.334195)scale(0.2475 -0.2475)">
       <use xlink:href="#ArialMT-8722"/>
       <use x="58.398438" xlink:href="#ArialMT-48"/>
       <use x="114.013672" xlink:href="#ArialMT-46"/>
       <use x="141.796875" xlink:href="#ArialMT-50"/>
       <use x="197.412109" xlink:href="#ArialMT-53"/>
      </g>
     </g>
    </g>
    <g id="ytick_3">
     <g id="line2d_9">
      <path clip-path="url(#p65e01ef5a3)" d="M 105.3 382.894719 
L 758.16 382.894719 
" style="fill:none;stroke:#ffffff;stroke-linecap:round;stroke-width:1.5;"/>
     </g>
     <g id="text_10">
      <!-- 0.00 -->
      <g style="fill:#262626;" transform="translate(44.63418 391.752512)scale(0.2475 -0.2475)">
       <use xlink:href="#ArialMT-48"/>
       <use x="55.615234" xlink:href="#ArialMT-46"/>
       <use x="83.398438" xlink:href="#ArialMT-48"/>
       <use x="139.013672" xlink:href="#ArialMT-48"/>
      </g>
     </g>
    </g>
    <g id="ytick_4">
     <g id="line2d_10">
      <path clip-path="url(#p65e01ef5a3)" d="M 105.3 331.313036 
L 758.16 331.313036 
" style="fill:none;stroke:#ffffff;stroke-linecap:round;stroke-width:1.5;"/>
     </g>
     <g id="text_11">
      <!-- 0.25 -->
      <g style="fill:#262626;" transform="translate(44.63418 340.170829)scale(0.2475 -0.2475)">
       <use xlink:href="#ArialMT-48"/>
       <use x="55.615234" xlink:href="#ArialMT-46"/>
       <use x="83.398438" xlink:href="#ArialMT-50"/>
       <use x="139.013672" xlink:href="#ArialMT-53"/>
      </g>
     </g>
    </g>
    <g id="ytick_5">
     <g id="line2d_11">
      <path clip-path="url(#p65e01ef5a3)" d="M 105.3 279.731352 
L 758.16 279.731352 
" style="fill:none;stroke:#ffffff;stroke-linecap:round;stroke-width:1.5;"/>
     </g>
     <g id="text_12">
      <!-- 0.50 -->
      <g style="fill:#262626;" transform="translate(44.63418 288.589145)scale(0.2475 -0.2475)">
       <use xlink:href="#ArialMT-48"/>
       <use x="55.615234" xlink:href="#ArialMT-46"/>
       <use x="83.398438" xlink:href="#ArialMT-53"/>
       <use x="139.013672" xlink:href="#ArialMT-48"/>
      </g>
     </g>
    </g>
    <g id="ytick_6">
     <g id="line2d_12">
      <path clip-path="url(#p65e01ef5a3)" d="M 105.3 228.149669 
L 758.16 228.149669 
" style="fill:none;stroke:#ffffff;stroke-linecap:round;stroke-width:1.5;"/>
     </g>
     <g id="text_13">
      <!-- 0.75 -->
      <defs>
       <path d="M 4.734375 62.203125 
L 4.734375 70.65625 
L 51.078125 70.65625 
L 51.078125 63.8125 
Q 44.234375 56.546875 37.515625 44.484375 
Q 30.8125 32.421875 27.15625 19.671875 
Q 24.515625 10.6875 23.78125 0 
L 14.75 0 
Q 14.890625 8.453125 18.0625 20.40625 
Q 21.234375 32.375 27.171875 43.484375 
Q 33.109375 54.59375 39.796875 62.203125 
z
" id="ArialMT-55"/>
      </defs>
      <g style="fill:#262626;" transform="translate(44.63418 237.007462)scale(0.2475 -0.2475)">
       <use xlink:href="#ArialMT-48"/>
       <use x="55.615234" xlink:href="#ArialMT-46"/>
       <use x="83.398438" xlink:href="#ArialMT-55"/>
       <use x="139.013672" xlink:href="#ArialMT-53"/>
      </g>
     </g>
    </g>
    <g id="ytick_7">
     <g id="line2d_13">
      <path clip-path="url(#p65e01ef5a3)" d="M 105.3 176.567986 
L 758.16 176.567986 
" style="fill:none;stroke:#ffffff;stroke-linecap:round;stroke-width:1.5;"/>
     </g>
     <g id="text_14">
      <!-- 1.00 -->
      <g style="fill:#262626;" transform="translate(44.63418 185.425779)scale(0.2475 -0.2475)">
       <use xlink:href="#ArialMT-49"/>
       <use x="55.615234" xlink:href="#ArialMT-46"/>
       <use x="83.398438" xlink:href="#ArialMT-48"/>
       <use x="139.013672" xlink:href="#ArialMT-48"/>
      </g>
     </g>
    </g>
    <g id="ytick_8">
     <g id="line2d_14">
      <path clip-path="url(#p65e01ef5a3)" d="M 105.3 124.986302 
L 758.16 124.986302 
" style="fill:none;stroke:#ffffff;stroke-linecap:round;stroke-width:1.5;"/>
     </g>
     <g id="text_15">
      <!-- 1.25 -->
      <g style="fill:#262626;" transform="translate(44.63418 133.844095)scale(0.2475 -0.2475)">
       <use xlink:href="#ArialMT-49"/>
       <use x="55.615234" xlink:href="#ArialMT-46"/>
       <use x="83.398438" xlink:href="#ArialMT-50"/>
       <use x="139.013672" xlink:href="#ArialMT-53"/>
      </g>
     </g>
    </g>
    <g id="ytick_9">
     <g id="line2d_15">
      <path clip-path="url(#p65e01ef5a3)" d="M 105.3 73.404619 
L 758.16 73.404619 
" style="fill:none;stroke:#ffffff;stroke-linecap:round;stroke-width:1.5;"/>
     </g>
     <g id="text_16">
      <!-- 1.50 -->
      <g style="fill:#262626;" transform="translate(44.63418 82.262412)scale(0.2475 -0.2475)">
       <use xlink:href="#ArialMT-49"/>
       <use x="55.615234" xlink:href="#ArialMT-46"/>
       <use x="83.398438" xlink:href="#ArialMT-53"/>
       <use x="139.013672" xlink:href="#ArialMT-48"/>
      </g>
     </g>
    </g>
    <g id="text_17">
     <!-- x1 [mm] -->
     <defs>
      <path d="M 0.734375 0 
L 19.671875 26.953125 
L 2.15625 51.859375 
L 13.140625 51.859375 
L 21.09375 39.703125 
Q 23.34375 36.234375 24.703125 33.890625 
Q 26.859375 37.109375 28.65625 39.59375 
L 37.40625 51.859375 
L 47.90625 51.859375 
L 29.984375 27.4375 
L 49.265625 0 
L 38.484375 0 
L 27.828125 16.109375 
L 25 20.453125 
L 11.375 0 
z
" id="ArialMT-120"/>
      <path d="M 6.59375 0 
L 6.59375 51.859375 
L 14.453125 51.859375 
L 14.453125 44.578125 
Q 16.890625 48.390625 20.9375 50.703125 
Q 25 53.03125 30.171875 53.03125 
Q 35.9375 53.03125 39.625 50.640625 
Q 43.3125 48.25 44.828125 43.953125 
Q 50.984375 53.03125 60.84375 53.03125 
Q 68.5625 53.03125 72.703125 48.75 
Q 76.859375 44.484375 76.859375 35.59375 
L 76.859375 0 
L 68.109375 0 
L 68.109375 32.671875 
Q 68.109375 37.9375 67.25 40.25 
Q 66.40625 42.578125 64.15625 43.984375 
Q 61.921875 45.40625 58.890625 45.40625 
Q 53.421875 45.40625 49.796875 41.765625 
Q 46.1875 38.140625 46.1875 30.125 
L 46.1875 0 
L 37.40625 0 
L 37.40625 33.6875 
Q 37.40625 39.546875 35.25 42.46875 
Q 33.109375 45.40625 28.21875 45.40625 
Q 24.515625 45.40625 21.359375 43.453125 
Q 18.21875 41.5 16.796875 37.734375 
Q 15.375 33.984375 15.375 26.90625 
L 15.375 0 
z
" id="ArialMT-109"/>
     </defs>
     <g style="fill:#262626;" transform="translate(20.812383 344.230228)rotate(-90)scale(0.27 -0.27)">
      <use xlink:href="#ArialMT-120"/>
      <use x="50" xlink:href="#ArialMT-49"/>
      <use x="105.615234" xlink:href="#ArialMT-32"/>
      <use x="133.398438" xlink:href="#ArialMT-91"/>
      <use x="161.181641" xlink:href="#ArialMT-109"/>
      <use x="244.482422" xlink:href="#ArialMT-109"/>
      <use x="327.783203" xlink:href="#ArialMT-93"/>
     </g>
    </g>
   </g>
   <g id="PolyCollection_1">
    <defs>
     <path d="M 105.3 -475.36791 
L 105.3 -114.120851 
L 106.60572 -121.540968 
L 107.91144 -114.341308 
L 109.21716 -124.005755 
L 110.52288 -121.742309 
L 111.8286 -115.69127 
L 113.13432 -115.006424 
L 114.44004 -116.771614 
L 115.74576 -111.746857 
L 117.051481 -111.358098 
L 118.357201 -121.321433 
L 119.662921 -111.090729 
L 120.968641 -117.103747 
L 122.274361 -113.863073 
L 123.580081 -114.022372 
L 124.885801 -114.832763 
L 126.191521 -111.902679 
L 127.497241 -117.420784 
L 128.802961 -111.676903 
L 130.108681 -111.15935 
L 131.414401 -118.031563 
L 132.720121 -111.32983 
L 134.025841 -119.459586 
L 135.331561 -113.994924 
L 136.637281 -111.499732 
L 137.943002 -112.811653 
L 139.248722 -112.035557 
L 140.554442 -113.394546 
L 141.860162 -110.16951 
L 143.165882 -106.783616 
L 144.471602 -108.677241 
L 145.777322 -113.09477 
L 147.083042 -105.392672 
L 148.388762 -104.799294 
L 149.694482 -110.189519 
L 151.000202 -105.544022 
L 152.305922 -110.381143 
L 153.611642 -108.768362 
L 154.917362 -105.871917 
L 156.223082 -109.440799 
L 157.528802 -101.810779 
L 158.834523 -107.463981 
L 160.140243 -105.930152 
L 161.445963 -101.057908 
L 162.751683 -106.066836 
L 164.057403 -106.896439 
L 165.363123 -107.902174 
L 166.668843 -109.727362 
L 167.974563 -108.372226 
L 169.280283 -101.29564 
L 170.586003 -104.720111 
L 171.891723 -102.168106 
L 173.197443 -105.294615 
L 174.503163 -104.267718 
L 175.808883 -106.868497 
L 177.114603 -108.907176 
L 178.420323 -104.710115 
L 179.726044 -106.149035 
L 181.031764 -100.433214 
L 182.337484 -100.34067 
L 183.643204 -104.519681 
L 184.948924 -96.05471 
L 186.254644 -101.204121 
L 187.560364 -101.276038 
L 188.866084 -101.947575 
L 190.171804 -103.691241 
L 191.477524 -100.036387 
L 192.783244 -102.180387 
L 194.088964 -101.017671 
L 195.394684 -98.223676 
L 196.700404 -103.579789 
L 198.006124 -99.327394 
L 199.311844 -100.731379 
L 200.617565 -100.890433 
L 201.923285 -99.650877 
L 203.229005 -97.755269 
L 204.534725 -105.885331 
L 205.840445 -103.823154 
L 207.146165 -105.379836 
L 208.451885 -102.970557 
L 209.757605 -97.15747 
L 211.063325 -102.909883 
L 212.369045 -100.064738 
L 213.674765 -101.612955 
L 214.980485 -101.0839 
L 216.286205 -102.165761 
L 217.591925 -103.642837 
L 218.897645 -99.38319 
L 220.203365 -103.416585 
L 221.509086 -103.619413 
L 222.814806 -101.500007 
L 224.120526 -102.142659 
L 225.426246 -102.029866 
L 226.731966 -99.405815 
L 228.037686 -100.087909 
L 229.343406 -99.959911 
L 230.649126 -101.262553 
L 231.954846 -99.010696 
L 233.260566 -111.300566 
L 234.566286 -105.22615 
L 235.872006 -103.679402 
L 237.177726 -106.073879 
L 238.483446 -94.864418 
L 239.789166 -102.400517 
L 241.094886 -108.096075 
L 242.400607 -102.806176 
L 243.706327 -105.815145 
L 245.012047 -98.537908 
L 246.317767 -105.172778 
L 247.623487 -110.1358 
L 248.929207 -110.286419 
L 250.234927 -101.715786 
L 251.540647 -110.280647 
L 252.846367 -107.092744 
L 254.152087 -113.654197 
L 255.457807 -101.672895 
L 256.763527 -109.79523 
L 258.069247 -106.866931 
L 259.374967 -114.011136 
L 260.680687 -113.098217 
L 261.986407 -109.502231 
L 263.292128 -107.344745 
L 264.597848 -106.564129 
L 265.903568 -107.440776 
L 267.209288 -108.72821 
L 268.515008 -101.31231 
L 269.820728 -113.805019 
L 271.126448 -100.762993 
L 272.432168 -107.65449 
L 273.737888 -103.644981 
L 275.043608 -104.743229 
L 276.349328 -110.912668 
L 277.655048 -111.494991 
L 278.960768 -112.194794 
L 280.266488 -110.472161 
L 281.572208 -113.654444 
L 282.877928 -106.873328 
L 284.183648 -110.736638 
L 285.489369 -107.2493 
L 286.795089 -101.585811 
L 288.100809 -113.019764 
L 289.406529 -116.920649 
L 290.712249 -110.0732 
L 292.017969 -109.689355 
L 293.323689 -106.569486 
L 294.629409 -106.221596 
L 295.935129 -108.420751 
L 297.240849 -113.512665 
L 298.546569 -111.644449 
L 299.852289 -113.263836 
L 301.158009 -105.130178 
L 302.463729 -106.608719 
L 303.769449 -107.046515 
L 305.075169 -121.671162 
L 306.38089 -108.763819 
L 307.68661 -105.140679 
L 308.99233 -105.527757 
L 310.29805 -110.918104 
L 311.60377 -113.011411 
L 312.90949 -106.391699 
L 314.21521 -117.736422 
L 315.52093 -111.673493 
L 316.82665 -112.029989 
L 318.13237 -119.399853 
L 319.43809 -107.629339 
L 320.74381 -116.78718 
L 322.04953 -112.092955 
L 323.35525 -112.056131 
L 324.66097 -114.165416 
L 325.96669 -113.352554 
L 327.272411 -112.140186 
L 328.578131 -109.113191 
L 329.883851 -116.110602 
L 331.189571 -111.248141 
L 332.495291 -111.145284 
L 333.801011 -118.683661 
L 335.106731 -115.338729 
L 336.412451 -105.659784 
L 337.718171 -117.752465 
L 339.023891 -117.595067 
L 340.329611 -118.129087 
L 341.635331 -120.563734 
L 342.941051 -117.205202 
L 344.246771 -107.451987 
L 345.552491 -116.27793 
L 346.858211 -115.102087 
L 348.163932 -104.920559 
L 349.469652 -115.043684 
L 350.775372 -118.384692 
L 352.081092 -110.032258 
L 353.386812 -113.478598 
L 354.692532 -116.718364 
L 355.998252 -109.537086 
L 357.303972 -117.052434 
L 358.609692 -114.529458 
L 359.915412 -106.383242 
L 361.221132 -109.825341 
L 362.526852 -117.316271 
L 363.832572 -107.382962 
L 365.138292 -112.992117 
L 366.444012 -116.046936 
L 367.749732 -116.878834 
L 369.055453 -115.921284 
L 370.361173 -117.831104 
L 371.666893 -109.467525 
L 372.972613 -113.626234 
L 374.278333 -112.689397 
L 375.584053 -115.727816 
L 376.889773 -113.262037 
L 378.195493 -113.888639 
L 379.501213 -120.81946 
L 380.806933 -111.313374 
L 382.112653 -124.351766 
L 383.418373 -107.889223 
L 384.724093 -102.055825 
L 386.029813 -109.52755 
L 387.335533 -104.291847 
L 388.641253 -115.942644 
L 389.946974 -108.695314 
L 391.252694 -111.011416 
L 392.558414 -114.59693 
L 393.864134 -108.822653 
L 395.169854 -110.772006 
L 396.475574 -116.477425 
L 397.781294 -106.841643 
L 399.087014 -107.438442 
L 400.392734 -115.800467 
L 401.698454 -114.863138 
L 403.004174 -114.431801 
L 404.309894 -110.615013 
L 405.615614 -116.807585 
L 406.921334 -111.285749 
L 408.227054 -110.439242 
L 409.532774 -115.491751 
L 410.838495 -114.08436 
L 412.144215 -115.60055 
L 413.449935 -112.979596 
L 414.755655 -117.435149 
L 416.061375 -112.405518 
L 417.367095 -107.370008 
L 418.672815 -112.646644 
L 419.978535 -106.798686 
L 421.284255 -114.766366 
L 422.589975 -110.137627 
L 423.895695 -107.147651 
L 425.201415 -109.965921 
L 426.507135 -105.885286 
L 427.812855 -104.256463 
L 429.118575 -114.899349 
L 430.424295 -111.874727 
L 431.730016 -104.262323 
L 433.035736 -112.452321 
L 434.341456 -111.30829 
L 435.647176 -100.442185 
L 436.952896 -113.905371 
L 438.258616 -116.807024 
L 439.564336 -113.529428 
L 440.870056 -114.074055 
L 442.175776 -111.060835 
L 443.481496 -112.60872 
L 444.787216 -101.753061 
L 446.092936 -111.220711 
L 447.398656 -112.976555 
L 448.704376 -114.095004 
L 450.010096 -109.326379 
L 451.315816 -116.380512 
L 452.621536 -109.415999 
L 453.927257 -105.500664 
L 455.232977 -108.477114 
L 456.538697 -105.989523 
L 457.844417 -108.844668 
L 459.150137 -114.796061 
L 460.455857 -115.948699 
L 461.761577 -116.166565 
L 463.067297 -99.84883 
L 464.373017 -113.000328 
L 465.678737 -114.867151 
L 466.984457 -120.454427 
L 468.290177 -115.801487 
L 469.595897 -112.564192 
L 470.901617 -107.188467 
L 472.207337 -110.081103 
L 473.513057 -104.325754 
L 474.818778 -113.272657 
L 476.124498 -107.494849 
L 477.430218 -113.264913 
L 478.735938 -112.611081 
L 480.041658 -108.71934 
L 481.347378 -105.011944 
L 482.653098 -110.209356 
L 483.958818 -118.394174 
L 485.264538 -114.673609 
L 486.570258 -108.619668 
L 487.875978 -110.655333 
L 489.181698 -109.893105 
L 490.487418 -117.189038 
L 491.793138 -110.651893 
L 493.098858 -113.805323 
L 494.404578 -117.40297 
L 495.710299 -107.300404 
L 497.016019 -112.218279 
L 498.321739 -113.043904 
L 499.627459 -117.877807 
L 500.933179 -112.098429 
L 502.238899 -109.029781 
L 503.544619 -109.346563 
L 504.850339 -111.845064 
L 506.156059 -119.629075 
L 507.461779 -111.996089 
L 508.767499 -112.358869 
L 510.073219 -113.949348 
L 511.378939 -113.743964 
L 512.684659 -106.904286 
L 513.990379 -111.520209 
L 515.296099 -119.656133 
L 516.60182 -113.786858 
L 517.90754 -113.021537 
L 519.21326 -109.600384 
L 520.51898 -115.937256 
L 521.8247 -113.298816 
L 523.13042 -116.775543 
L 524.43614 -113.174008 
L 525.74186 -115.654195 
L 527.04758 -114.956994 
L 528.3533 -120.946221 
L 529.65902 -109.565424 
L 530.96474 -115.151895 
L 532.27046 -112.309039 
L 533.57618 -114.624715 
L 534.8819 -111.867092 
L 536.18762 -114.723334 
L 537.493341 -111.307571 
L 538.799061 -115.897469 
L 540.104781 -114.437618 
L 541.410501 -116.086666 
L 542.716221 -113.84812 
L 544.021941 -115.503068 
L 545.327661 -113.060454 
L 546.633381 -120.889671 
L 547.939101 -115.044323 
L 549.244821 -125.407306 
L 550.550541 -111.637248 
L 551.856261 -118.809492 
L 553.161981 -118.862327 
L 554.467701 -115.234892 
L 555.773421 -116.781748 
L 557.079141 -119.442299 
L 558.384862 -107.070626 
L 559.690582 -111.574982 
L 560.996302 -118.124503 
L 562.302022 -112.006779 
L 563.607742 -115.244141 
L 564.913462 -114.978691 
L 566.219182 -115.980119 
L 567.524902 -113.33081 
L 568.830622 -113.248661 
L 570.136342 -112.583654 
L 571.442062 -111.637337 
L 572.747782 -125.178149 
L 574.053502 -115.722114 
L 575.359222 -118.993114 
L 576.664942 -112.370909 
L 577.970662 -117.316088 
L 579.276383 -110.572841 
L 580.582103 -118.396201 
L 581.887823 -115.450758 
L 583.193543 -117.234922 
L 584.499263 -121.266859 
L 585.804983 -111.933455 
L 587.110703 -116.069276 
L 588.416423 -123.542851 
L 589.722143 -119.423902 
L 591.027863 -111.936697 
L 592.333583 -114.989321 
L 593.639303 -118.101593 
L 594.945023 -116.887992 
L 596.250743 -119.326763 
L 597.556463 -117.403742 
L 598.862183 -118.298461 
L 600.167904 -120.017004 
L 601.473624 -113.747026 
L 602.779344 -119.837245 
L 604.085064 -119.15681 
L 605.390784 -127.035709 
L 606.696504 -115.828779 
L 608.002224 -127.170066 
L 609.307944 -115.262344 
L 610.613664 -122.946599 
L 611.919384 -120.814734 
L 613.225104 -119.113103 
L 614.530824 -115.350608 
L 615.836544 -120.63646 
L 617.142264 -111.275859 
L 618.447984 -111.675824 
L 619.753704 -116.324852 
L 621.059424 -119.07431 
L 622.365145 -118.62623 
L 623.670865 -119.761108 
L 624.976585 -119.687489 
L 626.282305 -122.861787 
L 627.588025 -118.242378 
L 628.893745 -120.772253 
L 630.199465 -122.562692 
L 631.505185 -120.114033 
L 632.810905 -118.560012 
L 634.116625 -105.962672 
L 635.422345 -112.723357 
L 636.728065 -117.32127 
L 638.033785 -119.901389 
L 639.339505 -122.274142 
L 640.645225 -122.782634 
L 641.950945 -116.154623 
L 643.256666 -119.385544 
L 644.562386 -123.69355 
L 645.868106 -115.243416 
L 647.173826 -121.51044 
L 648.479546 -121.210545 
L 649.785266 -125.929781 
L 651.090986 -126.903842 
L 652.396706 -121.747677 
L 653.702426 -116.305538 
L 655.008146 -122.040997 
L 656.313866 -118.070479 
L 657.619586 -112.278857 
L 658.925306 -120.755097 
L 660.231026 -120.904896 
L 661.536746 -119.220566 
L 662.842466 -118.207185 
L 664.148187 -113.523925 
L 665.453907 -113.241337 
L 666.759627 -122.218896 
L 668.065347 -123.186134 
L 669.371067 -122.401176 
L 670.676787 -119.046556 
L 671.982507 -117.210428 
L 673.288227 -117.571295 
L 674.593947 -125.028806 
L 675.899667 -124.732052 
L 677.205387 -123.908713 
L 678.511107 -118.923744 
L 679.816827 -129.921504 
L 681.122547 -119.031146 
L 682.428267 -120.491231 
L 683.733987 -122.677886 
L 685.039708 -120.899485 
L 686.345428 -126.006639 
L 687.651148 -120.259218 
L 688.956868 -121.428002 
L 690.262588 -122.290548 
L 691.568308 -125.059119 
L 692.874028 -120.573868 
L 694.179748 -126.433717 
L 695.485468 -123.084738 
L 696.791188 -120.454847 
L 698.096908 -120.521566 
L 699.402628 -126.110872 
L 700.708348 -124.403446 
L 702.014068 -125.300937 
L 703.319788 -126.396107 
L 704.625508 -126.288821 
L 705.931229 -121.758913 
L 707.236949 -125.345664 
L 708.542669 -128.054725 
L 709.848389 -126.741893 
L 711.154109 -120.869472 
L 712.459829 -117.447414 
L 713.765549 -123.169557 
L 715.071269 -127.451065 
L 716.376989 -127.817804 
L 717.682709 -129.013756 
L 718.988429 -118.215807 
L 720.294149 -127.87159 
L 721.599869 -123.982817 
L 722.905589 -128.406106 
L 724.211309 -134.978884 
L 725.517029 -125.001753 
L 726.82275 -125.95369 
L 728.12847 -127.976531 
L 729.43419 -133.785481 
L 730.73991 -121.705179 
L 732.04563 -131.309963 
L 733.35135 -133.031972 
L 734.65707 -135.443464 
L 735.96279 -132.075477 
L 737.26851 -127.491655 
L 738.57423 -132.894005 
L 739.87995 -133.023084 
L 741.18567 -129.887228 
L 742.49139 -127.770263 
L 743.79711 -132.865737 
L 745.10283 -128.592047 
L 746.40855 -129.360349 
L 747.714271 -127.07206 
L 749.019991 -129.96284 
L 750.325711 -123.741136 
L 751.631431 -130.401222 
L 752.937151 -129.181303 
L 754.242871 -118.621673 
L 755.548591 -119.948075 
L 756.854311 -129.131419 
L 756.854311 -329.751043 
L 756.854311 -329.751043 
L 755.548591 -323.032415 
L 754.242871 -324.897184 
L 752.937151 -323.732303 
L 751.631431 -323.502288 
L 750.325711 -323.228204 
L 749.019991 -327.599856 
L 747.714271 -326.74419 
L 746.40855 -324.105006 
L 745.10283 -318.942337 
L 743.79711 -320.294947 
L 742.49139 -319.739971 
L 741.18567 -329.235076 
L 739.87995 -324.293292 
L 738.57423 -322.057645 
L 737.26851 -326.367486 
L 735.96279 -328.956094 
L 734.65707 -333.528051 
L 733.35135 -325.737137 
L 732.04563 -326.250034 
L 730.73991 -333.609824 
L 729.43419 -328.181514 
L 728.12847 -331.697923 
L 726.82275 -331.28285 
L 725.517029 -333.79507 
L 724.211309 -326.293695 
L 722.905589 -327.144164 
L 721.599869 -332.634687 
L 720.294149 -329.581579 
L 718.988429 -323.986344 
L 717.682709 -334.915293 
L 716.376989 -335.802958 
L 715.071269 -329.183883 
L 713.765549 -327.663753 
L 712.459829 -331.139826 
L 711.154109 -334.959516 
L 709.848389 -322.774787 
L 708.542669 -326.925059 
L 707.236949 -327.226131 
L 705.931229 -335.628093 
L 704.625508 -329.458425 
L 703.319788 -337.613712 
L 702.014068 -332.015945 
L 700.708348 -337.068118 
L 699.402628 -329.578279 
L 698.096908 -336.367818 
L 696.791188 -335.925858 
L 695.485468 -338.045859 
L 694.179748 -341.207427 
L 692.874028 -329.121023 
L 691.568308 -332.127716 
L 690.262588 -328.380923 
L 688.956868 -339.49898 
L 687.651148 -324.278199 
L 686.345428 -342.259066 
L 685.039708 -332.224765 
L 683.733987 -332.211119 
L 682.428267 -337.28613 
L 681.122547 -335.695128 
L 679.816827 -331.622046 
L 678.511107 -334.393225 
L 677.205387 -342.301294 
L 675.899667 -338.133302 
L 674.593947 -347.225575 
L 673.288227 -325.089397 
L 671.982507 -332.644156 
L 670.676787 -341.424396 
L 669.371067 -339.612551 
L 668.065347 -338.710114 
L 666.759627 -347.15651 
L 665.453907 -331.226328 
L 664.148187 -336.748068 
L 662.842466 -341.907948 
L 661.536746 -345.527852 
L 660.231026 -334.09868 
L 658.925306 -339.234606 
L 657.619586 -339.847736 
L 656.313866 -333.268679 
L 655.008146 -341.641008 
L 653.702426 -338.548814 
L 652.396706 -339.116578 
L 651.090986 -333.65012 
L 649.785266 -331.589486 
L 648.479546 -339.2172 
L 647.173826 -341.49927 
L 645.868106 -335.421017 
L 644.562386 -336.439158 
L 643.256666 -329.143957 
L 641.950945 -333.594944 
L 640.645225 -334.517297 
L 639.339505 -338.804965 
L 638.033785 -335.720609 
L 636.728065 -333.508698 
L 635.422345 -339.876628 
L 634.116625 -345.623501 
L 632.810905 -333.676287 
L 631.505185 -332.355819 
L 630.199465 -333.10357 
L 628.893745 -335.06845 
L 627.588025 -335.81567 
L 626.282305 -338.487996 
L 624.976585 -339.582447 
L 623.670865 -331.846104 
L 622.365145 -331.826553 
L 621.059424 -343.667979 
L 619.753704 -336.324146 
L 618.447984 -331.867211 
L 617.142264 -331.087954 
L 615.836544 -336.09374 
L 614.530824 -333.035306 
L 613.225104 -328.346287 
L 611.919384 -339.2093 
L 610.613664 -331.08598 
L 609.307944 -337.599955 
L 608.002224 -346.569044 
L 606.696504 -335.941374 
L 605.390784 -331.975597 
L 604.085064 -326.311629 
L 602.779344 -341.200856 
L 601.473624 -331.154057 
L 600.167904 -330.70252 
L 598.862183 -339.016502 
L 597.556463 -341.365682 
L 596.250743 -337.50171 
L 594.945023 -336.75112 
L 593.639303 -337.691214 
L 592.333583 -338.373272 
L 591.027863 -341.654138 
L 589.722143 -328.742608 
L 588.416423 -331.739233 
L 587.110703 -335.610454 
L 585.804983 -331.827743 
L 584.499263 -334.633214 
L 583.193543 -339.351178 
L 581.887823 -333.460985 
L 580.582103 -329.81547 
L 579.276383 -340.446313 
L 577.970662 -336.909753 
L 576.664942 -333.087025 
L 575.359222 -340.384411 
L 574.053502 -335.380476 
L 572.747782 -343.803399 
L 571.442062 -339.295835 
L 570.136342 -329.61871 
L 568.830622 -325.612667 
L 567.524902 -338.143505 
L 566.219182 -342.038402 
L 564.913462 -332.473349 
L 563.607742 -330.262056 
L 562.302022 -337.096588 
L 560.996302 -338.805566 
L 559.690582 -340.036959 
L 558.384862 -331.897947 
L 557.079141 -340.380534 
L 555.773421 -328.182528 
L 554.467701 -340.505132 
L 553.161981 -320.999121 
L 551.856261 -340.939814 
L 550.550541 -341.55007 
L 549.244821 -332.727173 
L 547.939101 -343.622936 
L 546.633381 -345.119835 
L 545.327661 -345.407731 
L 544.021941 -338.367299 
L 542.716221 -336.840515 
L 541.410501 -335.352146 
L 540.104781 -332.922512 
L 538.799061 -345.992929 
L 537.493341 -338.03353 
L 536.18762 -331.573349 
L 534.8819 -334.480675 
L 533.57618 -341.712389 
L 532.27046 -346.30629 
L 530.96474 -339.233224 
L 529.65902 -343.369054 
L 528.3533 -345.544954 
L 527.04758 -334.903891 
L 525.74186 -336.282306 
L 524.43614 -340.341915 
L 523.13042 -334.085159 
L 521.8247 -335.015438 
L 520.51898 -328.5963 
L 519.21326 -336.573083 
L 517.90754 -336.042975 
L 516.60182 -328.759051 
L 515.296099 -335.2435 
L 513.990379 -348.626443 
L 512.684659 -339.357427 
L 511.378939 -344.365593 
L 510.073219 -346.773075 
L 508.767499 -337.305012 
L 507.461779 -343.884609 
L 506.156059 -342.779884 
L 504.850339 -336.241772 
L 503.544619 -335.179465 
L 502.238899 -350.875305 
L 500.933179 -343.650146 
L 499.627459 -338.155395 
L 498.321739 -332.472759 
L 497.016019 -350.676263 
L 495.710299 -338.719174 
L 494.404578 -348.419917 
L 493.098858 -345.418121 
L 491.793138 -332.75828 
L 490.487418 -343.799941 
L 489.181698 -339.558532 
L 487.875978 -344.389965 
L 486.570258 -351.54432 
L 485.264538 -337.032503 
L 483.958818 -333.540057 
L 482.653098 -339.468861 
L 481.347378 -344.53764 
L 480.041658 -346.95216 
L 478.735938 -345.484128 
L 477.430218 -337.726552 
L 476.124498 -345.221585 
L 474.818778 -346.478483 
L 473.513057 -342.420469 
L 472.207337 -348.93694 
L 470.901617 -355.002369 
L 469.595897 -352.658391 
L 468.290177 -345.930105 
L 466.984457 -340.027388 
L 465.678737 -350.261418 
L 464.373017 -346.952143 
L 463.067297 -343.064376 
L 461.761577 -347.825221 
L 460.455857 -342.791841 
L 459.150137 -359.858935 
L 457.844417 -349.588058 
L 456.538697 -352.19823 
L 455.232977 -350.313131 
L 453.927257 -362.399765 
L 452.621536 -346.574053 
L 451.315816 -351.107731 
L 450.010096 -351.981293 
L 448.704376 -352.5916 
L 447.398656 -348.891003 
L 446.092936 -355.417829 
L 444.787216 -349.19727 
L 443.481496 -357.445546 
L 442.175776 -353.501395 
L 440.870056 -359.02776 
L 439.564336 -350.599811 
L 438.258616 -349.634039 
L 436.952896 -357.602044 
L 435.647176 -362.6592 
L 434.341456 -355.517309 
L 433.035736 -357.109528 
L 431.730016 -350.76885 
L 430.424295 -351.044076 
L 429.118575 -353.064092 
L 427.812855 -357.78833 
L 426.507135 -354.062689 
L 425.201415 -352.661224 
L 423.895695 -365.277096 
L 422.589975 -358.854902 
L 421.284255 -361.431535 
L 419.978535 -345.891263 
L 418.672815 -362.022721 
L 417.367095 -347.438981 
L 416.061375 -362.713627 
L 414.755655 -352.614757 
L 413.449935 -359.747019 
L 412.144215 -355.265531 
L 410.838495 -366.677011 
L 409.532774 -359.282519 
L 408.227054 -368.129137 
L 406.921334 -352.547216 
L 405.615614 -360.628442 
L 404.309894 -351.709408 
L 403.004174 -357.911888 
L 401.698454 -365.190564 
L 400.392734 -363.502844 
L 399.087014 -354.395909 
L 397.781294 -362.514976 
L 396.475574 -358.25213 
L 395.169854 -358.142357 
L 393.864134 -367.234958 
L 392.558414 -358.207173 
L 391.252694 -365.550962 
L 389.946974 -372.628179 
L 388.641253 -375.583882 
L 387.335533 -371.201114 
L 386.029813 -362.543928 
L 384.724093 -372.348576 
L 383.418373 -359.733198 
L 382.112653 -369.487066 
L 380.806933 -367.56404 
L 379.501213 -366.218922 
L 378.195493 -376.529597 
L 376.889773 -382.718557 
L 375.584053 -369.601826 
L 374.278333 -375.9394 
L 372.972613 -367.91419 
L 371.666893 -374.407081 
L 370.361173 -368.249762 
L 369.055453 -364.88262 
L 367.749732 -366.621316 
L 366.444012 -378.266254 
L 365.138292 -365.603545 
L 363.832572 -376.552483 
L 362.526852 -369.072185 
L 361.221132 -365.336192 
L 359.915412 -385.634947 
L 358.609692 -377.279474 
L 357.303972 -383.039352 
L 355.998252 -376.151299 
L 354.692532 -369.568036 
L 353.386812 -378.162594 
L 352.081092 -377.869387 
L 350.775372 -376.26354 
L 349.469652 -383.646134 
L 348.163932 -387.113826 
L 346.858211 -381.894756 
L 345.552491 -387.426294 
L 344.246771 -375.638281 
L 342.941051 -383.586746 
L 341.635331 -384.81069 
L 340.329611 -377.642748 
L 339.023891 -396.825897 
L 337.718171 -403.493119 
L 336.412451 -393.582527 
L 335.106731 -396.972501 
L 333.801011 -390.856081 
L 332.495291 -385.514644 
L 331.189571 -399.384545 
L 329.883851 -393.530821 
L 328.578131 -401.453882 
L 327.272411 -387.843376 
L 325.96669 -391.485326 
L 324.66097 -396.247476 
L 323.35525 -395.832755 
L 322.04953 -389.391755 
L 320.74381 -402.043474 
L 319.43809 -401.166861 
L 318.13237 -401.111875 
L 316.82665 -391.672513 
L 315.52093 -398.980213 
L 314.21521 -413.998826 
L 312.90949 -403.771392 
L 311.60377 -402.84335 
L 310.29805 -410.322379 
L 308.99233 -406.135791 
L 307.68661 -413.347044 
L 306.38089 -407.528537 
L 305.075169 -421.651808 
L 303.769449 -407.380962 
L 302.463729 -405.74456 
L 301.158009 -409.685527 
L 299.852289 -406.940931 
L 298.546569 -418.951686 
L 297.240849 -398.631521 
L 295.935129 -418.411655 
L 294.629409 -421.005355 
L 293.323689 -415.262302 
L 292.017969 -402.447197 
L 290.712249 -417.012318 
L 289.406529 -406.315717 
L 288.100809 -402.900664 
L 286.795089 -406.356126 
L 285.489369 -420.194289 
L 284.183648 -407.562618 
L 282.877928 -398.3485 
L 281.572208 -414.091276 
L 280.266488 -418.919927 
L 278.960768 -419.031355 
L 277.655048 -411.481167 
L 276.349328 -422.474151 
L 275.043608 -402.411482 
L 273.737888 -421.650161 
L 272.432168 -414.735668 
L 271.126448 -426.92519 
L 269.820728 -426.133393 
L 268.515008 -425.553542 
L 267.209288 -423.153471 
L 265.903568 -418.499051 
L 264.597848 -405.601909 
L 263.292128 -428.63094 
L 261.986407 -427.010094 
L 260.680687 -417.001865 
L 259.374967 -425.131747 
L 258.069247 -424.665223 
L 256.763527 -432.090722 
L 255.457807 -428.218763 
L 254.152087 -426.222144 
L 252.846367 -427.207584 
L 251.540647 -434.882586 
L 250.234927 -421.922899 
L 248.929207 -417.453978 
L 247.623487 -417.543218 
L 246.317767 -431.881578 
L 245.012047 -410.509383 
L 243.706327 -420.241503 
L 242.400607 -421.378189 
L 241.094886 -436.309992 
L 239.789166 -428.493091 
L 238.483446 -425.698101 
L 237.177726 -430.428198 
L 235.872006 -422.933699 
L 234.566286 -454.470582 
L 233.260566 -435.892075 
L 231.954846 -431.34173 
L 230.649126 -426.282096 
L 229.343406 -437.800566 
L 228.037686 -432.128453 
L 226.731966 -453.433721 
L 225.426246 -421.332004 
L 224.120526 -438.744896 
L 222.814806 -445.725575 
L 221.509086 -435.29437 
L 220.203365 -426.140668 
L 218.897645 -427.999406 
L 217.591925 -416.874127 
L 216.286205 -445.156289 
L 214.980485 -430.080797 
L 213.674765 -441.635577 
L 212.369045 -430.354626 
L 211.063325 -440.940036 
L 209.757605 -441.531477 
L 208.451885 -463.345516 
L 207.146165 -441.124577 
L 205.840445 -442.622247 
L 204.534725 -433.063815 
L 203.229005 -441.241359 
L 201.923285 -449.669734 
L 200.617565 -455.809026 
L 199.311844 -440.629968 
L 198.006124 -455.27428 
L 196.700404 -458.777727 
L 195.394684 -444.549741 
L 194.088964 -427.410384 
L 192.783244 -461.883791 
L 191.477524 -445.241343 
L 190.171804 -454.908477 
L 188.866084 -451.788407 
L 187.560364 -463.264871 
L 186.254644 -440.191263 
L 184.948924 -437.592677 
L 183.643204 -430.090689 
L 182.337484 -438.631324 
L 181.031764 -449.062705 
L 179.726044 -455.528804 
L 178.420323 -441.330526 
L 177.114603 -444.349156 
L 175.808883 -453.57045 
L 174.503163 -449.155387 
L 173.197443 -440.223012 
L 171.891723 -472.131765 
L 170.586003 -443.033607 
L 169.280283 -461.307018 
L 167.974563 -450.954304 
L 166.668843 -446.536401 
L 165.363123 -448.356211 
L 164.057403 -471.803414 
L 162.751683 -447.904245 
L 161.445963 -458.002726 
L 160.140243 -453.354687 
L 158.834523 -451.893534 
L 157.528802 -452.863108 
L 156.223082 -463.25777 
L 154.917362 -446.470343 
L 153.611642 -442.484018 
L 152.305922 -462.989689 
L 151.000202 -471.467307 
L 149.694482 -466.993651 
L 148.388762 -461.281322 
L 147.083042 -456.052023 
L 145.777322 -460.289086 
L 144.471602 -466.04743 
L 143.165882 -466.569485 
L 141.860162 -471.461969 
L 140.554442 -472.132522 
L 139.248722 -451.679231 
L 137.943002 -464.843991 
L 136.637281 -461.415611 
L 135.331561 -470.549511 
L 134.025841 -464.030096 
L 132.720121 -466.641822 
L 131.414401 -464.639138 
L 130.108681 -462.618307 
L 128.802961 -468.726103 
L 127.497241 -483.976397 
L 126.191521 -482.722141 
L 124.885801 -475.308235 
L 123.580081 -463.895673 
L 122.274361 -482.829455 
L 120.968641 -463.237503 
L 119.662921 -471.464775 
L 118.357201 -457.816688 
L 117.051481 -469.006635 
L 115.74576 -503.552782 
L 114.44004 -488.660998 
L 113.13432 -481.408941 
L 111.8286 -472.499544 
L 110.52288 -486.232615 
L 109.21716 -485.836781 
L 107.91144 -490.528952 
L 106.60572 -491.212048 
L 105.3 -475.36791 
z
" id="m894512d23d" style="stroke:#ff0000;stroke-opacity:0.2;stroke-width:1.5;"/>
    </defs>
    <g clip-path="url(#p65e01ef5a3)">
     <use style="fill:#ff0000;fill-opacity:0.2;stroke:#ff0000;stroke-opacity:0.2;stroke-width:1.5;" x="0" xlink:href="#m894512d23d" y="595.44"/>
    </g>
   </g>
   <g id="line2d_16">
    <path clip-path="url(#p65e01ef5a3)" d="M 105.3 325.10274 
L 117.051481 329.184904 
L 123.580081 331.313877 
L 130.108681 333.15262 
L 140.554442 335.564588 
L 154.917362 339.059935 
L 174.503163 343.734889 
L 181.031764 345.194219 
L 188.866084 346.611031 
L 198.006124 347.877393 
L 213.674765 349.526375 
L 221.509086 350.048715 
L 251.540647 351.401264 
L 297.240849 353.861943 
L 303.769449 354.497327 
L 318.13237 356.299943 
L 333.801011 358.448362 
L 353.386812 361.08826 
L 363.832572 362.461262 
L 384.724093 365.348828 
L 399.087014 367.190492 
L 405.615614 367.677994 
L 423.895695 368.799649 
L 431.730016 369.36487 
L 457.844417 371.055238 
L 472.207337 371.982925 
L 485.264538 372.594585 
L 495.710299 372.83782 
L 516.60182 373.10848 
L 536.18762 373.239409 
L 557.079141 373.388787 
L 576.664942 373.248413 
L 589.722143 372.838671 
L 623.670865 371.447273 
L 645.868106 370.287207 
L 660.231026 369.694761 
L 671.982507 368.786939 
L 681.122547 368.186602 
L 687.651148 367.954344 
L 696.791188 367.905905 
L 718.988429 367.724535 
L 726.82275 367.576694 
L 733.35135 367.708399 
L 752.937151 368.246263 
L 756.854311 368.190024 
L 756.854311 368.190024 
" style="fill:none;stroke:#ff0000;stroke-linecap:round;stroke-width:2.25;"/>
   </g>
   <g id="patch_3">
    <path d="M 105.3 521.01 
L 105.3 71.4528 
" style="fill:none;stroke:#ffffff;stroke-linecap:square;stroke-linejoin:miter;stroke-width:1.875;"/>
   </g>
   <g id="patch_4">
    <path d="M 758.16 521.01 
L 758.16 71.4528 
" style="fill:none;stroke:#ffffff;stroke-linecap:square;stroke-linejoin:miter;stroke-width:1.875;"/>
   </g>
   <g id="patch_5">
    <path d="M 105.3 521.01 
L 758.16 521.01 
" style="fill:none;stroke:#ffffff;stroke-linecap:square;stroke-linejoin:miter;stroke-width:1.875;"/>
   </g>
   <g id="patch_6">
    <path d="M 105.3 71.4528 
L 758.16 71.4528 
" style="fill:none;stroke:#ffffff;stroke-linecap:square;stroke-linejoin:miter;stroke-width:1.875;"/>
   </g>
  </g>
 </g>
 <defs>
  <clipPath id="p65e01ef5a3">
   <rect height="449.5572" width="652.86" x="105.3" y="71.4528"/>
  </clipPath>
 </defs>
</svg>
