<?xml version="1.0" encoding="utf-8" standalone="no"?>
<!DOCTYPE svg PUBLIC "-//W3C//DTD SVG 1.1//EN"
  "http://www.w3.org/Graphics/SVG/1.1/DTD/svg11.dtd">
<!-- Created with matplotlib (https://matplotlib.org/) -->
<svg height="288pt" version="1.1" viewBox="0 0 432 288" width="432pt" xmlns="http://www.w3.org/2000/svg" xmlns:xlink="http://www.w3.org/1999/xlink">
 <defs>
  <style type="text/css">
*{stroke-linecap:butt;stroke-linejoin:round;}
  </style>
 </defs>
 <g id="figure_1">
  <g id="patch_1">
   <path d="M 0 288 
L 432 288 
L 432 0 
L 0 0 
z
" style="fill:#ffffff;"/>
  </g>
  <g id="axes_1">
   <g id="patch_2">
    <path d="M 54 252 
L 388.8 252 
L 388.8 34.56 
L 54 34.56 
z
" style="fill:#eaeaf2;"/>
   </g>
   <g id="matplotlib.axis_1">
    <g id="xtick_1">
     <g id="line2d_1">
      <path clip-path="url(#pcc7bebfa43)" d="M 69.218182 252 
L 69.218182 34.56 
" style="fill:none;stroke:#ffffff;stroke-linecap:round;"/>
     </g>
     <g id="text_1">
      <!-- 0 -->
      <defs>
       <path d="M 4.15625 35.296875 
Q 4.15625 48 6.765625 55.734375 
Q 9.375 63.484375 14.515625 67.671875 
Q 19.671875 71.875 27.484375 71.875 
Q 33.25 71.875 37.59375 69.546875 
Q 41.9375 67.234375 44.765625 62.859375 
Q 47.609375 58.5 49.21875 52.21875 
Q 50.828125 45.953125 50.828125 35.296875 
Q 50.828125 22.703125 48.234375 14.96875 
Q 45.65625 7.234375 40.5 3 
Q 35.359375 -1.21875 27.484375 -1.21875 
Q 17.140625 -1.21875 11.234375 6.203125 
Q 4.15625 15.140625 4.15625 35.296875 
z
M 13.1875 35.296875 
Q 13.1875 17.671875 17.3125 11.828125 
Q 21.4375 6 27.484375 6 
Q 33.546875 6 37.671875 11.859375 
Q 41.796875 17.71875 41.796875 35.296875 
Q 41.796875 52.984375 37.671875 58.78125 
Q 33.546875 64.59375 27.390625 64.59375 
Q 21.34375 64.59375 17.71875 59.46875 
Q 13.1875 52.9375 13.1875 35.296875 
z
" id="ArialMT-48"/>
      </defs>
      <g style="fill:#262626;" transform="translate(66.159666 269.373594)scale(0.11 -0.11)">
       <use xlink:href="#ArialMT-48"/>
      </g>
     </g>
    </g>
    <g id="xtick_2">
     <g id="line2d_2">
      <path clip-path="url(#pcc7bebfa43)" d="M 130.212896 252 
L 130.212896 34.56 
" style="fill:none;stroke:#ffffff;stroke-linecap:round;"/>
     </g>
     <g id="text_2">
      <!-- 1 -->
      <defs>
       <path d="M 37.25 0 
L 28.46875 0 
L 28.46875 56 
Q 25.296875 52.984375 20.140625 49.953125 
Q 14.984375 46.921875 10.890625 45.40625 
L 10.890625 53.90625 
Q 18.265625 57.375 23.78125 62.296875 
Q 29.296875 67.234375 31.59375 71.875 
L 37.25 71.875 
z
" id="ArialMT-49"/>
      </defs>
      <g style="fill:#262626;" transform="translate(127.15438 269.373594)scale(0.11 -0.11)">
       <use xlink:href="#ArialMT-49"/>
      </g>
     </g>
    </g>
    <g id="xtick_3">
     <g id="line2d_3">
      <path clip-path="url(#pcc7bebfa43)" d="M 191.207609 252 
L 191.207609 34.56 
" style="fill:none;stroke:#ffffff;stroke-linecap:round;"/>
     </g>
     <g id="text_3">
      <!-- 2 -->
      <defs>
       <path d="M 50.34375 8.453125 
L 50.34375 0 
L 3.03125 0 
Q 2.9375 3.171875 4.046875 6.109375 
Q 5.859375 10.9375 9.828125 15.625 
Q 13.8125 20.3125 21.34375 26.46875 
Q 33.015625 36.03125 37.109375 41.625 
Q 41.21875 47.21875 41.21875 52.203125 
Q 41.21875 57.421875 37.46875 61 
Q 33.734375 64.59375 27.734375 64.59375 
Q 21.390625 64.59375 17.578125 60.78125 
Q 13.765625 56.984375 13.71875 50.25 
L 4.6875 51.171875 
Q 5.609375 61.28125 11.65625 66.578125 
Q 17.71875 71.875 27.9375 71.875 
Q 38.234375 71.875 44.234375 66.15625 
Q 50.25 60.453125 50.25 52 
Q 50.25 47.703125 48.484375 43.546875 
Q 46.734375 39.40625 42.65625 34.8125 
Q 38.578125 30.21875 29.109375 22.21875 
Q 21.1875 15.578125 18.9375 13.203125 
Q 16.703125 10.84375 15.234375 8.453125 
z
" id="ArialMT-50"/>
      </defs>
      <g style="fill:#262626;" transform="translate(188.149094 269.373594)scale(0.11 -0.11)">
       <use xlink:href="#ArialMT-50"/>
      </g>
     </g>
    </g>
    <g id="xtick_4">
     <g id="line2d_4">
      <path clip-path="url(#pcc7bebfa43)" d="M 252.202323 252 
L 252.202323 34.56 
" style="fill:none;stroke:#ffffff;stroke-linecap:round;"/>
     </g>
     <g id="text_4">
      <!-- 3 -->
      <defs>
       <path d="M 4.203125 18.890625 
L 12.984375 20.0625 
Q 14.5 12.59375 18.140625 9.296875 
Q 21.78125 6 27 6 
Q 33.203125 6 37.46875 10.296875 
Q 41.75 14.59375 41.75 20.953125 
Q 41.75 27 37.796875 30.921875 
Q 33.84375 34.859375 27.734375 34.859375 
Q 25.25 34.859375 21.53125 33.890625 
L 22.515625 41.609375 
Q 23.390625 41.5 23.921875 41.5 
Q 29.546875 41.5 34.03125 44.421875 
Q 38.53125 47.359375 38.53125 53.46875 
Q 38.53125 58.296875 35.25 61.46875 
Q 31.984375 64.65625 26.8125 64.65625 
Q 21.6875 64.65625 18.265625 61.421875 
Q 14.84375 58.203125 13.875 51.765625 
L 5.078125 53.328125 
Q 6.6875 62.15625 12.390625 67.015625 
Q 18.109375 71.875 26.609375 71.875 
Q 32.46875 71.875 37.390625 69.359375 
Q 42.328125 66.84375 44.9375 62.5 
Q 47.5625 58.15625 47.5625 53.265625 
Q 47.5625 48.640625 45.0625 44.828125 
Q 42.578125 41.015625 37.703125 38.765625 
Q 44.046875 37.3125 47.5625 32.6875 
Q 51.078125 28.078125 51.078125 21.140625 
Q 51.078125 11.765625 44.234375 5.25 
Q 37.40625 -1.265625 26.953125 -1.265625 
Q 17.53125 -1.265625 11.296875 4.34375 
Q 5.078125 9.96875 4.203125 18.890625 
z
" id="ArialMT-51"/>
      </defs>
      <g style="fill:#262626;" transform="translate(249.143808 269.373594)scale(0.11 -0.11)">
       <use xlink:href="#ArialMT-51"/>
      </g>
     </g>
    </g>
    <g id="xtick_5">
     <g id="line2d_5">
      <path clip-path="url(#pcc7bebfa43)" d="M 313.197037 252 
L 313.197037 34.56 
" style="fill:none;stroke:#ffffff;stroke-linecap:round;"/>
     </g>
     <g id="text_5">
      <!-- 4 -->
      <defs>
       <path d="M 32.328125 0 
L 32.328125 17.140625 
L 1.265625 17.140625 
L 1.265625 25.203125 
L 33.9375 71.578125 
L 41.109375 71.578125 
L 41.109375 25.203125 
L 50.78125 25.203125 
L 50.78125 17.140625 
L 41.109375 17.140625 
L 41.109375 0 
z
M 32.328125 25.203125 
L 32.328125 57.46875 
L 9.90625 25.203125 
z
" id="ArialMT-52"/>
      </defs>
      <g style="fill:#262626;" transform="translate(310.138521 269.373594)scale(0.11 -0.11)">
       <use xlink:href="#ArialMT-52"/>
      </g>
     </g>
    </g>
    <g id="xtick_6">
     <g id="line2d_6">
      <path clip-path="url(#pcc7bebfa43)" d="M 374.191751 252 
L 374.191751 34.56 
" style="fill:none;stroke:#ffffff;stroke-linecap:round;"/>
     </g>
     <g id="text_6">
      <!-- 5 -->
      <defs>
       <path d="M 4.15625 18.75 
L 13.375 19.53125 
Q 14.40625 12.796875 18.140625 9.390625 
Q 21.875 6 27.15625 6 
Q 33.5 6 37.890625 10.78125 
Q 42.28125 15.578125 42.28125 23.484375 
Q 42.28125 31 38.0625 35.34375 
Q 33.84375 39.703125 27 39.703125 
Q 22.75 39.703125 19.328125 37.765625 
Q 15.921875 35.84375 13.96875 32.765625 
L 5.71875 33.84375 
L 12.640625 70.609375 
L 48.25 70.609375 
L 48.25 62.203125 
L 19.671875 62.203125 
L 15.828125 42.96875 
Q 22.265625 47.46875 29.34375 47.46875 
Q 38.71875 47.46875 45.15625 40.96875 
Q 51.609375 34.46875 51.609375 24.265625 
Q 51.609375 14.546875 45.953125 7.46875 
Q 39.0625 -1.21875 27.15625 -1.21875 
Q 17.390625 -1.21875 11.203125 4.25 
Q 5.03125 9.71875 4.15625 18.75 
z
" id="ArialMT-53"/>
      </defs>
      <g style="fill:#262626;" transform="translate(371.133235 269.373594)scale(0.11 -0.11)">
       <use xlink:href="#ArialMT-53"/>
      </g>
     </g>
    </g>
    <g id="text_7">
     <!-- t [s] -->
     <defs>
      <path d="M 25.78125 7.859375 
L 27.046875 0.09375 
Q 23.34375 -0.6875 20.40625 -0.6875 
Q 15.625 -0.6875 12.984375 0.828125 
Q 10.359375 2.34375 9.28125 4.8125 
Q 8.203125 7.28125 8.203125 15.1875 
L 8.203125 45.015625 
L 1.765625 45.015625 
L 1.765625 51.859375 
L 8.203125 51.859375 
L 8.203125 64.703125 
L 16.9375 69.96875 
L 16.9375 51.859375 
L 25.78125 51.859375 
L 25.78125 45.015625 
L 16.9375 45.015625 
L 16.9375 14.703125 
Q 16.9375 10.9375 17.40625 9.859375 
Q 17.875 8.796875 18.921875 8.15625 
Q 19.96875 7.515625 21.921875 7.515625 
Q 23.390625 7.515625 25.78125 7.859375 
z
" id="ArialMT-116"/>
      <path id="ArialMT-32"/>
      <path d="M 6.78125 -19.875 
L 6.78125 71.578125 
L 26.171875 71.578125 
L 26.171875 64.3125 
L 15.578125 64.3125 
L 15.578125 -12.59375 
L 26.171875 -12.59375 
L 26.171875 -19.875 
z
" id="ArialMT-91"/>
      <path d="M 3.078125 15.484375 
L 11.765625 16.84375 
Q 12.5 11.625 15.84375 8.84375 
Q 19.1875 6.0625 25.203125 6.0625 
Q 31.25 6.0625 34.171875 8.515625 
Q 37.109375 10.984375 37.109375 14.3125 
Q 37.109375 17.28125 34.515625 19 
Q 32.71875 20.171875 25.53125 21.96875 
Q 15.875 24.421875 12.140625 26.203125 
Q 8.40625 27.984375 6.46875 31.125 
Q 4.546875 34.28125 4.546875 38.09375 
Q 4.546875 41.546875 6.125 44.5 
Q 7.71875 47.46875 10.453125 49.421875 
Q 12.5 50.921875 16.03125 51.96875 
Q 19.578125 53.03125 23.640625 53.03125 
Q 29.734375 53.03125 34.34375 51.265625 
Q 38.96875 49.515625 41.15625 46.5 
Q 43.359375 43.5 44.1875 38.484375 
L 35.59375 37.3125 
Q 35.015625 41.3125 32.203125 43.546875 
Q 29.390625 45.796875 24.265625 45.796875 
Q 18.21875 45.796875 15.625 43.796875 
Q 13.03125 41.796875 13.03125 39.109375 
Q 13.03125 37.40625 14.109375 36.03125 
Q 15.1875 34.625 17.484375 33.6875 
Q 18.796875 33.203125 25.25 31.453125 
Q 34.578125 28.953125 38.25 27.359375 
Q 41.9375 25.78125 44.03125 22.75 
Q 46.140625 19.734375 46.140625 15.234375 
Q 46.140625 10.84375 43.578125 6.953125 
Q 41.015625 3.078125 36.171875 0.953125 
Q 31.34375 -1.171875 25.25 -1.171875 
Q 15.140625 -1.171875 9.84375 3.03125 
Q 4.546875 7.234375 3.078125 15.484375 
z
" id="ArialMT-115"/>
      <path d="M 21.296875 -19.875 
L 1.90625 -19.875 
L 1.90625 -12.59375 
L 12.5 -12.59375 
L 12.5 64.3125 
L 1.90625 64.3125 
L 1.90625 71.578125 
L 21.296875 71.578125 
z
" id="ArialMT-93"/>
     </defs>
     <g style="fill:#262626;" transform="translate(211.7325 284.149219)scale(0.12 -0.12)">
      <use xlink:href="#ArialMT-116"/>
      <use x="27.783203" xlink:href="#ArialMT-32"/>
      <use x="55.566406" xlink:href="#ArialMT-91"/>
      <use x="83.349609" xlink:href="#ArialMT-115"/>
      <use x="133.349609" xlink:href="#ArialMT-93"/>
     </g>
    </g>
   </g>
   <g id="matplotlib.axis_2">
    <g id="ytick_1">
     <g id="line2d_7">
      <path clip-path="url(#pcc7bebfa43)" d="M 54 249.223954 
L 388.8 249.223954 
" style="fill:none;stroke:#ffffff;stroke-linecap:round;"/>
     </g>
     <g id="text_8">
      <!-- −3.0 -->
      <defs>
       <path d="M 52.828125 31.203125 
L 5.5625 31.203125 
L 5.5625 39.40625 
L 52.828125 39.40625 
z
" id="ArialMT-8722"/>
       <path d="M 9.078125 0 
L 9.078125 10.015625 
L 19.09375 10.015625 
L 19.09375 0 
z
" id="ArialMT-46"/>
      </defs>
      <g style="fill:#262626;" transform="translate(22.785312 253.160751)scale(0.11 -0.11)">
       <use xlink:href="#ArialMT-8722"/>
       <use x="58.398438" xlink:href="#ArialMT-51"/>
       <use x="114.013672" xlink:href="#ArialMT-46"/>
       <use x="141.796875" xlink:href="#ArialMT-48"/>
      </g>
     </g>
    </g>
    <g id="ytick_2">
     <g id="line2d_8">
      <path clip-path="url(#pcc7bebfa43)" d="M 54 222.220179 
L 388.8 222.220179 
" style="fill:none;stroke:#ffffff;stroke-linecap:round;"/>
     </g>
     <g id="text_9">
      <!-- −2.5 -->
      <g style="fill:#262626;" transform="translate(22.785312 226.156976)scale(0.11 -0.11)">
       <use xlink:href="#ArialMT-8722"/>
       <use x="58.398438" xlink:href="#ArialMT-50"/>
       <use x="114.013672" xlink:href="#ArialMT-46"/>
       <use x="141.796875" xlink:href="#ArialMT-53"/>
      </g>
     </g>
    </g>
    <g id="ytick_3">
     <g id="line2d_9">
      <path clip-path="url(#pcc7bebfa43)" d="M 54 195.216404 
L 388.8 195.216404 
" style="fill:none;stroke:#ffffff;stroke-linecap:round;"/>
     </g>
     <g id="text_10">
      <!-- −2.0 -->
      <g style="fill:#262626;" transform="translate(22.785312 199.153201)scale(0.11 -0.11)">
       <use xlink:href="#ArialMT-8722"/>
       <use x="58.398438" xlink:href="#ArialMT-50"/>
       <use x="114.013672" xlink:href="#ArialMT-46"/>
       <use x="141.796875" xlink:href="#ArialMT-48"/>
      </g>
     </g>
    </g>
    <g id="ytick_4">
     <g id="line2d_10">
      <path clip-path="url(#pcc7bebfa43)" d="M 54 168.212628 
L 388.8 168.212628 
" style="fill:none;stroke:#ffffff;stroke-linecap:round;"/>
     </g>
     <g id="text_11">
      <!-- −1.5 -->
      <g style="fill:#262626;" transform="translate(22.785312 172.149425)scale(0.11 -0.11)">
       <use xlink:href="#ArialMT-8722"/>
       <use x="58.398438" xlink:href="#ArialMT-49"/>
       <use x="114.013672" xlink:href="#ArialMT-46"/>
       <use x="141.796875" xlink:href="#ArialMT-53"/>
      </g>
     </g>
    </g>
    <g id="ytick_5">
     <g id="line2d_11">
      <path clip-path="url(#pcc7bebfa43)" d="M 54 141.208853 
L 388.8 141.208853 
" style="fill:none;stroke:#ffffff;stroke-linecap:round;"/>
     </g>
     <g id="text_12">
      <!-- −1.0 -->
      <g style="fill:#262626;" transform="translate(22.785312 145.14565)scale(0.11 -0.11)">
       <use xlink:href="#ArialMT-8722"/>
       <use x="58.398438" xlink:href="#ArialMT-49"/>
       <use x="114.013672" xlink:href="#ArialMT-46"/>
       <use x="141.796875" xlink:href="#ArialMT-48"/>
      </g>
     </g>
    </g>
    <g id="ytick_6">
     <g id="line2d_12">
      <path clip-path="url(#pcc7bebfa43)" d="M 54 114.205078 
L 388.8 114.205078 
" style="fill:none;stroke:#ffffff;stroke-linecap:round;"/>
     </g>
     <g id="text_13">
      <!-- −0.5 -->
      <g style="fill:#262626;" transform="translate(22.785312 118.141875)scale(0.11 -0.11)">
       <use xlink:href="#ArialMT-8722"/>
       <use x="58.398438" xlink:href="#ArialMT-48"/>
       <use x="114.013672" xlink:href="#ArialMT-46"/>
       <use x="141.796875" xlink:href="#ArialMT-53"/>
      </g>
     </g>
    </g>
    <g id="ytick_7">
     <g id="line2d_13">
      <path clip-path="url(#pcc7bebfa43)" d="M 54 87.201302 
L 388.8 87.201302 
" style="fill:none;stroke:#ffffff;stroke-linecap:round;"/>
     </g>
     <g id="text_14">
      <!-- 0.0 -->
      <g style="fill:#262626;" transform="translate(29.21 91.138099)scale(0.11 -0.11)">
       <use xlink:href="#ArialMT-48"/>
       <use x="55.615234" xlink:href="#ArialMT-46"/>
       <use x="83.398438" xlink:href="#ArialMT-48"/>
      </g>
     </g>
    </g>
    <g id="ytick_8">
     <g id="line2d_14">
      <path clip-path="url(#pcc7bebfa43)" d="M 54 60.197527 
L 388.8 60.197527 
" style="fill:none;stroke:#ffffff;stroke-linecap:round;"/>
     </g>
     <g id="text_15">
      <!-- 0.5 -->
      <g style="fill:#262626;" transform="translate(29.21 64.134324)scale(0.11 -0.11)">
       <use xlink:href="#ArialMT-48"/>
       <use x="55.615234" xlink:href="#ArialMT-46"/>
       <use x="83.398438" xlink:href="#ArialMT-53"/>
      </g>
     </g>
    </g>
    <g id="text_16">
     <!-- $\psi(p_1)$ -->
     <defs>
      <path d="M 24.859375 -1.21875 
Q 13.921875 0.59375 9.625 5.328125 
Q 4.34375 11.140625 6.640625 23 
L 12.796875 54.6875 
L 21.875 54.6875 
L 15.765625 23.34375 
Q 14.0625 14.40625 17.484375 10.6875 
Q 20.515625 7.46875 26.421875 6.78125 
L 35.6875 54.6875 
L 44.625 54.6875 
L 35.359375 6.84375 
Q 41.890625 7.515625 45.75 10.75 
Q 50.734375 14.84375 52.390625 23.390625 
L 58.453125 54.6875 
L 67.53125 54.6875 
L 61.375 23.046875 
Q 58.984375 10.75 51.5625 5.375 
Q 44.875 0.53125 33.796875 -1.171875 
L 29.984375 -20.796875 
L 21.046875 -20.796875 
z
" id="DejaVuSans-Oblique-968"/>
      <path d="M 31 75.875 
Q 24.46875 64.65625 21.28125 53.65625 
Q 18.109375 42.671875 18.109375 31.390625 
Q 18.109375 20.125 21.3125 9.0625 
Q 24.515625 -2 31 -13.1875 
L 23.1875 -13.1875 
Q 15.875 -1.703125 12.234375 9.375 
Q 8.59375 20.453125 8.59375 31.390625 
Q 8.59375 42.28125 12.203125 53.3125 
Q 15.828125 64.359375 23.1875 75.875 
z
" id="DejaVuSans-40"/>
      <path d="M 49.609375 33.6875 
Q 49.609375 40.875 46.484375 44.671875 
Q 43.359375 48.484375 37.5 48.484375 
Q 33.5 48.484375 29.859375 46.4375 
Q 26.21875 44.390625 23.390625 40.484375 
Q 20.609375 36.625 18.9375 31.15625 
Q 17.28125 25.6875 17.28125 20.3125 
Q 17.28125 13.484375 20.40625 9.796875 
Q 23.53125 6.109375 29.296875 6.109375 
Q 33.546875 6.109375 37.1875 8.109375 
Q 40.828125 10.109375 43.40625 13.921875 
Q 46.1875 17.921875 47.890625 23.34375 
Q 49.609375 28.765625 49.609375 33.6875 
z
M 21.78125 46.390625 
Q 25.390625 51.125 30.296875 53.5625 
Q 35.203125 56 41.21875 56 
Q 49.609375 56 54.25 50.5 
Q 58.890625 45.015625 58.890625 35.109375 
Q 58.890625 27 56 19.65625 
Q 53.125 12.3125 47.703125 6.5 
Q 44.09375 2.640625 39.546875 0.609375 
Q 35.015625 -1.421875 29.984375 -1.421875 
Q 24.171875 -1.421875 20.21875 1 
Q 16.265625 3.421875 14.3125 8.203125 
L 8.6875 -20.796875 
L -0.296875 -20.796875 
L 14.40625 54.6875 
L 23.390625 54.6875 
z
" id="DejaVuSans-Oblique-112"/>
      <path d="M 12.40625 8.296875 
L 28.515625 8.296875 
L 28.515625 63.921875 
L 10.984375 60.40625 
L 10.984375 69.390625 
L 28.421875 72.90625 
L 38.28125 72.90625 
L 38.28125 8.296875 
L 54.390625 8.296875 
L 54.390625 0 
L 12.40625 0 
z
" id="DejaVuSans-49"/>
      <path d="M 8.015625 75.875 
L 15.828125 75.875 
Q 23.140625 64.359375 26.78125 53.3125 
Q 30.421875 42.28125 30.421875 31.390625 
Q 30.421875 20.453125 26.78125 9.375 
Q 23.140625 -1.703125 15.828125 -13.1875 
L 8.015625 -13.1875 
Q 14.5 -2 17.703125 9.0625 
Q 20.90625 20.125 20.90625 31.390625 
Q 20.90625 42.671875 17.703125 53.65625 
Q 14.5 64.65625 8.015625 75.875 
z
" id="DejaVuSans-41"/>
     </defs>
     <g style="fill:#262626;" transform="translate(16.265313 158.58)rotate(-90)scale(0.12 -0.12)">
      <use transform="translate(0 0.125)" xlink:href="#DejaVuSans-Oblique-968"/>
      <use transform="translate(65.966797 0.125)" xlink:href="#DejaVuSans-40"/>
      <use transform="translate(104.980469 0.125)" xlink:href="#DejaVuSans-Oblique-112"/>
      <use transform="translate(168.457031 -16.28125)scale(0.7)" xlink:href="#DejaVuSans-49"/>
      <use transform="translate(215.727539 0.125)" xlink:href="#DejaVuSans-41"/>
     </g>
    </g>
   </g>
   <g id="line2d_15">
    <path clip-path="url(#pcc7bebfa43)" d="M 69.218182 44.443636 
L 74.097759 45.002538 
L 78.367389 45.735089 
L 80.807178 45.726773 
L 82.027072 45.89941 
L 83.246967 46.259448 
L 84.466861 46.900497 
L 85.686755 47.796168 
L 86.296702 48.64193 
L 86.90665 49.970861 
L 87.516597 51.787639 
L 88.126544 55.036942 
L 88.736491 59.389177 
L 89.346438 65.145791 
L 89.956385 72.753852 
L 90.566333 82.242177 
L 93.616069 143.446592 
L 94.226016 152.301027 
L 94.835963 157.475151 
L 95.44591 158.585871 
L 96.055857 156.862359 
L 97.275752 150.928904 
L 97.885699 148.698538 
L 99.105593 146.154284 
L 99.71554 145.096247 
L 102.765276 141.591871 
L 103.375223 141.667015 
L 105.205065 143.022378 
L 105.815012 143.578022 
L 107.034906 145.620704 
L 107.644853 147.110638 
L 108.864748 151.070144 
L 109.474695 153.896592 
L 110.084642 158.922841 
L 110.694589 166.69224 
L 111.304536 177.409157 
L 113.744325 229.397667 
L 114.354272 238.12119 
L 114.964219 242.116364 
L 115.574167 240.796528 
L 116.184114 234.255888 
L 117.404008 177.589193 
L 118.013955 163.665026 
L 119.23385 144.425414 
L 119.843797 140.151394 
L 120.453744 136.715626 
L 121.063691 134.549417 
L 122.283585 128.949765 
L 122.893533 127.336649 
L 123.50348 124.72482 
L 126.553216 107.833998 
L 128.383057 100.694286 
L 130.212899 94.034994 
L 131.432793 88.708156 
L 132.652687 83.453543 
L 133.262634 81.590183 
L 133.872582 80.161549 
L 134.482529 79.385813 
L 135.092476 79.315588 
L 135.702423 79.796622 
L 136.31237 80.701015 
L 136.922317 81.916419 
L 138.142212 85.111664 
L 141.191948 94.052341 
L 141.801895 94.946528 
L 142.411842 95.206694 
L 143.021789 94.980452 
L 143.631736 94.212952 
L 144.851631 91.525704 
L 146.681472 87.622614 
L 147.291419 86.672601 
L 148.511314 85.302394 
L 149.731208 84.299828 
L 150.341155 84.067688 
L 151.561049 84.044778 
L 152.170997 84.298519 
L 152.780944 84.768428 
L 154.000838 86.140387 
L 157.660521 90.665284 
L 158.270468 91.16709 
L 158.880415 91.249511 
L 160.10031 90.845367 
L 160.710257 90.445571 
L 161.320204 89.717926 
L 162.540098 87.624936 
L 163.759993 84.499842 
L 164.36994 83.446292 
L 164.979887 83.058374 
L 165.589834 83.214273 
L 166.199781 83.942658 
L 167.419676 86.11909 
L 169.859464 90.836206 
L 172.299253 96.67854 
L 172.9092 97.933264 
L 173.519147 98.735902 
L 174.129095 99.287329 
L 174.739042 99.49678 
L 175.348989 99.224304 
L 175.958936 98.779535 
L 176.568883 98.099435 
L 178.398725 96.662422 
L 179.618619 95.469307 
L 180.838513 94.737107 
L 181.448461 94.167887 
L 182.058408 93.967297 
L 182.668355 94.499682 
L 183.278302 95.61194 
L 183.888249 96.961538 
L 185.718091 102.284408 
L 186.937985 104.843782 
L 187.547932 105.739211 
L 188.157879 106.354696 
L 188.767827 107.204832 
L 191.207615 111.976141 
L 192.42751 113.41199 
L 193.037457 113.818829 
L 193.647404 113.602341 
L 194.257351 113.054424 
L 194.867298 111.938458 
L 196.087193 108.646291 
L 196.69714 107.391942 
L 198.526981 104.797548 
L 199.136928 104.03761 
L 199.746876 103.999293 
L 200.356823 104.30715 
L 200.96677 105.296918 
L 201.576717 107.004685 
L 206.456294 127.169556 
L 207.676189 132.918377 
L 208.286136 134.505949 
L 208.896083 135.198985 
L 209.50603 135.258775 
L 210.115977 134.491455 
L 211.335872 131.987365 
L 213.77566 128.475287 
L 214.385608 127.872361 
L 214.995555 127.568938 
L 215.605502 127.795556 
L 216.215449 128.355716 
L 218.045291 130.9804 
L 219.875132 135.521177 
L 220.485079 136.209961 
L 221.095026 135.681088 
L 221.704974 134.20065 
L 222.314921 131.769145 
L 223.534815 124.938669 
L 225.974604 110.861761 
L 226.584551 108.162345 
L 227.804445 104.170279 
L 228.414392 103.045228 
L 229.02434 102.569379 
L 229.634287 102.745451 
L 230.244234 103.192027 
L 230.854181 104.056318 
L 231.464128 105.406822 
L 232.074075 107.110015 
L 233.29397 111.42298 
L 234.513864 117.876952 
L 235.123811 121.487974 
L 236.953653 134.078968 
L 237.5636 136.751306 
L 238.173547 137.851618 
L 238.783494 136.923842 
L 239.393441 134.049958 
L 240.003389 129.601741 
L 242.443177 106.040442 
L 243.053124 101.40137 
L 243.663072 97.628676 
L 244.273019 95.118633 
L 244.882966 93.974098 
L 245.492913 93.639008 
L 246.10286 95.444083 
L 246.712807 98.738979 
L 247.322755 103.929836 
L 248.542649 118.73482 
L 249.762543 133.75167 
L 250.37249 139.327384 
L 250.982438 143.063353 
L 251.592385 145.594705 
L 252.202332 146.076533 
L 252.812279 144.116342 
L 253.422226 140.978128 
L 254.642121 133.451315 
L 255.252068 130.312517 
L 255.862015 127.95554 
L 256.471962 126.611183 
L 257.081909 125.715155 
L 257.691856 125.58947 
L 258.301804 125.949234 
L 261.961487 131.814096 
L 262.571434 132.225449 
L 263.181381 132.348214 
L 263.791328 132.589557 
L 264.401275 132.441324 
L 265.62117 131.780853 
L 266.231117 131.674651 
L 267.451011 132.04894 
L 268.060958 132.433273 
L 268.670905 133.142371 
L 269.280853 133.65411 
L 271.720641 133.796712 
L 272.330588 133.479938 
L 272.940536 133.380156 
L 274.16043 133.353997 
L 274.770377 133.203543 
L 275.380324 133.242649 
L 275.990271 133.593055 
L 276.600219 133.776534 
L 277.820113 133.643996 
L 278.43006 133.575103 
L 279.040007 133.199282 
L 284.529532 127.716977 
L 285.139479 127.469054 
L 285.749426 127.50839 
L 286.359373 127.279879 
L 286.96932 127.222317 
L 287.579268 126.915132 
L 288.189215 126.986946 
L 288.799162 126.902551 
L 289.409109 126.455272 
L 290.019056 126.206948 
L 290.629003 125.711724 
L 291.238951 125.534507 
L 294.288686 122.746556 
L 295.508581 120.153501 
L 296.728475 118.252082 
L 299.778211 115.862728 
L 300.388158 115.644008 
L 301.608052 115.652535 
L 302.218 116.169231 
L 302.827947 116.488033 
L 303.437894 117.906695 
L 305.877683 125.156303 
L 306.48763 126.568237 
L 307.097577 127.41606 
L 307.707524 127.998137 
L 308.317471 128.134294 
L 309.537366 124.393065 
L 310.147313 121.191999 
L 311.977154 108.988597 
L 312.587101 106.027171 
L 313.197049 103.873554 
L 313.806996 102.504705 
L 314.416943 102.421958 
L 315.02689 104.12549 
L 315.636837 107.355958 
L 317.466679 119.7921 
L 318.076626 122.408926 
L 319.29652 126.596185 
L 319.906467 129.086326 
L 320.516415 132.123992 
L 322.346256 144.970307 
L 322.956203 149.363667 
L 323.56615 152.469749 
L 324.786045 156.777201 
L 325.395992 158.199935 
L 326.005939 159.119008 
L 326.615886 163.549953 
L 327.225833 166.786769 
L 327.835781 173.976422 
L 328.445728 185.371251 
L 329.055675 191.889999 
L 329.665622 193.620186 
L 330.275569 191.052139 
L 330.885516 184.851338 
L 334.545199 132.062302 
L 335.765094 120.006837 
L 336.375041 115.56852 
L 336.984988 112.273518 
L 337.594935 109.982567 
L 338.204882 108.726431 
L 338.81483 108.339586 
L 339.424777 108.802962 
L 340.034724 110.314265 
L 341.254618 114.830464 
L 343.08446 122.198516 
L 343.694407 123.586691 
L 344.304354 124.203477 
L 344.914301 124.368533 
L 345.524248 123.903341 
L 346.134196 123.121406 
L 347.35409 120.613994 
L 348.573984 119.222761 
L 349.793879 120.075644 
L 350.403826 120.103124 
L 351.62372 119.475307 
L 352.233667 119.917318 
L 352.843615 120.631645 
L 354.063509 121.395302 
L 355.283403 122.070481 
L 355.89335 121.712787 
L 357.113245 118.460474 
L 357.723192 117.676725 
L 358.943086 116.855205 
L 360.162981 115.506671 
L 360.772928 114.125744 
L 361.992822 110.130229 
L 362.602769 110.092096 
L 363.212716 110.167815 
L 363.822664 109.947749 
L 366.262452 108.2309 
L 366.872399 108.095257 
L 367.482347 108.080306 
L 368.092294 107.86035 
L 369.312188 107.12352 
L 369.922135 107.206358 
L 370.532082 107.077562 
L 371.14203 106.357232 
L 373.581818 102.473234 
L 373.581818 102.473234 
" style="fill:none;stroke:#4c72b0;stroke-linecap:round;stroke-width:1.5;"/>
   </g>
   <g id="patch_3">
    <path d="M 54 252 
L 54 34.56 
" style="fill:none;stroke:#ffffff;stroke-linecap:square;stroke-linejoin:miter;stroke-width:1.25;"/>
   </g>
   <g id="patch_4">
    <path d="M 388.8 252 
L 388.8 34.56 
" style="fill:none;stroke:#ffffff;stroke-linecap:square;stroke-linejoin:miter;stroke-width:1.25;"/>
   </g>
   <g id="patch_5">
    <path d="M 54 252 
L 388.8 252 
" style="fill:none;stroke:#ffffff;stroke-linecap:square;stroke-linejoin:miter;stroke-width:1.25;"/>
   </g>
   <g id="patch_6">
    <path d="M 54 34.56 
L 388.8 34.56 
" style="fill:none;stroke:#ffffff;stroke-linecap:square;stroke-linejoin:miter;stroke-width:1.25;"/>
   </g>
  </g>
 </g>
 <defs>
  <clipPath id="pcc7bebfa43">
   <rect height="217.44" width="334.8" x="54" y="34.56"/>
  </clipPath>
 </defs>
</svg>
